M48
; DRILL file {KiCad 9.0.6} date 2026-04-13T23:50:19+0200
; FORMAT={-:-/ absolute / metric / decimal}
; #@! TF.CreationDate,2026-04-13T23:50:19+02:00
; #@! TF.GenerationSoftware,Kicad,Pcbnew,9.0.6
; #@! TF.FileFunction,Plated,1,4,PTH
FMAT,2
METRIC
; #@! TA.AperFunction,Plated,PTH,ComponentDrill
T1C0.200
; #@! TA.AperFunction,Plated,PTH,ViaDrill
T2C0.300
; #@! TA.AperFunction,Plated,PTH,ViaDrill
T3C0.500
; #@! TA.AperFunction,Plated,PTH,ComponentDrill
T4C0.600
; #@! TA.AperFunction,Plated,PTH,ComponentDrill
T5C0.800
; #@! TA.AperFunction,Plated,PTH,ComponentDrill
T6C1.000
; #@! TA.AperFunction,Plated,PTH,ComponentDrill
T7C1.150
; #@! TA.AperFunction,Plated,PTH,ComponentDrill
T8C1.200
; #@! TA.AperFunction,Plated,PTH,ComponentDrill
T9C1.300
; #@! TA.AperFunction,Plated,PTH,ComponentDrill
T10C1.350
; #@! TA.AperFunction,Plated,PTH,ComponentDrill
T11C1.500
%
G90
G05
T1
X88.849Y17.921
X88.849Y16.821
X89.399Y18.471
X89.399Y17.371
X89.399Y16.271
X89.949Y17.921
X89.949Y16.821
X90.499Y18.471
X90.499Y17.371
X90.499Y16.271
X91.049Y17.921
X91.049Y16.821
T2
X0.559Y11.887
X0.559Y9.855
X0.559Y7.315
X0.559Y4.775
X0.559Y2.235
X1.041Y0.991
X2.591Y11.887
X2.591Y7.315
X2.591Y0.559
X2.616Y3.505
X5.131Y11.887
X5.131Y7.315
X5.131Y3.505
X5.131Y0.559
X7.671Y11.887
X7.671Y7.315
X7.671Y3.505
X7.671Y0.559
X10.211Y11.887
X10.211Y7.315
X10.211Y3.505
X10.211Y0.559
X12.751Y11.887
X12.751Y0.559
X13.233Y4.877
X13.64Y7.01
X14.427Y8.331
X15.291Y11.887
X15.291Y5.436
X15.291Y2.743
X15.291Y0.559
X17.831Y11.887
X17.831Y5.131
X17.831Y2.743
X17.831Y0.559
X20.371Y11.887
X20.371Y5.131
X20.371Y2.743
X20.371Y0.559
X22.403Y11.887
X22.911Y5.131
X22.911Y2.718
X22.911Y0.559
X24.943Y11.887
X25.451Y5.131
X25.451Y2.718
X25.451Y0.559
X27.483Y11.887
X27.991Y0.559
X30.023Y11.887
X30.556Y0.559
X30.81Y6.147
X32.563Y11.887
X32.868Y4.75
X32.868Y3.124
X32.868Y1.626
X32.954Y7.275
X33.071Y8.28
X33.325Y0.559
X33.767Y1.204
X33.782Y5.385
X34.569Y6.096
X34.773Y4.089
X34.773Y3.226
X35.611Y0.559
X35.712Y4.978
X35.763Y3.226
X36.068Y11.887
X36.764Y1.204
X36.83Y6.096
X37.541Y11.887
X37.755Y1.204
X38.1Y4.826
X38.151Y0.559
X38.568Y9.18
X39.421Y11.887
X39.522Y3.277
X39.827Y6.655
X40.691Y0.559
X41.123Y8.128
X41.224Y5.309
X41.453Y3.277
X42.393Y6.655
X43.231Y0.559
X43.612Y10.516
X43.79Y1.448
X45.771Y15.951
X45.771Y8.56
X45.771Y6.045
X45.771Y3.251
X45.771Y0.559
X47.549Y8.56
X47.549Y6.045
X48.311Y15.951
X48.311Y0.559
X49.581Y11.125
X50.851Y0.559
X51.206Y7.62
X51.613Y4.242
X52.883Y11.1
X53.391Y15.951
X53.391Y0.559
X53.442Y5.817
X53.823Y7.341
X55.931Y15.951
X55.931Y12.395
X55.956Y0.559
X57.455Y7.315
X57.48Y3.251
X58.471Y15.951
X58.471Y12.395
X58.471Y0.559
X59.741Y7.315
X59.741Y3.251
X61.011Y15.951
X61.011Y12.395
X61.011Y0.559
X62.509Y8.28
X63.343Y4.47
X63.348Y3.658
X63.551Y15.951
X63.551Y0.559
X64.211Y4.47
X64.795Y10.77
X65.583Y24.714
X65.583Y22.555
X65.583Y20.015
X65.583Y17.475
X65.583Y15.951
X65.837Y8.255
X66.091Y25.679
X66.091Y0.584
X66.802Y12.573
X67.056Y3.505
X67.285Y21.285
X67.285Y18.745
X67.31Y23.495
X68.631Y25.679
X68.631Y0.584
X68.707Y14.351
X69.393Y11.328
X69.647Y20.955
X69.799Y5.486
X69.85Y10.363
X70.028Y2.134
X70.053Y9.093
X70.053Y3.81
X70.891Y16.485
X71.171Y25.705
X71.171Y0.584
X71.577Y5.486
X71.679Y14.326
X71.73Y9.5
X72.136Y20.955
X72.542Y3.81
X72.568Y2.134
X72.659Y16.174
X72.695Y11.379
X72.949Y9.343
X73.539Y16.174
X73.711Y25.705
X73.711Y0.559
X73.863Y5.486
X74.219Y9.393
X74.854Y15.9
X75.082Y20.955
X75.082Y3.81
X75.108Y2.134
X75.438Y9.393
X75.59Y13.767
X75.794Y24.765
X75.895Y12.116
X76.149Y5.486
X76.251Y0.559
X76.302Y10.363
X76.733Y21.565
X76.886Y25.73
X76.886Y23.139
X76.987Y15.9
X77.47Y13.767
X77.8Y18.948
X78.816Y25.73
X78.816Y0.559
X79.553Y5.944
X79.553Y4.877
X80.213Y10.414
X81.356Y25.73
X81.356Y0.559
X81.636Y11.328
X82.347Y22.555
X82.347Y15.697
X82.347Y13.767
X83.363Y12.141
X83.363Y3.404
X83.871Y25.73
X83.871Y23.698
X83.871Y20.015
X83.871Y17.475
X83.871Y0.559
X83.922Y7.29
X83.947Y4.547
X84.379Y37.922
X84.379Y35.509
X84.379Y28.6
X84.379Y26.619
X84.887Y15.697
X84.887Y13.767
X85.039Y44.653
X86.157Y12.141
X86.411Y22.555
X86.411Y20.015
X86.411Y17.475
X86.411Y0.559
X86.563Y35.814
X86.741Y24.74
X86.817Y32.741
X86.919Y41.91
X86.919Y44.679
X87.224Y6.127
X87.351Y25.756
X87.427Y15.697
X87.427Y13.767
X87.681Y55.651
X87.681Y53.111
X87.681Y50.571
X87.681Y48.031
X87.681Y45.669
X87.681Y9.144
X87.681Y3.124
X88.494Y35.814
X88.494Y34.747
X88.697Y12.141
X88.951Y57.861
X88.951Y22.555
X88.951Y20.015
X88.951Y0.559
X89.078Y7.722
X89.078Y4.521
X89.967Y13.767
X90.018Y35.814
X90.018Y34.747
X90.195Y51.562
X90.195Y49.555
X90.424Y3.124
X90.449Y9.119
X90.576Y37.795
X90.653Y40.843
X90.729Y30.937
X90.729Y28.651
X90.729Y26.848
X91.237Y12.141
X91.364Y43.967
X91.491Y57.861
X91.491Y22.555
X91.491Y20.015
X91.491Y0.559
X91.567Y8.179
X92.1Y25.73
X92.507Y54.508
X92.507Y15.697
X92.507Y13.767
X92.608Y7.163
X92.608Y3.099
X92.761Y40.843
X92.761Y37.795
X92.761Y34.747
X92.761Y30.937
X92.761Y28.651
X93.396Y42.901
X93.523Y12.141
X93.574Y55.88
X93.726Y16.942
X94.031Y57.861
X94.031Y22.555
X94.031Y20.015
X94.031Y0.559
X94.285Y13.767
X94.539Y26.365
X94.894Y41.783
X95.092Y49.378
X95.352Y13.614
X95.555Y25.984
X95.555Y17.983
X95.555Y15.138
X95.631Y52.832
X95.906Y6.13
X96.215Y46.228
X96.285Y17.261
X96.285Y16.381
X96.368Y14.58
X96.368Y13.106
X96.571Y57.861
X96.571Y42.875
X96.571Y37.795
X96.571Y35.255
X96.571Y9.119
X96.571Y3.124
X96.571Y0.559
X96.596Y32.715
X96.596Y30.175
X96.596Y27.635
X96.774Y55.88
X97.066Y25.133
X97.587Y52.146
X97.765Y4.521
X97.79Y7.823
X97.841Y48.108
X97.917Y24.714
X98.45Y26.01
X98.704Y0.838
X98.933Y57.404
X99.339Y30.175
X99.339Y27.635
X99.365Y55.575
X99.365Y53.035
X99.365Y50.495
X99.365Y47.955
X99.365Y45.415
X99.365Y42.875
X99.365Y40.335
X99.365Y37.795
X99.365Y35.255
X99.365Y32.715
X99.365Y25.095
X99.365Y22.555
X99.365Y20.015
X99.365Y17.475
X99.365Y14.935
X99.365Y12.395
X99.365Y9.855
X99.365Y7.315
X99.365Y4.775
X99.365Y2.235
T3
X47.549Y3.2
X48.666Y3.2
X90.411Y32.931
X91.491Y42.469
X92.608Y46.203
T5
X33.573Y18.5
X35.973Y26.0
X66.485Y46.221
X68.885Y53.721
T6
X71.933Y42.469
X71.933Y37.389
X71.933Y33.325
X71.933Y28.245
X79.553Y42.469
X79.553Y37.389
X79.553Y33.325
X79.553Y28.245
X82.093Y42.469
X82.093Y37.389
X82.093Y33.325
X82.093Y28.245
T7
X9.627Y51.968
X9.627Y46.968
X9.627Y41.968
X9.627Y36.968
X9.627Y31.968
X9.627Y26.968
X9.627Y21.968
X9.627Y16.968
X14.627Y51.968
X14.627Y46.968
X14.627Y41.968
X14.627Y36.968
X14.627Y31.968
X14.627Y26.968
X14.627Y21.968
X14.627Y16.968
T8
X22.308Y26.082
X22.308Y9.782
X29.508Y26.082
X29.508Y9.782
T9
X72.578Y54.274
X75.118Y46.654
X80.198Y54.274
X90.358Y54.274
X90.358Y46.654
T10
X32.664Y54.966
X32.664Y30.836
T11
X42.514Y52.349
X42.514Y13.849
X50.514Y13.849
X53.264Y52.349
T4
G00X68.736Y7.522
M15
G01X68.736Y6.422
M16
G05
G00X68.736Y3.172
M15
G01X68.736Y2.372
M16
G05
G00X77.376Y7.522
M15
G01X77.376Y6.422
M16
G05
G00X77.376Y3.172
M15
G01X77.376Y2.372
M16
G05
M30
