%TF.GenerationSoftware,KiCad,Pcbnew,9.0.3*%
%TF.CreationDate,2025-11-12T23:01:14+01:00*%
%TF.ProjectId,esp-ev-switch,6573702d-6576-42d7-9377-697463682e6b,1.0.0*%
%TF.SameCoordinates,PX6a88c10PY89c843f*%
%TF.FileFunction,AssemblyDrawing,Bot*%
%FSLAX46Y46*%
G04 Gerber Fmt 4.6, Leading zero omitted, Abs format (unit mm)*
G04 Created by KiCad (PCBNEW 9.0.3) date 2025-11-12 23:01:14*
%MOMM*%
%LPD*%
G01*
G04 APERTURE LIST*
%TA.AperFunction,Profile*%
%ADD10C,0.100000*%
%TD*%
G04 APERTURE END LIST*
D10*
X37840047Y8633952D02*
X37834093Y16517999D01*
X71378700Y45084999D02*
X78278100Y45084999D01*
X20421140Y12691762D02*
X20421600Y8627999D01*
X21937600Y9143999D02*
G75*
G02*
X21437600Y9643999I0J500000D01*
G01*
X2000000Y0D02*
G75*
G02*
X1Y2000000I0J1999999D01*
G01*
X70878700Y44584999D02*
G75*
G02*
X71378700Y45084999I500000J0D01*
G01*
X70878700Y44543599D02*
X70878700Y44584999D01*
X28015423Y9143678D02*
G75*
G02*
X28514823Y8628000I-23J-499679D01*
G01*
X20421339Y12691762D02*
G75*
G02*
X20937790Y13191798I500261J37D01*
G01*
X78278100Y44043599D02*
X71378700Y44043599D01*
X36324047Y9149952D02*
X32830437Y9150208D01*
X20921600Y8127999D02*
X28026354Y8128097D01*
X97923600Y58420000D02*
G75*
G02*
X99923601Y56420000I0J-2000001D01*
G01*
X71378700Y44043599D02*
G75*
G02*
X70878700Y44543599I0J500000D01*
G01*
X20921600Y8127354D02*
G75*
G02*
X20420955Y8627999I0J500645D01*
G01*
X0Y2000000D02*
X0Y56420000D01*
X99923600Y2000000D02*
G75*
G02*
X97923600Y-1I-2000000J-1D01*
G01*
X32840153Y8133952D02*
G75*
G02*
X32340153Y8633952I47J500047D01*
G01*
X36817838Y16517999D02*
G75*
G02*
X37334100Y17018005I500262J0D01*
G01*
X28515381Y8635936D02*
G75*
G02*
X28026354Y8128075I-499981J-7937D01*
G01*
X36824047Y9649952D02*
G75*
G02*
X36324047Y9149952I-500047J47D01*
G01*
X36818094Y16517999D02*
X36824022Y9655013D01*
X97923600Y0D02*
X2000000Y0D01*
X20931120Y13191720D02*
G75*
G02*
X21437563Y12691762I6480J-499921D01*
G01*
X78278100Y45084999D02*
G75*
G02*
X78778100Y44584999I0J-500000D01*
G01*
X78778100Y44584999D02*
X78778100Y44543599D01*
X2000000Y58420000D02*
X97923600Y58420000D01*
X32340153Y8633952D02*
G75*
G02*
X32840153Y9150303I500047J16047D01*
G01*
X37334094Y17017999D02*
G75*
G02*
X37834100Y16517999I6J-500000D01*
G01*
X28016200Y9144000D02*
X21937600Y9143999D01*
X32840200Y8133952D02*
X37340047Y8133953D01*
X21437600Y9643999D02*
X21437561Y12691805D01*
X99923600Y56420000D02*
X99923600Y2000000D01*
X37840047Y8633952D02*
G75*
G02*
X37340047Y8133952I-500047J47D01*
G01*
X78778100Y44543599D02*
G75*
G02*
X78278100Y44043599I-500000J0D01*
G01*
X0Y56420000D02*
G75*
G02*
X2000000Y58419999I2000000J-1D01*
G01*
M02*
