%TF.GenerationSoftware,KiCad,Pcbnew,9.0.3*%
%TF.CreationDate,2025-11-12T23:01:28+01:00*%
%TF.ProjectId,esp-ev-switch,6573702d-6576-42d7-9377-697463682e6b,1.0.0*%
%TF.SameCoordinates,PX6a88c10PY89c843f*%
%TF.FileFunction,Drillmap*%
%TF.FilePolarity,Positive*%
%FSLAX45Y45*%
G04 Gerber Fmt 4.5, Leading zero omitted, Abs format (unit mm)*
G04 Created by KiCad (PCBNEW 9.0.3) date 2025-11-12 23:01:28*
%MOMM*%
%LPD*%
G01*
G04 APERTURE LIST*
%ADD10C,0.100000*%
%ADD11C,0.200000*%
%ADD12C,0.150000*%
%ADD13C,0.270000*%
G04 APERTURE END LIST*
D10*
X3784005Y863395D02*
X3783409Y1651800D01*
X7137870Y4508500D02*
X7827810Y4508500D01*
X2042114Y1269176D02*
X2042160Y862800D01*
X2193760Y914400D02*
G75*
G02*
X2143760Y964400I0J50000D01*
G01*
X200000Y0D02*
G75*
G02*
X0Y200000I0J200000D01*
G01*
X7087870Y4458500D02*
G75*
G02*
X7137870Y4508500I50000J0D01*
G01*
X7087870Y4454360D02*
X7087870Y4458500D01*
X2801542Y914368D02*
G75*
G02*
X2851482Y862800I-2J-49968D01*
G01*
X2042134Y1269176D02*
G75*
G02*
X2093779Y1319180I50026J4D01*
G01*
X7827810Y4404360D02*
X7137870Y4404360D01*
X3632405Y914995D02*
X3283044Y915021D01*
X2092160Y812800D02*
X2802635Y812810D01*
X9792360Y5842000D02*
G75*
G02*
X9992360Y5642000I0J-200000D01*
G01*
X7137870Y4404360D02*
G75*
G02*
X7087870Y4454360I0J50000D01*
G01*
X2092160Y812735D02*
G75*
G02*
X2042095Y862800I0J50065D01*
G01*
X0Y200000D02*
X0Y5642000D01*
X9992360Y200000D02*
G75*
G02*
X9792360Y0I-200000J0D01*
G01*
X3284015Y813395D02*
G75*
G02*
X3234015Y863395I5J50005D01*
G01*
X3681784Y1651800D02*
G75*
G02*
X3733410Y1701800I50026J0D01*
G01*
X2851538Y863594D02*
G75*
G02*
X2802635Y812807I-49998J-794D01*
G01*
X3682405Y964995D02*
G75*
G02*
X3632405Y914995I-50005J5D01*
G01*
X3681809Y1651800D02*
X3682402Y965501D01*
X9792360Y0D02*
X200000Y0D01*
X2093112Y1319172D02*
G75*
G02*
X2143756Y1269176I648J-49992D01*
G01*
X7827810Y4508500D02*
G75*
G02*
X7877810Y4458500I0J-50000D01*
G01*
X7877810Y4458500D02*
X7877810Y4454360D01*
X200000Y5842000D02*
X9792360Y5842000D01*
X3234015Y863395D02*
G75*
G02*
X3284015Y915030I50005J1605D01*
G01*
X3733409Y1701800D02*
G75*
G02*
X3783410Y1651800I1J-50000D01*
G01*
X2801620Y914400D02*
X2193760Y914400D01*
X3284020Y813395D02*
X3734005Y813395D01*
X2143760Y964400D02*
X2143756Y1269181D01*
X9992360Y5642000D02*
X9992360Y200000D01*
X3784005Y863395D02*
G75*
G02*
X3734005Y813395I-50005J5D01*
G01*
X7877810Y4454360D02*
G75*
G02*
X7827810Y4404360I-50000J0D01*
G01*
X0Y5642000D02*
G75*
G02*
X200000Y5842000I200000J0D01*
G01*
D11*
D10*
X6984100Y677660D02*
X7049100Y612660D01*
X7049100Y677660D02*
X6984100Y612660D01*
X7562100Y677660D02*
X7627100Y612660D01*
X7627100Y677660D02*
X7562100Y612660D01*
D12*
X481400Y609600D02*
G75*
G02*
X331400Y609600I-75000J0D01*
G01*
X331400Y609600D02*
G75*
G02*
X481400Y609600I75000J0D01*
G01*
X1181400Y609600D02*
G75*
G02*
X1031400Y609600I-75000J0D01*
G01*
X1031400Y609600D02*
G75*
G02*
X1181400Y609600I75000J0D01*
G01*
D13*
X259080Y5717920D02*
X259080Y5447920D01*
X124080Y5582920D02*
X394080Y5582920D01*
X1747520Y1026540D02*
X1747520Y756540D01*
X1612520Y891540D02*
X1882520Y891540D01*
X6774180Y2923920D02*
X6774180Y2653920D01*
X6639180Y2788920D02*
X6909180Y2788920D01*
X9733280Y4115180D02*
X9733280Y3845180D01*
X9598280Y3980180D02*
X9868280Y3980180D01*
D11*
X255777Y-316484D02*
X255777Y-116484D01*
X255777Y-116484D02*
X303396Y-116484D01*
X303396Y-116484D02*
X331967Y-126008D01*
X331967Y-126008D02*
X351015Y-145055D01*
X351015Y-145055D02*
X360539Y-164103D01*
X360539Y-164103D02*
X370062Y-202198D01*
X370062Y-202198D02*
X370062Y-230769D01*
X370062Y-230769D02*
X360539Y-268865D01*
X360539Y-268865D02*
X351015Y-287912D01*
X351015Y-287912D02*
X331967Y-306960D01*
X331967Y-306960D02*
X303396Y-316484D01*
X303396Y-316484D02*
X255777Y-316484D01*
X455777Y-316484D02*
X455777Y-183150D01*
X455777Y-221246D02*
X465301Y-202198D01*
X465301Y-202198D02*
X474824Y-192674D01*
X474824Y-192674D02*
X493872Y-183150D01*
X493872Y-183150D02*
X512920Y-183150D01*
X579586Y-316484D02*
X579586Y-183150D01*
X579586Y-116484D02*
X570063Y-126008D01*
X570063Y-126008D02*
X579586Y-135531D01*
X579586Y-135531D02*
X589110Y-126008D01*
X589110Y-126008D02*
X579586Y-116484D01*
X579586Y-116484D02*
X579586Y-135531D01*
X703396Y-316484D02*
X684348Y-306960D01*
X684348Y-306960D02*
X674824Y-287912D01*
X674824Y-287912D02*
X674824Y-116484D01*
X808158Y-316484D02*
X789110Y-306960D01*
X789110Y-306960D02*
X779586Y-287912D01*
X779586Y-287912D02*
X779586Y-116484D01*
X1036729Y-316484D02*
X1036729Y-116484D01*
X1036729Y-116484D02*
X1103396Y-259341D01*
X1103396Y-259341D02*
X1170063Y-116484D01*
X1170063Y-116484D02*
X1170063Y-316484D01*
X1351015Y-316484D02*
X1351015Y-211722D01*
X1351015Y-211722D02*
X1341491Y-192674D01*
X1341491Y-192674D02*
X1322444Y-183150D01*
X1322444Y-183150D02*
X1284348Y-183150D01*
X1284348Y-183150D02*
X1265301Y-192674D01*
X1351015Y-306960D02*
X1331967Y-316484D01*
X1331967Y-316484D02*
X1284348Y-316484D01*
X1284348Y-316484D02*
X1265301Y-306960D01*
X1265301Y-306960D02*
X1255777Y-287912D01*
X1255777Y-287912D02*
X1255777Y-268865D01*
X1255777Y-268865D02*
X1265301Y-249817D01*
X1265301Y-249817D02*
X1284348Y-240293D01*
X1284348Y-240293D02*
X1331967Y-240293D01*
X1331967Y-240293D02*
X1351015Y-230769D01*
X1446253Y-183150D02*
X1446253Y-383150D01*
X1446253Y-192674D02*
X1465301Y-183150D01*
X1465301Y-183150D02*
X1503396Y-183150D01*
X1503396Y-183150D02*
X1522443Y-192674D01*
X1522443Y-192674D02*
X1531967Y-202198D01*
X1531967Y-202198D02*
X1541491Y-221246D01*
X1541491Y-221246D02*
X1541491Y-278389D01*
X1541491Y-278389D02*
X1531967Y-297436D01*
X1531967Y-297436D02*
X1522443Y-306960D01*
X1522443Y-306960D02*
X1503396Y-316484D01*
X1503396Y-316484D02*
X1465301Y-316484D01*
X1465301Y-316484D02*
X1446253Y-306960D01*
X1627205Y-297436D02*
X1636729Y-306960D01*
X1636729Y-306960D02*
X1627205Y-316484D01*
X1627205Y-316484D02*
X1617682Y-306960D01*
X1617682Y-306960D02*
X1627205Y-297436D01*
X1627205Y-297436D02*
X1627205Y-316484D01*
X1627205Y-192674D02*
X1636729Y-202198D01*
X1636729Y-202198D02*
X1627205Y-211722D01*
X1627205Y-211722D02*
X1617682Y-202198D01*
X1617682Y-202198D02*
X1627205Y-192674D01*
X1627205Y-192674D02*
X1627205Y-211722D01*
D10*
X-70000Y-612500D02*
X-5000Y-677500D01*
X-5000Y-612500D02*
X-70000Y-677500D01*
D11*
X293872Y-536484D02*
X312920Y-536484D01*
X312920Y-536484D02*
X331967Y-546008D01*
X331967Y-546008D02*
X341491Y-555531D01*
X341491Y-555531D02*
X351015Y-574579D01*
X351015Y-574579D02*
X360539Y-612674D01*
X360539Y-612674D02*
X360539Y-660293D01*
X360539Y-660293D02*
X351015Y-698389D01*
X351015Y-698389D02*
X341491Y-717436D01*
X341491Y-717436D02*
X331967Y-726960D01*
X331967Y-726960D02*
X312920Y-736484D01*
X312920Y-736484D02*
X293872Y-736484D01*
X293872Y-736484D02*
X274824Y-726960D01*
X274824Y-726960D02*
X265301Y-717436D01*
X265301Y-717436D02*
X255777Y-698389D01*
X255777Y-698389D02*
X246253Y-660293D01*
X246253Y-660293D02*
X246253Y-612674D01*
X246253Y-612674D02*
X255777Y-574579D01*
X255777Y-574579D02*
X265301Y-555531D01*
X265301Y-555531D02*
X274824Y-546008D01*
X274824Y-546008D02*
X293872Y-536484D01*
X446253Y-717436D02*
X455777Y-726960D01*
X455777Y-726960D02*
X446253Y-736484D01*
X446253Y-736484D02*
X436729Y-726960D01*
X436729Y-726960D02*
X446253Y-717436D01*
X446253Y-717436D02*
X446253Y-736484D01*
X627205Y-536484D02*
X589110Y-536484D01*
X589110Y-536484D02*
X570063Y-546008D01*
X570063Y-546008D02*
X560539Y-555531D01*
X560539Y-555531D02*
X541491Y-584103D01*
X541491Y-584103D02*
X531967Y-622198D01*
X531967Y-622198D02*
X531967Y-698389D01*
X531967Y-698389D02*
X541491Y-717436D01*
X541491Y-717436D02*
X551015Y-726960D01*
X551015Y-726960D02*
X570063Y-736484D01*
X570063Y-736484D02*
X608158Y-736484D01*
X608158Y-736484D02*
X627205Y-726960D01*
X627205Y-726960D02*
X636729Y-717436D01*
X636729Y-717436D02*
X646253Y-698389D01*
X646253Y-698389D02*
X646253Y-650770D01*
X646253Y-650770D02*
X636729Y-631722D01*
X636729Y-631722D02*
X627205Y-622198D01*
X627205Y-622198D02*
X608158Y-612674D01*
X608158Y-612674D02*
X570063Y-612674D01*
X570063Y-612674D02*
X551015Y-622198D01*
X551015Y-622198D02*
X541491Y-631722D01*
X541491Y-631722D02*
X531967Y-650770D01*
X827205Y-536484D02*
X731967Y-536484D01*
X731967Y-536484D02*
X722443Y-631722D01*
X722443Y-631722D02*
X731967Y-622198D01*
X731967Y-622198D02*
X751015Y-612674D01*
X751015Y-612674D02*
X798634Y-612674D01*
X798634Y-612674D02*
X817682Y-622198D01*
X817682Y-622198D02*
X827205Y-631722D01*
X827205Y-631722D02*
X836729Y-650770D01*
X836729Y-650770D02*
X836729Y-698389D01*
X836729Y-698389D02*
X827205Y-717436D01*
X827205Y-717436D02*
X817682Y-726960D01*
X817682Y-726960D02*
X798634Y-736484D01*
X798634Y-736484D02*
X751015Y-736484D01*
X751015Y-736484D02*
X731967Y-726960D01*
X731967Y-726960D02*
X722443Y-717436D01*
X960539Y-536484D02*
X979586Y-536484D01*
X979586Y-536484D02*
X998634Y-546008D01*
X998634Y-546008D02*
X1008158Y-555531D01*
X1008158Y-555531D02*
X1017682Y-574579D01*
X1017682Y-574579D02*
X1027205Y-612674D01*
X1027205Y-612674D02*
X1027205Y-660293D01*
X1027205Y-660293D02*
X1017682Y-698389D01*
X1017682Y-698389D02*
X1008158Y-717436D01*
X1008158Y-717436D02*
X998634Y-726960D01*
X998634Y-726960D02*
X979586Y-736484D01*
X979586Y-736484D02*
X960539Y-736484D01*
X960539Y-736484D02*
X941491Y-726960D01*
X941491Y-726960D02*
X931967Y-717436D01*
X931967Y-717436D02*
X922443Y-698389D01*
X922443Y-698389D02*
X912920Y-660293D01*
X912920Y-660293D02*
X912920Y-612674D01*
X912920Y-612674D02*
X922443Y-574579D01*
X922443Y-574579D02*
X931967Y-555531D01*
X931967Y-555531D02*
X941491Y-546008D01*
X941491Y-546008D02*
X960539Y-536484D01*
X1112920Y-736484D02*
X1112920Y-603150D01*
X1112920Y-622198D02*
X1122444Y-612674D01*
X1122444Y-612674D02*
X1141491Y-603150D01*
X1141491Y-603150D02*
X1170063Y-603150D01*
X1170063Y-603150D02*
X1189110Y-612674D01*
X1189110Y-612674D02*
X1198634Y-631722D01*
X1198634Y-631722D02*
X1198634Y-736484D01*
X1198634Y-631722D02*
X1208158Y-612674D01*
X1208158Y-612674D02*
X1227205Y-603150D01*
X1227205Y-603150D02*
X1255777Y-603150D01*
X1255777Y-603150D02*
X1274825Y-612674D01*
X1274825Y-612674D02*
X1284348Y-631722D01*
X1284348Y-631722D02*
X1284348Y-736484D01*
X1379586Y-736484D02*
X1379586Y-603150D01*
X1379586Y-622198D02*
X1389110Y-612674D01*
X1389110Y-612674D02*
X1408158Y-603150D01*
X1408158Y-603150D02*
X1436729Y-603150D01*
X1436729Y-603150D02*
X1455777Y-612674D01*
X1455777Y-612674D02*
X1465301Y-631722D01*
X1465301Y-631722D02*
X1465301Y-736484D01*
X1465301Y-631722D02*
X1474824Y-612674D01*
X1474824Y-612674D02*
X1493872Y-603150D01*
X1493872Y-603150D02*
X1522443Y-603150D01*
X1522443Y-603150D02*
X1541491Y-612674D01*
X1541491Y-612674D02*
X1551015Y-631722D01*
X1551015Y-631722D02*
X1551015Y-736484D01*
X1941491Y-526960D02*
X1770063Y-784103D01*
X2198634Y-536484D02*
X2217682Y-536484D01*
X2217682Y-536484D02*
X2236729Y-546008D01*
X2236729Y-546008D02*
X2246253Y-555531D01*
X2246253Y-555531D02*
X2255777Y-574579D01*
X2255777Y-574579D02*
X2265301Y-612674D01*
X2265301Y-612674D02*
X2265301Y-660293D01*
X2265301Y-660293D02*
X2255777Y-698389D01*
X2255777Y-698389D02*
X2246253Y-717436D01*
X2246253Y-717436D02*
X2236729Y-726960D01*
X2236729Y-726960D02*
X2217682Y-736484D01*
X2217682Y-736484D02*
X2198634Y-736484D01*
X2198634Y-736484D02*
X2179587Y-726960D01*
X2179587Y-726960D02*
X2170063Y-717436D01*
X2170063Y-717436D02*
X2160539Y-698389D01*
X2160539Y-698389D02*
X2151015Y-660293D01*
X2151015Y-660293D02*
X2151015Y-612674D01*
X2151015Y-612674D02*
X2160539Y-574579D01*
X2160539Y-574579D02*
X2170063Y-555531D01*
X2170063Y-555531D02*
X2179587Y-546008D01*
X2179587Y-546008D02*
X2198634Y-536484D01*
X2351015Y-717436D02*
X2360539Y-726960D01*
X2360539Y-726960D02*
X2351015Y-736484D01*
X2351015Y-736484D02*
X2341491Y-726960D01*
X2341491Y-726960D02*
X2351015Y-717436D01*
X2351015Y-717436D02*
X2351015Y-736484D01*
X2484348Y-536484D02*
X2503396Y-536484D01*
X2503396Y-536484D02*
X2522444Y-546008D01*
X2522444Y-546008D02*
X2531968Y-555531D01*
X2531968Y-555531D02*
X2541491Y-574579D01*
X2541491Y-574579D02*
X2551015Y-612674D01*
X2551015Y-612674D02*
X2551015Y-660293D01*
X2551015Y-660293D02*
X2541491Y-698389D01*
X2541491Y-698389D02*
X2531968Y-717436D01*
X2531968Y-717436D02*
X2522444Y-726960D01*
X2522444Y-726960D02*
X2503396Y-736484D01*
X2503396Y-736484D02*
X2484348Y-736484D01*
X2484348Y-736484D02*
X2465301Y-726960D01*
X2465301Y-726960D02*
X2455777Y-717436D01*
X2455777Y-717436D02*
X2446253Y-698389D01*
X2446253Y-698389D02*
X2436729Y-660293D01*
X2436729Y-660293D02*
X2436729Y-612674D01*
X2436729Y-612674D02*
X2446253Y-574579D01*
X2446253Y-574579D02*
X2455777Y-555531D01*
X2455777Y-555531D02*
X2465301Y-546008D01*
X2465301Y-546008D02*
X2484348Y-536484D01*
X2627206Y-555531D02*
X2636729Y-546008D01*
X2636729Y-546008D02*
X2655777Y-536484D01*
X2655777Y-536484D02*
X2703396Y-536484D01*
X2703396Y-536484D02*
X2722444Y-546008D01*
X2722444Y-546008D02*
X2731968Y-555531D01*
X2731968Y-555531D02*
X2741491Y-574579D01*
X2741491Y-574579D02*
X2741491Y-593627D01*
X2741491Y-593627D02*
X2731968Y-622198D01*
X2731968Y-622198D02*
X2617682Y-736484D01*
X2617682Y-736484D02*
X2741491Y-736484D01*
X2922444Y-536484D02*
X2827206Y-536484D01*
X2827206Y-536484D02*
X2817682Y-631722D01*
X2817682Y-631722D02*
X2827206Y-622198D01*
X2827206Y-622198D02*
X2846253Y-612674D01*
X2846253Y-612674D02*
X2893872Y-612674D01*
X2893872Y-612674D02*
X2912920Y-622198D01*
X2912920Y-622198D02*
X2922444Y-631722D01*
X2922444Y-631722D02*
X2931967Y-650770D01*
X2931967Y-650770D02*
X2931967Y-698389D01*
X2931967Y-698389D02*
X2922444Y-717436D01*
X2922444Y-717436D02*
X2912920Y-726960D01*
X2912920Y-726960D02*
X2893872Y-736484D01*
X2893872Y-736484D02*
X2846253Y-736484D01*
X2846253Y-736484D02*
X2827206Y-726960D01*
X2827206Y-726960D02*
X2817682Y-717436D01*
X3103396Y-536484D02*
X3065301Y-536484D01*
X3065301Y-536484D02*
X3046253Y-546008D01*
X3046253Y-546008D02*
X3036729Y-555531D01*
X3036729Y-555531D02*
X3017682Y-584103D01*
X3017682Y-584103D02*
X3008158Y-622198D01*
X3008158Y-622198D02*
X3008158Y-698389D01*
X3008158Y-698389D02*
X3017682Y-717436D01*
X3017682Y-717436D02*
X3027206Y-726960D01*
X3027206Y-726960D02*
X3046253Y-736484D01*
X3046253Y-736484D02*
X3084348Y-736484D01*
X3084348Y-736484D02*
X3103396Y-726960D01*
X3103396Y-726960D02*
X3112920Y-717436D01*
X3112920Y-717436D02*
X3122444Y-698389D01*
X3122444Y-698389D02*
X3122444Y-650770D01*
X3122444Y-650770D02*
X3112920Y-631722D01*
X3112920Y-631722D02*
X3103396Y-622198D01*
X3103396Y-622198D02*
X3084348Y-612674D01*
X3084348Y-612674D02*
X3046253Y-612674D01*
X3046253Y-612674D02*
X3027206Y-622198D01*
X3027206Y-622198D02*
X3017682Y-631722D01*
X3017682Y-631722D02*
X3008158Y-650770D01*
X3198634Y-536484D02*
X3198634Y-574579D01*
X3274825Y-536484D02*
X3274825Y-574579D01*
X3570063Y-812674D02*
X3560539Y-803150D01*
X3560539Y-803150D02*
X3541491Y-774579D01*
X3541491Y-774579D02*
X3531968Y-755531D01*
X3531968Y-755531D02*
X3522444Y-726960D01*
X3522444Y-726960D02*
X3512920Y-679341D01*
X3512920Y-679341D02*
X3512920Y-641246D01*
X3512920Y-641246D02*
X3522444Y-593627D01*
X3522444Y-593627D02*
X3531968Y-565055D01*
X3531968Y-565055D02*
X3541491Y-546008D01*
X3541491Y-546008D02*
X3560539Y-517436D01*
X3560539Y-517436D02*
X3570063Y-507912D01*
X3636729Y-555531D02*
X3646253Y-546008D01*
X3646253Y-546008D02*
X3665301Y-536484D01*
X3665301Y-536484D02*
X3712920Y-536484D01*
X3712920Y-536484D02*
X3731968Y-546008D01*
X3731968Y-546008D02*
X3741491Y-555531D01*
X3741491Y-555531D02*
X3751015Y-574579D01*
X3751015Y-574579D02*
X3751015Y-593627D01*
X3751015Y-593627D02*
X3741491Y-622198D01*
X3741491Y-622198D02*
X3627206Y-736484D01*
X3627206Y-736484D02*
X3751015Y-736484D01*
X3989110Y-736484D02*
X3989110Y-536484D01*
X4074825Y-736484D02*
X4074825Y-631722D01*
X4074825Y-631722D02*
X4065301Y-612674D01*
X4065301Y-612674D02*
X4046253Y-603150D01*
X4046253Y-603150D02*
X4017682Y-603150D01*
X4017682Y-603150D02*
X3998634Y-612674D01*
X3998634Y-612674D02*
X3989110Y-622198D01*
X4198634Y-736484D02*
X4179587Y-726960D01*
X4179587Y-726960D02*
X4170063Y-717436D01*
X4170063Y-717436D02*
X4160539Y-698389D01*
X4160539Y-698389D02*
X4160539Y-641246D01*
X4160539Y-641246D02*
X4170063Y-622198D01*
X4170063Y-622198D02*
X4179587Y-612674D01*
X4179587Y-612674D02*
X4198634Y-603150D01*
X4198634Y-603150D02*
X4227206Y-603150D01*
X4227206Y-603150D02*
X4246253Y-612674D01*
X4246253Y-612674D02*
X4255777Y-622198D01*
X4255777Y-622198D02*
X4265301Y-641246D01*
X4265301Y-641246D02*
X4265301Y-698389D01*
X4265301Y-698389D02*
X4255777Y-717436D01*
X4255777Y-717436D02*
X4246253Y-726960D01*
X4246253Y-726960D02*
X4227206Y-736484D01*
X4227206Y-736484D02*
X4198634Y-736484D01*
X4379587Y-736484D02*
X4360539Y-726960D01*
X4360539Y-726960D02*
X4351015Y-707912D01*
X4351015Y-707912D02*
X4351015Y-536484D01*
X4531968Y-726960D02*
X4512920Y-736484D01*
X4512920Y-736484D02*
X4474825Y-736484D01*
X4474825Y-736484D02*
X4455777Y-726960D01*
X4455777Y-726960D02*
X4446253Y-707912D01*
X4446253Y-707912D02*
X4446253Y-631722D01*
X4446253Y-631722D02*
X4455777Y-612674D01*
X4455777Y-612674D02*
X4474825Y-603150D01*
X4474825Y-603150D02*
X4512920Y-603150D01*
X4512920Y-603150D02*
X4531968Y-612674D01*
X4531968Y-612674D02*
X4541492Y-631722D01*
X4541492Y-631722D02*
X4541492Y-650770D01*
X4541492Y-650770D02*
X4446253Y-669817D01*
X4617682Y-726960D02*
X4636730Y-736484D01*
X4636730Y-736484D02*
X4674825Y-736484D01*
X4674825Y-736484D02*
X4693873Y-726960D01*
X4693873Y-726960D02*
X4703396Y-707912D01*
X4703396Y-707912D02*
X4703396Y-698389D01*
X4703396Y-698389D02*
X4693873Y-679341D01*
X4693873Y-679341D02*
X4674825Y-669817D01*
X4674825Y-669817D02*
X4646253Y-669817D01*
X4646253Y-669817D02*
X4627206Y-660293D01*
X4627206Y-660293D02*
X4617682Y-641246D01*
X4617682Y-641246D02*
X4617682Y-631722D01*
X4617682Y-631722D02*
X4627206Y-612674D01*
X4627206Y-612674D02*
X4646253Y-603150D01*
X4646253Y-603150D02*
X4674825Y-603150D01*
X4674825Y-603150D02*
X4693873Y-612674D01*
X4770063Y-812674D02*
X4779587Y-803150D01*
X4779587Y-803150D02*
X4798634Y-774579D01*
X4798634Y-774579D02*
X4808158Y-755531D01*
X4808158Y-755531D02*
X4817682Y-726960D01*
X4817682Y-726960D02*
X4827206Y-679341D01*
X4827206Y-679341D02*
X4827206Y-641246D01*
X4827206Y-641246D02*
X4817682Y-593627D01*
X4817682Y-593627D02*
X4808158Y-565055D01*
X4808158Y-565055D02*
X4798634Y-546008D01*
X4798634Y-546008D02*
X4779587Y-517436D01*
X4779587Y-517436D02*
X4770063Y-507912D01*
X5131968Y-812674D02*
X5122444Y-803150D01*
X5122444Y-803150D02*
X5103396Y-774579D01*
X5103396Y-774579D02*
X5093873Y-755531D01*
X5093873Y-755531D02*
X5084349Y-726960D01*
X5084349Y-726960D02*
X5074825Y-679341D01*
X5074825Y-679341D02*
X5074825Y-641246D01*
X5074825Y-641246D02*
X5084349Y-593627D01*
X5084349Y-593627D02*
X5093873Y-565055D01*
X5093873Y-565055D02*
X5103396Y-546008D01*
X5103396Y-546008D02*
X5122444Y-517436D01*
X5122444Y-517436D02*
X5131968Y-507912D01*
X5208158Y-603150D02*
X5208158Y-736484D01*
X5208158Y-622198D02*
X5217682Y-612674D01*
X5217682Y-612674D02*
X5236730Y-603150D01*
X5236730Y-603150D02*
X5265301Y-603150D01*
X5265301Y-603150D02*
X5284349Y-612674D01*
X5284349Y-612674D02*
X5293873Y-631722D01*
X5293873Y-631722D02*
X5293873Y-736484D01*
X5417682Y-736484D02*
X5398634Y-726960D01*
X5398634Y-726960D02*
X5389111Y-717436D01*
X5389111Y-717436D02*
X5379587Y-698389D01*
X5379587Y-698389D02*
X5379587Y-641246D01*
X5379587Y-641246D02*
X5389111Y-622198D01*
X5389111Y-622198D02*
X5398634Y-612674D01*
X5398634Y-612674D02*
X5417682Y-603150D01*
X5417682Y-603150D02*
X5446254Y-603150D01*
X5446254Y-603150D02*
X5465301Y-612674D01*
X5465301Y-612674D02*
X5474825Y-622198D01*
X5474825Y-622198D02*
X5484349Y-641246D01*
X5484349Y-641246D02*
X5484349Y-698389D01*
X5484349Y-698389D02*
X5474825Y-717436D01*
X5474825Y-717436D02*
X5465301Y-726960D01*
X5465301Y-726960D02*
X5446254Y-736484D01*
X5446254Y-736484D02*
X5417682Y-736484D01*
X5541492Y-603150D02*
X5617682Y-603150D01*
X5570063Y-536484D02*
X5570063Y-707912D01*
X5570063Y-707912D02*
X5579587Y-726960D01*
X5579587Y-726960D02*
X5598634Y-736484D01*
X5598634Y-736484D02*
X5617682Y-736484D01*
X5836730Y-603150D02*
X5836730Y-803150D01*
X5836730Y-612674D02*
X5855777Y-603150D01*
X5855777Y-603150D02*
X5893873Y-603150D01*
X5893873Y-603150D02*
X5912920Y-612674D01*
X5912920Y-612674D02*
X5922444Y-622198D01*
X5922444Y-622198D02*
X5931968Y-641246D01*
X5931968Y-641246D02*
X5931968Y-698389D01*
X5931968Y-698389D02*
X5922444Y-717436D01*
X5922444Y-717436D02*
X5912920Y-726960D01*
X5912920Y-726960D02*
X5893873Y-736484D01*
X5893873Y-736484D02*
X5855777Y-736484D01*
X5855777Y-736484D02*
X5836730Y-726960D01*
X6046253Y-736484D02*
X6027206Y-726960D01*
X6027206Y-726960D02*
X6017682Y-707912D01*
X6017682Y-707912D02*
X6017682Y-536484D01*
X6208158Y-736484D02*
X6208158Y-631722D01*
X6208158Y-631722D02*
X6198634Y-612674D01*
X6198634Y-612674D02*
X6179587Y-603150D01*
X6179587Y-603150D02*
X6141492Y-603150D01*
X6141492Y-603150D02*
X6122444Y-612674D01*
X6208158Y-726960D02*
X6189111Y-736484D01*
X6189111Y-736484D02*
X6141492Y-736484D01*
X6141492Y-736484D02*
X6122444Y-726960D01*
X6122444Y-726960D02*
X6112920Y-707912D01*
X6112920Y-707912D02*
X6112920Y-688865D01*
X6112920Y-688865D02*
X6122444Y-669817D01*
X6122444Y-669817D02*
X6141492Y-660293D01*
X6141492Y-660293D02*
X6189111Y-660293D01*
X6189111Y-660293D02*
X6208158Y-650770D01*
X6274825Y-603150D02*
X6351015Y-603150D01*
X6303396Y-536484D02*
X6303396Y-707912D01*
X6303396Y-707912D02*
X6312920Y-726960D01*
X6312920Y-726960D02*
X6331968Y-736484D01*
X6331968Y-736484D02*
X6351015Y-736484D01*
X6493873Y-726960D02*
X6474825Y-736484D01*
X6474825Y-736484D02*
X6436730Y-736484D01*
X6436730Y-736484D02*
X6417682Y-726960D01*
X6417682Y-726960D02*
X6408158Y-707912D01*
X6408158Y-707912D02*
X6408158Y-631722D01*
X6408158Y-631722D02*
X6417682Y-612674D01*
X6417682Y-612674D02*
X6436730Y-603150D01*
X6436730Y-603150D02*
X6474825Y-603150D01*
X6474825Y-603150D02*
X6493873Y-612674D01*
X6493873Y-612674D02*
X6503396Y-631722D01*
X6503396Y-631722D02*
X6503396Y-650770D01*
X6503396Y-650770D02*
X6408158Y-669817D01*
X6674825Y-736484D02*
X6674825Y-536484D01*
X6674825Y-726960D02*
X6655777Y-736484D01*
X6655777Y-736484D02*
X6617682Y-736484D01*
X6617682Y-736484D02*
X6598634Y-726960D01*
X6598634Y-726960D02*
X6589111Y-717436D01*
X6589111Y-717436D02*
X6579587Y-698389D01*
X6579587Y-698389D02*
X6579587Y-641246D01*
X6579587Y-641246D02*
X6589111Y-622198D01*
X6589111Y-622198D02*
X6598634Y-612674D01*
X6598634Y-612674D02*
X6617682Y-603150D01*
X6617682Y-603150D02*
X6655777Y-603150D01*
X6655777Y-603150D02*
X6674825Y-612674D01*
X6751015Y-812674D02*
X6760539Y-803150D01*
X6760539Y-803150D02*
X6779587Y-774579D01*
X6779587Y-774579D02*
X6789111Y-755531D01*
X6789111Y-755531D02*
X6798634Y-726960D01*
X6798634Y-726960D02*
X6808158Y-679341D01*
X6808158Y-679341D02*
X6808158Y-641246D01*
X6808158Y-641246D02*
X6798634Y-593627D01*
X6798634Y-593627D02*
X6789111Y-565055D01*
X6789111Y-565055D02*
X6779587Y-546008D01*
X6779587Y-546008D02*
X6760539Y-517436D01*
X6760539Y-517436D02*
X6751015Y-507912D01*
D12*
X-5000Y-909000D02*
G75*
G02*
X-155000Y-909000I-75000J0D01*
G01*
X-155000Y-909000D02*
G75*
G02*
X-5000Y-909000I75000J0D01*
G01*
D11*
X360539Y-1000484D02*
X246253Y-1000484D01*
X303396Y-1000484D02*
X303396Y-800484D01*
X303396Y-800484D02*
X284348Y-829055D01*
X284348Y-829055D02*
X265301Y-848103D01*
X265301Y-848103D02*
X246253Y-857627D01*
X446253Y-981436D02*
X455777Y-990960D01*
X455777Y-990960D02*
X446253Y-1000484D01*
X446253Y-1000484D02*
X436729Y-990960D01*
X436729Y-990960D02*
X446253Y-981436D01*
X446253Y-981436D02*
X446253Y-1000484D01*
X636729Y-800484D02*
X541491Y-800484D01*
X541491Y-800484D02*
X531967Y-895722D01*
X531967Y-895722D02*
X541491Y-886198D01*
X541491Y-886198D02*
X560539Y-876674D01*
X560539Y-876674D02*
X608158Y-876674D01*
X608158Y-876674D02*
X627205Y-886198D01*
X627205Y-886198D02*
X636729Y-895722D01*
X636729Y-895722D02*
X646253Y-914769D01*
X646253Y-914769D02*
X646253Y-962388D01*
X646253Y-962388D02*
X636729Y-981436D01*
X636729Y-981436D02*
X627205Y-990960D01*
X627205Y-990960D02*
X608158Y-1000484D01*
X608158Y-1000484D02*
X560539Y-1000484D01*
X560539Y-1000484D02*
X541491Y-990960D01*
X541491Y-990960D02*
X531967Y-981436D01*
X770062Y-800484D02*
X789110Y-800484D01*
X789110Y-800484D02*
X808158Y-810008D01*
X808158Y-810008D02*
X817682Y-819531D01*
X817682Y-819531D02*
X827205Y-838579D01*
X827205Y-838579D02*
X836729Y-876674D01*
X836729Y-876674D02*
X836729Y-924293D01*
X836729Y-924293D02*
X827205Y-962388D01*
X827205Y-962388D02*
X817682Y-981436D01*
X817682Y-981436D02*
X808158Y-990960D01*
X808158Y-990960D02*
X789110Y-1000484D01*
X789110Y-1000484D02*
X770062Y-1000484D01*
X770062Y-1000484D02*
X751015Y-990960D01*
X751015Y-990960D02*
X741491Y-981436D01*
X741491Y-981436D02*
X731967Y-962388D01*
X731967Y-962388D02*
X722443Y-924293D01*
X722443Y-924293D02*
X722443Y-876674D01*
X722443Y-876674D02*
X731967Y-838579D01*
X731967Y-838579D02*
X741491Y-819531D01*
X741491Y-819531D02*
X751015Y-810008D01*
X751015Y-810008D02*
X770062Y-800484D01*
X960539Y-800484D02*
X979586Y-800484D01*
X979586Y-800484D02*
X998634Y-810008D01*
X998634Y-810008D02*
X1008158Y-819531D01*
X1008158Y-819531D02*
X1017682Y-838579D01*
X1017682Y-838579D02*
X1027205Y-876674D01*
X1027205Y-876674D02*
X1027205Y-924293D01*
X1027205Y-924293D02*
X1017682Y-962388D01*
X1017682Y-962388D02*
X1008158Y-981436D01*
X1008158Y-981436D02*
X998634Y-990960D01*
X998634Y-990960D02*
X979586Y-1000484D01*
X979586Y-1000484D02*
X960539Y-1000484D01*
X960539Y-1000484D02*
X941491Y-990960D01*
X941491Y-990960D02*
X931967Y-981436D01*
X931967Y-981436D02*
X922443Y-962388D01*
X922443Y-962388D02*
X912920Y-924293D01*
X912920Y-924293D02*
X912920Y-876674D01*
X912920Y-876674D02*
X922443Y-838579D01*
X922443Y-838579D02*
X931967Y-819531D01*
X931967Y-819531D02*
X941491Y-810008D01*
X941491Y-810008D02*
X960539Y-800484D01*
X1112920Y-1000484D02*
X1112920Y-867150D01*
X1112920Y-886198D02*
X1122444Y-876674D01*
X1122444Y-876674D02*
X1141491Y-867150D01*
X1141491Y-867150D02*
X1170063Y-867150D01*
X1170063Y-867150D02*
X1189110Y-876674D01*
X1189110Y-876674D02*
X1198634Y-895722D01*
X1198634Y-895722D02*
X1198634Y-1000484D01*
X1198634Y-895722D02*
X1208158Y-876674D01*
X1208158Y-876674D02*
X1227205Y-867150D01*
X1227205Y-867150D02*
X1255777Y-867150D01*
X1255777Y-867150D02*
X1274825Y-876674D01*
X1274825Y-876674D02*
X1284348Y-895722D01*
X1284348Y-895722D02*
X1284348Y-1000484D01*
X1379586Y-1000484D02*
X1379586Y-867150D01*
X1379586Y-886198D02*
X1389110Y-876674D01*
X1389110Y-876674D02*
X1408158Y-867150D01*
X1408158Y-867150D02*
X1436729Y-867150D01*
X1436729Y-867150D02*
X1455777Y-876674D01*
X1455777Y-876674D02*
X1465301Y-895722D01*
X1465301Y-895722D02*
X1465301Y-1000484D01*
X1465301Y-895722D02*
X1474824Y-876674D01*
X1474824Y-876674D02*
X1493872Y-867150D01*
X1493872Y-867150D02*
X1522443Y-867150D01*
X1522443Y-867150D02*
X1541491Y-876674D01*
X1541491Y-876674D02*
X1551015Y-895722D01*
X1551015Y-895722D02*
X1551015Y-1000484D01*
X1941491Y-790960D02*
X1770063Y-1048103D01*
X2198634Y-800484D02*
X2217682Y-800484D01*
X2217682Y-800484D02*
X2236729Y-810008D01*
X2236729Y-810008D02*
X2246253Y-819531D01*
X2246253Y-819531D02*
X2255777Y-838579D01*
X2255777Y-838579D02*
X2265301Y-876674D01*
X2265301Y-876674D02*
X2265301Y-924293D01*
X2265301Y-924293D02*
X2255777Y-962388D01*
X2255777Y-962388D02*
X2246253Y-981436D01*
X2246253Y-981436D02*
X2236729Y-990960D01*
X2236729Y-990960D02*
X2217682Y-1000484D01*
X2217682Y-1000484D02*
X2198634Y-1000484D01*
X2198634Y-1000484D02*
X2179587Y-990960D01*
X2179587Y-990960D02*
X2170063Y-981436D01*
X2170063Y-981436D02*
X2160539Y-962388D01*
X2160539Y-962388D02*
X2151015Y-924293D01*
X2151015Y-924293D02*
X2151015Y-876674D01*
X2151015Y-876674D02*
X2160539Y-838579D01*
X2160539Y-838579D02*
X2170063Y-819531D01*
X2170063Y-819531D02*
X2179587Y-810008D01*
X2179587Y-810008D02*
X2198634Y-800484D01*
X2351015Y-981436D02*
X2360539Y-990960D01*
X2360539Y-990960D02*
X2351015Y-1000484D01*
X2351015Y-1000484D02*
X2341491Y-990960D01*
X2341491Y-990960D02*
X2351015Y-981436D01*
X2351015Y-981436D02*
X2351015Y-1000484D01*
X2484348Y-800484D02*
X2503396Y-800484D01*
X2503396Y-800484D02*
X2522444Y-810008D01*
X2522444Y-810008D02*
X2531968Y-819531D01*
X2531968Y-819531D02*
X2541491Y-838579D01*
X2541491Y-838579D02*
X2551015Y-876674D01*
X2551015Y-876674D02*
X2551015Y-924293D01*
X2551015Y-924293D02*
X2541491Y-962388D01*
X2541491Y-962388D02*
X2531968Y-981436D01*
X2531968Y-981436D02*
X2522444Y-990960D01*
X2522444Y-990960D02*
X2503396Y-1000484D01*
X2503396Y-1000484D02*
X2484348Y-1000484D01*
X2484348Y-1000484D02*
X2465301Y-990960D01*
X2465301Y-990960D02*
X2455777Y-981436D01*
X2455777Y-981436D02*
X2446253Y-962388D01*
X2446253Y-962388D02*
X2436729Y-924293D01*
X2436729Y-924293D02*
X2436729Y-876674D01*
X2436729Y-876674D02*
X2446253Y-838579D01*
X2446253Y-838579D02*
X2455777Y-819531D01*
X2455777Y-819531D02*
X2465301Y-810008D01*
X2465301Y-810008D02*
X2484348Y-800484D01*
X2731968Y-800484D02*
X2636729Y-800484D01*
X2636729Y-800484D02*
X2627206Y-895722D01*
X2627206Y-895722D02*
X2636729Y-886198D01*
X2636729Y-886198D02*
X2655777Y-876674D01*
X2655777Y-876674D02*
X2703396Y-876674D01*
X2703396Y-876674D02*
X2722444Y-886198D01*
X2722444Y-886198D02*
X2731968Y-895722D01*
X2731968Y-895722D02*
X2741491Y-914769D01*
X2741491Y-914769D02*
X2741491Y-962388D01*
X2741491Y-962388D02*
X2731968Y-981436D01*
X2731968Y-981436D02*
X2722444Y-990960D01*
X2722444Y-990960D02*
X2703396Y-1000484D01*
X2703396Y-1000484D02*
X2655777Y-1000484D01*
X2655777Y-1000484D02*
X2636729Y-990960D01*
X2636729Y-990960D02*
X2627206Y-981436D01*
X2836729Y-1000484D02*
X2874825Y-1000484D01*
X2874825Y-1000484D02*
X2893872Y-990960D01*
X2893872Y-990960D02*
X2903396Y-981436D01*
X2903396Y-981436D02*
X2922444Y-952865D01*
X2922444Y-952865D02*
X2931967Y-914769D01*
X2931967Y-914769D02*
X2931967Y-838579D01*
X2931967Y-838579D02*
X2922444Y-819531D01*
X2922444Y-819531D02*
X2912920Y-810008D01*
X2912920Y-810008D02*
X2893872Y-800484D01*
X2893872Y-800484D02*
X2855777Y-800484D01*
X2855777Y-800484D02*
X2836729Y-810008D01*
X2836729Y-810008D02*
X2827206Y-819531D01*
X2827206Y-819531D02*
X2817682Y-838579D01*
X2817682Y-838579D02*
X2817682Y-886198D01*
X2817682Y-886198D02*
X2827206Y-905246D01*
X2827206Y-905246D02*
X2836729Y-914769D01*
X2836729Y-914769D02*
X2855777Y-924293D01*
X2855777Y-924293D02*
X2893872Y-924293D01*
X2893872Y-924293D02*
X2912920Y-914769D01*
X2912920Y-914769D02*
X2922444Y-905246D01*
X2922444Y-905246D02*
X2931967Y-886198D01*
X3122444Y-1000484D02*
X3008158Y-1000484D01*
X3065301Y-1000484D02*
X3065301Y-800484D01*
X3065301Y-800484D02*
X3046253Y-829055D01*
X3046253Y-829055D02*
X3027206Y-848103D01*
X3027206Y-848103D02*
X3008158Y-857627D01*
X3198634Y-800484D02*
X3198634Y-838579D01*
X3274825Y-800484D02*
X3274825Y-838579D01*
X3570063Y-1076674D02*
X3560539Y-1067150D01*
X3560539Y-1067150D02*
X3541491Y-1038579D01*
X3541491Y-1038579D02*
X3531968Y-1019531D01*
X3531968Y-1019531D02*
X3522444Y-990960D01*
X3522444Y-990960D02*
X3512920Y-943341D01*
X3512920Y-943341D02*
X3512920Y-905246D01*
X3512920Y-905246D02*
X3522444Y-857627D01*
X3522444Y-857627D02*
X3531968Y-829055D01*
X3531968Y-829055D02*
X3541491Y-810008D01*
X3541491Y-810008D02*
X3560539Y-781436D01*
X3560539Y-781436D02*
X3570063Y-771912D01*
X3636729Y-819531D02*
X3646253Y-810008D01*
X3646253Y-810008D02*
X3665301Y-800484D01*
X3665301Y-800484D02*
X3712920Y-800484D01*
X3712920Y-800484D02*
X3731968Y-810008D01*
X3731968Y-810008D02*
X3741491Y-819531D01*
X3741491Y-819531D02*
X3751015Y-838579D01*
X3751015Y-838579D02*
X3751015Y-857627D01*
X3751015Y-857627D02*
X3741491Y-886198D01*
X3741491Y-886198D02*
X3627206Y-1000484D01*
X3627206Y-1000484D02*
X3751015Y-1000484D01*
X3989110Y-1000484D02*
X3989110Y-800484D01*
X4074825Y-1000484D02*
X4074825Y-895722D01*
X4074825Y-895722D02*
X4065301Y-876674D01*
X4065301Y-876674D02*
X4046253Y-867150D01*
X4046253Y-867150D02*
X4017682Y-867150D01*
X4017682Y-867150D02*
X3998634Y-876674D01*
X3998634Y-876674D02*
X3989110Y-886198D01*
X4198634Y-1000484D02*
X4179587Y-990960D01*
X4179587Y-990960D02*
X4170063Y-981436D01*
X4170063Y-981436D02*
X4160539Y-962388D01*
X4160539Y-962388D02*
X4160539Y-905246D01*
X4160539Y-905246D02*
X4170063Y-886198D01*
X4170063Y-886198D02*
X4179587Y-876674D01*
X4179587Y-876674D02*
X4198634Y-867150D01*
X4198634Y-867150D02*
X4227206Y-867150D01*
X4227206Y-867150D02*
X4246253Y-876674D01*
X4246253Y-876674D02*
X4255777Y-886198D01*
X4255777Y-886198D02*
X4265301Y-905246D01*
X4265301Y-905246D02*
X4265301Y-962388D01*
X4265301Y-962388D02*
X4255777Y-981436D01*
X4255777Y-981436D02*
X4246253Y-990960D01*
X4246253Y-990960D02*
X4227206Y-1000484D01*
X4227206Y-1000484D02*
X4198634Y-1000484D01*
X4379587Y-1000484D02*
X4360539Y-990960D01*
X4360539Y-990960D02*
X4351015Y-971912D01*
X4351015Y-971912D02*
X4351015Y-800484D01*
X4531968Y-990960D02*
X4512920Y-1000484D01*
X4512920Y-1000484D02*
X4474825Y-1000484D01*
X4474825Y-1000484D02*
X4455777Y-990960D01*
X4455777Y-990960D02*
X4446253Y-971912D01*
X4446253Y-971912D02*
X4446253Y-895722D01*
X4446253Y-895722D02*
X4455777Y-876674D01*
X4455777Y-876674D02*
X4474825Y-867150D01*
X4474825Y-867150D02*
X4512920Y-867150D01*
X4512920Y-867150D02*
X4531968Y-876674D01*
X4531968Y-876674D02*
X4541492Y-895722D01*
X4541492Y-895722D02*
X4541492Y-914769D01*
X4541492Y-914769D02*
X4446253Y-933817D01*
X4617682Y-990960D02*
X4636730Y-1000484D01*
X4636730Y-1000484D02*
X4674825Y-1000484D01*
X4674825Y-1000484D02*
X4693873Y-990960D01*
X4693873Y-990960D02*
X4703396Y-971912D01*
X4703396Y-971912D02*
X4703396Y-962388D01*
X4703396Y-962388D02*
X4693873Y-943341D01*
X4693873Y-943341D02*
X4674825Y-933817D01*
X4674825Y-933817D02*
X4646253Y-933817D01*
X4646253Y-933817D02*
X4627206Y-924293D01*
X4627206Y-924293D02*
X4617682Y-905246D01*
X4617682Y-905246D02*
X4617682Y-895722D01*
X4617682Y-895722D02*
X4627206Y-876674D01*
X4627206Y-876674D02*
X4646253Y-867150D01*
X4646253Y-867150D02*
X4674825Y-867150D01*
X4674825Y-867150D02*
X4693873Y-876674D01*
X4770063Y-1076674D02*
X4779587Y-1067150D01*
X4779587Y-1067150D02*
X4798634Y-1038579D01*
X4798634Y-1038579D02*
X4808158Y-1019531D01*
X4808158Y-1019531D02*
X4817682Y-990960D01*
X4817682Y-990960D02*
X4827206Y-943341D01*
X4827206Y-943341D02*
X4827206Y-905246D01*
X4827206Y-905246D02*
X4817682Y-857627D01*
X4817682Y-857627D02*
X4808158Y-829055D01*
X4808158Y-829055D02*
X4798634Y-810008D01*
X4798634Y-810008D02*
X4779587Y-781436D01*
X4779587Y-781436D02*
X4770063Y-771912D01*
X5131968Y-1076674D02*
X5122444Y-1067150D01*
X5122444Y-1067150D02*
X5103396Y-1038579D01*
X5103396Y-1038579D02*
X5093873Y-1019531D01*
X5093873Y-1019531D02*
X5084349Y-990960D01*
X5084349Y-990960D02*
X5074825Y-943341D01*
X5074825Y-943341D02*
X5074825Y-905246D01*
X5074825Y-905246D02*
X5084349Y-857627D01*
X5084349Y-857627D02*
X5093873Y-829055D01*
X5093873Y-829055D02*
X5103396Y-810008D01*
X5103396Y-810008D02*
X5122444Y-781436D01*
X5122444Y-781436D02*
X5131968Y-771912D01*
X5208158Y-867150D02*
X5208158Y-1000484D01*
X5208158Y-886198D02*
X5217682Y-876674D01*
X5217682Y-876674D02*
X5236730Y-867150D01*
X5236730Y-867150D02*
X5265301Y-867150D01*
X5265301Y-867150D02*
X5284349Y-876674D01*
X5284349Y-876674D02*
X5293873Y-895722D01*
X5293873Y-895722D02*
X5293873Y-1000484D01*
X5417682Y-1000484D02*
X5398634Y-990960D01*
X5398634Y-990960D02*
X5389111Y-981436D01*
X5389111Y-981436D02*
X5379587Y-962388D01*
X5379587Y-962388D02*
X5379587Y-905246D01*
X5379587Y-905246D02*
X5389111Y-886198D01*
X5389111Y-886198D02*
X5398634Y-876674D01*
X5398634Y-876674D02*
X5417682Y-867150D01*
X5417682Y-867150D02*
X5446254Y-867150D01*
X5446254Y-867150D02*
X5465301Y-876674D01*
X5465301Y-876674D02*
X5474825Y-886198D01*
X5474825Y-886198D02*
X5484349Y-905246D01*
X5484349Y-905246D02*
X5484349Y-962388D01*
X5484349Y-962388D02*
X5474825Y-981436D01*
X5474825Y-981436D02*
X5465301Y-990960D01*
X5465301Y-990960D02*
X5446254Y-1000484D01*
X5446254Y-1000484D02*
X5417682Y-1000484D01*
X5541492Y-867150D02*
X5617682Y-867150D01*
X5570063Y-800484D02*
X5570063Y-971912D01*
X5570063Y-971912D02*
X5579587Y-990960D01*
X5579587Y-990960D02*
X5598634Y-1000484D01*
X5598634Y-1000484D02*
X5617682Y-1000484D01*
X5836730Y-867150D02*
X5836730Y-1067150D01*
X5836730Y-876674D02*
X5855777Y-867150D01*
X5855777Y-867150D02*
X5893873Y-867150D01*
X5893873Y-867150D02*
X5912920Y-876674D01*
X5912920Y-876674D02*
X5922444Y-886198D01*
X5922444Y-886198D02*
X5931968Y-905246D01*
X5931968Y-905246D02*
X5931968Y-962388D01*
X5931968Y-962388D02*
X5922444Y-981436D01*
X5922444Y-981436D02*
X5912920Y-990960D01*
X5912920Y-990960D02*
X5893873Y-1000484D01*
X5893873Y-1000484D02*
X5855777Y-1000484D01*
X5855777Y-1000484D02*
X5836730Y-990960D01*
X6046253Y-1000484D02*
X6027206Y-990960D01*
X6027206Y-990960D02*
X6017682Y-971912D01*
X6017682Y-971912D02*
X6017682Y-800484D01*
X6208158Y-1000484D02*
X6208158Y-895722D01*
X6208158Y-895722D02*
X6198634Y-876674D01*
X6198634Y-876674D02*
X6179587Y-867150D01*
X6179587Y-867150D02*
X6141492Y-867150D01*
X6141492Y-867150D02*
X6122444Y-876674D01*
X6208158Y-990960D02*
X6189111Y-1000484D01*
X6189111Y-1000484D02*
X6141492Y-1000484D01*
X6141492Y-1000484D02*
X6122444Y-990960D01*
X6122444Y-990960D02*
X6112920Y-971912D01*
X6112920Y-971912D02*
X6112920Y-952865D01*
X6112920Y-952865D02*
X6122444Y-933817D01*
X6122444Y-933817D02*
X6141492Y-924293D01*
X6141492Y-924293D02*
X6189111Y-924293D01*
X6189111Y-924293D02*
X6208158Y-914769D01*
X6274825Y-867150D02*
X6351015Y-867150D01*
X6303396Y-800484D02*
X6303396Y-971912D01*
X6303396Y-971912D02*
X6312920Y-990960D01*
X6312920Y-990960D02*
X6331968Y-1000484D01*
X6331968Y-1000484D02*
X6351015Y-1000484D01*
X6493873Y-990960D02*
X6474825Y-1000484D01*
X6474825Y-1000484D02*
X6436730Y-1000484D01*
X6436730Y-1000484D02*
X6417682Y-990960D01*
X6417682Y-990960D02*
X6408158Y-971912D01*
X6408158Y-971912D02*
X6408158Y-895722D01*
X6408158Y-895722D02*
X6417682Y-876674D01*
X6417682Y-876674D02*
X6436730Y-867150D01*
X6436730Y-867150D02*
X6474825Y-867150D01*
X6474825Y-867150D02*
X6493873Y-876674D01*
X6493873Y-876674D02*
X6503396Y-895722D01*
X6503396Y-895722D02*
X6503396Y-914769D01*
X6503396Y-914769D02*
X6408158Y-933817D01*
X6674825Y-1000484D02*
X6674825Y-800484D01*
X6674825Y-990960D02*
X6655777Y-1000484D01*
X6655777Y-1000484D02*
X6617682Y-1000484D01*
X6617682Y-1000484D02*
X6598634Y-990960D01*
X6598634Y-990960D02*
X6589111Y-981436D01*
X6589111Y-981436D02*
X6579587Y-962388D01*
X6579587Y-962388D02*
X6579587Y-905246D01*
X6579587Y-905246D02*
X6589111Y-886198D01*
X6589111Y-886198D02*
X6598634Y-876674D01*
X6598634Y-876674D02*
X6617682Y-867150D01*
X6617682Y-867150D02*
X6655777Y-867150D01*
X6655777Y-867150D02*
X6674825Y-876674D01*
X6751015Y-1076674D02*
X6760539Y-1067150D01*
X6760539Y-1067150D02*
X6779587Y-1038579D01*
X6779587Y-1038579D02*
X6789111Y-1019531D01*
X6789111Y-1019531D02*
X6798634Y-990960D01*
X6798634Y-990960D02*
X6808158Y-943341D01*
X6808158Y-943341D02*
X6808158Y-905246D01*
X6808158Y-905246D02*
X6798634Y-857627D01*
X6798634Y-857627D02*
X6789111Y-829055D01*
X6789111Y-829055D02*
X6779587Y-810008D01*
X6779587Y-810008D02*
X6760539Y-781436D01*
X6760539Y-781436D02*
X6751015Y-771912D01*
X-105000Y-1079000D02*
X-105000Y-1279000D01*
X-205000Y-1179000D02*
X-5000Y-1179000D01*
X246253Y-1089531D02*
X255777Y-1080008D01*
X255777Y-1080008D02*
X274824Y-1070484D01*
X274824Y-1070484D02*
X322444Y-1070484D01*
X322444Y-1070484D02*
X341491Y-1080008D01*
X341491Y-1080008D02*
X351015Y-1089531D01*
X351015Y-1089531D02*
X360539Y-1108579D01*
X360539Y-1108579D02*
X360539Y-1127627D01*
X360539Y-1127627D02*
X351015Y-1156198D01*
X351015Y-1156198D02*
X236729Y-1270484D01*
X236729Y-1270484D02*
X360539Y-1270484D01*
X446253Y-1251436D02*
X455777Y-1260960D01*
X455777Y-1260960D02*
X446253Y-1270484D01*
X446253Y-1270484D02*
X436729Y-1260960D01*
X436729Y-1260960D02*
X446253Y-1251436D01*
X446253Y-1251436D02*
X446253Y-1270484D01*
X522443Y-1070484D02*
X655777Y-1070484D01*
X655777Y-1070484D02*
X570063Y-1270484D01*
X770062Y-1070484D02*
X789110Y-1070484D01*
X789110Y-1070484D02*
X808158Y-1080008D01*
X808158Y-1080008D02*
X817682Y-1089531D01*
X817682Y-1089531D02*
X827205Y-1108579D01*
X827205Y-1108579D02*
X836729Y-1146674D01*
X836729Y-1146674D02*
X836729Y-1194293D01*
X836729Y-1194293D02*
X827205Y-1232389D01*
X827205Y-1232389D02*
X817682Y-1251436D01*
X817682Y-1251436D02*
X808158Y-1260960D01*
X808158Y-1260960D02*
X789110Y-1270484D01*
X789110Y-1270484D02*
X770062Y-1270484D01*
X770062Y-1270484D02*
X751015Y-1260960D01*
X751015Y-1260960D02*
X741491Y-1251436D01*
X741491Y-1251436D02*
X731967Y-1232389D01*
X731967Y-1232389D02*
X722443Y-1194293D01*
X722443Y-1194293D02*
X722443Y-1146674D01*
X722443Y-1146674D02*
X731967Y-1108579D01*
X731967Y-1108579D02*
X741491Y-1089531D01*
X741491Y-1089531D02*
X751015Y-1080008D01*
X751015Y-1080008D02*
X770062Y-1070484D01*
X960539Y-1070484D02*
X979586Y-1070484D01*
X979586Y-1070484D02*
X998634Y-1080008D01*
X998634Y-1080008D02*
X1008158Y-1089531D01*
X1008158Y-1089531D02*
X1017682Y-1108579D01*
X1017682Y-1108579D02*
X1027205Y-1146674D01*
X1027205Y-1146674D02*
X1027205Y-1194293D01*
X1027205Y-1194293D02*
X1017682Y-1232389D01*
X1017682Y-1232389D02*
X1008158Y-1251436D01*
X1008158Y-1251436D02*
X998634Y-1260960D01*
X998634Y-1260960D02*
X979586Y-1270484D01*
X979586Y-1270484D02*
X960539Y-1270484D01*
X960539Y-1270484D02*
X941491Y-1260960D01*
X941491Y-1260960D02*
X931967Y-1251436D01*
X931967Y-1251436D02*
X922443Y-1232389D01*
X922443Y-1232389D02*
X912920Y-1194293D01*
X912920Y-1194293D02*
X912920Y-1146674D01*
X912920Y-1146674D02*
X922443Y-1108579D01*
X922443Y-1108579D02*
X931967Y-1089531D01*
X931967Y-1089531D02*
X941491Y-1080008D01*
X941491Y-1080008D02*
X960539Y-1070484D01*
X1112920Y-1270484D02*
X1112920Y-1137150D01*
X1112920Y-1156198D02*
X1122444Y-1146674D01*
X1122444Y-1146674D02*
X1141491Y-1137150D01*
X1141491Y-1137150D02*
X1170063Y-1137150D01*
X1170063Y-1137150D02*
X1189110Y-1146674D01*
X1189110Y-1146674D02*
X1198634Y-1165722D01*
X1198634Y-1165722D02*
X1198634Y-1270484D01*
X1198634Y-1165722D02*
X1208158Y-1146674D01*
X1208158Y-1146674D02*
X1227205Y-1137150D01*
X1227205Y-1137150D02*
X1255777Y-1137150D01*
X1255777Y-1137150D02*
X1274825Y-1146674D01*
X1274825Y-1146674D02*
X1284348Y-1165722D01*
X1284348Y-1165722D02*
X1284348Y-1270484D01*
X1379586Y-1270484D02*
X1379586Y-1137150D01*
X1379586Y-1156198D02*
X1389110Y-1146674D01*
X1389110Y-1146674D02*
X1408158Y-1137150D01*
X1408158Y-1137150D02*
X1436729Y-1137150D01*
X1436729Y-1137150D02*
X1455777Y-1146674D01*
X1455777Y-1146674D02*
X1465301Y-1165722D01*
X1465301Y-1165722D02*
X1465301Y-1270484D01*
X1465301Y-1165722D02*
X1474824Y-1146674D01*
X1474824Y-1146674D02*
X1493872Y-1137150D01*
X1493872Y-1137150D02*
X1522443Y-1137150D01*
X1522443Y-1137150D02*
X1541491Y-1146674D01*
X1541491Y-1146674D02*
X1551015Y-1165722D01*
X1551015Y-1165722D02*
X1551015Y-1270484D01*
X1941491Y-1060960D02*
X1770063Y-1318103D01*
X2198634Y-1070484D02*
X2217682Y-1070484D01*
X2217682Y-1070484D02*
X2236729Y-1080008D01*
X2236729Y-1080008D02*
X2246253Y-1089531D01*
X2246253Y-1089531D02*
X2255777Y-1108579D01*
X2255777Y-1108579D02*
X2265301Y-1146674D01*
X2265301Y-1146674D02*
X2265301Y-1194293D01*
X2265301Y-1194293D02*
X2255777Y-1232389D01*
X2255777Y-1232389D02*
X2246253Y-1251436D01*
X2246253Y-1251436D02*
X2236729Y-1260960D01*
X2236729Y-1260960D02*
X2217682Y-1270484D01*
X2217682Y-1270484D02*
X2198634Y-1270484D01*
X2198634Y-1270484D02*
X2179587Y-1260960D01*
X2179587Y-1260960D02*
X2170063Y-1251436D01*
X2170063Y-1251436D02*
X2160539Y-1232389D01*
X2160539Y-1232389D02*
X2151015Y-1194293D01*
X2151015Y-1194293D02*
X2151015Y-1146674D01*
X2151015Y-1146674D02*
X2160539Y-1108579D01*
X2160539Y-1108579D02*
X2170063Y-1089531D01*
X2170063Y-1089531D02*
X2179587Y-1080008D01*
X2179587Y-1080008D02*
X2198634Y-1070484D01*
X2351015Y-1251436D02*
X2360539Y-1260960D01*
X2360539Y-1260960D02*
X2351015Y-1270484D01*
X2351015Y-1270484D02*
X2341491Y-1260960D01*
X2341491Y-1260960D02*
X2351015Y-1251436D01*
X2351015Y-1251436D02*
X2351015Y-1270484D01*
X2551015Y-1270484D02*
X2436729Y-1270484D01*
X2493872Y-1270484D02*
X2493872Y-1070484D01*
X2493872Y-1070484D02*
X2474825Y-1099055D01*
X2474825Y-1099055D02*
X2455777Y-1118103D01*
X2455777Y-1118103D02*
X2436729Y-1127627D01*
X2674825Y-1070484D02*
X2693872Y-1070484D01*
X2693872Y-1070484D02*
X2712920Y-1080008D01*
X2712920Y-1080008D02*
X2722444Y-1089531D01*
X2722444Y-1089531D02*
X2731968Y-1108579D01*
X2731968Y-1108579D02*
X2741491Y-1146674D01*
X2741491Y-1146674D02*
X2741491Y-1194293D01*
X2741491Y-1194293D02*
X2731968Y-1232389D01*
X2731968Y-1232389D02*
X2722444Y-1251436D01*
X2722444Y-1251436D02*
X2712920Y-1260960D01*
X2712920Y-1260960D02*
X2693872Y-1270484D01*
X2693872Y-1270484D02*
X2674825Y-1270484D01*
X2674825Y-1270484D02*
X2655777Y-1260960D01*
X2655777Y-1260960D02*
X2646253Y-1251436D01*
X2646253Y-1251436D02*
X2636729Y-1232389D01*
X2636729Y-1232389D02*
X2627206Y-1194293D01*
X2627206Y-1194293D02*
X2627206Y-1146674D01*
X2627206Y-1146674D02*
X2636729Y-1108579D01*
X2636729Y-1108579D02*
X2646253Y-1089531D01*
X2646253Y-1089531D02*
X2655777Y-1080008D01*
X2655777Y-1080008D02*
X2674825Y-1070484D01*
X2912920Y-1070484D02*
X2874825Y-1070484D01*
X2874825Y-1070484D02*
X2855777Y-1080008D01*
X2855777Y-1080008D02*
X2846253Y-1089531D01*
X2846253Y-1089531D02*
X2827206Y-1118103D01*
X2827206Y-1118103D02*
X2817682Y-1156198D01*
X2817682Y-1156198D02*
X2817682Y-1232389D01*
X2817682Y-1232389D02*
X2827206Y-1251436D01*
X2827206Y-1251436D02*
X2836729Y-1260960D01*
X2836729Y-1260960D02*
X2855777Y-1270484D01*
X2855777Y-1270484D02*
X2893872Y-1270484D01*
X2893872Y-1270484D02*
X2912920Y-1260960D01*
X2912920Y-1260960D02*
X2922444Y-1251436D01*
X2922444Y-1251436D02*
X2931967Y-1232389D01*
X2931967Y-1232389D02*
X2931967Y-1184770D01*
X2931967Y-1184770D02*
X2922444Y-1165722D01*
X2922444Y-1165722D02*
X2912920Y-1156198D01*
X2912920Y-1156198D02*
X2893872Y-1146674D01*
X2893872Y-1146674D02*
X2855777Y-1146674D01*
X2855777Y-1146674D02*
X2836729Y-1156198D01*
X2836729Y-1156198D02*
X2827206Y-1165722D01*
X2827206Y-1165722D02*
X2817682Y-1184770D01*
X2998634Y-1070484D02*
X3122444Y-1070484D01*
X3122444Y-1070484D02*
X3055777Y-1146674D01*
X3055777Y-1146674D02*
X3084348Y-1146674D01*
X3084348Y-1146674D02*
X3103396Y-1156198D01*
X3103396Y-1156198D02*
X3112920Y-1165722D01*
X3112920Y-1165722D02*
X3122444Y-1184770D01*
X3122444Y-1184770D02*
X3122444Y-1232389D01*
X3122444Y-1232389D02*
X3112920Y-1251436D01*
X3112920Y-1251436D02*
X3103396Y-1260960D01*
X3103396Y-1260960D02*
X3084348Y-1270484D01*
X3084348Y-1270484D02*
X3027206Y-1270484D01*
X3027206Y-1270484D02*
X3008158Y-1260960D01*
X3008158Y-1260960D02*
X2998634Y-1251436D01*
X3198634Y-1070484D02*
X3198634Y-1108579D01*
X3274825Y-1070484D02*
X3274825Y-1108579D01*
X3570063Y-1346674D02*
X3560539Y-1337150D01*
X3560539Y-1337150D02*
X3541491Y-1308579D01*
X3541491Y-1308579D02*
X3531968Y-1289531D01*
X3531968Y-1289531D02*
X3522444Y-1260960D01*
X3522444Y-1260960D02*
X3512920Y-1213341D01*
X3512920Y-1213341D02*
X3512920Y-1175246D01*
X3512920Y-1175246D02*
X3522444Y-1127627D01*
X3522444Y-1127627D02*
X3531968Y-1099055D01*
X3531968Y-1099055D02*
X3541491Y-1080008D01*
X3541491Y-1080008D02*
X3560539Y-1051436D01*
X3560539Y-1051436D02*
X3570063Y-1041912D01*
X3731968Y-1137150D02*
X3731968Y-1270484D01*
X3684348Y-1060960D02*
X3636729Y-1203817D01*
X3636729Y-1203817D02*
X3760539Y-1203817D01*
X3989110Y-1270484D02*
X3989110Y-1070484D01*
X4074825Y-1270484D02*
X4074825Y-1165722D01*
X4074825Y-1165722D02*
X4065301Y-1146674D01*
X4065301Y-1146674D02*
X4046253Y-1137150D01*
X4046253Y-1137150D02*
X4017682Y-1137150D01*
X4017682Y-1137150D02*
X3998634Y-1146674D01*
X3998634Y-1146674D02*
X3989110Y-1156198D01*
X4198634Y-1270484D02*
X4179587Y-1260960D01*
X4179587Y-1260960D02*
X4170063Y-1251436D01*
X4170063Y-1251436D02*
X4160539Y-1232389D01*
X4160539Y-1232389D02*
X4160539Y-1175246D01*
X4160539Y-1175246D02*
X4170063Y-1156198D01*
X4170063Y-1156198D02*
X4179587Y-1146674D01*
X4179587Y-1146674D02*
X4198634Y-1137150D01*
X4198634Y-1137150D02*
X4227206Y-1137150D01*
X4227206Y-1137150D02*
X4246253Y-1146674D01*
X4246253Y-1146674D02*
X4255777Y-1156198D01*
X4255777Y-1156198D02*
X4265301Y-1175246D01*
X4265301Y-1175246D02*
X4265301Y-1232389D01*
X4265301Y-1232389D02*
X4255777Y-1251436D01*
X4255777Y-1251436D02*
X4246253Y-1260960D01*
X4246253Y-1260960D02*
X4227206Y-1270484D01*
X4227206Y-1270484D02*
X4198634Y-1270484D01*
X4379587Y-1270484D02*
X4360539Y-1260960D01*
X4360539Y-1260960D02*
X4351015Y-1241912D01*
X4351015Y-1241912D02*
X4351015Y-1070484D01*
X4531968Y-1260960D02*
X4512920Y-1270484D01*
X4512920Y-1270484D02*
X4474825Y-1270484D01*
X4474825Y-1270484D02*
X4455777Y-1260960D01*
X4455777Y-1260960D02*
X4446253Y-1241912D01*
X4446253Y-1241912D02*
X4446253Y-1165722D01*
X4446253Y-1165722D02*
X4455777Y-1146674D01*
X4455777Y-1146674D02*
X4474825Y-1137150D01*
X4474825Y-1137150D02*
X4512920Y-1137150D01*
X4512920Y-1137150D02*
X4531968Y-1146674D01*
X4531968Y-1146674D02*
X4541492Y-1165722D01*
X4541492Y-1165722D02*
X4541492Y-1184770D01*
X4541492Y-1184770D02*
X4446253Y-1203817D01*
X4617682Y-1260960D02*
X4636730Y-1270484D01*
X4636730Y-1270484D02*
X4674825Y-1270484D01*
X4674825Y-1270484D02*
X4693873Y-1260960D01*
X4693873Y-1260960D02*
X4703396Y-1241912D01*
X4703396Y-1241912D02*
X4703396Y-1232389D01*
X4703396Y-1232389D02*
X4693873Y-1213341D01*
X4693873Y-1213341D02*
X4674825Y-1203817D01*
X4674825Y-1203817D02*
X4646253Y-1203817D01*
X4646253Y-1203817D02*
X4627206Y-1194293D01*
X4627206Y-1194293D02*
X4617682Y-1175246D01*
X4617682Y-1175246D02*
X4617682Y-1165722D01*
X4617682Y-1165722D02*
X4627206Y-1146674D01*
X4627206Y-1146674D02*
X4646253Y-1137150D01*
X4646253Y-1137150D02*
X4674825Y-1137150D01*
X4674825Y-1137150D02*
X4693873Y-1146674D01*
X4770063Y-1346674D02*
X4779587Y-1337150D01*
X4779587Y-1337150D02*
X4798634Y-1308579D01*
X4798634Y-1308579D02*
X4808158Y-1289531D01*
X4808158Y-1289531D02*
X4817682Y-1260960D01*
X4817682Y-1260960D02*
X4827206Y-1213341D01*
X4827206Y-1213341D02*
X4827206Y-1175246D01*
X4827206Y-1175246D02*
X4817682Y-1127627D01*
X4817682Y-1127627D02*
X4808158Y-1099055D01*
X4808158Y-1099055D02*
X4798634Y-1080008D01*
X4798634Y-1080008D02*
X4779587Y-1051436D01*
X4779587Y-1051436D02*
X4770063Y-1041912D01*
X5131968Y-1346674D02*
X5122444Y-1337150D01*
X5122444Y-1337150D02*
X5103396Y-1308579D01*
X5103396Y-1308579D02*
X5093873Y-1289531D01*
X5093873Y-1289531D02*
X5084349Y-1260960D01*
X5084349Y-1260960D02*
X5074825Y-1213341D01*
X5074825Y-1213341D02*
X5074825Y-1175246D01*
X5074825Y-1175246D02*
X5084349Y-1127627D01*
X5084349Y-1127627D02*
X5093873Y-1099055D01*
X5093873Y-1099055D02*
X5103396Y-1080008D01*
X5103396Y-1080008D02*
X5122444Y-1051436D01*
X5122444Y-1051436D02*
X5131968Y-1041912D01*
X5208158Y-1137150D02*
X5208158Y-1270484D01*
X5208158Y-1156198D02*
X5217682Y-1146674D01*
X5217682Y-1146674D02*
X5236730Y-1137150D01*
X5236730Y-1137150D02*
X5265301Y-1137150D01*
X5265301Y-1137150D02*
X5284349Y-1146674D01*
X5284349Y-1146674D02*
X5293873Y-1165722D01*
X5293873Y-1165722D02*
X5293873Y-1270484D01*
X5417682Y-1270484D02*
X5398634Y-1260960D01*
X5398634Y-1260960D02*
X5389111Y-1251436D01*
X5389111Y-1251436D02*
X5379587Y-1232389D01*
X5379587Y-1232389D02*
X5379587Y-1175246D01*
X5379587Y-1175246D02*
X5389111Y-1156198D01*
X5389111Y-1156198D02*
X5398634Y-1146674D01*
X5398634Y-1146674D02*
X5417682Y-1137150D01*
X5417682Y-1137150D02*
X5446254Y-1137150D01*
X5446254Y-1137150D02*
X5465301Y-1146674D01*
X5465301Y-1146674D02*
X5474825Y-1156198D01*
X5474825Y-1156198D02*
X5484349Y-1175246D01*
X5484349Y-1175246D02*
X5484349Y-1232389D01*
X5484349Y-1232389D02*
X5474825Y-1251436D01*
X5474825Y-1251436D02*
X5465301Y-1260960D01*
X5465301Y-1260960D02*
X5446254Y-1270484D01*
X5446254Y-1270484D02*
X5417682Y-1270484D01*
X5541492Y-1137150D02*
X5617682Y-1137150D01*
X5570063Y-1070484D02*
X5570063Y-1241912D01*
X5570063Y-1241912D02*
X5579587Y-1260960D01*
X5579587Y-1260960D02*
X5598634Y-1270484D01*
X5598634Y-1270484D02*
X5617682Y-1270484D01*
X5836730Y-1137150D02*
X5836730Y-1337150D01*
X5836730Y-1146674D02*
X5855777Y-1137150D01*
X5855777Y-1137150D02*
X5893873Y-1137150D01*
X5893873Y-1137150D02*
X5912920Y-1146674D01*
X5912920Y-1146674D02*
X5922444Y-1156198D01*
X5922444Y-1156198D02*
X5931968Y-1175246D01*
X5931968Y-1175246D02*
X5931968Y-1232389D01*
X5931968Y-1232389D02*
X5922444Y-1251436D01*
X5922444Y-1251436D02*
X5912920Y-1260960D01*
X5912920Y-1260960D02*
X5893873Y-1270484D01*
X5893873Y-1270484D02*
X5855777Y-1270484D01*
X5855777Y-1270484D02*
X5836730Y-1260960D01*
X6046253Y-1270484D02*
X6027206Y-1260960D01*
X6027206Y-1260960D02*
X6017682Y-1241912D01*
X6017682Y-1241912D02*
X6017682Y-1070484D01*
X6208158Y-1270484D02*
X6208158Y-1165722D01*
X6208158Y-1165722D02*
X6198634Y-1146674D01*
X6198634Y-1146674D02*
X6179587Y-1137150D01*
X6179587Y-1137150D02*
X6141492Y-1137150D01*
X6141492Y-1137150D02*
X6122444Y-1146674D01*
X6208158Y-1260960D02*
X6189111Y-1270484D01*
X6189111Y-1270484D02*
X6141492Y-1270484D01*
X6141492Y-1270484D02*
X6122444Y-1260960D01*
X6122444Y-1260960D02*
X6112920Y-1241912D01*
X6112920Y-1241912D02*
X6112920Y-1222865D01*
X6112920Y-1222865D02*
X6122444Y-1203817D01*
X6122444Y-1203817D02*
X6141492Y-1194293D01*
X6141492Y-1194293D02*
X6189111Y-1194293D01*
X6189111Y-1194293D02*
X6208158Y-1184770D01*
X6274825Y-1137150D02*
X6351015Y-1137150D01*
X6303396Y-1070484D02*
X6303396Y-1241912D01*
X6303396Y-1241912D02*
X6312920Y-1260960D01*
X6312920Y-1260960D02*
X6331968Y-1270484D01*
X6331968Y-1270484D02*
X6351015Y-1270484D01*
X6493873Y-1260960D02*
X6474825Y-1270484D01*
X6474825Y-1270484D02*
X6436730Y-1270484D01*
X6436730Y-1270484D02*
X6417682Y-1260960D01*
X6417682Y-1260960D02*
X6408158Y-1241912D01*
X6408158Y-1241912D02*
X6408158Y-1165722D01*
X6408158Y-1165722D02*
X6417682Y-1146674D01*
X6417682Y-1146674D02*
X6436730Y-1137150D01*
X6436730Y-1137150D02*
X6474825Y-1137150D01*
X6474825Y-1137150D02*
X6493873Y-1146674D01*
X6493873Y-1146674D02*
X6503396Y-1165722D01*
X6503396Y-1165722D02*
X6503396Y-1184770D01*
X6503396Y-1184770D02*
X6408158Y-1203817D01*
X6674825Y-1270484D02*
X6674825Y-1070484D01*
X6674825Y-1260960D02*
X6655777Y-1270484D01*
X6655777Y-1270484D02*
X6617682Y-1270484D01*
X6617682Y-1270484D02*
X6598634Y-1260960D01*
X6598634Y-1260960D02*
X6589111Y-1251436D01*
X6589111Y-1251436D02*
X6579587Y-1232389D01*
X6579587Y-1232389D02*
X6579587Y-1175246D01*
X6579587Y-1175246D02*
X6589111Y-1156198D01*
X6589111Y-1156198D02*
X6598634Y-1146674D01*
X6598634Y-1146674D02*
X6617682Y-1137150D01*
X6617682Y-1137150D02*
X6655777Y-1137150D01*
X6655777Y-1137150D02*
X6674825Y-1146674D01*
X6751015Y-1346674D02*
X6760539Y-1337150D01*
X6760539Y-1337150D02*
X6779587Y-1308579D01*
X6779587Y-1308579D02*
X6789111Y-1289531D01*
X6789111Y-1289531D02*
X6798634Y-1260960D01*
X6798634Y-1260960D02*
X6808158Y-1213341D01*
X6808158Y-1213341D02*
X6808158Y-1175246D01*
X6808158Y-1175246D02*
X6798634Y-1127627D01*
X6798634Y-1127627D02*
X6789111Y-1099055D01*
X6789111Y-1099055D02*
X6779587Y-1080008D01*
X6779587Y-1080008D02*
X6760539Y-1051436D01*
X6760539Y-1051436D02*
X6751015Y-1041912D01*
M02*
