%TF.GenerationSoftware,KiCad,Pcbnew,9.0.3*%
%TF.CreationDate,2025-11-12T23:01:28+01:00*%
%TF.ProjectId,esp-ev-switch,6573702d-6576-42d7-9377-697463682e6b,1.0.0*%
%TF.SameCoordinates,PX6a88c10PY89c843f*%
%TF.FileFunction,Drillmap*%
%TF.FilePolarity,Positive*%
%FSLAX45Y45*%
G04 Gerber Fmt 4.5, Leading zero omitted, Abs format (unit mm)*
G04 Created by KiCad (PCBNEW 9.0.3) date 2025-11-12 23:01:28*
%MOMM*%
%LPD*%
G01*
G04 APERTURE LIST*
%ADD10C,0.100000*%
%ADD11C,0.200000*%
%ADD12C,0.115000*%
%ADD13C,0.130000*%
%ADD14C,0.135000*%
%ADD15C,0.150000*%
G04 APERTURE END LIST*
D10*
X3784005Y863395D02*
X3783409Y1651800D01*
X7137870Y4508500D02*
X7827810Y4508500D01*
X2042114Y1269176D02*
X2042160Y862800D01*
X2193760Y914400D02*
G75*
G02*
X2143760Y964400I0J50000D01*
G01*
X200000Y0D02*
G75*
G02*
X0Y200000I0J200000D01*
G01*
X7087870Y4458500D02*
G75*
G02*
X7137870Y4508500I50000J0D01*
G01*
X7087870Y4454360D02*
X7087870Y4458500D01*
X2801542Y914368D02*
G75*
G02*
X2851482Y862800I-2J-49968D01*
G01*
X2042134Y1269176D02*
G75*
G02*
X2093779Y1319180I50026J4D01*
G01*
X7827810Y4404360D02*
X7137870Y4404360D01*
X3632405Y914995D02*
X3283044Y915021D01*
X2092160Y812800D02*
X2802635Y812810D01*
X9792360Y5842000D02*
G75*
G02*
X9992360Y5642000I0J-200000D01*
G01*
X7137870Y4404360D02*
G75*
G02*
X7087870Y4454360I0J50000D01*
G01*
X2092160Y812735D02*
G75*
G02*
X2042095Y862800I0J50065D01*
G01*
X0Y200000D02*
X0Y5642000D01*
X9992360Y200000D02*
G75*
G02*
X9792360Y0I-200000J0D01*
G01*
X3284015Y813395D02*
G75*
G02*
X3234015Y863395I5J50005D01*
G01*
X3681784Y1651800D02*
G75*
G02*
X3733410Y1701800I50026J0D01*
G01*
X2851538Y863594D02*
G75*
G02*
X2802635Y812807I-49998J-794D01*
G01*
X3682405Y964995D02*
G75*
G02*
X3632405Y914995I-50005J5D01*
G01*
X3681809Y1651800D02*
X3682402Y965501D01*
X9792360Y0D02*
X200000Y0D01*
X2093112Y1319172D02*
G75*
G02*
X2143756Y1269176I648J-49992D01*
G01*
X7827810Y4508500D02*
G75*
G02*
X7877810Y4458500I0J-50000D01*
G01*
X7877810Y4458500D02*
X7877810Y4454360D01*
X200000Y5842000D02*
X9792360Y5842000D01*
X3234015Y863395D02*
G75*
G02*
X3284015Y915030I50005J1605D01*
G01*
X3733409Y1701800D02*
G75*
G02*
X3783410Y1651800I1J-50000D01*
G01*
X2801620Y914400D02*
X2193760Y914400D01*
X3284020Y813395D02*
X3734005Y813395D01*
X2143760Y964400D02*
X2143756Y1269181D01*
X9992360Y5642000D02*
X9992360Y200000D01*
X3784005Y863395D02*
G75*
G02*
X3734005Y813395I-50005J5D01*
G01*
X7877810Y4454360D02*
G75*
G02*
X7827810Y4404360I-50000J0D01*
G01*
X0Y5642000D02*
G75*
G02*
X200000Y5842000I200000J0D01*
G01*
D11*
D10*
X8874920Y1802120D02*
X8894920Y1782120D01*
X8894920Y1802120D02*
X8874920Y1782120D01*
X8874920Y1692120D02*
X8894920Y1672120D01*
X8894920Y1692120D02*
X8874920Y1672120D01*
X8929920Y1857120D02*
X8949920Y1837120D01*
X8949920Y1857120D02*
X8929920Y1837120D01*
X8929920Y1747120D02*
X8949920Y1727120D01*
X8949920Y1747120D02*
X8929920Y1727120D01*
X8929920Y1637120D02*
X8949920Y1617120D01*
X8949920Y1637120D02*
X8929920Y1617120D01*
X8984920Y1802120D02*
X9004920Y1782120D01*
X9004920Y1802120D02*
X8984920Y1782120D01*
X8984920Y1692120D02*
X9004920Y1672120D01*
X9004920Y1692120D02*
X8984920Y1672120D01*
X9039920Y1857120D02*
X9059920Y1837120D01*
X9059920Y1857120D02*
X9039920Y1837120D01*
X9039920Y1747120D02*
X9059920Y1727120D01*
X9059920Y1747120D02*
X9039920Y1727120D01*
X9039920Y1637120D02*
X9059920Y1617120D01*
X9059920Y1637120D02*
X9039920Y1617120D01*
X9094920Y1802120D02*
X9114920Y1782120D01*
X9114920Y1802120D02*
X9094920Y1782120D01*
X9094920Y1692120D02*
X9114920Y1672120D01*
X9114920Y1692120D02*
X9094920Y1672120D01*
X70880Y1137920D02*
G75*
G02*
X40880Y1137920I-15000J0D01*
G01*
X40880Y1137920D02*
G75*
G02*
X70880Y1137920I15000J0D01*
G01*
X70880Y985520D02*
G75*
G02*
X40880Y985520I-15000J0D01*
G01*
X40880Y985520D02*
G75*
G02*
X70880Y985520I15000J0D01*
G01*
X70880Y731520D02*
G75*
G02*
X40880Y731520I-15000J0D01*
G01*
X40880Y731520D02*
G75*
G02*
X70880Y731520I15000J0D01*
G01*
X70880Y477520D02*
G75*
G02*
X40880Y477520I-15000J0D01*
G01*
X40880Y477520D02*
G75*
G02*
X70880Y477520I15000J0D01*
G01*
X70880Y223520D02*
G75*
G02*
X40880Y223520I-15000J0D01*
G01*
X40880Y223520D02*
G75*
G02*
X70880Y223520I15000J0D01*
G01*
X119140Y99060D02*
G75*
G02*
X89140Y99060I-15000J0D01*
G01*
X89140Y99060D02*
G75*
G02*
X119140Y99060I15000J0D01*
G01*
X274080Y1137920D02*
G75*
G02*
X244080Y1137920I-15000J0D01*
G01*
X244080Y1137920D02*
G75*
G02*
X274080Y1137920I15000J0D01*
G01*
X274080Y731520D02*
G75*
G02*
X244080Y731520I-15000J0D01*
G01*
X244080Y731520D02*
G75*
G02*
X274080Y731520I15000J0D01*
G01*
X274080Y55880D02*
G75*
G02*
X244080Y55880I-15000J0D01*
G01*
X244080Y55880D02*
G75*
G02*
X274080Y55880I15000J0D01*
G01*
X276620Y350520D02*
G75*
G02*
X246620Y350520I-15000J0D01*
G01*
X246620Y350520D02*
G75*
G02*
X276620Y350520I15000J0D01*
G01*
X528080Y1137920D02*
G75*
G02*
X498080Y1137920I-15000J0D01*
G01*
X498080Y1137920D02*
G75*
G02*
X528080Y1137920I15000J0D01*
G01*
X528080Y731520D02*
G75*
G02*
X498080Y731520I-15000J0D01*
G01*
X498080Y731520D02*
G75*
G02*
X528080Y731520I15000J0D01*
G01*
X528080Y350520D02*
G75*
G02*
X498080Y350520I-15000J0D01*
G01*
X498080Y350520D02*
G75*
G02*
X528080Y350520I15000J0D01*
G01*
X528080Y55880D02*
G75*
G02*
X498080Y55880I-15000J0D01*
G01*
X498080Y55880D02*
G75*
G02*
X528080Y55880I15000J0D01*
G01*
X782080Y1137920D02*
G75*
G02*
X752080Y1137920I-15000J0D01*
G01*
X752080Y1137920D02*
G75*
G02*
X782080Y1137920I15000J0D01*
G01*
X782080Y731520D02*
G75*
G02*
X752080Y731520I-15000J0D01*
G01*
X752080Y731520D02*
G75*
G02*
X782080Y731520I15000J0D01*
G01*
X782080Y350520D02*
G75*
G02*
X752080Y350520I-15000J0D01*
G01*
X752080Y350520D02*
G75*
G02*
X782080Y350520I15000J0D01*
G01*
X782080Y55880D02*
G75*
G02*
X752080Y55880I-15000J0D01*
G01*
X752080Y55880D02*
G75*
G02*
X782080Y55880I15000J0D01*
G01*
X1036080Y1137920D02*
G75*
G02*
X1006080Y1137920I-15000J0D01*
G01*
X1006080Y1137920D02*
G75*
G02*
X1036080Y1137920I15000J0D01*
G01*
X1036080Y731520D02*
G75*
G02*
X1006080Y731520I-15000J0D01*
G01*
X1006080Y731520D02*
G75*
G02*
X1036080Y731520I15000J0D01*
G01*
X1036080Y350520D02*
G75*
G02*
X1006080Y350520I-15000J0D01*
G01*
X1006080Y350520D02*
G75*
G02*
X1036080Y350520I15000J0D01*
G01*
X1036080Y55880D02*
G75*
G02*
X1006080Y55880I-15000J0D01*
G01*
X1006080Y55880D02*
G75*
G02*
X1036080Y55880I15000J0D01*
G01*
X1290080Y1137920D02*
G75*
G02*
X1260080Y1137920I-15000J0D01*
G01*
X1260080Y1137920D02*
G75*
G02*
X1290080Y1137920I15000J0D01*
G01*
X1290080Y55880D02*
G75*
G02*
X1260080Y55880I-15000J0D01*
G01*
X1260080Y55880D02*
G75*
G02*
X1290080Y55880I15000J0D01*
G01*
X1457720Y833120D02*
G75*
G02*
X1427720Y833120I-15000J0D01*
G01*
X1427720Y833120D02*
G75*
G02*
X1457720Y833120I15000J0D01*
G01*
X1495820Y629920D02*
G75*
G02*
X1465820Y629920I-15000J0D01*
G01*
X1465820Y629920D02*
G75*
G02*
X1495820Y629920I15000J0D01*
G01*
X1544080Y1137920D02*
G75*
G02*
X1514080Y1137920I-15000J0D01*
G01*
X1514080Y1137920D02*
G75*
G02*
X1544080Y1137920I15000J0D01*
G01*
X1544080Y55880D02*
G75*
G02*
X1514080Y55880I-15000J0D01*
G01*
X1514080Y55880D02*
G75*
G02*
X1544080Y55880I15000J0D01*
G01*
X1671080Y477520D02*
G75*
G02*
X1641080Y477520I-15000J0D01*
G01*
X1641080Y477520D02*
G75*
G02*
X1671080Y477520I15000J0D01*
G01*
X1671080Y223520D02*
G75*
G02*
X1641080Y223520I-15000J0D01*
G01*
X1641080Y223520D02*
G75*
G02*
X1671080Y223520I15000J0D01*
G01*
X1798080Y1137920D02*
G75*
G02*
X1768080Y1137920I-15000J0D01*
G01*
X1768080Y1137920D02*
G75*
G02*
X1798080Y1137920I15000J0D01*
G01*
X1798080Y55880D02*
G75*
G02*
X1768080Y55880I-15000J0D01*
G01*
X1768080Y55880D02*
G75*
G02*
X1798080Y55880I15000J0D01*
G01*
X1925080Y477520D02*
G75*
G02*
X1895080Y477520I-15000J0D01*
G01*
X1895080Y477520D02*
G75*
G02*
X1925080Y477520I15000J0D01*
G01*
X1925080Y223520D02*
G75*
G02*
X1895080Y223520I-15000J0D01*
G01*
X1895080Y223520D02*
G75*
G02*
X1925080Y223520I15000J0D01*
G01*
X1975880Y1137920D02*
G75*
G02*
X1945880Y1137920I-15000J0D01*
G01*
X1945880Y1137920D02*
G75*
G02*
X1975880Y1137920I15000J0D01*
G01*
X1975880Y985520D02*
G75*
G02*
X1945880Y985520I-15000J0D01*
G01*
X1945880Y985520D02*
G75*
G02*
X1975880Y985520I15000J0D01*
G01*
X2001280Y731520D02*
G75*
G02*
X1971280Y731520I-15000J0D01*
G01*
X1971280Y731520D02*
G75*
G02*
X2001280Y731520I15000J0D01*
G01*
X2052080Y55880D02*
G75*
G02*
X2022080Y55880I-15000J0D01*
G01*
X2022080Y55880D02*
G75*
G02*
X2052080Y55880I15000J0D01*
G01*
X2245120Y563880D02*
G75*
G02*
X2215120Y563880I-15000J0D01*
G01*
X2215120Y563880D02*
G75*
G02*
X2245120Y563880I15000J0D01*
G01*
X2306080Y731520D02*
G75*
G02*
X2276080Y731520I-15000J0D01*
G01*
X2276080Y731520D02*
G75*
G02*
X2306080Y731520I15000J0D01*
G01*
X2306080Y55880D02*
G75*
G02*
X2276080Y55880I-15000J0D01*
G01*
X2276080Y55880D02*
G75*
G02*
X2306080Y55880I15000J0D01*
G01*
X2435620Y223520D02*
G75*
G02*
X2405620Y223520I-15000J0D01*
G01*
X2405620Y223520D02*
G75*
G02*
X2435620Y223520I15000J0D01*
G01*
X2560080Y731520D02*
G75*
G02*
X2530080Y731520I-15000J0D01*
G01*
X2530080Y731520D02*
G75*
G02*
X2560080Y731520I15000J0D01*
G01*
X2560080Y55880D02*
G75*
G02*
X2530080Y55880I-15000J0D01*
G01*
X2530080Y55880D02*
G75*
G02*
X2560080Y55880I15000J0D01*
G01*
X2687080Y223520D02*
G75*
G02*
X2657080Y223520I-15000J0D01*
G01*
X2657080Y223520D02*
G75*
G02*
X2687080Y223520I15000J0D01*
G01*
X2768360Y568960D02*
G75*
G02*
X2738360Y568960I-15000J0D01*
G01*
X2738360Y568960D02*
G75*
G02*
X2768360Y568960I15000J0D01*
G01*
X2814080Y731520D02*
G75*
G02*
X2784080Y731520I-15000J0D01*
G01*
X2784080Y731520D02*
G75*
G02*
X2814080Y731520I15000J0D01*
G01*
X2814080Y55880D02*
G75*
G02*
X2784080Y55880I-15000J0D01*
G01*
X2784080Y55880D02*
G75*
G02*
X2814080Y55880I15000J0D01*
G01*
X2910600Y101600D02*
G75*
G02*
X2880600Y101600I-15000J0D01*
G01*
X2880600Y101600D02*
G75*
G02*
X2910600Y101600I15000J0D01*
G01*
X3012200Y325120D02*
G75*
G02*
X2982200Y325120I-15000J0D01*
G01*
X2982200Y325120D02*
G75*
G02*
X3012200Y325120I15000J0D01*
G01*
X3070620Y55880D02*
G75*
G02*
X3040620Y55880I-15000J0D01*
G01*
X3040620Y55880D02*
G75*
G02*
X3070620Y55880I15000J0D01*
G01*
X3108720Y325120D02*
G75*
G02*
X3078720Y325120I-15000J0D01*
G01*
X3078720Y325120D02*
G75*
G02*
X3108720Y325120I15000J0D01*
G01*
X3210320Y101600D02*
G75*
G02*
X3180320Y101600I-15000J0D01*
G01*
X3180320Y101600D02*
G75*
G02*
X3210320Y101600I15000J0D01*
G01*
X3291600Y391160D02*
G75*
G02*
X3261600Y391160I-15000J0D01*
G01*
X3261600Y391160D02*
G75*
G02*
X3291600Y391160I15000J0D01*
G01*
X3306840Y586740D02*
G75*
G02*
X3276840Y586740I-15000J0D01*
G01*
X3276840Y586740D02*
G75*
G02*
X3306840Y586740I15000J0D01*
G01*
X3311920Y101600D02*
G75*
G02*
X3281920Y101600I-15000J0D01*
G01*
X3281920Y101600D02*
G75*
G02*
X3311920Y101600I15000J0D01*
G01*
X3375420Y55880D02*
G75*
G02*
X3345420Y55880I-15000J0D01*
G01*
X3345420Y55880D02*
G75*
G02*
X3375420Y55880I15000J0D01*
G01*
X3459240Y391160D02*
G75*
G02*
X3429240Y391160I-15000J0D01*
G01*
X3429240Y391160D02*
G75*
G02*
X3459240Y391160I15000J0D01*
G01*
X3560840Y655320D02*
G75*
G02*
X3530840Y655320I-15000J0D01*
G01*
X3530840Y655320D02*
G75*
G02*
X3560840Y655320I15000J0D01*
G01*
X3576080Y731520D02*
G75*
G02*
X3546080Y731520I-15000J0D01*
G01*
X3546080Y731520D02*
G75*
G02*
X3576080Y731520I15000J0D01*
G01*
X3576080Y55880D02*
G75*
G02*
X3546080Y55880I-15000J0D01*
G01*
X3546080Y55880D02*
G75*
G02*
X3576080Y55880I15000J0D01*
G01*
X3583700Y500380D02*
G75*
G02*
X3553700Y500380I-15000J0D01*
G01*
X3553700Y500380D02*
G75*
G02*
X3583700Y500380I15000J0D01*
G01*
X3830080Y731520D02*
G75*
G02*
X3800080Y731520I-15000J0D01*
G01*
X3800080Y731520D02*
G75*
G02*
X3830080Y731520I15000J0D01*
G01*
X3830080Y220980D02*
G75*
G02*
X3800080Y220980I-15000J0D01*
G01*
X3800080Y220980D02*
G75*
G02*
X3830080Y220980I15000J0D01*
G01*
X3830080Y55880D02*
G75*
G02*
X3800080Y55880I-15000J0D01*
G01*
X3800080Y55880D02*
G75*
G02*
X3830080Y55880I15000J0D01*
G01*
X3880880Y1493520D02*
G75*
G02*
X3850880Y1493520I-15000J0D01*
G01*
X3850880Y1493520D02*
G75*
G02*
X3880880Y1493520I15000J0D01*
G01*
X3880880Y1239520D02*
G75*
G02*
X3850880Y1239520I-15000J0D01*
G01*
X3850880Y1239520D02*
G75*
G02*
X3880880Y1239520I15000J0D01*
G01*
X3880880Y985520D02*
G75*
G02*
X3850880Y985520I-15000J0D01*
G01*
X3850880Y985520D02*
G75*
G02*
X3880880Y985520I15000J0D01*
G01*
X3957080Y477520D02*
G75*
G02*
X3927080Y477520I-15000J0D01*
G01*
X3927080Y477520D02*
G75*
G02*
X3957080Y477520I15000J0D01*
G01*
X4084080Y1595120D02*
G75*
G02*
X4054080Y1595120I-15000J0D01*
G01*
X4054080Y1595120D02*
G75*
G02*
X4084080Y1595120I15000J0D01*
G01*
X4084080Y55880D02*
G75*
G02*
X4054080Y55880I-15000J0D01*
G01*
X4054080Y55880D02*
G75*
G02*
X4084080Y55880I15000J0D01*
G01*
X4109480Y985520D02*
G75*
G02*
X4079480Y985520I-15000J0D01*
G01*
X4079480Y985520D02*
G75*
G02*
X4109480Y985520I15000J0D01*
G01*
X4160280Y327660D02*
G75*
G02*
X4130280Y327660I-15000J0D01*
G01*
X4130280Y327660D02*
G75*
G02*
X4160280Y327660I15000J0D01*
G01*
X4213620Y731520D02*
G75*
G02*
X4183620Y731520I-15000J0D01*
G01*
X4183620Y731520D02*
G75*
G02*
X4213620Y731520I15000J0D01*
G01*
X4338080Y55880D02*
G75*
G02*
X4308080Y55880I-15000J0D01*
G01*
X4308080Y55880D02*
G75*
G02*
X4338080Y55880I15000J0D01*
G01*
X4393960Y144780D02*
G75*
G02*
X4363960Y144780I-15000J0D01*
G01*
X4363960Y144780D02*
G75*
G02*
X4393960Y144780I15000J0D01*
G01*
X4592080Y1595120D02*
G75*
G02*
X4562080Y1595120I-15000J0D01*
G01*
X4562080Y1595120D02*
G75*
G02*
X4592080Y1595120I15000J0D01*
G01*
X4592080Y855980D02*
G75*
G02*
X4562080Y855980I-15000J0D01*
G01*
X4562080Y855980D02*
G75*
G02*
X4592080Y855980I15000J0D01*
G01*
X4592080Y604520D02*
G75*
G02*
X4562080Y604520I-15000J0D01*
G01*
X4562080Y604520D02*
G75*
G02*
X4592080Y604520I15000J0D01*
G01*
X4592080Y325120D02*
G75*
G02*
X4562080Y325120I-15000J0D01*
G01*
X4562080Y325120D02*
G75*
G02*
X4592080Y325120I15000J0D01*
G01*
X4592080Y55880D02*
G75*
G02*
X4562080Y55880I-15000J0D01*
G01*
X4562080Y55880D02*
G75*
G02*
X4592080Y55880I15000J0D01*
G01*
X4769880Y855980D02*
G75*
G02*
X4739880Y855980I-15000J0D01*
G01*
X4739880Y855980D02*
G75*
G02*
X4769880Y855980I15000J0D01*
G01*
X4769880Y604520D02*
G75*
G02*
X4739880Y604520I-15000J0D01*
G01*
X4739880Y604520D02*
G75*
G02*
X4769880Y604520I15000J0D01*
G01*
X4846080Y1595120D02*
G75*
G02*
X4816080Y1595120I-15000J0D01*
G01*
X4816080Y1595120D02*
G75*
G02*
X4846080Y1595120I15000J0D01*
G01*
X4846080Y55880D02*
G75*
G02*
X4816080Y55880I-15000J0D01*
G01*
X4816080Y55880D02*
G75*
G02*
X4846080Y55880I15000J0D01*
G01*
X4973080Y1112520D02*
G75*
G02*
X4943080Y1112520I-15000J0D01*
G01*
X4943080Y1112520D02*
G75*
G02*
X4973080Y1112520I15000J0D01*
G01*
X5100080Y55880D02*
G75*
G02*
X5070080Y55880I-15000J0D01*
G01*
X5070080Y55880D02*
G75*
G02*
X5100080Y55880I15000J0D01*
G01*
X5135640Y762000D02*
G75*
G02*
X5105640Y762000I-15000J0D01*
G01*
X5105640Y762000D02*
G75*
G02*
X5135640Y762000I15000J0D01*
G01*
X5176280Y424180D02*
G75*
G02*
X5146280Y424180I-15000J0D01*
G01*
X5146280Y424180D02*
G75*
G02*
X5176280Y424180I15000J0D01*
G01*
X5303280Y1109980D02*
G75*
G02*
X5273280Y1109980I-15000J0D01*
G01*
X5273280Y1109980D02*
G75*
G02*
X5303280Y1109980I15000J0D01*
G01*
X5354080Y1595120D02*
G75*
G02*
X5324080Y1595120I-15000J0D01*
G01*
X5324080Y1595120D02*
G75*
G02*
X5354080Y1595120I15000J0D01*
G01*
X5354080Y55880D02*
G75*
G02*
X5324080Y55880I-15000J0D01*
G01*
X5324080Y55880D02*
G75*
G02*
X5354080Y55880I15000J0D01*
G01*
X5359160Y581660D02*
G75*
G02*
X5329160Y581660I-15000J0D01*
G01*
X5329160Y581660D02*
G75*
G02*
X5359160Y581660I15000J0D01*
G01*
X5397260Y734060D02*
G75*
G02*
X5367260Y734060I-15000J0D01*
G01*
X5367260Y734060D02*
G75*
G02*
X5397260Y734060I15000J0D01*
G01*
X5608080Y1595120D02*
G75*
G02*
X5578080Y1595120I-15000J0D01*
G01*
X5578080Y1595120D02*
G75*
G02*
X5608080Y1595120I15000J0D01*
G01*
X5608080Y1239520D02*
G75*
G02*
X5578080Y1239520I-15000J0D01*
G01*
X5578080Y1239520D02*
G75*
G02*
X5608080Y1239520I15000J0D01*
G01*
X5610620Y55880D02*
G75*
G02*
X5580620Y55880I-15000J0D01*
G01*
X5580620Y55880D02*
G75*
G02*
X5610620Y55880I15000J0D01*
G01*
X5760480Y731520D02*
G75*
G02*
X5730480Y731520I-15000J0D01*
G01*
X5730480Y731520D02*
G75*
G02*
X5760480Y731520I15000J0D01*
G01*
X5763020Y325120D02*
G75*
G02*
X5733020Y325120I-15000J0D01*
G01*
X5733020Y325120D02*
G75*
G02*
X5763020Y325120I15000J0D01*
G01*
X5862080Y1595120D02*
G75*
G02*
X5832080Y1595120I-15000J0D01*
G01*
X5832080Y1595120D02*
G75*
G02*
X5862080Y1595120I15000J0D01*
G01*
X5862080Y1239520D02*
G75*
G02*
X5832080Y1239520I-15000J0D01*
G01*
X5832080Y1239520D02*
G75*
G02*
X5862080Y1239520I15000J0D01*
G01*
X5862080Y55880D02*
G75*
G02*
X5832080Y55880I-15000J0D01*
G01*
X5832080Y55880D02*
G75*
G02*
X5862080Y55880I15000J0D01*
G01*
X5989080Y731520D02*
G75*
G02*
X5959080Y731520I-15000J0D01*
G01*
X5959080Y731520D02*
G75*
G02*
X5989080Y731520I15000J0D01*
G01*
X5989080Y325120D02*
G75*
G02*
X5959080Y325120I-15000J0D01*
G01*
X5959080Y325120D02*
G75*
G02*
X5989080Y325120I15000J0D01*
G01*
X6116080Y1595120D02*
G75*
G02*
X6086080Y1595120I-15000J0D01*
G01*
X6086080Y1595120D02*
G75*
G02*
X6116080Y1595120I15000J0D01*
G01*
X6116080Y1239520D02*
G75*
G02*
X6086080Y1239520I-15000J0D01*
G01*
X6086080Y1239520D02*
G75*
G02*
X6116080Y1239520I15000J0D01*
G01*
X6116080Y55880D02*
G75*
G02*
X6086080Y55880I-15000J0D01*
G01*
X6086080Y55880D02*
G75*
G02*
X6116080Y55880I15000J0D01*
G01*
X6265940Y828040D02*
G75*
G02*
X6235940Y828040I-15000J0D01*
G01*
X6235940Y828040D02*
G75*
G02*
X6265940Y828040I15000J0D01*
G01*
X6349300Y447040D02*
G75*
G02*
X6319300Y447040I-15000J0D01*
G01*
X6319300Y447040D02*
G75*
G02*
X6349300Y447040I15000J0D01*
G01*
X6349760Y365760D02*
G75*
G02*
X6319760Y365760I-15000J0D01*
G01*
X6319760Y365760D02*
G75*
G02*
X6349760Y365760I15000J0D01*
G01*
X6370080Y1595120D02*
G75*
G02*
X6340080Y1595120I-15000J0D01*
G01*
X6340080Y1595120D02*
G75*
G02*
X6370080Y1595120I15000J0D01*
G01*
X6370080Y55880D02*
G75*
G02*
X6340080Y55880I-15000J0D01*
G01*
X6340080Y55880D02*
G75*
G02*
X6370080Y55880I15000J0D01*
G01*
X6436120Y447040D02*
G75*
G02*
X6406120Y447040I-15000J0D01*
G01*
X6406120Y447040D02*
G75*
G02*
X6436120Y447040I15000J0D01*
G01*
X6494540Y1076960D02*
G75*
G02*
X6464540Y1076960I-15000J0D01*
G01*
X6464540Y1076960D02*
G75*
G02*
X6494540Y1076960I15000J0D01*
G01*
X6573280Y2471420D02*
G75*
G02*
X6543280Y2471420I-15000J0D01*
G01*
X6543280Y2471420D02*
G75*
G02*
X6573280Y2471420I15000J0D01*
G01*
X6573280Y2255520D02*
G75*
G02*
X6543280Y2255520I-15000J0D01*
G01*
X6543280Y2255520D02*
G75*
G02*
X6573280Y2255520I15000J0D01*
G01*
X6573280Y2001520D02*
G75*
G02*
X6543280Y2001520I-15000J0D01*
G01*
X6543280Y2001520D02*
G75*
G02*
X6573280Y2001520I15000J0D01*
G01*
X6573280Y1747520D02*
G75*
G02*
X6543280Y1747520I-15000J0D01*
G01*
X6543280Y1747520D02*
G75*
G02*
X6573280Y1747520I15000J0D01*
G01*
X6573280Y1595120D02*
G75*
G02*
X6543280Y1595120I-15000J0D01*
G01*
X6543280Y1595120D02*
G75*
G02*
X6573280Y1595120I15000J0D01*
G01*
X6598680Y825500D02*
G75*
G02*
X6568680Y825500I-15000J0D01*
G01*
X6568680Y825500D02*
G75*
G02*
X6598680Y825500I15000J0D01*
G01*
X6624080Y2567940D02*
G75*
G02*
X6594080Y2567940I-15000J0D01*
G01*
X6594080Y2567940D02*
G75*
G02*
X6624080Y2567940I15000J0D01*
G01*
X6624080Y58420D02*
G75*
G02*
X6594080Y58420I-15000J0D01*
G01*
X6594080Y58420D02*
G75*
G02*
X6624080Y58420I15000J0D01*
G01*
X6695200Y1257300D02*
G75*
G02*
X6665200Y1257300I-15000J0D01*
G01*
X6665200Y1257300D02*
G75*
G02*
X6695200Y1257300I15000J0D01*
G01*
X6720600Y350520D02*
G75*
G02*
X6690600Y350520I-15000J0D01*
G01*
X6690600Y350520D02*
G75*
G02*
X6720600Y350520I15000J0D01*
G01*
X6743460Y2128520D02*
G75*
G02*
X6713460Y2128520I-15000J0D01*
G01*
X6713460Y2128520D02*
G75*
G02*
X6743460Y2128520I15000J0D01*
G01*
X6743460Y1874520D02*
G75*
G02*
X6713460Y1874520I-15000J0D01*
G01*
X6713460Y1874520D02*
G75*
G02*
X6743460Y1874520I15000J0D01*
G01*
X6746000Y2349500D02*
G75*
G02*
X6716000Y2349500I-15000J0D01*
G01*
X6716000Y2349500D02*
G75*
G02*
X6746000Y2349500I15000J0D01*
G01*
X6878080Y2567940D02*
G75*
G02*
X6848080Y2567940I-15000J0D01*
G01*
X6848080Y2567940D02*
G75*
G02*
X6878080Y2567940I15000J0D01*
G01*
X6878080Y58420D02*
G75*
G02*
X6848080Y58420I-15000J0D01*
G01*
X6848080Y58420D02*
G75*
G02*
X6878080Y58420I15000J0D01*
G01*
X6885700Y1435100D02*
G75*
G02*
X6855700Y1435100I-15000J0D01*
G01*
X6855700Y1435100D02*
G75*
G02*
X6885700Y1435100I15000J0D01*
G01*
X6954280Y1132840D02*
G75*
G02*
X6924280Y1132840I-15000J0D01*
G01*
X6924280Y1132840D02*
G75*
G02*
X6954280Y1132840I15000J0D01*
G01*
X6979680Y2095500D02*
G75*
G02*
X6949680Y2095500I-15000J0D01*
G01*
X6949680Y2095500D02*
G75*
G02*
X6979680Y2095500I15000J0D01*
G01*
X6994920Y548640D02*
G75*
G02*
X6964920Y548640I-15000J0D01*
G01*
X6964920Y548640D02*
G75*
G02*
X6994920Y548640I15000J0D01*
G01*
X7000000Y1036320D02*
G75*
G02*
X6970000Y1036320I-15000J0D01*
G01*
X6970000Y1036320D02*
G75*
G02*
X7000000Y1036320I15000J0D01*
G01*
X7017780Y213360D02*
G75*
G02*
X6987780Y213360I-15000J0D01*
G01*
X6987780Y213360D02*
G75*
G02*
X7017780Y213360I15000J0D01*
G01*
X7020320Y909320D02*
G75*
G02*
X6990320Y909320I-15000J0D01*
G01*
X6990320Y909320D02*
G75*
G02*
X7020320Y909320I15000J0D01*
G01*
X7020320Y381000D02*
G75*
G02*
X6990320Y381000I-15000J0D01*
G01*
X6990320Y381000D02*
G75*
G02*
X7020320Y381000I15000J0D01*
G01*
X7104140Y1648460D02*
G75*
G02*
X7074140Y1648460I-15000J0D01*
G01*
X7074140Y1648460D02*
G75*
G02*
X7104140Y1648460I15000J0D01*
G01*
X7132080Y2570480D02*
G75*
G02*
X7102080Y2570480I-15000J0D01*
G01*
X7102080Y2570480D02*
G75*
G02*
X7132080Y2570480I15000J0D01*
G01*
X7132080Y58420D02*
G75*
G02*
X7102080Y58420I-15000J0D01*
G01*
X7102080Y58420D02*
G75*
G02*
X7132080Y58420I15000J0D01*
G01*
X7172720Y548640D02*
G75*
G02*
X7142720Y548640I-15000J0D01*
G01*
X7142720Y548640D02*
G75*
G02*
X7172720Y548640I15000J0D01*
G01*
X7182880Y1432560D02*
G75*
G02*
X7152880Y1432560I-15000J0D01*
G01*
X7152880Y1432560D02*
G75*
G02*
X7182880Y1432560I15000J0D01*
G01*
X7187960Y949960D02*
G75*
G02*
X7157960Y949960I-15000J0D01*
G01*
X7157960Y949960D02*
G75*
G02*
X7187960Y949960I15000J0D01*
G01*
X7228600Y2095500D02*
G75*
G02*
X7198600Y2095500I-15000J0D01*
G01*
X7198600Y2095500D02*
G75*
G02*
X7228600Y2095500I15000J0D01*
G01*
X7269240Y381000D02*
G75*
G02*
X7239240Y381000I-15000J0D01*
G01*
X7239240Y381000D02*
G75*
G02*
X7269240Y381000I15000J0D01*
G01*
X7271780Y213360D02*
G75*
G02*
X7241780Y213360I-15000J0D01*
G01*
X7241780Y213360D02*
G75*
G02*
X7271780Y213360I15000J0D01*
G01*
X7280860Y1617383D02*
G75*
G02*
X7250860Y1617383I-15000J0D01*
G01*
X7250860Y1617383D02*
G75*
G02*
X7280860Y1617383I15000J0D01*
G01*
X7284480Y1137920D02*
G75*
G02*
X7254480Y1137920I-15000J0D01*
G01*
X7254480Y1137920D02*
G75*
G02*
X7284480Y1137920I15000J0D01*
G01*
X7309880Y934260D02*
G75*
G02*
X7279880Y934260I-15000J0D01*
G01*
X7279880Y934260D02*
G75*
G02*
X7309880Y934260I15000J0D01*
G01*
X7368860Y1617383D02*
G75*
G02*
X7338860Y1617383I-15000J0D01*
G01*
X7338860Y1617383D02*
G75*
G02*
X7368860Y1617383I15000J0D01*
G01*
X7386080Y2570480D02*
G75*
G02*
X7356080Y2570480I-15000J0D01*
G01*
X7356080Y2570480D02*
G75*
G02*
X7386080Y2570480I15000J0D01*
G01*
X7386080Y55880D02*
G75*
G02*
X7356080Y55880I-15000J0D01*
G01*
X7356080Y55880D02*
G75*
G02*
X7386080Y55880I15000J0D01*
G01*
X7401320Y548640D02*
G75*
G02*
X7371320Y548640I-15000J0D01*
G01*
X7371320Y548640D02*
G75*
G02*
X7401320Y548640I15000J0D01*
G01*
X7436880Y939340D02*
G75*
G02*
X7406880Y939340I-15000J0D01*
G01*
X7406880Y939340D02*
G75*
G02*
X7436880Y939340I15000J0D01*
G01*
X7500380Y1590040D02*
G75*
G02*
X7470380Y1590040I-15000J0D01*
G01*
X7470380Y1590040D02*
G75*
G02*
X7500380Y1590040I15000J0D01*
G01*
X7523240Y2095500D02*
G75*
G02*
X7493240Y2095500I-15000J0D01*
G01*
X7493240Y2095500D02*
G75*
G02*
X7523240Y2095500I15000J0D01*
G01*
X7523240Y381000D02*
G75*
G02*
X7493240Y381000I-15000J0D01*
G01*
X7493240Y381000D02*
G75*
G02*
X7523240Y381000I15000J0D01*
G01*
X7525780Y213360D02*
G75*
G02*
X7495780Y213360I-15000J0D01*
G01*
X7495780Y213360D02*
G75*
G02*
X7525780Y213360I15000J0D01*
G01*
X7558800Y939340D02*
G75*
G02*
X7528800Y939340I-15000J0D01*
G01*
X7528800Y939340D02*
G75*
G02*
X7558800Y939340I15000J0D01*
G01*
X7574040Y1376680D02*
G75*
G02*
X7544040Y1376680I-15000J0D01*
G01*
X7544040Y1376680D02*
G75*
G02*
X7574040Y1376680I15000J0D01*
G01*
X7594360Y2476500D02*
G75*
G02*
X7564360Y2476500I-15000J0D01*
G01*
X7564360Y2476500D02*
G75*
G02*
X7594360Y2476500I15000J0D01*
G01*
X7604520Y1211580D02*
G75*
G02*
X7574520Y1211580I-15000J0D01*
G01*
X7574520Y1211580D02*
G75*
G02*
X7604520Y1211580I15000J0D01*
G01*
X7629920Y548640D02*
G75*
G02*
X7599920Y548640I-15000J0D01*
G01*
X7599920Y548640D02*
G75*
G02*
X7629920Y548640I15000J0D01*
G01*
X7640080Y55880D02*
G75*
G02*
X7610080Y55880I-15000J0D01*
G01*
X7610080Y55880D02*
G75*
G02*
X7640080Y55880I15000J0D01*
G01*
X7645160Y1036320D02*
G75*
G02*
X7615160Y1036320I-15000J0D01*
G01*
X7615160Y1036320D02*
G75*
G02*
X7645160Y1036320I15000J0D01*
G01*
X7688340Y2156460D02*
G75*
G02*
X7658340Y2156460I-15000J0D01*
G01*
X7658340Y2156460D02*
G75*
G02*
X7688340Y2156460I15000J0D01*
G01*
X7703580Y2573020D02*
G75*
G02*
X7673580Y2573020I-15000J0D01*
G01*
X7673580Y2573020D02*
G75*
G02*
X7703580Y2573020I15000J0D01*
G01*
X7703580Y2313940D02*
G75*
G02*
X7673580Y2313940I-15000J0D01*
G01*
X7673580Y2313940D02*
G75*
G02*
X7703580Y2313940I15000J0D01*
G01*
X7713740Y1590040D02*
G75*
G02*
X7683740Y1590040I-15000J0D01*
G01*
X7683740Y1590040D02*
G75*
G02*
X7713740Y1590040I15000J0D01*
G01*
X7762000Y1376680D02*
G75*
G02*
X7732000Y1376680I-15000J0D01*
G01*
X7732000Y1376680D02*
G75*
G02*
X7762000Y1376680I15000J0D01*
G01*
X7795020Y1894840D02*
G75*
G02*
X7765020Y1894840I-15000J0D01*
G01*
X7765020Y1894840D02*
G75*
G02*
X7795020Y1894840I15000J0D01*
G01*
X7896620Y2573020D02*
G75*
G02*
X7866620Y2573020I-15000J0D01*
G01*
X7866620Y2573020D02*
G75*
G02*
X7896620Y2573020I15000J0D01*
G01*
X7896620Y55880D02*
G75*
G02*
X7866620Y55880I-15000J0D01*
G01*
X7866620Y55880D02*
G75*
G02*
X7896620Y55880I15000J0D01*
G01*
X7970280Y594360D02*
G75*
G02*
X7940280Y594360I-15000J0D01*
G01*
X7940280Y594360D02*
G75*
G02*
X7970280Y594360I15000J0D01*
G01*
X7970280Y487680D02*
G75*
G02*
X7940280Y487680I-15000J0D01*
G01*
X7940280Y487680D02*
G75*
G02*
X7970280Y487680I15000J0D01*
G01*
X8036320Y1041400D02*
G75*
G02*
X8006320Y1041400I-15000J0D01*
G01*
X8006320Y1041400D02*
G75*
G02*
X8036320Y1041400I15000J0D01*
G01*
X8150620Y2573020D02*
G75*
G02*
X8120620Y2573020I-15000J0D01*
G01*
X8120620Y2573020D02*
G75*
G02*
X8150620Y2573020I15000J0D01*
G01*
X8150620Y55880D02*
G75*
G02*
X8120620Y55880I-15000J0D01*
G01*
X8120620Y55880D02*
G75*
G02*
X8150620Y55880I15000J0D01*
G01*
X8178560Y1132840D02*
G75*
G02*
X8148560Y1132840I-15000J0D01*
G01*
X8148560Y1132840D02*
G75*
G02*
X8178560Y1132840I15000J0D01*
G01*
X8249680Y2255520D02*
G75*
G02*
X8219680Y2255520I-15000J0D01*
G01*
X8219680Y2255520D02*
G75*
G02*
X8249680Y2255520I15000J0D01*
G01*
X8249680Y1569720D02*
G75*
G02*
X8219680Y1569720I-15000J0D01*
G01*
X8219680Y1569720D02*
G75*
G02*
X8249680Y1569720I15000J0D01*
G01*
X8249680Y1376680D02*
G75*
G02*
X8219680Y1376680I-15000J0D01*
G01*
X8219680Y1376680D02*
G75*
G02*
X8249680Y1376680I15000J0D01*
G01*
X8351280Y1214120D02*
G75*
G02*
X8321280Y1214120I-15000J0D01*
G01*
X8321280Y1214120D02*
G75*
G02*
X8351280Y1214120I15000J0D01*
G01*
X8351280Y340360D02*
G75*
G02*
X8321280Y340360I-15000J0D01*
G01*
X8321280Y340360D02*
G75*
G02*
X8351280Y340360I15000J0D01*
G01*
X8402080Y2573020D02*
G75*
G02*
X8372080Y2573020I-15000J0D01*
G01*
X8372080Y2573020D02*
G75*
G02*
X8402080Y2573020I15000J0D01*
G01*
X8402080Y2369820D02*
G75*
G02*
X8372080Y2369820I-15000J0D01*
G01*
X8372080Y2369820D02*
G75*
G02*
X8402080Y2369820I15000J0D01*
G01*
X8402080Y2001520D02*
G75*
G02*
X8372080Y2001520I-15000J0D01*
G01*
X8372080Y2001520D02*
G75*
G02*
X8402080Y2001520I15000J0D01*
G01*
X8402080Y1747520D02*
G75*
G02*
X8372080Y1747520I-15000J0D01*
G01*
X8372080Y1747520D02*
G75*
G02*
X8402080Y1747520I15000J0D01*
G01*
X8402080Y55880D02*
G75*
G02*
X8372080Y55880I-15000J0D01*
G01*
X8372080Y55880D02*
G75*
G02*
X8402080Y55880I15000J0D01*
G01*
X8407160Y728980D02*
G75*
G02*
X8377160Y728980I-15000J0D01*
G01*
X8377160Y728980D02*
G75*
G02*
X8407160Y728980I15000J0D01*
G01*
X8409700Y454660D02*
G75*
G02*
X8379700Y454660I-15000J0D01*
G01*
X8379700Y454660D02*
G75*
G02*
X8409700Y454660I15000J0D01*
G01*
X8452880Y3792220D02*
G75*
G02*
X8422880Y3792220I-15000J0D01*
G01*
X8422880Y3792220D02*
G75*
G02*
X8452880Y3792220I15000J0D01*
G01*
X8452880Y3550920D02*
G75*
G02*
X8422880Y3550920I-15000J0D01*
G01*
X8422880Y3550920D02*
G75*
G02*
X8452880Y3550920I15000J0D01*
G01*
X8452880Y2860040D02*
G75*
G02*
X8422880Y2860040I-15000J0D01*
G01*
X8422880Y2860040D02*
G75*
G02*
X8452880Y2860040I15000J0D01*
G01*
X8452880Y2661920D02*
G75*
G02*
X8422880Y2661920I-15000J0D01*
G01*
X8422880Y2661920D02*
G75*
G02*
X8452880Y2661920I15000J0D01*
G01*
X8503680Y1569720D02*
G75*
G02*
X8473680Y1569720I-15000J0D01*
G01*
X8473680Y1569720D02*
G75*
G02*
X8503680Y1569720I15000J0D01*
G01*
X8503680Y1376680D02*
G75*
G02*
X8473680Y1376680I-15000J0D01*
G01*
X8473680Y1376680D02*
G75*
G02*
X8503680Y1376680I15000J0D01*
G01*
X8518920Y4465320D02*
G75*
G02*
X8488920Y4465320I-15000J0D01*
G01*
X8488920Y4465320D02*
G75*
G02*
X8518920Y4465320I15000J0D01*
G01*
X8630680Y1214120D02*
G75*
G02*
X8600680Y1214120I-15000J0D01*
G01*
X8600680Y1214120D02*
G75*
G02*
X8630680Y1214120I15000J0D01*
G01*
X8656080Y2255520D02*
G75*
G02*
X8626080Y2255520I-15000J0D01*
G01*
X8626080Y2255520D02*
G75*
G02*
X8656080Y2255520I15000J0D01*
G01*
X8656080Y2001520D02*
G75*
G02*
X8626080Y2001520I-15000J0D01*
G01*
X8626080Y2001520D02*
G75*
G02*
X8656080Y2001520I15000J0D01*
G01*
X8656080Y1747520D02*
G75*
G02*
X8626080Y1747520I-15000J0D01*
G01*
X8626080Y1747520D02*
G75*
G02*
X8656080Y1747520I15000J0D01*
G01*
X8656080Y55880D02*
G75*
G02*
X8626080Y55880I-15000J0D01*
G01*
X8626080Y55880D02*
G75*
G02*
X8656080Y55880I15000J0D01*
G01*
X8671320Y3581400D02*
G75*
G02*
X8641320Y3581400I-15000J0D01*
G01*
X8641320Y3581400D02*
G75*
G02*
X8671320Y3581400I15000J0D01*
G01*
X8689100Y2473960D02*
G75*
G02*
X8659100Y2473960I-15000J0D01*
G01*
X8659100Y2473960D02*
G75*
G02*
X8689100Y2473960I15000J0D01*
G01*
X8696720Y3274060D02*
G75*
G02*
X8666720Y3274060I-15000J0D01*
G01*
X8666720Y3274060D02*
G75*
G02*
X8696720Y3274060I15000J0D01*
G01*
X8706880Y4191000D02*
G75*
G02*
X8676880Y4191000I-15000J0D01*
G01*
X8676880Y4191000D02*
G75*
G02*
X8706880Y4191000I15000J0D01*
G01*
X8706880Y4467860D02*
G75*
G02*
X8676880Y4467860I-15000J0D01*
G01*
X8676880Y4467860D02*
G75*
G02*
X8706880Y4467860I15000J0D01*
G01*
X8737360Y612680D02*
G75*
G02*
X8707360Y612680I-15000J0D01*
G01*
X8707360Y612680D02*
G75*
G02*
X8737360Y612680I15000J0D01*
G01*
X8750060Y2575560D02*
G75*
G02*
X8720060Y2575560I-15000J0D01*
G01*
X8720060Y2575560D02*
G75*
G02*
X8750060Y2575560I15000J0D01*
G01*
X8757680Y1569720D02*
G75*
G02*
X8727680Y1569720I-15000J0D01*
G01*
X8727680Y1569720D02*
G75*
G02*
X8757680Y1569720I15000J0D01*
G01*
X8757680Y1376680D02*
G75*
G02*
X8727680Y1376680I-15000J0D01*
G01*
X8727680Y1376680D02*
G75*
G02*
X8757680Y1376680I15000J0D01*
G01*
X8783080Y5565140D02*
G75*
G02*
X8753080Y5565140I-15000J0D01*
G01*
X8753080Y5565140D02*
G75*
G02*
X8783080Y5565140I15000J0D01*
G01*
X8783080Y5311140D02*
G75*
G02*
X8753080Y5311140I-15000J0D01*
G01*
X8753080Y5311140D02*
G75*
G02*
X8783080Y5311140I15000J0D01*
G01*
X8783080Y5057140D02*
G75*
G02*
X8753080Y5057140I-15000J0D01*
G01*
X8753080Y5057140D02*
G75*
G02*
X8783080Y5057140I15000J0D01*
G01*
X8783080Y4803140D02*
G75*
G02*
X8753080Y4803140I-15000J0D01*
G01*
X8753080Y4803140D02*
G75*
G02*
X8783080Y4803140I15000J0D01*
G01*
X8783080Y4566920D02*
G75*
G02*
X8753080Y4566920I-15000J0D01*
G01*
X8753080Y4566920D02*
G75*
G02*
X8783080Y4566920I15000J0D01*
G01*
X8783080Y914400D02*
G75*
G02*
X8753080Y914400I-15000J0D01*
G01*
X8753080Y914400D02*
G75*
G02*
X8783080Y914400I15000J0D01*
G01*
X8783080Y312420D02*
G75*
G02*
X8753080Y312420I-15000J0D01*
G01*
X8753080Y312420D02*
G75*
G02*
X8783080Y312420I15000J0D01*
G01*
X8864360Y3581400D02*
G75*
G02*
X8834360Y3581400I-15000J0D01*
G01*
X8834360Y3581400D02*
G75*
G02*
X8864360Y3581400I15000J0D01*
G01*
X8864360Y3474720D02*
G75*
G02*
X8834360Y3474720I-15000J0D01*
G01*
X8834360Y3474720D02*
G75*
G02*
X8864360Y3474720I15000J0D01*
G01*
X8884680Y1214120D02*
G75*
G02*
X8854680Y1214120I-15000J0D01*
G01*
X8854680Y1214120D02*
G75*
G02*
X8884680Y1214120I15000J0D01*
G01*
X8910080Y5786120D02*
G75*
G02*
X8880080Y5786120I-15000J0D01*
G01*
X8880080Y5786120D02*
G75*
G02*
X8910080Y5786120I15000J0D01*
G01*
X8910080Y2255520D02*
G75*
G02*
X8880080Y2255520I-15000J0D01*
G01*
X8880080Y2255520D02*
G75*
G02*
X8910080Y2255520I15000J0D01*
G01*
X8910080Y2001520D02*
G75*
G02*
X8880080Y2001520I-15000J0D01*
G01*
X8880080Y2001520D02*
G75*
G02*
X8910080Y2001520I15000J0D01*
G01*
X8910080Y55880D02*
G75*
G02*
X8880080Y55880I-15000J0D01*
G01*
X8880080Y55880D02*
G75*
G02*
X8910080Y55880I15000J0D01*
G01*
X8922780Y772160D02*
G75*
G02*
X8892780Y772160I-15000J0D01*
G01*
X8892780Y772160D02*
G75*
G02*
X8922780Y772160I15000J0D01*
G01*
X8922780Y452120D02*
G75*
G02*
X8892780Y452120I-15000J0D01*
G01*
X8892780Y452120D02*
G75*
G02*
X8922780Y452120I15000J0D01*
G01*
X9011680Y1376680D02*
G75*
G02*
X8981680Y1376680I-15000J0D01*
G01*
X8981680Y1376680D02*
G75*
G02*
X9011680Y1376680I15000J0D01*
G01*
X9016760Y3581400D02*
G75*
G02*
X8986760Y3581400I-15000J0D01*
G01*
X8986760Y3581400D02*
G75*
G02*
X9016760Y3581400I15000J0D01*
G01*
X9016760Y3474720D02*
G75*
G02*
X8986760Y3474720I-15000J0D01*
G01*
X8986760Y3474720D02*
G75*
G02*
X9016760Y3474720I15000J0D01*
G01*
X9034540Y5156200D02*
G75*
G02*
X9004540Y5156200I-15000J0D01*
G01*
X9004540Y5156200D02*
G75*
G02*
X9034540Y5156200I15000J0D01*
G01*
X9034540Y4955540D02*
G75*
G02*
X9004540Y4955540I-15000J0D01*
G01*
X9004540Y4955540D02*
G75*
G02*
X9034540Y4955540I15000J0D01*
G01*
X9057400Y312420D02*
G75*
G02*
X9027400Y312420I-15000J0D01*
G01*
X9027400Y312420D02*
G75*
G02*
X9057400Y312420I15000J0D01*
G01*
X9059940Y911860D02*
G75*
G02*
X9029940Y911860I-15000J0D01*
G01*
X9029940Y911860D02*
G75*
G02*
X9059940Y911860I15000J0D01*
G01*
X9072640Y3779520D02*
G75*
G02*
X9042640Y3779520I-15000J0D01*
G01*
X9042640Y3779520D02*
G75*
G02*
X9072640Y3779520I15000J0D01*
G01*
X9080260Y4084320D02*
G75*
G02*
X9050260Y4084320I-15000J0D01*
G01*
X9050260Y4084320D02*
G75*
G02*
X9080260Y4084320I15000J0D01*
G01*
X9087880Y3093720D02*
G75*
G02*
X9057880Y3093720I-15000J0D01*
G01*
X9057880Y3093720D02*
G75*
G02*
X9087880Y3093720I15000J0D01*
G01*
X9087880Y2865120D02*
G75*
G02*
X9057880Y2865120I-15000J0D01*
G01*
X9057880Y2865120D02*
G75*
G02*
X9087880Y2865120I15000J0D01*
G01*
X9087880Y2684780D02*
G75*
G02*
X9057880Y2684780I-15000J0D01*
G01*
X9057880Y2684780D02*
G75*
G02*
X9087880Y2684780I15000J0D01*
G01*
X9138680Y1214120D02*
G75*
G02*
X9108680Y1214120I-15000J0D01*
G01*
X9108680Y1214120D02*
G75*
G02*
X9138680Y1214120I15000J0D01*
G01*
X9151380Y4396740D02*
G75*
G02*
X9121380Y4396740I-15000J0D01*
G01*
X9121380Y4396740D02*
G75*
G02*
X9151380Y4396740I15000J0D01*
G01*
X9164080Y5786120D02*
G75*
G02*
X9134080Y5786120I-15000J0D01*
G01*
X9134080Y5786120D02*
G75*
G02*
X9164080Y5786120I15000J0D01*
G01*
X9164080Y2255520D02*
G75*
G02*
X9134080Y2255520I-15000J0D01*
G01*
X9134080Y2255520D02*
G75*
G02*
X9164080Y2255520I15000J0D01*
G01*
X9164080Y2001520D02*
G75*
G02*
X9134080Y2001520I-15000J0D01*
G01*
X9134080Y2001520D02*
G75*
G02*
X9164080Y2001520I15000J0D01*
G01*
X9164080Y55880D02*
G75*
G02*
X9134080Y55880I-15000J0D01*
G01*
X9134080Y55880D02*
G75*
G02*
X9164080Y55880I15000J0D01*
G01*
X9171700Y817880D02*
G75*
G02*
X9141700Y817880I-15000J0D01*
G01*
X9141700Y817880D02*
G75*
G02*
X9171700Y817880I15000J0D01*
G01*
X9225040Y2573020D02*
G75*
G02*
X9195040Y2573020I-15000J0D01*
G01*
X9195040Y2573020D02*
G75*
G02*
X9225040Y2573020I15000J0D01*
G01*
X9265680Y5450840D02*
G75*
G02*
X9235680Y5450840I-15000J0D01*
G01*
X9235680Y5450840D02*
G75*
G02*
X9265680Y5450840I15000J0D01*
G01*
X9265680Y1569720D02*
G75*
G02*
X9235680Y1569720I-15000J0D01*
G01*
X9235680Y1569720D02*
G75*
G02*
X9265680Y1569720I15000J0D01*
G01*
X9265680Y1376680D02*
G75*
G02*
X9235680Y1376680I-15000J0D01*
G01*
X9235680Y1376680D02*
G75*
G02*
X9265680Y1376680I15000J0D01*
G01*
X9275840Y716280D02*
G75*
G02*
X9245840Y716280I-15000J0D01*
G01*
X9245840Y716280D02*
G75*
G02*
X9275840Y716280I15000J0D01*
G01*
X9275840Y309880D02*
G75*
G02*
X9245840Y309880I-15000J0D01*
G01*
X9245840Y309880D02*
G75*
G02*
X9275840Y309880I15000J0D01*
G01*
X9291080Y4084320D02*
G75*
G02*
X9261080Y4084320I-15000J0D01*
G01*
X9261080Y4084320D02*
G75*
G02*
X9291080Y4084320I15000J0D01*
G01*
X9291080Y3779520D02*
G75*
G02*
X9261080Y3779520I-15000J0D01*
G01*
X9261080Y3779520D02*
G75*
G02*
X9291080Y3779520I15000J0D01*
G01*
X9291080Y3474720D02*
G75*
G02*
X9261080Y3474720I-15000J0D01*
G01*
X9261080Y3474720D02*
G75*
G02*
X9291080Y3474720I15000J0D01*
G01*
X9291080Y3093720D02*
G75*
G02*
X9261080Y3093720I-15000J0D01*
G01*
X9261080Y3093720D02*
G75*
G02*
X9291080Y3093720I15000J0D01*
G01*
X9291080Y2865120D02*
G75*
G02*
X9261080Y2865120I-15000J0D01*
G01*
X9261080Y2865120D02*
G75*
G02*
X9291080Y2865120I15000J0D01*
G01*
X9354580Y4290060D02*
G75*
G02*
X9324580Y4290060I-15000J0D01*
G01*
X9324580Y4290060D02*
G75*
G02*
X9354580Y4290060I15000J0D01*
G01*
X9367280Y1214120D02*
G75*
G02*
X9337280Y1214120I-15000J0D01*
G01*
X9337280Y1214120D02*
G75*
G02*
X9367280Y1214120I15000J0D01*
G01*
X9372360Y5588000D02*
G75*
G02*
X9342360Y5588000I-15000J0D01*
G01*
X9342360Y5588000D02*
G75*
G02*
X9372360Y5588000I15000J0D01*
G01*
X9387600Y1694180D02*
G75*
G02*
X9357600Y1694180I-15000J0D01*
G01*
X9357600Y1694180D02*
G75*
G02*
X9387600Y1694180I15000J0D01*
G01*
X9418080Y5786120D02*
G75*
G02*
X9388080Y5786120I-15000J0D01*
G01*
X9388080Y5786120D02*
G75*
G02*
X9418080Y5786120I15000J0D01*
G01*
X9418080Y2255520D02*
G75*
G02*
X9388080Y2255520I-15000J0D01*
G01*
X9388080Y2255520D02*
G75*
G02*
X9418080Y2255520I15000J0D01*
G01*
X9418080Y2001520D02*
G75*
G02*
X9388080Y2001520I-15000J0D01*
G01*
X9388080Y2001520D02*
G75*
G02*
X9418080Y2001520I15000J0D01*
G01*
X9418080Y55880D02*
G75*
G02*
X9388080Y55880I-15000J0D01*
G01*
X9388080Y55880D02*
G75*
G02*
X9418080Y55880I15000J0D01*
G01*
X9443480Y1376680D02*
G75*
G02*
X9413480Y1376680I-15000J0D01*
G01*
X9413480Y1376680D02*
G75*
G02*
X9443480Y1376680I15000J0D01*
G01*
X9468880Y2636520D02*
G75*
G02*
X9438880Y2636520I-15000J0D01*
G01*
X9438880Y2636520D02*
G75*
G02*
X9468880Y2636520I15000J0D01*
G01*
X9504440Y4178300D02*
G75*
G02*
X9474440Y4178300I-15000J0D01*
G01*
X9474440Y4178300D02*
G75*
G02*
X9504440Y4178300I15000J0D01*
G01*
X9524170Y4937760D02*
G75*
G02*
X9494170Y4937760I-15000J0D01*
G01*
X9494170Y4937760D02*
G75*
G02*
X9524170Y4937760I15000J0D01*
G01*
X9550160Y1361440D02*
G75*
G02*
X9520160Y1361440I-15000J0D01*
G01*
X9520160Y1361440D02*
G75*
G02*
X9550160Y1361440I15000J0D01*
G01*
X9570480Y2598420D02*
G75*
G02*
X9540480Y2598420I-15000J0D01*
G01*
X9540480Y2598420D02*
G75*
G02*
X9570480Y2598420I15000J0D01*
G01*
X9570480Y1798320D02*
G75*
G02*
X9540480Y1798320I-15000J0D01*
G01*
X9540480Y1798320D02*
G75*
G02*
X9570480Y1798320I15000J0D01*
G01*
X9570480Y1513840D02*
G75*
G02*
X9540480Y1513840I-15000J0D01*
G01*
X9540480Y1513840D02*
G75*
G02*
X9570480Y1513840I15000J0D01*
G01*
X9578100Y5283200D02*
G75*
G02*
X9548100Y5283200I-15000J0D01*
G01*
X9548100Y5283200D02*
G75*
G02*
X9578100Y5283200I15000J0D01*
G01*
X9605580Y612960D02*
G75*
G02*
X9575580Y612960I-15000J0D01*
G01*
X9575580Y612960D02*
G75*
G02*
X9605580Y612960I15000J0D01*
G01*
X9636520Y4622800D02*
G75*
G02*
X9606520Y4622800I-15000J0D01*
G01*
X9606520Y4622800D02*
G75*
G02*
X9636520Y4622800I15000J0D01*
G01*
X9643523Y1726120D02*
G75*
G02*
X9613523Y1726120I-15000J0D01*
G01*
X9613523Y1726120D02*
G75*
G02*
X9643523Y1726120I15000J0D01*
G01*
X9643523Y1638120D02*
G75*
G02*
X9613523Y1638120I-15000J0D01*
G01*
X9613523Y1638120D02*
G75*
G02*
X9643523Y1638120I15000J0D01*
G01*
X9651760Y1457960D02*
G75*
G02*
X9621760Y1457960I-15000J0D01*
G01*
X9621760Y1457960D02*
G75*
G02*
X9651760Y1457960I15000J0D01*
G01*
X9651760Y1310640D02*
G75*
G02*
X9621760Y1310640I-15000J0D01*
G01*
X9621760Y1310640D02*
G75*
G02*
X9651760Y1310640I15000J0D01*
G01*
X9672080Y5786120D02*
G75*
G02*
X9642080Y5786120I-15000J0D01*
G01*
X9642080Y5786120D02*
G75*
G02*
X9672080Y5786120I15000J0D01*
G01*
X9672080Y4287520D02*
G75*
G02*
X9642080Y4287520I-15000J0D01*
G01*
X9642080Y4287520D02*
G75*
G02*
X9672080Y4287520I15000J0D01*
G01*
X9672080Y3779520D02*
G75*
G02*
X9642080Y3779520I-15000J0D01*
G01*
X9642080Y3779520D02*
G75*
G02*
X9672080Y3779520I15000J0D01*
G01*
X9672080Y3525520D02*
G75*
G02*
X9642080Y3525520I-15000J0D01*
G01*
X9642080Y3525520D02*
G75*
G02*
X9672080Y3525520I15000J0D01*
G01*
X9672080Y911860D02*
G75*
G02*
X9642080Y911860I-15000J0D01*
G01*
X9642080Y911860D02*
G75*
G02*
X9672080Y911860I15000J0D01*
G01*
X9672080Y312420D02*
G75*
G02*
X9642080Y312420I-15000J0D01*
G01*
X9642080Y312420D02*
G75*
G02*
X9672080Y312420I15000J0D01*
G01*
X9672080Y55880D02*
G75*
G02*
X9642080Y55880I-15000J0D01*
G01*
X9642080Y55880D02*
G75*
G02*
X9672080Y55880I15000J0D01*
G01*
X9674620Y3271520D02*
G75*
G02*
X9644620Y3271520I-15000J0D01*
G01*
X9644620Y3271520D02*
G75*
G02*
X9674620Y3271520I15000J0D01*
G01*
X9674620Y3017520D02*
G75*
G02*
X9644620Y3017520I-15000J0D01*
G01*
X9644620Y3017520D02*
G75*
G02*
X9674620Y3017520I15000J0D01*
G01*
X9674620Y2763520D02*
G75*
G02*
X9644620Y2763520I-15000J0D01*
G01*
X9644620Y2763520D02*
G75*
G02*
X9674620Y2763520I15000J0D01*
G01*
X9692400Y5588000D02*
G75*
G02*
X9662400Y5588000I-15000J0D01*
G01*
X9662400Y5588000D02*
G75*
G02*
X9692400Y5588000I15000J0D01*
G01*
X9721610Y2513330D02*
G75*
G02*
X9691610Y2513330I-15000J0D01*
G01*
X9691610Y2513330D02*
G75*
G02*
X9721610Y2513330I15000J0D01*
G01*
X9773680Y5214620D02*
G75*
G02*
X9743680Y5214620I-15000J0D01*
G01*
X9743680Y5214620D02*
G75*
G02*
X9773680Y5214620I15000J0D01*
G01*
X9791460Y452120D02*
G75*
G02*
X9761460Y452120I-15000J0D01*
G01*
X9761460Y452120D02*
G75*
G02*
X9791460Y452120I15000J0D01*
G01*
X9794000Y782320D02*
G75*
G02*
X9764000Y782320I-15000J0D01*
G01*
X9764000Y782320D02*
G75*
G02*
X9794000Y782320I15000J0D01*
G01*
X9799080Y4810760D02*
G75*
G02*
X9769080Y4810760I-15000J0D01*
G01*
X9769080Y4810760D02*
G75*
G02*
X9799080Y4810760I15000J0D01*
G01*
X9806700Y2471420D02*
G75*
G02*
X9776700Y2471420I-15000J0D01*
G01*
X9776700Y2471420D02*
G75*
G02*
X9806700Y2471420I15000J0D01*
G01*
X9860040Y2600960D02*
G75*
G02*
X9830040Y2600960I-15000J0D01*
G01*
X9830040Y2600960D02*
G75*
G02*
X9860040Y2600960I15000J0D01*
G01*
X9885440Y83820D02*
G75*
G02*
X9855440Y83820I-15000J0D01*
G01*
X9855440Y83820D02*
G75*
G02*
X9885440Y83820I15000J0D01*
G01*
X9908300Y5740400D02*
G75*
G02*
X9878300Y5740400I-15000J0D01*
G01*
X9878300Y5740400D02*
G75*
G02*
X9908300Y5740400I15000J0D01*
G01*
X9948940Y3017520D02*
G75*
G02*
X9918940Y3017520I-15000J0D01*
G01*
X9918940Y3017520D02*
G75*
G02*
X9948940Y3017520I15000J0D01*
G01*
X9948940Y2763520D02*
G75*
G02*
X9918940Y2763520I-15000J0D01*
G01*
X9918940Y2763520D02*
G75*
G02*
X9948940Y2763520I15000J0D01*
G01*
X9951480Y5557520D02*
G75*
G02*
X9921480Y5557520I-15000J0D01*
G01*
X9921480Y5557520D02*
G75*
G02*
X9951480Y5557520I15000J0D01*
G01*
X9951480Y5303520D02*
G75*
G02*
X9921480Y5303520I-15000J0D01*
G01*
X9921480Y5303520D02*
G75*
G02*
X9951480Y5303520I15000J0D01*
G01*
X9951480Y5049520D02*
G75*
G02*
X9921480Y5049520I-15000J0D01*
G01*
X9921480Y5049520D02*
G75*
G02*
X9951480Y5049520I15000J0D01*
G01*
X9951480Y4795520D02*
G75*
G02*
X9921480Y4795520I-15000J0D01*
G01*
X9921480Y4795520D02*
G75*
G02*
X9951480Y4795520I15000J0D01*
G01*
X9951480Y4541520D02*
G75*
G02*
X9921480Y4541520I-15000J0D01*
G01*
X9921480Y4541520D02*
G75*
G02*
X9951480Y4541520I15000J0D01*
G01*
X9951480Y4287520D02*
G75*
G02*
X9921480Y4287520I-15000J0D01*
G01*
X9921480Y4287520D02*
G75*
G02*
X9951480Y4287520I15000J0D01*
G01*
X9951480Y4033520D02*
G75*
G02*
X9921480Y4033520I-15000J0D01*
G01*
X9921480Y4033520D02*
G75*
G02*
X9951480Y4033520I15000J0D01*
G01*
X9951480Y3779520D02*
G75*
G02*
X9921480Y3779520I-15000J0D01*
G01*
X9921480Y3779520D02*
G75*
G02*
X9951480Y3779520I15000J0D01*
G01*
X9951480Y3525520D02*
G75*
G02*
X9921480Y3525520I-15000J0D01*
G01*
X9921480Y3525520D02*
G75*
G02*
X9951480Y3525520I15000J0D01*
G01*
X9951480Y3271520D02*
G75*
G02*
X9921480Y3271520I-15000J0D01*
G01*
X9921480Y3271520D02*
G75*
G02*
X9951480Y3271520I15000J0D01*
G01*
X9951480Y2509520D02*
G75*
G02*
X9921480Y2509520I-15000J0D01*
G01*
X9921480Y2509520D02*
G75*
G02*
X9951480Y2509520I15000J0D01*
G01*
X9951480Y2255520D02*
G75*
G02*
X9921480Y2255520I-15000J0D01*
G01*
X9921480Y2255520D02*
G75*
G02*
X9951480Y2255520I15000J0D01*
G01*
X9951480Y2001520D02*
G75*
G02*
X9921480Y2001520I-15000J0D01*
G01*
X9921480Y2001520D02*
G75*
G02*
X9951480Y2001520I15000J0D01*
G01*
X9951480Y1747520D02*
G75*
G02*
X9921480Y1747520I-15000J0D01*
G01*
X9921480Y1747520D02*
G75*
G02*
X9951480Y1747520I15000J0D01*
G01*
X9951480Y1493520D02*
G75*
G02*
X9921480Y1493520I-15000J0D01*
G01*
X9921480Y1493520D02*
G75*
G02*
X9951480Y1493520I15000J0D01*
G01*
X9951480Y1239520D02*
G75*
G02*
X9921480Y1239520I-15000J0D01*
G01*
X9921480Y1239520D02*
G75*
G02*
X9951480Y1239520I15000J0D01*
G01*
X9951480Y985520D02*
G75*
G02*
X9921480Y985520I-15000J0D01*
G01*
X9921480Y985520D02*
G75*
G02*
X9951480Y985520I15000J0D01*
G01*
X9951480Y731520D02*
G75*
G02*
X9921480Y731520I-15000J0D01*
G01*
X9921480Y731520D02*
G75*
G02*
X9951480Y731520I15000J0D01*
G01*
X9951480Y477520D02*
G75*
G02*
X9921480Y477520I-15000J0D01*
G01*
X9921480Y477520D02*
G75*
G02*
X9951480Y477520I15000J0D01*
G01*
X9951480Y223520D02*
G75*
G02*
X9921480Y223520I-15000J0D01*
G01*
X9921480Y223520D02*
G75*
G02*
X9951480Y223520I15000J0D01*
G01*
X4754880Y345040D02*
X4754880Y295040D01*
X4729880Y320040D02*
X4779880Y320040D01*
X4866640Y345040D02*
X4866640Y295040D01*
X4841640Y320040D02*
X4891640Y320040D01*
X9041130Y3318110D02*
X9041130Y3268110D01*
X9016130Y3293110D02*
X9066130Y3293110D01*
X9149080Y4271880D02*
X9149080Y4221880D01*
X9124080Y4246880D02*
X9174080Y4246880D01*
X9260840Y4645260D02*
X9260840Y4595260D01*
X9235840Y4620260D02*
X9285840Y4620260D01*
X2909193Y994786D02*
X2909193Y1037213D01*
X2866767Y1037213D01*
X2866767Y994786D01*
X2909193Y994786D01*
X3589913Y1109087D02*
X3589913Y1151513D01*
X3547487Y1151513D01*
X3547487Y1109087D01*
X3589913Y1109087D01*
X6873600Y667160D02*
X6903600Y697160D01*
X6873600Y727160D01*
X6843600Y697160D01*
X6873600Y667160D01*
X6843600Y752160D02*
X6843600Y642160D01*
X6903600Y642160D02*
G75*
G02*
X6843600Y642160I-30000J0D01*
G01*
X6903600Y642160D02*
X6903600Y752160D01*
X6903600Y752160D02*
G75*
G03*
X6843600Y752160I-30000J0D01*
G01*
X6873600Y247160D02*
X6903600Y277160D01*
X6873600Y307160D01*
X6843600Y277160D01*
X6873600Y247160D01*
X6843600Y317160D02*
X6843600Y237160D01*
X6903600Y237160D02*
G75*
G02*
X6843600Y237160I-30000J0D01*
G01*
X6903600Y237160D02*
X6903600Y317160D01*
X6903600Y317160D02*
G75*
G03*
X6843600Y317160I-30000J0D01*
G01*
X7737600Y667160D02*
X7767600Y697160D01*
X7737600Y727160D01*
X7707600Y697160D01*
X7737600Y667160D01*
X7707600Y752160D02*
X7707600Y642160D01*
X7767600Y642160D02*
G75*
G02*
X7707600Y642160I-30000J0D01*
G01*
X7767600Y642160D02*
X7767600Y752160D01*
X7767600Y752160D02*
G75*
G03*
X7707600Y752160I-30000J0D01*
G01*
X7737600Y247160D02*
X7767600Y277160D01*
X7737600Y307160D01*
X7707600Y277160D01*
X7737600Y247160D01*
X7707600Y317160D02*
X7707600Y237160D01*
X7767600Y237160D02*
G75*
G02*
X7707600Y237160I-30000J0D01*
G01*
X7767600Y237160D02*
X7767600Y317160D01*
X7767600Y317160D02*
G75*
G03*
X7707600Y317160I-30000J0D01*
G01*
X2176800Y3246400D02*
X2256800Y3166400D01*
X2256800Y3246400D02*
X2176800Y3166400D01*
X2256800Y3206400D02*
G75*
G02*
X2176800Y3206400I-40000J0D01*
G01*
X2176800Y3206400D02*
G75*
G02*
X2256800Y3206400I40000J0D01*
G01*
X2416800Y3996400D02*
X2496800Y3916400D01*
X2496800Y3996400D02*
X2416800Y3916400D01*
X2496800Y3956400D02*
G75*
G02*
X2416800Y3956400I-40000J0D01*
G01*
X2416800Y3956400D02*
G75*
G02*
X2496800Y3956400I40000J0D01*
G01*
X6608480Y4662100D02*
X6688480Y4582100D01*
X6688480Y4662100D02*
X6608480Y4582100D01*
X6688480Y4622100D02*
G75*
G02*
X6608480Y4622100I-40000J0D01*
G01*
X6608480Y4622100D02*
G75*
G02*
X6688480Y4622100I40000J0D01*
G01*
X6848480Y5412100D02*
X6928480Y5332100D01*
X6928480Y5412100D02*
X6848480Y5332100D01*
X6928480Y5372100D02*
G75*
G02*
X6848480Y5372100I-40000J0D01*
G01*
X6848480Y5372100D02*
G75*
G02*
X6928480Y5372100I40000J0D01*
G01*
X7143280Y4296880D02*
X7243280Y4196880D01*
X7243280Y4296880D02*
X7143280Y4196880D01*
X7193280Y4296880D02*
X7193280Y4196880D01*
X7143280Y4246880D02*
X7243280Y4246880D01*
X7143280Y3788880D02*
X7243280Y3688880D01*
X7243280Y3788880D02*
X7143280Y3688880D01*
X7193280Y3788880D02*
X7193280Y3688880D01*
X7143280Y3738880D02*
X7243280Y3738880D01*
X7143280Y3382480D02*
X7243280Y3282480D01*
X7243280Y3382480D02*
X7143280Y3282480D01*
X7193280Y3382480D02*
X7193280Y3282480D01*
X7143280Y3332480D02*
X7243280Y3332480D01*
X7143280Y2874480D02*
X7243280Y2774480D01*
X7243280Y2874480D02*
X7143280Y2774480D01*
X7193280Y2874480D02*
X7193280Y2774480D01*
X7143280Y2824480D02*
X7243280Y2824480D01*
X7905280Y4296880D02*
X8005280Y4196880D01*
X8005280Y4296880D02*
X7905280Y4196880D01*
X7955280Y4296880D02*
X7955280Y4196880D01*
X7905280Y4246880D02*
X8005280Y4246880D01*
X7905280Y3788880D02*
X8005280Y3688880D01*
X8005280Y3788880D02*
X7905280Y3688880D01*
X7955280Y3788880D02*
X7955280Y3688880D01*
X7905280Y3738880D02*
X8005280Y3738880D01*
X7905280Y3382480D02*
X8005280Y3282480D01*
X8005280Y3382480D02*
X7905280Y3282480D01*
X7955280Y3382480D02*
X7955280Y3282480D01*
X7905280Y3332480D02*
X8005280Y3332480D01*
X7905280Y2874480D02*
X8005280Y2774480D01*
X8005280Y2874480D02*
X7905280Y2774480D01*
X7955280Y2874480D02*
X7955280Y2774480D01*
X7905280Y2824480D02*
X8005280Y2824480D01*
X8159280Y4296880D02*
X8259280Y4196880D01*
X8259280Y4296880D02*
X8159280Y4196880D01*
X8209280Y4296880D02*
X8209280Y4196880D01*
X8159280Y4246880D02*
X8259280Y4246880D01*
X8159280Y3788880D02*
X8259280Y3688880D01*
X8259280Y3788880D02*
X8159280Y3688880D01*
X8209280Y3788880D02*
X8209280Y3688880D01*
X8159280Y3738880D02*
X8259280Y3738880D01*
X8159280Y3382480D02*
X8259280Y3282480D01*
X8259280Y3382480D02*
X8159280Y3282480D01*
X8209280Y3382480D02*
X8209280Y3282480D01*
X8159280Y3332480D02*
X8259280Y3332480D01*
X8159280Y2874480D02*
X8259280Y2774480D01*
X8259280Y2874480D02*
X8159280Y2774480D01*
X8209280Y2874480D02*
X8209280Y2774480D01*
X8159280Y2824480D02*
X8259280Y2824480D01*
D12*
X905160Y5254340D02*
X1020160Y5139340D01*
X1020160Y5254340D02*
X905160Y5139340D01*
X1003319Y5156181D02*
X1003319Y5237499D01*
X922001Y5237499D01*
X922001Y5156181D01*
X1003319Y5156181D01*
X905160Y4754340D02*
X1020160Y4639340D01*
X1020160Y4754340D02*
X905160Y4639340D01*
X1003319Y4656181D02*
X1003319Y4737499D01*
X922001Y4737499D01*
X922001Y4656181D01*
X1003319Y4656181D01*
X905160Y4254340D02*
X1020160Y4139340D01*
X1020160Y4254340D02*
X905160Y4139340D01*
X1003319Y4156181D02*
X1003319Y4237499D01*
X922001Y4237499D01*
X922001Y4156181D01*
X1003319Y4156181D01*
X905160Y3754340D02*
X1020160Y3639340D01*
X1020160Y3754340D02*
X905160Y3639340D01*
X1003319Y3656181D02*
X1003319Y3737499D01*
X922001Y3737499D01*
X922001Y3656181D01*
X1003319Y3656181D01*
X905160Y3254340D02*
X1020160Y3139340D01*
X1020160Y3254340D02*
X905160Y3139340D01*
X1003319Y3156181D02*
X1003319Y3237499D01*
X922001Y3237499D01*
X922001Y3156181D01*
X1003319Y3156181D01*
X905160Y2754340D02*
X1020160Y2639340D01*
X1020160Y2754340D02*
X905160Y2639340D01*
X1003319Y2656181D02*
X1003319Y2737499D01*
X922001Y2737499D01*
X922001Y2656181D01*
X1003319Y2656181D01*
X905160Y2254340D02*
X1020160Y2139340D01*
X1020160Y2254340D02*
X905160Y2139340D01*
X1003319Y2156181D02*
X1003319Y2237499D01*
X922001Y2237499D01*
X922001Y2156181D01*
X1003319Y2156181D01*
X905160Y1754340D02*
X1020160Y1639340D01*
X1020160Y1754340D02*
X905160Y1639340D01*
X1003319Y1656181D02*
X1003319Y1737499D01*
X922001Y1737499D01*
X922001Y1656181D01*
X1003319Y1656181D01*
X1405160Y5254340D02*
X1520160Y5139340D01*
X1520160Y5254340D02*
X1405160Y5139340D01*
X1503319Y5156181D02*
X1503319Y5237499D01*
X1422001Y5237499D01*
X1422001Y5156181D01*
X1503319Y5156181D01*
X1405160Y4754340D02*
X1520160Y4639340D01*
X1520160Y4754340D02*
X1405160Y4639340D01*
X1503319Y4656181D02*
X1503319Y4737499D01*
X1422001Y4737499D01*
X1422001Y4656181D01*
X1503319Y4656181D01*
X1405160Y4254340D02*
X1520160Y4139340D01*
X1520160Y4254340D02*
X1405160Y4139340D01*
X1503319Y4156181D02*
X1503319Y4237499D01*
X1422001Y4237499D01*
X1422001Y4156181D01*
X1503319Y4156181D01*
X1405160Y3754340D02*
X1520160Y3639340D01*
X1520160Y3754340D02*
X1405160Y3639340D01*
X1503319Y3656181D02*
X1503319Y3737499D01*
X1422001Y3737499D01*
X1422001Y3656181D01*
X1503319Y3656181D01*
X1405160Y3254340D02*
X1520160Y3139340D01*
X1520160Y3254340D02*
X1405160Y3139340D01*
X1503319Y3156181D02*
X1503319Y3237499D01*
X1422001Y3237499D01*
X1422001Y3156181D01*
X1503319Y3156181D01*
X1405160Y2754340D02*
X1520160Y2639340D01*
X1520160Y2754340D02*
X1405160Y2639340D01*
X1503319Y2656181D02*
X1503319Y2737499D01*
X1422001Y2737499D01*
X1422001Y2656181D01*
X1503319Y2656181D01*
X1405160Y2254340D02*
X1520160Y2139340D01*
X1520160Y2254340D02*
X1405160Y2139340D01*
X1503319Y2156181D02*
X1503319Y2237499D01*
X1422001Y2237499D01*
X1422001Y2156181D01*
X1503319Y2156181D01*
X1405160Y1754340D02*
X1520160Y1639340D01*
X1520160Y1754340D02*
X1405160Y1639340D01*
X1503319Y1656181D02*
X1503319Y1737499D01*
X1422001Y1737499D01*
X1422001Y1656181D01*
X1503319Y1656181D01*
D13*
X7192820Y5492430D02*
X7322820Y5362430D01*
X7322820Y5492430D02*
X7192820Y5362430D01*
X7257820Y5362430D02*
X7322820Y5427430D01*
X7257820Y5492430D01*
X7192820Y5427430D01*
X7257820Y5362430D01*
X7446820Y4730430D02*
X7576820Y4600430D01*
X7576820Y4730430D02*
X7446820Y4600430D01*
X7511820Y4600430D02*
X7576820Y4665430D01*
X7511820Y4730430D01*
X7446820Y4665430D01*
X7511820Y4600430D01*
X7954820Y5492430D02*
X8084820Y5362430D01*
X8084820Y5492430D02*
X7954820Y5362430D01*
X8019820Y5362430D02*
X8084820Y5427430D01*
X8019820Y5492430D01*
X7954820Y5427430D01*
X8019820Y5362430D01*
X8970820Y5492430D02*
X9100820Y5362430D01*
X9100820Y5492430D02*
X8970820Y5362430D01*
X9035820Y5362430D02*
X9100820Y5427430D01*
X9035820Y5492430D01*
X8970820Y5427430D01*
X9035820Y5362430D01*
X8970820Y4730430D02*
X9100820Y4600430D01*
X9100820Y4730430D02*
X8970820Y4600430D01*
X9035820Y4600430D02*
X9100820Y4665430D01*
X9035820Y4730430D01*
X8970820Y4665430D01*
X9035820Y4600430D01*
D14*
X3266440Y5564060D02*
X3266440Y5429060D01*
X3198940Y5496560D02*
X3333940Y5496560D01*
X3333940Y5496560D02*
G75*
G02*
X3198940Y5496560I-67500J0D01*
G01*
X3198940Y5496560D02*
G75*
G02*
X3333940Y5496560I67500J0D01*
G01*
X3266440Y3151060D02*
X3266440Y3016060D01*
X3198940Y3083560D02*
X3333940Y3083560D01*
X3333940Y3083560D02*
G75*
G02*
X3198940Y3083560I-67500J0D01*
G01*
X3198940Y3083560D02*
G75*
G02*
X3333940Y3083560I67500J0D01*
G01*
D15*
X4304414Y5181906D02*
X4304414Y5287973D01*
X4198347Y5287973D01*
X4198347Y5181906D01*
X4304414Y5181906D01*
X4326380Y5234940D02*
G75*
G02*
X4176380Y5234940I-75000J0D01*
G01*
X4176380Y5234940D02*
G75*
G02*
X4326380Y5234940I75000J0D01*
G01*
X4304414Y1331906D02*
X4304414Y1437973D01*
X4198347Y1437973D01*
X4198347Y1331906D01*
X4304414Y1331906D01*
X4326380Y1384940D02*
G75*
G02*
X4176380Y1384940I-75000J0D01*
G01*
X4176380Y1384940D02*
G75*
G02*
X4326380Y1384940I75000J0D01*
G01*
X5104414Y1331906D02*
X5104414Y1437973D01*
X4998347Y1437973D01*
X4998347Y1331906D01*
X5104414Y1331906D01*
X5126380Y1384940D02*
G75*
G02*
X4976380Y1384940I-75000J0D01*
G01*
X4976380Y1384940D02*
G75*
G02*
X5126380Y1384940I75000J0D01*
G01*
X5379414Y5181906D02*
X5379414Y5287973D01*
X5273347Y5287973D01*
X5273347Y5181906D01*
X5379414Y5181906D01*
X5401380Y5234940D02*
G75*
G02*
X5251380Y5234940I-75000J0D01*
G01*
X5251380Y5234940D02*
G75*
G02*
X5401380Y5234940I75000J0D01*
G01*
D11*
X255777Y-316484D02*
X255777Y-116484D01*
X255777Y-116484D02*
X303396Y-116484D01*
X303396Y-116484D02*
X331967Y-126008D01*
X331967Y-126008D02*
X351015Y-145055D01*
X351015Y-145055D02*
X360539Y-164103D01*
X360539Y-164103D02*
X370062Y-202198D01*
X370062Y-202198D02*
X370062Y-230769D01*
X370062Y-230769D02*
X360539Y-268865D01*
X360539Y-268865D02*
X351015Y-287912D01*
X351015Y-287912D02*
X331967Y-306960D01*
X331967Y-306960D02*
X303396Y-316484D01*
X303396Y-316484D02*
X255777Y-316484D01*
X455777Y-316484D02*
X455777Y-183150D01*
X455777Y-221246D02*
X465301Y-202198D01*
X465301Y-202198D02*
X474824Y-192674D01*
X474824Y-192674D02*
X493872Y-183150D01*
X493872Y-183150D02*
X512920Y-183150D01*
X579586Y-316484D02*
X579586Y-183150D01*
X579586Y-116484D02*
X570063Y-126008D01*
X570063Y-126008D02*
X579586Y-135531D01*
X579586Y-135531D02*
X589110Y-126008D01*
X589110Y-126008D02*
X579586Y-116484D01*
X579586Y-116484D02*
X579586Y-135531D01*
X703396Y-316484D02*
X684348Y-306960D01*
X684348Y-306960D02*
X674824Y-287912D01*
X674824Y-287912D02*
X674824Y-116484D01*
X808158Y-316484D02*
X789110Y-306960D01*
X789110Y-306960D02*
X779586Y-287912D01*
X779586Y-287912D02*
X779586Y-116484D01*
X1036729Y-316484D02*
X1036729Y-116484D01*
X1036729Y-116484D02*
X1103396Y-259341D01*
X1103396Y-259341D02*
X1170063Y-116484D01*
X1170063Y-116484D02*
X1170063Y-316484D01*
X1351015Y-316484D02*
X1351015Y-211722D01*
X1351015Y-211722D02*
X1341491Y-192674D01*
X1341491Y-192674D02*
X1322444Y-183150D01*
X1322444Y-183150D02*
X1284348Y-183150D01*
X1284348Y-183150D02*
X1265301Y-192674D01*
X1351015Y-306960D02*
X1331967Y-316484D01*
X1331967Y-316484D02*
X1284348Y-316484D01*
X1284348Y-316484D02*
X1265301Y-306960D01*
X1265301Y-306960D02*
X1255777Y-287912D01*
X1255777Y-287912D02*
X1255777Y-268865D01*
X1255777Y-268865D02*
X1265301Y-249817D01*
X1265301Y-249817D02*
X1284348Y-240293D01*
X1284348Y-240293D02*
X1331967Y-240293D01*
X1331967Y-240293D02*
X1351015Y-230769D01*
X1446253Y-183150D02*
X1446253Y-383150D01*
X1446253Y-192674D02*
X1465301Y-183150D01*
X1465301Y-183150D02*
X1503396Y-183150D01*
X1503396Y-183150D02*
X1522443Y-192674D01*
X1522443Y-192674D02*
X1531967Y-202198D01*
X1531967Y-202198D02*
X1541491Y-221246D01*
X1541491Y-221246D02*
X1541491Y-278389D01*
X1541491Y-278389D02*
X1531967Y-297436D01*
X1531967Y-297436D02*
X1522443Y-306960D01*
X1522443Y-306960D02*
X1503396Y-316484D01*
X1503396Y-316484D02*
X1465301Y-316484D01*
X1465301Y-316484D02*
X1446253Y-306960D01*
X1627205Y-297436D02*
X1636729Y-306960D01*
X1636729Y-306960D02*
X1627205Y-316484D01*
X1627205Y-316484D02*
X1617682Y-306960D01*
X1617682Y-306960D02*
X1627205Y-297436D01*
X1627205Y-297436D02*
X1627205Y-316484D01*
X1627205Y-192674D02*
X1636729Y-202198D01*
X1636729Y-202198D02*
X1627205Y-211722D01*
X1627205Y-211722D02*
X1617682Y-202198D01*
X1617682Y-202198D02*
X1627205Y-192674D01*
X1627205Y-192674D02*
X1627205Y-211722D01*
D10*
X-25000Y-635000D02*
X-5000Y-655000D01*
X-5000Y-635000D02*
X-25000Y-655000D01*
D11*
X293872Y-536484D02*
X312920Y-536484D01*
X312920Y-536484D02*
X331967Y-546008D01*
X331967Y-546008D02*
X341491Y-555531D01*
X341491Y-555531D02*
X351015Y-574579D01*
X351015Y-574579D02*
X360539Y-612674D01*
X360539Y-612674D02*
X360539Y-660293D01*
X360539Y-660293D02*
X351015Y-698389D01*
X351015Y-698389D02*
X341491Y-717436D01*
X341491Y-717436D02*
X331967Y-726960D01*
X331967Y-726960D02*
X312920Y-736484D01*
X312920Y-736484D02*
X293872Y-736484D01*
X293872Y-736484D02*
X274824Y-726960D01*
X274824Y-726960D02*
X265301Y-717436D01*
X265301Y-717436D02*
X255777Y-698389D01*
X255777Y-698389D02*
X246253Y-660293D01*
X246253Y-660293D02*
X246253Y-612674D01*
X246253Y-612674D02*
X255777Y-574579D01*
X255777Y-574579D02*
X265301Y-555531D01*
X265301Y-555531D02*
X274824Y-546008D01*
X274824Y-546008D02*
X293872Y-536484D01*
X446253Y-717436D02*
X455777Y-726960D01*
X455777Y-726960D02*
X446253Y-736484D01*
X446253Y-736484D02*
X436729Y-726960D01*
X436729Y-726960D02*
X446253Y-717436D01*
X446253Y-717436D02*
X446253Y-736484D01*
X531967Y-555531D02*
X541491Y-546008D01*
X541491Y-546008D02*
X560539Y-536484D01*
X560539Y-536484D02*
X608158Y-536484D01*
X608158Y-536484D02*
X627205Y-546008D01*
X627205Y-546008D02*
X636729Y-555531D01*
X636729Y-555531D02*
X646253Y-574579D01*
X646253Y-574579D02*
X646253Y-593627D01*
X646253Y-593627D02*
X636729Y-622198D01*
X636729Y-622198D02*
X522443Y-736484D01*
X522443Y-736484D02*
X646253Y-736484D01*
X770062Y-536484D02*
X789110Y-536484D01*
X789110Y-536484D02*
X808158Y-546008D01*
X808158Y-546008D02*
X817682Y-555531D01*
X817682Y-555531D02*
X827205Y-574579D01*
X827205Y-574579D02*
X836729Y-612674D01*
X836729Y-612674D02*
X836729Y-660293D01*
X836729Y-660293D02*
X827205Y-698389D01*
X827205Y-698389D02*
X817682Y-717436D01*
X817682Y-717436D02*
X808158Y-726960D01*
X808158Y-726960D02*
X789110Y-736484D01*
X789110Y-736484D02*
X770062Y-736484D01*
X770062Y-736484D02*
X751015Y-726960D01*
X751015Y-726960D02*
X741491Y-717436D01*
X741491Y-717436D02*
X731967Y-698389D01*
X731967Y-698389D02*
X722443Y-660293D01*
X722443Y-660293D02*
X722443Y-612674D01*
X722443Y-612674D02*
X731967Y-574579D01*
X731967Y-574579D02*
X741491Y-555531D01*
X741491Y-555531D02*
X751015Y-546008D01*
X751015Y-546008D02*
X770062Y-536484D01*
X960539Y-536484D02*
X979586Y-536484D01*
X979586Y-536484D02*
X998634Y-546008D01*
X998634Y-546008D02*
X1008158Y-555531D01*
X1008158Y-555531D02*
X1017682Y-574579D01*
X1017682Y-574579D02*
X1027205Y-612674D01*
X1027205Y-612674D02*
X1027205Y-660293D01*
X1027205Y-660293D02*
X1017682Y-698389D01*
X1017682Y-698389D02*
X1008158Y-717436D01*
X1008158Y-717436D02*
X998634Y-726960D01*
X998634Y-726960D02*
X979586Y-736484D01*
X979586Y-736484D02*
X960539Y-736484D01*
X960539Y-736484D02*
X941491Y-726960D01*
X941491Y-726960D02*
X931967Y-717436D01*
X931967Y-717436D02*
X922443Y-698389D01*
X922443Y-698389D02*
X912920Y-660293D01*
X912920Y-660293D02*
X912920Y-612674D01*
X912920Y-612674D02*
X922443Y-574579D01*
X922443Y-574579D02*
X931967Y-555531D01*
X931967Y-555531D02*
X941491Y-546008D01*
X941491Y-546008D02*
X960539Y-536484D01*
X1112920Y-736484D02*
X1112920Y-603150D01*
X1112920Y-622198D02*
X1122444Y-612674D01*
X1122444Y-612674D02*
X1141491Y-603150D01*
X1141491Y-603150D02*
X1170063Y-603150D01*
X1170063Y-603150D02*
X1189110Y-612674D01*
X1189110Y-612674D02*
X1198634Y-631722D01*
X1198634Y-631722D02*
X1198634Y-736484D01*
X1198634Y-631722D02*
X1208158Y-612674D01*
X1208158Y-612674D02*
X1227205Y-603150D01*
X1227205Y-603150D02*
X1255777Y-603150D01*
X1255777Y-603150D02*
X1274825Y-612674D01*
X1274825Y-612674D02*
X1284348Y-631722D01*
X1284348Y-631722D02*
X1284348Y-736484D01*
X1379586Y-736484D02*
X1379586Y-603150D01*
X1379586Y-622198D02*
X1389110Y-612674D01*
X1389110Y-612674D02*
X1408158Y-603150D01*
X1408158Y-603150D02*
X1436729Y-603150D01*
X1436729Y-603150D02*
X1455777Y-612674D01*
X1455777Y-612674D02*
X1465301Y-631722D01*
X1465301Y-631722D02*
X1465301Y-736484D01*
X1465301Y-631722D02*
X1474824Y-612674D01*
X1474824Y-612674D02*
X1493872Y-603150D01*
X1493872Y-603150D02*
X1522443Y-603150D01*
X1522443Y-603150D02*
X1541491Y-612674D01*
X1541491Y-612674D02*
X1551015Y-631722D01*
X1551015Y-631722D02*
X1551015Y-736484D01*
X1941491Y-526960D02*
X1770063Y-784103D01*
X2198634Y-536484D02*
X2217682Y-536484D01*
X2217682Y-536484D02*
X2236729Y-546008D01*
X2236729Y-546008D02*
X2246253Y-555531D01*
X2246253Y-555531D02*
X2255777Y-574579D01*
X2255777Y-574579D02*
X2265301Y-612674D01*
X2265301Y-612674D02*
X2265301Y-660293D01*
X2265301Y-660293D02*
X2255777Y-698389D01*
X2255777Y-698389D02*
X2246253Y-717436D01*
X2246253Y-717436D02*
X2236729Y-726960D01*
X2236729Y-726960D02*
X2217682Y-736484D01*
X2217682Y-736484D02*
X2198634Y-736484D01*
X2198634Y-736484D02*
X2179587Y-726960D01*
X2179587Y-726960D02*
X2170063Y-717436D01*
X2170063Y-717436D02*
X2160539Y-698389D01*
X2160539Y-698389D02*
X2151015Y-660293D01*
X2151015Y-660293D02*
X2151015Y-612674D01*
X2151015Y-612674D02*
X2160539Y-574579D01*
X2160539Y-574579D02*
X2170063Y-555531D01*
X2170063Y-555531D02*
X2179587Y-546008D01*
X2179587Y-546008D02*
X2198634Y-536484D01*
X2351015Y-717436D02*
X2360539Y-726960D01*
X2360539Y-726960D02*
X2351015Y-736484D01*
X2351015Y-736484D02*
X2341491Y-726960D01*
X2341491Y-726960D02*
X2351015Y-717436D01*
X2351015Y-717436D02*
X2351015Y-736484D01*
X2484348Y-536484D02*
X2503396Y-536484D01*
X2503396Y-536484D02*
X2522444Y-546008D01*
X2522444Y-546008D02*
X2531968Y-555531D01*
X2531968Y-555531D02*
X2541491Y-574579D01*
X2541491Y-574579D02*
X2551015Y-612674D01*
X2551015Y-612674D02*
X2551015Y-660293D01*
X2551015Y-660293D02*
X2541491Y-698389D01*
X2541491Y-698389D02*
X2531968Y-717436D01*
X2531968Y-717436D02*
X2522444Y-726960D01*
X2522444Y-726960D02*
X2503396Y-736484D01*
X2503396Y-736484D02*
X2484348Y-736484D01*
X2484348Y-736484D02*
X2465301Y-726960D01*
X2465301Y-726960D02*
X2455777Y-717436D01*
X2455777Y-717436D02*
X2446253Y-698389D01*
X2446253Y-698389D02*
X2436729Y-660293D01*
X2436729Y-660293D02*
X2436729Y-612674D01*
X2436729Y-612674D02*
X2446253Y-574579D01*
X2446253Y-574579D02*
X2455777Y-555531D01*
X2455777Y-555531D02*
X2465301Y-546008D01*
X2465301Y-546008D02*
X2484348Y-536484D01*
X2674825Y-536484D02*
X2693872Y-536484D01*
X2693872Y-536484D02*
X2712920Y-546008D01*
X2712920Y-546008D02*
X2722444Y-555531D01*
X2722444Y-555531D02*
X2731968Y-574579D01*
X2731968Y-574579D02*
X2741491Y-612674D01*
X2741491Y-612674D02*
X2741491Y-660293D01*
X2741491Y-660293D02*
X2731968Y-698389D01*
X2731968Y-698389D02*
X2722444Y-717436D01*
X2722444Y-717436D02*
X2712920Y-726960D01*
X2712920Y-726960D02*
X2693872Y-736484D01*
X2693872Y-736484D02*
X2674825Y-736484D01*
X2674825Y-736484D02*
X2655777Y-726960D01*
X2655777Y-726960D02*
X2646253Y-717436D01*
X2646253Y-717436D02*
X2636729Y-698389D01*
X2636729Y-698389D02*
X2627206Y-660293D01*
X2627206Y-660293D02*
X2627206Y-612674D01*
X2627206Y-612674D02*
X2636729Y-574579D01*
X2636729Y-574579D02*
X2646253Y-555531D01*
X2646253Y-555531D02*
X2655777Y-546008D01*
X2655777Y-546008D02*
X2674825Y-536484D01*
X2808158Y-536484D02*
X2941491Y-536484D01*
X2941491Y-536484D02*
X2855777Y-736484D01*
X3027206Y-736484D02*
X3065301Y-736484D01*
X3065301Y-736484D02*
X3084348Y-726960D01*
X3084348Y-726960D02*
X3093872Y-717436D01*
X3093872Y-717436D02*
X3112920Y-688865D01*
X3112920Y-688865D02*
X3122444Y-650770D01*
X3122444Y-650770D02*
X3122444Y-574579D01*
X3122444Y-574579D02*
X3112920Y-555531D01*
X3112920Y-555531D02*
X3103396Y-546008D01*
X3103396Y-546008D02*
X3084348Y-536484D01*
X3084348Y-536484D02*
X3046253Y-536484D01*
X3046253Y-536484D02*
X3027206Y-546008D01*
X3027206Y-546008D02*
X3017682Y-555531D01*
X3017682Y-555531D02*
X3008158Y-574579D01*
X3008158Y-574579D02*
X3008158Y-622198D01*
X3008158Y-622198D02*
X3017682Y-641246D01*
X3017682Y-641246D02*
X3027206Y-650770D01*
X3027206Y-650770D02*
X3046253Y-660293D01*
X3046253Y-660293D02*
X3084348Y-660293D01*
X3084348Y-660293D02*
X3103396Y-650770D01*
X3103396Y-650770D02*
X3112920Y-641246D01*
X3112920Y-641246D02*
X3122444Y-622198D01*
X3198634Y-536484D02*
X3198634Y-574579D01*
X3274825Y-536484D02*
X3274825Y-574579D01*
X3570063Y-812674D02*
X3560539Y-803150D01*
X3560539Y-803150D02*
X3541491Y-774579D01*
X3541491Y-774579D02*
X3531968Y-755531D01*
X3531968Y-755531D02*
X3522444Y-726960D01*
X3522444Y-726960D02*
X3512920Y-679341D01*
X3512920Y-679341D02*
X3512920Y-641246D01*
X3512920Y-641246D02*
X3522444Y-593627D01*
X3522444Y-593627D02*
X3531968Y-565055D01*
X3531968Y-565055D02*
X3541491Y-546008D01*
X3541491Y-546008D02*
X3560539Y-517436D01*
X3560539Y-517436D02*
X3570063Y-507912D01*
X3751015Y-736484D02*
X3636729Y-736484D01*
X3693872Y-736484D02*
X3693872Y-536484D01*
X3693872Y-536484D02*
X3674825Y-565055D01*
X3674825Y-565055D02*
X3655777Y-584103D01*
X3655777Y-584103D02*
X3636729Y-593627D01*
X3827206Y-555531D02*
X3836729Y-546008D01*
X3836729Y-546008D02*
X3855777Y-536484D01*
X3855777Y-536484D02*
X3903396Y-536484D01*
X3903396Y-536484D02*
X3922444Y-546008D01*
X3922444Y-546008D02*
X3931968Y-555531D01*
X3931968Y-555531D02*
X3941491Y-574579D01*
X3941491Y-574579D02*
X3941491Y-593627D01*
X3941491Y-593627D02*
X3931968Y-622198D01*
X3931968Y-622198D02*
X3817682Y-736484D01*
X3817682Y-736484D02*
X3941491Y-736484D01*
X4179587Y-736484D02*
X4179587Y-536484D01*
X4265301Y-736484D02*
X4265301Y-631722D01*
X4265301Y-631722D02*
X4255777Y-612674D01*
X4255777Y-612674D02*
X4236730Y-603150D01*
X4236730Y-603150D02*
X4208158Y-603150D01*
X4208158Y-603150D02*
X4189110Y-612674D01*
X4189110Y-612674D02*
X4179587Y-622198D01*
X4389111Y-736484D02*
X4370063Y-726960D01*
X4370063Y-726960D02*
X4360539Y-717436D01*
X4360539Y-717436D02*
X4351015Y-698389D01*
X4351015Y-698389D02*
X4351015Y-641246D01*
X4351015Y-641246D02*
X4360539Y-622198D01*
X4360539Y-622198D02*
X4370063Y-612674D01*
X4370063Y-612674D02*
X4389111Y-603150D01*
X4389111Y-603150D02*
X4417682Y-603150D01*
X4417682Y-603150D02*
X4436730Y-612674D01*
X4436730Y-612674D02*
X4446253Y-622198D01*
X4446253Y-622198D02*
X4455777Y-641246D01*
X4455777Y-641246D02*
X4455777Y-698389D01*
X4455777Y-698389D02*
X4446253Y-717436D01*
X4446253Y-717436D02*
X4436730Y-726960D01*
X4436730Y-726960D02*
X4417682Y-736484D01*
X4417682Y-736484D02*
X4389111Y-736484D01*
X4570063Y-736484D02*
X4551015Y-726960D01*
X4551015Y-726960D02*
X4541492Y-707912D01*
X4541492Y-707912D02*
X4541492Y-536484D01*
X4722444Y-726960D02*
X4703396Y-736484D01*
X4703396Y-736484D02*
X4665301Y-736484D01*
X4665301Y-736484D02*
X4646253Y-726960D01*
X4646253Y-726960D02*
X4636730Y-707912D01*
X4636730Y-707912D02*
X4636730Y-631722D01*
X4636730Y-631722D02*
X4646253Y-612674D01*
X4646253Y-612674D02*
X4665301Y-603150D01*
X4665301Y-603150D02*
X4703396Y-603150D01*
X4703396Y-603150D02*
X4722444Y-612674D01*
X4722444Y-612674D02*
X4731968Y-631722D01*
X4731968Y-631722D02*
X4731968Y-650770D01*
X4731968Y-650770D02*
X4636730Y-669817D01*
X4808158Y-726960D02*
X4827206Y-736484D01*
X4827206Y-736484D02*
X4865301Y-736484D01*
X4865301Y-736484D02*
X4884349Y-726960D01*
X4884349Y-726960D02*
X4893873Y-707912D01*
X4893873Y-707912D02*
X4893873Y-698389D01*
X4893873Y-698389D02*
X4884349Y-679341D01*
X4884349Y-679341D02*
X4865301Y-669817D01*
X4865301Y-669817D02*
X4836730Y-669817D01*
X4836730Y-669817D02*
X4817682Y-660293D01*
X4817682Y-660293D02*
X4808158Y-641246D01*
X4808158Y-641246D02*
X4808158Y-631722D01*
X4808158Y-631722D02*
X4817682Y-612674D01*
X4817682Y-612674D02*
X4836730Y-603150D01*
X4836730Y-603150D02*
X4865301Y-603150D01*
X4865301Y-603150D02*
X4884349Y-612674D01*
X4960539Y-812674D02*
X4970063Y-803150D01*
X4970063Y-803150D02*
X4989111Y-774579D01*
X4989111Y-774579D02*
X4998634Y-755531D01*
X4998634Y-755531D02*
X5008158Y-726960D01*
X5008158Y-726960D02*
X5017682Y-679341D01*
X5017682Y-679341D02*
X5017682Y-641246D01*
X5017682Y-641246D02*
X5008158Y-593627D01*
X5008158Y-593627D02*
X4998634Y-565055D01*
X4998634Y-565055D02*
X4989111Y-546008D01*
X4989111Y-546008D02*
X4970063Y-517436D01*
X4970063Y-517436D02*
X4960539Y-507912D01*
D10*
X-5000Y-909000D02*
G75*
G02*
X-35000Y-909000I-15000J0D01*
G01*
X-35000Y-909000D02*
G75*
G02*
X-5000Y-909000I15000J0D01*
G01*
D11*
X293872Y-800484D02*
X312920Y-800484D01*
X312920Y-800484D02*
X331967Y-810008D01*
X331967Y-810008D02*
X341491Y-819531D01*
X341491Y-819531D02*
X351015Y-838579D01*
X351015Y-838579D02*
X360539Y-876674D01*
X360539Y-876674D02*
X360539Y-924293D01*
X360539Y-924293D02*
X351015Y-962388D01*
X351015Y-962388D02*
X341491Y-981436D01*
X341491Y-981436D02*
X331967Y-990960D01*
X331967Y-990960D02*
X312920Y-1000484D01*
X312920Y-1000484D02*
X293872Y-1000484D01*
X293872Y-1000484D02*
X274824Y-990960D01*
X274824Y-990960D02*
X265301Y-981436D01*
X265301Y-981436D02*
X255777Y-962388D01*
X255777Y-962388D02*
X246253Y-924293D01*
X246253Y-924293D02*
X246253Y-876674D01*
X246253Y-876674D02*
X255777Y-838579D01*
X255777Y-838579D02*
X265301Y-819531D01*
X265301Y-819531D02*
X274824Y-810008D01*
X274824Y-810008D02*
X293872Y-800484D01*
X446253Y-981436D02*
X455777Y-990960D01*
X455777Y-990960D02*
X446253Y-1000484D01*
X446253Y-1000484D02*
X436729Y-990960D01*
X436729Y-990960D02*
X446253Y-981436D01*
X446253Y-981436D02*
X446253Y-1000484D01*
X522443Y-800484D02*
X646253Y-800484D01*
X646253Y-800484D02*
X579586Y-876674D01*
X579586Y-876674D02*
X608158Y-876674D01*
X608158Y-876674D02*
X627205Y-886198D01*
X627205Y-886198D02*
X636729Y-895722D01*
X636729Y-895722D02*
X646253Y-914769D01*
X646253Y-914769D02*
X646253Y-962388D01*
X646253Y-962388D02*
X636729Y-981436D01*
X636729Y-981436D02*
X627205Y-990960D01*
X627205Y-990960D02*
X608158Y-1000484D01*
X608158Y-1000484D02*
X551015Y-1000484D01*
X551015Y-1000484D02*
X531967Y-990960D01*
X531967Y-990960D02*
X522443Y-981436D01*
X770062Y-800484D02*
X789110Y-800484D01*
X789110Y-800484D02*
X808158Y-810008D01*
X808158Y-810008D02*
X817682Y-819531D01*
X817682Y-819531D02*
X827205Y-838579D01*
X827205Y-838579D02*
X836729Y-876674D01*
X836729Y-876674D02*
X836729Y-924293D01*
X836729Y-924293D02*
X827205Y-962388D01*
X827205Y-962388D02*
X817682Y-981436D01*
X817682Y-981436D02*
X808158Y-990960D01*
X808158Y-990960D02*
X789110Y-1000484D01*
X789110Y-1000484D02*
X770062Y-1000484D01*
X770062Y-1000484D02*
X751015Y-990960D01*
X751015Y-990960D02*
X741491Y-981436D01*
X741491Y-981436D02*
X731967Y-962388D01*
X731967Y-962388D02*
X722443Y-924293D01*
X722443Y-924293D02*
X722443Y-876674D01*
X722443Y-876674D02*
X731967Y-838579D01*
X731967Y-838579D02*
X741491Y-819531D01*
X741491Y-819531D02*
X751015Y-810008D01*
X751015Y-810008D02*
X770062Y-800484D01*
X960539Y-800484D02*
X979586Y-800484D01*
X979586Y-800484D02*
X998634Y-810008D01*
X998634Y-810008D02*
X1008158Y-819531D01*
X1008158Y-819531D02*
X1017682Y-838579D01*
X1017682Y-838579D02*
X1027205Y-876674D01*
X1027205Y-876674D02*
X1027205Y-924293D01*
X1027205Y-924293D02*
X1017682Y-962388D01*
X1017682Y-962388D02*
X1008158Y-981436D01*
X1008158Y-981436D02*
X998634Y-990960D01*
X998634Y-990960D02*
X979586Y-1000484D01*
X979586Y-1000484D02*
X960539Y-1000484D01*
X960539Y-1000484D02*
X941491Y-990960D01*
X941491Y-990960D02*
X931967Y-981436D01*
X931967Y-981436D02*
X922443Y-962388D01*
X922443Y-962388D02*
X912920Y-924293D01*
X912920Y-924293D02*
X912920Y-876674D01*
X912920Y-876674D02*
X922443Y-838579D01*
X922443Y-838579D02*
X931967Y-819531D01*
X931967Y-819531D02*
X941491Y-810008D01*
X941491Y-810008D02*
X960539Y-800484D01*
X1112920Y-1000484D02*
X1112920Y-867150D01*
X1112920Y-886198D02*
X1122444Y-876674D01*
X1122444Y-876674D02*
X1141491Y-867150D01*
X1141491Y-867150D02*
X1170063Y-867150D01*
X1170063Y-867150D02*
X1189110Y-876674D01*
X1189110Y-876674D02*
X1198634Y-895722D01*
X1198634Y-895722D02*
X1198634Y-1000484D01*
X1198634Y-895722D02*
X1208158Y-876674D01*
X1208158Y-876674D02*
X1227205Y-867150D01*
X1227205Y-867150D02*
X1255777Y-867150D01*
X1255777Y-867150D02*
X1274825Y-876674D01*
X1274825Y-876674D02*
X1284348Y-895722D01*
X1284348Y-895722D02*
X1284348Y-1000484D01*
X1379586Y-1000484D02*
X1379586Y-867150D01*
X1379586Y-886198D02*
X1389110Y-876674D01*
X1389110Y-876674D02*
X1408158Y-867150D01*
X1408158Y-867150D02*
X1436729Y-867150D01*
X1436729Y-867150D02*
X1455777Y-876674D01*
X1455777Y-876674D02*
X1465301Y-895722D01*
X1465301Y-895722D02*
X1465301Y-1000484D01*
X1465301Y-895722D02*
X1474824Y-876674D01*
X1474824Y-876674D02*
X1493872Y-867150D01*
X1493872Y-867150D02*
X1522443Y-867150D01*
X1522443Y-867150D02*
X1541491Y-876674D01*
X1541491Y-876674D02*
X1551015Y-895722D01*
X1551015Y-895722D02*
X1551015Y-1000484D01*
X1941491Y-790960D02*
X1770063Y-1048103D01*
X2198634Y-800484D02*
X2217682Y-800484D01*
X2217682Y-800484D02*
X2236729Y-810008D01*
X2236729Y-810008D02*
X2246253Y-819531D01*
X2246253Y-819531D02*
X2255777Y-838579D01*
X2255777Y-838579D02*
X2265301Y-876674D01*
X2265301Y-876674D02*
X2265301Y-924293D01*
X2265301Y-924293D02*
X2255777Y-962388D01*
X2255777Y-962388D02*
X2246253Y-981436D01*
X2246253Y-981436D02*
X2236729Y-990960D01*
X2236729Y-990960D02*
X2217682Y-1000484D01*
X2217682Y-1000484D02*
X2198634Y-1000484D01*
X2198634Y-1000484D02*
X2179587Y-990960D01*
X2179587Y-990960D02*
X2170063Y-981436D01*
X2170063Y-981436D02*
X2160539Y-962388D01*
X2160539Y-962388D02*
X2151015Y-924293D01*
X2151015Y-924293D02*
X2151015Y-876674D01*
X2151015Y-876674D02*
X2160539Y-838579D01*
X2160539Y-838579D02*
X2170063Y-819531D01*
X2170063Y-819531D02*
X2179587Y-810008D01*
X2179587Y-810008D02*
X2198634Y-800484D01*
X2351015Y-981436D02*
X2360539Y-990960D01*
X2360539Y-990960D02*
X2351015Y-1000484D01*
X2351015Y-1000484D02*
X2341491Y-990960D01*
X2341491Y-990960D02*
X2351015Y-981436D01*
X2351015Y-981436D02*
X2351015Y-1000484D01*
X2484348Y-800484D02*
X2503396Y-800484D01*
X2503396Y-800484D02*
X2522444Y-810008D01*
X2522444Y-810008D02*
X2531968Y-819531D01*
X2531968Y-819531D02*
X2541491Y-838579D01*
X2541491Y-838579D02*
X2551015Y-876674D01*
X2551015Y-876674D02*
X2551015Y-924293D01*
X2551015Y-924293D02*
X2541491Y-962388D01*
X2541491Y-962388D02*
X2531968Y-981436D01*
X2531968Y-981436D02*
X2522444Y-990960D01*
X2522444Y-990960D02*
X2503396Y-1000484D01*
X2503396Y-1000484D02*
X2484348Y-1000484D01*
X2484348Y-1000484D02*
X2465301Y-990960D01*
X2465301Y-990960D02*
X2455777Y-981436D01*
X2455777Y-981436D02*
X2446253Y-962388D01*
X2446253Y-962388D02*
X2436729Y-924293D01*
X2436729Y-924293D02*
X2436729Y-876674D01*
X2436729Y-876674D02*
X2446253Y-838579D01*
X2446253Y-838579D02*
X2455777Y-819531D01*
X2455777Y-819531D02*
X2465301Y-810008D01*
X2465301Y-810008D02*
X2484348Y-800484D01*
X2741491Y-1000484D02*
X2627206Y-1000484D01*
X2684348Y-1000484D02*
X2684348Y-800484D01*
X2684348Y-800484D02*
X2665301Y-829055D01*
X2665301Y-829055D02*
X2646253Y-848103D01*
X2646253Y-848103D02*
X2627206Y-857627D01*
X2931967Y-1000484D02*
X2817682Y-1000484D01*
X2874825Y-1000484D02*
X2874825Y-800484D01*
X2874825Y-800484D02*
X2855777Y-829055D01*
X2855777Y-829055D02*
X2836729Y-848103D01*
X2836729Y-848103D02*
X2817682Y-857627D01*
X3046253Y-886198D02*
X3027206Y-876674D01*
X3027206Y-876674D02*
X3017682Y-867150D01*
X3017682Y-867150D02*
X3008158Y-848103D01*
X3008158Y-848103D02*
X3008158Y-838579D01*
X3008158Y-838579D02*
X3017682Y-819531D01*
X3017682Y-819531D02*
X3027206Y-810008D01*
X3027206Y-810008D02*
X3046253Y-800484D01*
X3046253Y-800484D02*
X3084348Y-800484D01*
X3084348Y-800484D02*
X3103396Y-810008D01*
X3103396Y-810008D02*
X3112920Y-819531D01*
X3112920Y-819531D02*
X3122444Y-838579D01*
X3122444Y-838579D02*
X3122444Y-848103D01*
X3122444Y-848103D02*
X3112920Y-867150D01*
X3112920Y-867150D02*
X3103396Y-876674D01*
X3103396Y-876674D02*
X3084348Y-886198D01*
X3084348Y-886198D02*
X3046253Y-886198D01*
X3046253Y-886198D02*
X3027206Y-895722D01*
X3027206Y-895722D02*
X3017682Y-905246D01*
X3017682Y-905246D02*
X3008158Y-924293D01*
X3008158Y-924293D02*
X3008158Y-962388D01*
X3008158Y-962388D02*
X3017682Y-981436D01*
X3017682Y-981436D02*
X3027206Y-990960D01*
X3027206Y-990960D02*
X3046253Y-1000484D01*
X3046253Y-1000484D02*
X3084348Y-1000484D01*
X3084348Y-1000484D02*
X3103396Y-990960D01*
X3103396Y-990960D02*
X3112920Y-981436D01*
X3112920Y-981436D02*
X3122444Y-962388D01*
X3122444Y-962388D02*
X3122444Y-924293D01*
X3122444Y-924293D02*
X3112920Y-905246D01*
X3112920Y-905246D02*
X3103396Y-895722D01*
X3103396Y-895722D02*
X3084348Y-886198D01*
X3198634Y-800484D02*
X3198634Y-838579D01*
X3274825Y-800484D02*
X3274825Y-838579D01*
X3570063Y-1076674D02*
X3560539Y-1067150D01*
X3560539Y-1067150D02*
X3541491Y-1038579D01*
X3541491Y-1038579D02*
X3531968Y-1019531D01*
X3531968Y-1019531D02*
X3522444Y-990960D01*
X3522444Y-990960D02*
X3512920Y-943341D01*
X3512920Y-943341D02*
X3512920Y-905246D01*
X3512920Y-905246D02*
X3522444Y-857627D01*
X3522444Y-857627D02*
X3531968Y-829055D01*
X3531968Y-829055D02*
X3541491Y-810008D01*
X3541491Y-810008D02*
X3560539Y-781436D01*
X3560539Y-781436D02*
X3570063Y-771912D01*
X3627206Y-800484D02*
X3751015Y-800484D01*
X3751015Y-800484D02*
X3684348Y-876674D01*
X3684348Y-876674D02*
X3712920Y-876674D01*
X3712920Y-876674D02*
X3731968Y-886198D01*
X3731968Y-886198D02*
X3741491Y-895722D01*
X3741491Y-895722D02*
X3751015Y-914769D01*
X3751015Y-914769D02*
X3751015Y-962388D01*
X3751015Y-962388D02*
X3741491Y-981436D01*
X3741491Y-981436D02*
X3731968Y-990960D01*
X3731968Y-990960D02*
X3712920Y-1000484D01*
X3712920Y-1000484D02*
X3655777Y-1000484D01*
X3655777Y-1000484D02*
X3636729Y-990960D01*
X3636729Y-990960D02*
X3627206Y-981436D01*
X3827206Y-819531D02*
X3836729Y-810008D01*
X3836729Y-810008D02*
X3855777Y-800484D01*
X3855777Y-800484D02*
X3903396Y-800484D01*
X3903396Y-800484D02*
X3922444Y-810008D01*
X3922444Y-810008D02*
X3931968Y-819531D01*
X3931968Y-819531D02*
X3941491Y-838579D01*
X3941491Y-838579D02*
X3941491Y-857627D01*
X3941491Y-857627D02*
X3931968Y-886198D01*
X3931968Y-886198D02*
X3817682Y-1000484D01*
X3817682Y-1000484D02*
X3941491Y-1000484D01*
X4008158Y-800484D02*
X4131968Y-800484D01*
X4131968Y-800484D02*
X4065301Y-876674D01*
X4065301Y-876674D02*
X4093872Y-876674D01*
X4093872Y-876674D02*
X4112920Y-886198D01*
X4112920Y-886198D02*
X4122444Y-895722D01*
X4122444Y-895722D02*
X4131968Y-914769D01*
X4131968Y-914769D02*
X4131968Y-962388D01*
X4131968Y-962388D02*
X4122444Y-981436D01*
X4122444Y-981436D02*
X4112920Y-990960D01*
X4112920Y-990960D02*
X4093872Y-1000484D01*
X4093872Y-1000484D02*
X4036729Y-1000484D01*
X4036729Y-1000484D02*
X4017682Y-990960D01*
X4017682Y-990960D02*
X4008158Y-981436D01*
X4370063Y-1000484D02*
X4370063Y-800484D01*
X4455777Y-1000484D02*
X4455777Y-895722D01*
X4455777Y-895722D02*
X4446253Y-876674D01*
X4446253Y-876674D02*
X4427206Y-867150D01*
X4427206Y-867150D02*
X4398634Y-867150D01*
X4398634Y-867150D02*
X4379587Y-876674D01*
X4379587Y-876674D02*
X4370063Y-886198D01*
X4579587Y-1000484D02*
X4560539Y-990960D01*
X4560539Y-990960D02*
X4551015Y-981436D01*
X4551015Y-981436D02*
X4541492Y-962388D01*
X4541492Y-962388D02*
X4541492Y-905246D01*
X4541492Y-905246D02*
X4551015Y-886198D01*
X4551015Y-886198D02*
X4560539Y-876674D01*
X4560539Y-876674D02*
X4579587Y-867150D01*
X4579587Y-867150D02*
X4608158Y-867150D01*
X4608158Y-867150D02*
X4627206Y-876674D01*
X4627206Y-876674D02*
X4636730Y-886198D01*
X4636730Y-886198D02*
X4646253Y-905246D01*
X4646253Y-905246D02*
X4646253Y-962388D01*
X4646253Y-962388D02*
X4636730Y-981436D01*
X4636730Y-981436D02*
X4627206Y-990960D01*
X4627206Y-990960D02*
X4608158Y-1000484D01*
X4608158Y-1000484D02*
X4579587Y-1000484D01*
X4760539Y-1000484D02*
X4741492Y-990960D01*
X4741492Y-990960D02*
X4731968Y-971912D01*
X4731968Y-971912D02*
X4731968Y-800484D01*
X4912920Y-990960D02*
X4893873Y-1000484D01*
X4893873Y-1000484D02*
X4855777Y-1000484D01*
X4855777Y-1000484D02*
X4836730Y-990960D01*
X4836730Y-990960D02*
X4827206Y-971912D01*
X4827206Y-971912D02*
X4827206Y-895722D01*
X4827206Y-895722D02*
X4836730Y-876674D01*
X4836730Y-876674D02*
X4855777Y-867150D01*
X4855777Y-867150D02*
X4893873Y-867150D01*
X4893873Y-867150D02*
X4912920Y-876674D01*
X4912920Y-876674D02*
X4922444Y-895722D01*
X4922444Y-895722D02*
X4922444Y-914769D01*
X4922444Y-914769D02*
X4827206Y-933817D01*
X4998634Y-990960D02*
X5017682Y-1000484D01*
X5017682Y-1000484D02*
X5055777Y-1000484D01*
X5055777Y-1000484D02*
X5074825Y-990960D01*
X5074825Y-990960D02*
X5084349Y-971912D01*
X5084349Y-971912D02*
X5084349Y-962388D01*
X5084349Y-962388D02*
X5074825Y-943341D01*
X5074825Y-943341D02*
X5055777Y-933817D01*
X5055777Y-933817D02*
X5027206Y-933817D01*
X5027206Y-933817D02*
X5008158Y-924293D01*
X5008158Y-924293D02*
X4998634Y-905246D01*
X4998634Y-905246D02*
X4998634Y-895722D01*
X4998634Y-895722D02*
X5008158Y-876674D01*
X5008158Y-876674D02*
X5027206Y-867150D01*
X5027206Y-867150D02*
X5055777Y-867150D01*
X5055777Y-867150D02*
X5074825Y-876674D01*
X5151015Y-1076674D02*
X5160539Y-1067150D01*
X5160539Y-1067150D02*
X5179587Y-1038579D01*
X5179587Y-1038579D02*
X5189111Y-1019531D01*
X5189111Y-1019531D02*
X5198634Y-990960D01*
X5198634Y-990960D02*
X5208158Y-943341D01*
X5208158Y-943341D02*
X5208158Y-905246D01*
X5208158Y-905246D02*
X5198634Y-857627D01*
X5198634Y-857627D02*
X5189111Y-829055D01*
X5189111Y-829055D02*
X5179587Y-810008D01*
X5179587Y-810008D02*
X5160539Y-781436D01*
X5160539Y-781436D02*
X5151015Y-771912D01*
D10*
X-30000Y-1148000D02*
X-30000Y-1198000D01*
X-55000Y-1173000D02*
X-5000Y-1173000D01*
D11*
X293872Y-1064484D02*
X312920Y-1064484D01*
X312920Y-1064484D02*
X331967Y-1074008D01*
X331967Y-1074008D02*
X341491Y-1083531D01*
X341491Y-1083531D02*
X351015Y-1102579D01*
X351015Y-1102579D02*
X360539Y-1140674D01*
X360539Y-1140674D02*
X360539Y-1188293D01*
X360539Y-1188293D02*
X351015Y-1226389D01*
X351015Y-1226389D02*
X341491Y-1245436D01*
X341491Y-1245436D02*
X331967Y-1254960D01*
X331967Y-1254960D02*
X312920Y-1264484D01*
X312920Y-1264484D02*
X293872Y-1264484D01*
X293872Y-1264484D02*
X274824Y-1254960D01*
X274824Y-1254960D02*
X265301Y-1245436D01*
X265301Y-1245436D02*
X255777Y-1226389D01*
X255777Y-1226389D02*
X246253Y-1188293D01*
X246253Y-1188293D02*
X246253Y-1140674D01*
X246253Y-1140674D02*
X255777Y-1102579D01*
X255777Y-1102579D02*
X265301Y-1083531D01*
X265301Y-1083531D02*
X274824Y-1074008D01*
X274824Y-1074008D02*
X293872Y-1064484D01*
X446253Y-1245436D02*
X455777Y-1254960D01*
X455777Y-1254960D02*
X446253Y-1264484D01*
X446253Y-1264484D02*
X436729Y-1254960D01*
X436729Y-1254960D02*
X446253Y-1245436D01*
X446253Y-1245436D02*
X446253Y-1264484D01*
X636729Y-1064484D02*
X541491Y-1064484D01*
X541491Y-1064484D02*
X531967Y-1159722D01*
X531967Y-1159722D02*
X541491Y-1150198D01*
X541491Y-1150198D02*
X560539Y-1140674D01*
X560539Y-1140674D02*
X608158Y-1140674D01*
X608158Y-1140674D02*
X627205Y-1150198D01*
X627205Y-1150198D02*
X636729Y-1159722D01*
X636729Y-1159722D02*
X646253Y-1178770D01*
X646253Y-1178770D02*
X646253Y-1226389D01*
X646253Y-1226389D02*
X636729Y-1245436D01*
X636729Y-1245436D02*
X627205Y-1254960D01*
X627205Y-1254960D02*
X608158Y-1264484D01*
X608158Y-1264484D02*
X560539Y-1264484D01*
X560539Y-1264484D02*
X541491Y-1254960D01*
X541491Y-1254960D02*
X531967Y-1245436D01*
X770062Y-1064484D02*
X789110Y-1064484D01*
X789110Y-1064484D02*
X808158Y-1074008D01*
X808158Y-1074008D02*
X817682Y-1083531D01*
X817682Y-1083531D02*
X827205Y-1102579D01*
X827205Y-1102579D02*
X836729Y-1140674D01*
X836729Y-1140674D02*
X836729Y-1188293D01*
X836729Y-1188293D02*
X827205Y-1226389D01*
X827205Y-1226389D02*
X817682Y-1245436D01*
X817682Y-1245436D02*
X808158Y-1254960D01*
X808158Y-1254960D02*
X789110Y-1264484D01*
X789110Y-1264484D02*
X770062Y-1264484D01*
X770062Y-1264484D02*
X751015Y-1254960D01*
X751015Y-1254960D02*
X741491Y-1245436D01*
X741491Y-1245436D02*
X731967Y-1226389D01*
X731967Y-1226389D02*
X722443Y-1188293D01*
X722443Y-1188293D02*
X722443Y-1140674D01*
X722443Y-1140674D02*
X731967Y-1102579D01*
X731967Y-1102579D02*
X741491Y-1083531D01*
X741491Y-1083531D02*
X751015Y-1074008D01*
X751015Y-1074008D02*
X770062Y-1064484D01*
X960539Y-1064484D02*
X979586Y-1064484D01*
X979586Y-1064484D02*
X998634Y-1074008D01*
X998634Y-1074008D02*
X1008158Y-1083531D01*
X1008158Y-1083531D02*
X1017682Y-1102579D01*
X1017682Y-1102579D02*
X1027205Y-1140674D01*
X1027205Y-1140674D02*
X1027205Y-1188293D01*
X1027205Y-1188293D02*
X1017682Y-1226389D01*
X1017682Y-1226389D02*
X1008158Y-1245436D01*
X1008158Y-1245436D02*
X998634Y-1254960D01*
X998634Y-1254960D02*
X979586Y-1264484D01*
X979586Y-1264484D02*
X960539Y-1264484D01*
X960539Y-1264484D02*
X941491Y-1254960D01*
X941491Y-1254960D02*
X931967Y-1245436D01*
X931967Y-1245436D02*
X922443Y-1226389D01*
X922443Y-1226389D02*
X912920Y-1188293D01*
X912920Y-1188293D02*
X912920Y-1140674D01*
X912920Y-1140674D02*
X922443Y-1102579D01*
X922443Y-1102579D02*
X931967Y-1083531D01*
X931967Y-1083531D02*
X941491Y-1074008D01*
X941491Y-1074008D02*
X960539Y-1064484D01*
X1112920Y-1264484D02*
X1112920Y-1131150D01*
X1112920Y-1150198D02*
X1122444Y-1140674D01*
X1122444Y-1140674D02*
X1141491Y-1131150D01*
X1141491Y-1131150D02*
X1170063Y-1131150D01*
X1170063Y-1131150D02*
X1189110Y-1140674D01*
X1189110Y-1140674D02*
X1198634Y-1159722D01*
X1198634Y-1159722D02*
X1198634Y-1264484D01*
X1198634Y-1159722D02*
X1208158Y-1140674D01*
X1208158Y-1140674D02*
X1227205Y-1131150D01*
X1227205Y-1131150D02*
X1255777Y-1131150D01*
X1255777Y-1131150D02*
X1274825Y-1140674D01*
X1274825Y-1140674D02*
X1284348Y-1159722D01*
X1284348Y-1159722D02*
X1284348Y-1264484D01*
X1379586Y-1264484D02*
X1379586Y-1131150D01*
X1379586Y-1150198D02*
X1389110Y-1140674D01*
X1389110Y-1140674D02*
X1408158Y-1131150D01*
X1408158Y-1131150D02*
X1436729Y-1131150D01*
X1436729Y-1131150D02*
X1455777Y-1140674D01*
X1455777Y-1140674D02*
X1465301Y-1159722D01*
X1465301Y-1159722D02*
X1465301Y-1264484D01*
X1465301Y-1159722D02*
X1474824Y-1140674D01*
X1474824Y-1140674D02*
X1493872Y-1131150D01*
X1493872Y-1131150D02*
X1522443Y-1131150D01*
X1522443Y-1131150D02*
X1541491Y-1140674D01*
X1541491Y-1140674D02*
X1551015Y-1159722D01*
X1551015Y-1159722D02*
X1551015Y-1264484D01*
X1941491Y-1054960D02*
X1770063Y-1312103D01*
X2198634Y-1064484D02*
X2217682Y-1064484D01*
X2217682Y-1064484D02*
X2236729Y-1074008D01*
X2236729Y-1074008D02*
X2246253Y-1083531D01*
X2246253Y-1083531D02*
X2255777Y-1102579D01*
X2255777Y-1102579D02*
X2265301Y-1140674D01*
X2265301Y-1140674D02*
X2265301Y-1188293D01*
X2265301Y-1188293D02*
X2255777Y-1226389D01*
X2255777Y-1226389D02*
X2246253Y-1245436D01*
X2246253Y-1245436D02*
X2236729Y-1254960D01*
X2236729Y-1254960D02*
X2217682Y-1264484D01*
X2217682Y-1264484D02*
X2198634Y-1264484D01*
X2198634Y-1264484D02*
X2179587Y-1254960D01*
X2179587Y-1254960D02*
X2170063Y-1245436D01*
X2170063Y-1245436D02*
X2160539Y-1226389D01*
X2160539Y-1226389D02*
X2151015Y-1188293D01*
X2151015Y-1188293D02*
X2151015Y-1140674D01*
X2151015Y-1140674D02*
X2160539Y-1102579D01*
X2160539Y-1102579D02*
X2170063Y-1083531D01*
X2170063Y-1083531D02*
X2179587Y-1074008D01*
X2179587Y-1074008D02*
X2198634Y-1064484D01*
X2351015Y-1245436D02*
X2360539Y-1254960D01*
X2360539Y-1254960D02*
X2351015Y-1264484D01*
X2351015Y-1264484D02*
X2341491Y-1254960D01*
X2341491Y-1254960D02*
X2351015Y-1245436D01*
X2351015Y-1245436D02*
X2351015Y-1264484D01*
X2484348Y-1064484D02*
X2503396Y-1064484D01*
X2503396Y-1064484D02*
X2522444Y-1074008D01*
X2522444Y-1074008D02*
X2531968Y-1083531D01*
X2531968Y-1083531D02*
X2541491Y-1102579D01*
X2541491Y-1102579D02*
X2551015Y-1140674D01*
X2551015Y-1140674D02*
X2551015Y-1188293D01*
X2551015Y-1188293D02*
X2541491Y-1226389D01*
X2541491Y-1226389D02*
X2531968Y-1245436D01*
X2531968Y-1245436D02*
X2522444Y-1254960D01*
X2522444Y-1254960D02*
X2503396Y-1264484D01*
X2503396Y-1264484D02*
X2484348Y-1264484D01*
X2484348Y-1264484D02*
X2465301Y-1254960D01*
X2465301Y-1254960D02*
X2455777Y-1245436D01*
X2455777Y-1245436D02*
X2446253Y-1226389D01*
X2446253Y-1226389D02*
X2436729Y-1188293D01*
X2436729Y-1188293D02*
X2436729Y-1140674D01*
X2436729Y-1140674D02*
X2446253Y-1102579D01*
X2446253Y-1102579D02*
X2455777Y-1083531D01*
X2455777Y-1083531D02*
X2465301Y-1074008D01*
X2465301Y-1074008D02*
X2484348Y-1064484D01*
X2741491Y-1264484D02*
X2627206Y-1264484D01*
X2684348Y-1264484D02*
X2684348Y-1064484D01*
X2684348Y-1064484D02*
X2665301Y-1093055D01*
X2665301Y-1093055D02*
X2646253Y-1112103D01*
X2646253Y-1112103D02*
X2627206Y-1121627D01*
X2836729Y-1264484D02*
X2874825Y-1264484D01*
X2874825Y-1264484D02*
X2893872Y-1254960D01*
X2893872Y-1254960D02*
X2903396Y-1245436D01*
X2903396Y-1245436D02*
X2922444Y-1216865D01*
X2922444Y-1216865D02*
X2931967Y-1178770D01*
X2931967Y-1178770D02*
X2931967Y-1102579D01*
X2931967Y-1102579D02*
X2922444Y-1083531D01*
X2922444Y-1083531D02*
X2912920Y-1074008D01*
X2912920Y-1074008D02*
X2893872Y-1064484D01*
X2893872Y-1064484D02*
X2855777Y-1064484D01*
X2855777Y-1064484D02*
X2836729Y-1074008D01*
X2836729Y-1074008D02*
X2827206Y-1083531D01*
X2827206Y-1083531D02*
X2817682Y-1102579D01*
X2817682Y-1102579D02*
X2817682Y-1150198D01*
X2817682Y-1150198D02*
X2827206Y-1169246D01*
X2827206Y-1169246D02*
X2836729Y-1178770D01*
X2836729Y-1178770D02*
X2855777Y-1188293D01*
X2855777Y-1188293D02*
X2893872Y-1188293D01*
X2893872Y-1188293D02*
X2912920Y-1178770D01*
X2912920Y-1178770D02*
X2922444Y-1169246D01*
X2922444Y-1169246D02*
X2931967Y-1150198D01*
X2998634Y-1064484D02*
X3131967Y-1064484D01*
X3131967Y-1064484D02*
X3046253Y-1264484D01*
X3198634Y-1064484D02*
X3198634Y-1102579D01*
X3274825Y-1064484D02*
X3274825Y-1102579D01*
X3570063Y-1340674D02*
X3560539Y-1331150D01*
X3560539Y-1331150D02*
X3541491Y-1302579D01*
X3541491Y-1302579D02*
X3531968Y-1283531D01*
X3531968Y-1283531D02*
X3522444Y-1254960D01*
X3522444Y-1254960D02*
X3512920Y-1207341D01*
X3512920Y-1207341D02*
X3512920Y-1169246D01*
X3512920Y-1169246D02*
X3522444Y-1121627D01*
X3522444Y-1121627D02*
X3531968Y-1093055D01*
X3531968Y-1093055D02*
X3541491Y-1074008D01*
X3541491Y-1074008D02*
X3560539Y-1045436D01*
X3560539Y-1045436D02*
X3570063Y-1035912D01*
X3741491Y-1064484D02*
X3646253Y-1064484D01*
X3646253Y-1064484D02*
X3636729Y-1159722D01*
X3636729Y-1159722D02*
X3646253Y-1150198D01*
X3646253Y-1150198D02*
X3665301Y-1140674D01*
X3665301Y-1140674D02*
X3712920Y-1140674D01*
X3712920Y-1140674D02*
X3731968Y-1150198D01*
X3731968Y-1150198D02*
X3741491Y-1159722D01*
X3741491Y-1159722D02*
X3751015Y-1178770D01*
X3751015Y-1178770D02*
X3751015Y-1226389D01*
X3751015Y-1226389D02*
X3741491Y-1245436D01*
X3741491Y-1245436D02*
X3731968Y-1254960D01*
X3731968Y-1254960D02*
X3712920Y-1264484D01*
X3712920Y-1264484D02*
X3665301Y-1264484D01*
X3665301Y-1264484D02*
X3646253Y-1254960D01*
X3646253Y-1254960D02*
X3636729Y-1245436D01*
X3989110Y-1264484D02*
X3989110Y-1064484D01*
X4074825Y-1264484D02*
X4074825Y-1159722D01*
X4074825Y-1159722D02*
X4065301Y-1140674D01*
X4065301Y-1140674D02*
X4046253Y-1131150D01*
X4046253Y-1131150D02*
X4017682Y-1131150D01*
X4017682Y-1131150D02*
X3998634Y-1140674D01*
X3998634Y-1140674D02*
X3989110Y-1150198D01*
X4198634Y-1264484D02*
X4179587Y-1254960D01*
X4179587Y-1254960D02*
X4170063Y-1245436D01*
X4170063Y-1245436D02*
X4160539Y-1226389D01*
X4160539Y-1226389D02*
X4160539Y-1169246D01*
X4160539Y-1169246D02*
X4170063Y-1150198D01*
X4170063Y-1150198D02*
X4179587Y-1140674D01*
X4179587Y-1140674D02*
X4198634Y-1131150D01*
X4198634Y-1131150D02*
X4227206Y-1131150D01*
X4227206Y-1131150D02*
X4246253Y-1140674D01*
X4246253Y-1140674D02*
X4255777Y-1150198D01*
X4255777Y-1150198D02*
X4265301Y-1169246D01*
X4265301Y-1169246D02*
X4265301Y-1226389D01*
X4265301Y-1226389D02*
X4255777Y-1245436D01*
X4255777Y-1245436D02*
X4246253Y-1254960D01*
X4246253Y-1254960D02*
X4227206Y-1264484D01*
X4227206Y-1264484D02*
X4198634Y-1264484D01*
X4379587Y-1264484D02*
X4360539Y-1254960D01*
X4360539Y-1254960D02*
X4351015Y-1235912D01*
X4351015Y-1235912D02*
X4351015Y-1064484D01*
X4531968Y-1254960D02*
X4512920Y-1264484D01*
X4512920Y-1264484D02*
X4474825Y-1264484D01*
X4474825Y-1264484D02*
X4455777Y-1254960D01*
X4455777Y-1254960D02*
X4446253Y-1235912D01*
X4446253Y-1235912D02*
X4446253Y-1159722D01*
X4446253Y-1159722D02*
X4455777Y-1140674D01*
X4455777Y-1140674D02*
X4474825Y-1131150D01*
X4474825Y-1131150D02*
X4512920Y-1131150D01*
X4512920Y-1131150D02*
X4531968Y-1140674D01*
X4531968Y-1140674D02*
X4541492Y-1159722D01*
X4541492Y-1159722D02*
X4541492Y-1178770D01*
X4541492Y-1178770D02*
X4446253Y-1197817D01*
X4617682Y-1254960D02*
X4636730Y-1264484D01*
X4636730Y-1264484D02*
X4674825Y-1264484D01*
X4674825Y-1264484D02*
X4693873Y-1254960D01*
X4693873Y-1254960D02*
X4703396Y-1235912D01*
X4703396Y-1235912D02*
X4703396Y-1226389D01*
X4703396Y-1226389D02*
X4693873Y-1207341D01*
X4693873Y-1207341D02*
X4674825Y-1197817D01*
X4674825Y-1197817D02*
X4646253Y-1197817D01*
X4646253Y-1197817D02*
X4627206Y-1188293D01*
X4627206Y-1188293D02*
X4617682Y-1169246D01*
X4617682Y-1169246D02*
X4617682Y-1159722D01*
X4617682Y-1159722D02*
X4627206Y-1140674D01*
X4627206Y-1140674D02*
X4646253Y-1131150D01*
X4646253Y-1131150D02*
X4674825Y-1131150D01*
X4674825Y-1131150D02*
X4693873Y-1140674D01*
X4770063Y-1340674D02*
X4779587Y-1331150D01*
X4779587Y-1331150D02*
X4798634Y-1302579D01*
X4798634Y-1302579D02*
X4808158Y-1283531D01*
X4808158Y-1283531D02*
X4817682Y-1254960D01*
X4817682Y-1254960D02*
X4827206Y-1207341D01*
X4827206Y-1207341D02*
X4827206Y-1169246D01*
X4827206Y-1169246D02*
X4817682Y-1121627D01*
X4817682Y-1121627D02*
X4808158Y-1093055D01*
X4808158Y-1093055D02*
X4798634Y-1074008D01*
X4798634Y-1074008D02*
X4779587Y-1045436D01*
X4779587Y-1045436D02*
X4770063Y-1035912D01*
D10*
X-13787Y-1458213D02*
X-13787Y-1415787D01*
X-56213Y-1415787D01*
X-56213Y-1458213D01*
X-13787Y-1458213D01*
D11*
X293872Y-1328484D02*
X312920Y-1328484D01*
X312920Y-1328484D02*
X331967Y-1338008D01*
X331967Y-1338008D02*
X341491Y-1347531D01*
X341491Y-1347531D02*
X351015Y-1366579D01*
X351015Y-1366579D02*
X360539Y-1404674D01*
X360539Y-1404674D02*
X360539Y-1452293D01*
X360539Y-1452293D02*
X351015Y-1490388D01*
X351015Y-1490388D02*
X341491Y-1509436D01*
X341491Y-1509436D02*
X331967Y-1518960D01*
X331967Y-1518960D02*
X312920Y-1528484D01*
X312920Y-1528484D02*
X293872Y-1528484D01*
X293872Y-1528484D02*
X274824Y-1518960D01*
X274824Y-1518960D02*
X265301Y-1509436D01*
X265301Y-1509436D02*
X255777Y-1490388D01*
X255777Y-1490388D02*
X246253Y-1452293D01*
X246253Y-1452293D02*
X246253Y-1404674D01*
X246253Y-1404674D02*
X255777Y-1366579D01*
X255777Y-1366579D02*
X265301Y-1347531D01*
X265301Y-1347531D02*
X274824Y-1338008D01*
X274824Y-1338008D02*
X293872Y-1328484D01*
X446253Y-1509436D02*
X455777Y-1518960D01*
X455777Y-1518960D02*
X446253Y-1528484D01*
X446253Y-1528484D02*
X436729Y-1518960D01*
X436729Y-1518960D02*
X446253Y-1509436D01*
X446253Y-1509436D02*
X446253Y-1528484D01*
X627205Y-1328484D02*
X589110Y-1328484D01*
X589110Y-1328484D02*
X570063Y-1338008D01*
X570063Y-1338008D02*
X560539Y-1347531D01*
X560539Y-1347531D02*
X541491Y-1376103D01*
X541491Y-1376103D02*
X531967Y-1414198D01*
X531967Y-1414198D02*
X531967Y-1490388D01*
X531967Y-1490388D02*
X541491Y-1509436D01*
X541491Y-1509436D02*
X551015Y-1518960D01*
X551015Y-1518960D02*
X570063Y-1528484D01*
X570063Y-1528484D02*
X608158Y-1528484D01*
X608158Y-1528484D02*
X627205Y-1518960D01*
X627205Y-1518960D02*
X636729Y-1509436D01*
X636729Y-1509436D02*
X646253Y-1490388D01*
X646253Y-1490388D02*
X646253Y-1442769D01*
X646253Y-1442769D02*
X636729Y-1423722D01*
X636729Y-1423722D02*
X627205Y-1414198D01*
X627205Y-1414198D02*
X608158Y-1404674D01*
X608158Y-1404674D02*
X570063Y-1404674D01*
X570063Y-1404674D02*
X551015Y-1414198D01*
X551015Y-1414198D02*
X541491Y-1423722D01*
X541491Y-1423722D02*
X531967Y-1442769D01*
X770062Y-1328484D02*
X789110Y-1328484D01*
X789110Y-1328484D02*
X808158Y-1338008D01*
X808158Y-1338008D02*
X817682Y-1347531D01*
X817682Y-1347531D02*
X827205Y-1366579D01*
X827205Y-1366579D02*
X836729Y-1404674D01*
X836729Y-1404674D02*
X836729Y-1452293D01*
X836729Y-1452293D02*
X827205Y-1490388D01*
X827205Y-1490388D02*
X817682Y-1509436D01*
X817682Y-1509436D02*
X808158Y-1518960D01*
X808158Y-1518960D02*
X789110Y-1528484D01*
X789110Y-1528484D02*
X770062Y-1528484D01*
X770062Y-1528484D02*
X751015Y-1518960D01*
X751015Y-1518960D02*
X741491Y-1509436D01*
X741491Y-1509436D02*
X731967Y-1490388D01*
X731967Y-1490388D02*
X722443Y-1452293D01*
X722443Y-1452293D02*
X722443Y-1404674D01*
X722443Y-1404674D02*
X731967Y-1366579D01*
X731967Y-1366579D02*
X741491Y-1347531D01*
X741491Y-1347531D02*
X751015Y-1338008D01*
X751015Y-1338008D02*
X770062Y-1328484D01*
X960539Y-1328484D02*
X979586Y-1328484D01*
X979586Y-1328484D02*
X998634Y-1338008D01*
X998634Y-1338008D02*
X1008158Y-1347531D01*
X1008158Y-1347531D02*
X1017682Y-1366579D01*
X1017682Y-1366579D02*
X1027205Y-1404674D01*
X1027205Y-1404674D02*
X1027205Y-1452293D01*
X1027205Y-1452293D02*
X1017682Y-1490388D01*
X1017682Y-1490388D02*
X1008158Y-1509436D01*
X1008158Y-1509436D02*
X998634Y-1518960D01*
X998634Y-1518960D02*
X979586Y-1528484D01*
X979586Y-1528484D02*
X960539Y-1528484D01*
X960539Y-1528484D02*
X941491Y-1518960D01*
X941491Y-1518960D02*
X931967Y-1509436D01*
X931967Y-1509436D02*
X922443Y-1490388D01*
X922443Y-1490388D02*
X912920Y-1452293D01*
X912920Y-1452293D02*
X912920Y-1404674D01*
X912920Y-1404674D02*
X922443Y-1366579D01*
X922443Y-1366579D02*
X931967Y-1347531D01*
X931967Y-1347531D02*
X941491Y-1338008D01*
X941491Y-1338008D02*
X960539Y-1328484D01*
X1112920Y-1528484D02*
X1112920Y-1395150D01*
X1112920Y-1414198D02*
X1122444Y-1404674D01*
X1122444Y-1404674D02*
X1141491Y-1395150D01*
X1141491Y-1395150D02*
X1170063Y-1395150D01*
X1170063Y-1395150D02*
X1189110Y-1404674D01*
X1189110Y-1404674D02*
X1198634Y-1423722D01*
X1198634Y-1423722D02*
X1198634Y-1528484D01*
X1198634Y-1423722D02*
X1208158Y-1404674D01*
X1208158Y-1404674D02*
X1227205Y-1395150D01*
X1227205Y-1395150D02*
X1255777Y-1395150D01*
X1255777Y-1395150D02*
X1274825Y-1404674D01*
X1274825Y-1404674D02*
X1284348Y-1423722D01*
X1284348Y-1423722D02*
X1284348Y-1528484D01*
X1379586Y-1528484D02*
X1379586Y-1395150D01*
X1379586Y-1414198D02*
X1389110Y-1404674D01*
X1389110Y-1404674D02*
X1408158Y-1395150D01*
X1408158Y-1395150D02*
X1436729Y-1395150D01*
X1436729Y-1395150D02*
X1455777Y-1404674D01*
X1455777Y-1404674D02*
X1465301Y-1423722D01*
X1465301Y-1423722D02*
X1465301Y-1528484D01*
X1465301Y-1423722D02*
X1474824Y-1404674D01*
X1474824Y-1404674D02*
X1493872Y-1395150D01*
X1493872Y-1395150D02*
X1522443Y-1395150D01*
X1522443Y-1395150D02*
X1541491Y-1404674D01*
X1541491Y-1404674D02*
X1551015Y-1423722D01*
X1551015Y-1423722D02*
X1551015Y-1528484D01*
X1941491Y-1318960D02*
X1770063Y-1576103D01*
X2198634Y-1328484D02*
X2217682Y-1328484D01*
X2217682Y-1328484D02*
X2236729Y-1338008D01*
X2236729Y-1338008D02*
X2246253Y-1347531D01*
X2246253Y-1347531D02*
X2255777Y-1366579D01*
X2255777Y-1366579D02*
X2265301Y-1404674D01*
X2265301Y-1404674D02*
X2265301Y-1452293D01*
X2265301Y-1452293D02*
X2255777Y-1490388D01*
X2255777Y-1490388D02*
X2246253Y-1509436D01*
X2246253Y-1509436D02*
X2236729Y-1518960D01*
X2236729Y-1518960D02*
X2217682Y-1528484D01*
X2217682Y-1528484D02*
X2198634Y-1528484D01*
X2198634Y-1528484D02*
X2179587Y-1518960D01*
X2179587Y-1518960D02*
X2170063Y-1509436D01*
X2170063Y-1509436D02*
X2160539Y-1490388D01*
X2160539Y-1490388D02*
X2151015Y-1452293D01*
X2151015Y-1452293D02*
X2151015Y-1404674D01*
X2151015Y-1404674D02*
X2160539Y-1366579D01*
X2160539Y-1366579D02*
X2170063Y-1347531D01*
X2170063Y-1347531D02*
X2179587Y-1338008D01*
X2179587Y-1338008D02*
X2198634Y-1328484D01*
X2351015Y-1509436D02*
X2360539Y-1518960D01*
X2360539Y-1518960D02*
X2351015Y-1528484D01*
X2351015Y-1528484D02*
X2341491Y-1518960D01*
X2341491Y-1518960D02*
X2351015Y-1509436D01*
X2351015Y-1509436D02*
X2351015Y-1528484D01*
X2484348Y-1328484D02*
X2503396Y-1328484D01*
X2503396Y-1328484D02*
X2522444Y-1338008D01*
X2522444Y-1338008D02*
X2531968Y-1347531D01*
X2531968Y-1347531D02*
X2541491Y-1366579D01*
X2541491Y-1366579D02*
X2551015Y-1404674D01*
X2551015Y-1404674D02*
X2551015Y-1452293D01*
X2551015Y-1452293D02*
X2541491Y-1490388D01*
X2541491Y-1490388D02*
X2531968Y-1509436D01*
X2531968Y-1509436D02*
X2522444Y-1518960D01*
X2522444Y-1518960D02*
X2503396Y-1528484D01*
X2503396Y-1528484D02*
X2484348Y-1528484D01*
X2484348Y-1528484D02*
X2465301Y-1518960D01*
X2465301Y-1518960D02*
X2455777Y-1509436D01*
X2455777Y-1509436D02*
X2446253Y-1490388D01*
X2446253Y-1490388D02*
X2436729Y-1452293D01*
X2436729Y-1452293D02*
X2436729Y-1404674D01*
X2436729Y-1404674D02*
X2446253Y-1366579D01*
X2446253Y-1366579D02*
X2455777Y-1347531D01*
X2455777Y-1347531D02*
X2465301Y-1338008D01*
X2465301Y-1338008D02*
X2484348Y-1328484D01*
X2627206Y-1347531D02*
X2636729Y-1338008D01*
X2636729Y-1338008D02*
X2655777Y-1328484D01*
X2655777Y-1328484D02*
X2703396Y-1328484D01*
X2703396Y-1328484D02*
X2722444Y-1338008D01*
X2722444Y-1338008D02*
X2731968Y-1347531D01*
X2731968Y-1347531D02*
X2741491Y-1366579D01*
X2741491Y-1366579D02*
X2741491Y-1385627D01*
X2741491Y-1385627D02*
X2731968Y-1414198D01*
X2731968Y-1414198D02*
X2617682Y-1528484D01*
X2617682Y-1528484D02*
X2741491Y-1528484D01*
X2808158Y-1328484D02*
X2931967Y-1328484D01*
X2931967Y-1328484D02*
X2865301Y-1404674D01*
X2865301Y-1404674D02*
X2893872Y-1404674D01*
X2893872Y-1404674D02*
X2912920Y-1414198D01*
X2912920Y-1414198D02*
X2922444Y-1423722D01*
X2922444Y-1423722D02*
X2931967Y-1442769D01*
X2931967Y-1442769D02*
X2931967Y-1490388D01*
X2931967Y-1490388D02*
X2922444Y-1509436D01*
X2922444Y-1509436D02*
X2912920Y-1518960D01*
X2912920Y-1518960D02*
X2893872Y-1528484D01*
X2893872Y-1528484D02*
X2836729Y-1528484D01*
X2836729Y-1528484D02*
X2817682Y-1518960D01*
X2817682Y-1518960D02*
X2808158Y-1509436D01*
X3103396Y-1328484D02*
X3065301Y-1328484D01*
X3065301Y-1328484D02*
X3046253Y-1338008D01*
X3046253Y-1338008D02*
X3036729Y-1347531D01*
X3036729Y-1347531D02*
X3017682Y-1376103D01*
X3017682Y-1376103D02*
X3008158Y-1414198D01*
X3008158Y-1414198D02*
X3008158Y-1490388D01*
X3008158Y-1490388D02*
X3017682Y-1509436D01*
X3017682Y-1509436D02*
X3027206Y-1518960D01*
X3027206Y-1518960D02*
X3046253Y-1528484D01*
X3046253Y-1528484D02*
X3084348Y-1528484D01*
X3084348Y-1528484D02*
X3103396Y-1518960D01*
X3103396Y-1518960D02*
X3112920Y-1509436D01*
X3112920Y-1509436D02*
X3122444Y-1490388D01*
X3122444Y-1490388D02*
X3122444Y-1442769D01*
X3122444Y-1442769D02*
X3112920Y-1423722D01*
X3112920Y-1423722D02*
X3103396Y-1414198D01*
X3103396Y-1414198D02*
X3084348Y-1404674D01*
X3084348Y-1404674D02*
X3046253Y-1404674D01*
X3046253Y-1404674D02*
X3027206Y-1414198D01*
X3027206Y-1414198D02*
X3017682Y-1423722D01*
X3017682Y-1423722D02*
X3008158Y-1442769D01*
X3198634Y-1328484D02*
X3198634Y-1366579D01*
X3274825Y-1328484D02*
X3274825Y-1366579D01*
X3570063Y-1604674D02*
X3560539Y-1595150D01*
X3560539Y-1595150D02*
X3541491Y-1566579D01*
X3541491Y-1566579D02*
X3531968Y-1547531D01*
X3531968Y-1547531D02*
X3522444Y-1518960D01*
X3522444Y-1518960D02*
X3512920Y-1471341D01*
X3512920Y-1471341D02*
X3512920Y-1433246D01*
X3512920Y-1433246D02*
X3522444Y-1385627D01*
X3522444Y-1385627D02*
X3531968Y-1357055D01*
X3531968Y-1357055D02*
X3541491Y-1338008D01*
X3541491Y-1338008D02*
X3560539Y-1309436D01*
X3560539Y-1309436D02*
X3570063Y-1299912D01*
X3636729Y-1347531D02*
X3646253Y-1338008D01*
X3646253Y-1338008D02*
X3665301Y-1328484D01*
X3665301Y-1328484D02*
X3712920Y-1328484D01*
X3712920Y-1328484D02*
X3731968Y-1338008D01*
X3731968Y-1338008D02*
X3741491Y-1347531D01*
X3741491Y-1347531D02*
X3751015Y-1366579D01*
X3751015Y-1366579D02*
X3751015Y-1385627D01*
X3751015Y-1385627D02*
X3741491Y-1414198D01*
X3741491Y-1414198D02*
X3627206Y-1528484D01*
X3627206Y-1528484D02*
X3751015Y-1528484D01*
X3989110Y-1528484D02*
X3989110Y-1328484D01*
X4074825Y-1528484D02*
X4074825Y-1423722D01*
X4074825Y-1423722D02*
X4065301Y-1404674D01*
X4065301Y-1404674D02*
X4046253Y-1395150D01*
X4046253Y-1395150D02*
X4017682Y-1395150D01*
X4017682Y-1395150D02*
X3998634Y-1404674D01*
X3998634Y-1404674D02*
X3989110Y-1414198D01*
X4198634Y-1528484D02*
X4179587Y-1518960D01*
X4179587Y-1518960D02*
X4170063Y-1509436D01*
X4170063Y-1509436D02*
X4160539Y-1490388D01*
X4160539Y-1490388D02*
X4160539Y-1433246D01*
X4160539Y-1433246D02*
X4170063Y-1414198D01*
X4170063Y-1414198D02*
X4179587Y-1404674D01*
X4179587Y-1404674D02*
X4198634Y-1395150D01*
X4198634Y-1395150D02*
X4227206Y-1395150D01*
X4227206Y-1395150D02*
X4246253Y-1404674D01*
X4246253Y-1404674D02*
X4255777Y-1414198D01*
X4255777Y-1414198D02*
X4265301Y-1433246D01*
X4265301Y-1433246D02*
X4265301Y-1490388D01*
X4265301Y-1490388D02*
X4255777Y-1509436D01*
X4255777Y-1509436D02*
X4246253Y-1518960D01*
X4246253Y-1518960D02*
X4227206Y-1528484D01*
X4227206Y-1528484D02*
X4198634Y-1528484D01*
X4379587Y-1528484D02*
X4360539Y-1518960D01*
X4360539Y-1518960D02*
X4351015Y-1499912D01*
X4351015Y-1499912D02*
X4351015Y-1328484D01*
X4531968Y-1518960D02*
X4512920Y-1528484D01*
X4512920Y-1528484D02*
X4474825Y-1528484D01*
X4474825Y-1528484D02*
X4455777Y-1518960D01*
X4455777Y-1518960D02*
X4446253Y-1499912D01*
X4446253Y-1499912D02*
X4446253Y-1423722D01*
X4446253Y-1423722D02*
X4455777Y-1404674D01*
X4455777Y-1404674D02*
X4474825Y-1395150D01*
X4474825Y-1395150D02*
X4512920Y-1395150D01*
X4512920Y-1395150D02*
X4531968Y-1404674D01*
X4531968Y-1404674D02*
X4541492Y-1423722D01*
X4541492Y-1423722D02*
X4541492Y-1442769D01*
X4541492Y-1442769D02*
X4446253Y-1461817D01*
X4617682Y-1518960D02*
X4636730Y-1528484D01*
X4636730Y-1528484D02*
X4674825Y-1528484D01*
X4674825Y-1528484D02*
X4693873Y-1518960D01*
X4693873Y-1518960D02*
X4703396Y-1499912D01*
X4703396Y-1499912D02*
X4703396Y-1490388D01*
X4703396Y-1490388D02*
X4693873Y-1471341D01*
X4693873Y-1471341D02*
X4674825Y-1461817D01*
X4674825Y-1461817D02*
X4646253Y-1461817D01*
X4646253Y-1461817D02*
X4627206Y-1452293D01*
X4627206Y-1452293D02*
X4617682Y-1433246D01*
X4617682Y-1433246D02*
X4617682Y-1423722D01*
X4617682Y-1423722D02*
X4627206Y-1404674D01*
X4627206Y-1404674D02*
X4646253Y-1395150D01*
X4646253Y-1395150D02*
X4674825Y-1395150D01*
X4674825Y-1395150D02*
X4693873Y-1404674D01*
X4770063Y-1604674D02*
X4779587Y-1595150D01*
X4779587Y-1595150D02*
X4798634Y-1566579D01*
X4798634Y-1566579D02*
X4808158Y-1547531D01*
X4808158Y-1547531D02*
X4817682Y-1518960D01*
X4817682Y-1518960D02*
X4827206Y-1471341D01*
X4827206Y-1471341D02*
X4827206Y-1433246D01*
X4827206Y-1433246D02*
X4817682Y-1385627D01*
X4817682Y-1385627D02*
X4808158Y-1357055D01*
X4808158Y-1357055D02*
X4798634Y-1338008D01*
X4798634Y-1338008D02*
X4779587Y-1309436D01*
X4779587Y-1309436D02*
X4770063Y-1299912D01*
D10*
X-35000Y-1731000D02*
X-5000Y-1701000D01*
X-35000Y-1671000D01*
X-65000Y-1701000D01*
X-35000Y-1731000D01*
D11*
X293872Y-1592484D02*
X312920Y-1592484D01*
X312920Y-1592484D02*
X331967Y-1602008D01*
X331967Y-1602008D02*
X341491Y-1611531D01*
X341491Y-1611531D02*
X351015Y-1630579D01*
X351015Y-1630579D02*
X360539Y-1668674D01*
X360539Y-1668674D02*
X360539Y-1716293D01*
X360539Y-1716293D02*
X351015Y-1754388D01*
X351015Y-1754388D02*
X341491Y-1773436D01*
X341491Y-1773436D02*
X331967Y-1782960D01*
X331967Y-1782960D02*
X312920Y-1792484D01*
X312920Y-1792484D02*
X293872Y-1792484D01*
X293872Y-1792484D02*
X274824Y-1782960D01*
X274824Y-1782960D02*
X265301Y-1773436D01*
X265301Y-1773436D02*
X255777Y-1754388D01*
X255777Y-1754388D02*
X246253Y-1716293D01*
X246253Y-1716293D02*
X246253Y-1668674D01*
X246253Y-1668674D02*
X255777Y-1630579D01*
X255777Y-1630579D02*
X265301Y-1611531D01*
X265301Y-1611531D02*
X274824Y-1602008D01*
X274824Y-1602008D02*
X293872Y-1592484D01*
X446253Y-1773436D02*
X455777Y-1782960D01*
X455777Y-1782960D02*
X446253Y-1792484D01*
X446253Y-1792484D02*
X436729Y-1782960D01*
X436729Y-1782960D02*
X446253Y-1773436D01*
X446253Y-1773436D02*
X446253Y-1792484D01*
X627205Y-1592484D02*
X589110Y-1592484D01*
X589110Y-1592484D02*
X570063Y-1602008D01*
X570063Y-1602008D02*
X560539Y-1611531D01*
X560539Y-1611531D02*
X541491Y-1640103D01*
X541491Y-1640103D02*
X531967Y-1678198D01*
X531967Y-1678198D02*
X531967Y-1754388D01*
X531967Y-1754388D02*
X541491Y-1773436D01*
X541491Y-1773436D02*
X551015Y-1782960D01*
X551015Y-1782960D02*
X570063Y-1792484D01*
X570063Y-1792484D02*
X608158Y-1792484D01*
X608158Y-1792484D02*
X627205Y-1782960D01*
X627205Y-1782960D02*
X636729Y-1773436D01*
X636729Y-1773436D02*
X646253Y-1754388D01*
X646253Y-1754388D02*
X646253Y-1706769D01*
X646253Y-1706769D02*
X636729Y-1687722D01*
X636729Y-1687722D02*
X627205Y-1678198D01*
X627205Y-1678198D02*
X608158Y-1668674D01*
X608158Y-1668674D02*
X570063Y-1668674D01*
X570063Y-1668674D02*
X551015Y-1678198D01*
X551015Y-1678198D02*
X541491Y-1687722D01*
X541491Y-1687722D02*
X531967Y-1706769D01*
X770062Y-1592484D02*
X789110Y-1592484D01*
X789110Y-1592484D02*
X808158Y-1602008D01*
X808158Y-1602008D02*
X817682Y-1611531D01*
X817682Y-1611531D02*
X827205Y-1630579D01*
X827205Y-1630579D02*
X836729Y-1668674D01*
X836729Y-1668674D02*
X836729Y-1716293D01*
X836729Y-1716293D02*
X827205Y-1754388D01*
X827205Y-1754388D02*
X817682Y-1773436D01*
X817682Y-1773436D02*
X808158Y-1782960D01*
X808158Y-1782960D02*
X789110Y-1792484D01*
X789110Y-1792484D02*
X770062Y-1792484D01*
X770062Y-1792484D02*
X751015Y-1782960D01*
X751015Y-1782960D02*
X741491Y-1773436D01*
X741491Y-1773436D02*
X731967Y-1754388D01*
X731967Y-1754388D02*
X722443Y-1716293D01*
X722443Y-1716293D02*
X722443Y-1668674D01*
X722443Y-1668674D02*
X731967Y-1630579D01*
X731967Y-1630579D02*
X741491Y-1611531D01*
X741491Y-1611531D02*
X751015Y-1602008D01*
X751015Y-1602008D02*
X770062Y-1592484D01*
X960539Y-1592484D02*
X979586Y-1592484D01*
X979586Y-1592484D02*
X998634Y-1602008D01*
X998634Y-1602008D02*
X1008158Y-1611531D01*
X1008158Y-1611531D02*
X1017682Y-1630579D01*
X1017682Y-1630579D02*
X1027205Y-1668674D01*
X1027205Y-1668674D02*
X1027205Y-1716293D01*
X1027205Y-1716293D02*
X1017682Y-1754388D01*
X1017682Y-1754388D02*
X1008158Y-1773436D01*
X1008158Y-1773436D02*
X998634Y-1782960D01*
X998634Y-1782960D02*
X979586Y-1792484D01*
X979586Y-1792484D02*
X960539Y-1792484D01*
X960539Y-1792484D02*
X941491Y-1782960D01*
X941491Y-1782960D02*
X931967Y-1773436D01*
X931967Y-1773436D02*
X922443Y-1754388D01*
X922443Y-1754388D02*
X912920Y-1716293D01*
X912920Y-1716293D02*
X912920Y-1668674D01*
X912920Y-1668674D02*
X922443Y-1630579D01*
X922443Y-1630579D02*
X931967Y-1611531D01*
X931967Y-1611531D02*
X941491Y-1602008D01*
X941491Y-1602008D02*
X960539Y-1592484D01*
X1112920Y-1792484D02*
X1112920Y-1659150D01*
X1112920Y-1678198D02*
X1122444Y-1668674D01*
X1122444Y-1668674D02*
X1141491Y-1659150D01*
X1141491Y-1659150D02*
X1170063Y-1659150D01*
X1170063Y-1659150D02*
X1189110Y-1668674D01*
X1189110Y-1668674D02*
X1198634Y-1687722D01*
X1198634Y-1687722D02*
X1198634Y-1792484D01*
X1198634Y-1687722D02*
X1208158Y-1668674D01*
X1208158Y-1668674D02*
X1227205Y-1659150D01*
X1227205Y-1659150D02*
X1255777Y-1659150D01*
X1255777Y-1659150D02*
X1274825Y-1668674D01*
X1274825Y-1668674D02*
X1284348Y-1687722D01*
X1284348Y-1687722D02*
X1284348Y-1792484D01*
X1379586Y-1792484D02*
X1379586Y-1659150D01*
X1379586Y-1678198D02*
X1389110Y-1668674D01*
X1389110Y-1668674D02*
X1408158Y-1659150D01*
X1408158Y-1659150D02*
X1436729Y-1659150D01*
X1436729Y-1659150D02*
X1455777Y-1668674D01*
X1455777Y-1668674D02*
X1465301Y-1687722D01*
X1465301Y-1687722D02*
X1465301Y-1792484D01*
X1465301Y-1687722D02*
X1474824Y-1668674D01*
X1474824Y-1668674D02*
X1493872Y-1659150D01*
X1493872Y-1659150D02*
X1522443Y-1659150D01*
X1522443Y-1659150D02*
X1541491Y-1668674D01*
X1541491Y-1668674D02*
X1551015Y-1687722D01*
X1551015Y-1687722D02*
X1551015Y-1792484D01*
X1941491Y-1582960D02*
X1770063Y-1840103D01*
X2198634Y-1592484D02*
X2217682Y-1592484D01*
X2217682Y-1592484D02*
X2236729Y-1602008D01*
X2236729Y-1602008D02*
X2246253Y-1611531D01*
X2246253Y-1611531D02*
X2255777Y-1630579D01*
X2255777Y-1630579D02*
X2265301Y-1668674D01*
X2265301Y-1668674D02*
X2265301Y-1716293D01*
X2265301Y-1716293D02*
X2255777Y-1754388D01*
X2255777Y-1754388D02*
X2246253Y-1773436D01*
X2246253Y-1773436D02*
X2236729Y-1782960D01*
X2236729Y-1782960D02*
X2217682Y-1792484D01*
X2217682Y-1792484D02*
X2198634Y-1792484D01*
X2198634Y-1792484D02*
X2179587Y-1782960D01*
X2179587Y-1782960D02*
X2170063Y-1773436D01*
X2170063Y-1773436D02*
X2160539Y-1754388D01*
X2160539Y-1754388D02*
X2151015Y-1716293D01*
X2151015Y-1716293D02*
X2151015Y-1668674D01*
X2151015Y-1668674D02*
X2160539Y-1630579D01*
X2160539Y-1630579D02*
X2170063Y-1611531D01*
X2170063Y-1611531D02*
X2179587Y-1602008D01*
X2179587Y-1602008D02*
X2198634Y-1592484D01*
X2351015Y-1773436D02*
X2360539Y-1782960D01*
X2360539Y-1782960D02*
X2351015Y-1792484D01*
X2351015Y-1792484D02*
X2341491Y-1782960D01*
X2341491Y-1782960D02*
X2351015Y-1773436D01*
X2351015Y-1773436D02*
X2351015Y-1792484D01*
X2484348Y-1592484D02*
X2503396Y-1592484D01*
X2503396Y-1592484D02*
X2522444Y-1602008D01*
X2522444Y-1602008D02*
X2531968Y-1611531D01*
X2531968Y-1611531D02*
X2541491Y-1630579D01*
X2541491Y-1630579D02*
X2551015Y-1668674D01*
X2551015Y-1668674D02*
X2551015Y-1716293D01*
X2551015Y-1716293D02*
X2541491Y-1754388D01*
X2541491Y-1754388D02*
X2531968Y-1773436D01*
X2531968Y-1773436D02*
X2522444Y-1782960D01*
X2522444Y-1782960D02*
X2503396Y-1792484D01*
X2503396Y-1792484D02*
X2484348Y-1792484D01*
X2484348Y-1792484D02*
X2465301Y-1782960D01*
X2465301Y-1782960D02*
X2455777Y-1773436D01*
X2455777Y-1773436D02*
X2446253Y-1754388D01*
X2446253Y-1754388D02*
X2436729Y-1716293D01*
X2436729Y-1716293D02*
X2436729Y-1668674D01*
X2436729Y-1668674D02*
X2446253Y-1630579D01*
X2446253Y-1630579D02*
X2455777Y-1611531D01*
X2455777Y-1611531D02*
X2465301Y-1602008D01*
X2465301Y-1602008D02*
X2484348Y-1592484D01*
X2627206Y-1611531D02*
X2636729Y-1602008D01*
X2636729Y-1602008D02*
X2655777Y-1592484D01*
X2655777Y-1592484D02*
X2703396Y-1592484D01*
X2703396Y-1592484D02*
X2722444Y-1602008D01*
X2722444Y-1602008D02*
X2731968Y-1611531D01*
X2731968Y-1611531D02*
X2741491Y-1630579D01*
X2741491Y-1630579D02*
X2741491Y-1649627D01*
X2741491Y-1649627D02*
X2731968Y-1678198D01*
X2731968Y-1678198D02*
X2617682Y-1792484D01*
X2617682Y-1792484D02*
X2741491Y-1792484D01*
X2808158Y-1592484D02*
X2931967Y-1592484D01*
X2931967Y-1592484D02*
X2865301Y-1668674D01*
X2865301Y-1668674D02*
X2893872Y-1668674D01*
X2893872Y-1668674D02*
X2912920Y-1678198D01*
X2912920Y-1678198D02*
X2922444Y-1687722D01*
X2922444Y-1687722D02*
X2931967Y-1706769D01*
X2931967Y-1706769D02*
X2931967Y-1754388D01*
X2931967Y-1754388D02*
X2922444Y-1773436D01*
X2922444Y-1773436D02*
X2912920Y-1782960D01*
X2912920Y-1782960D02*
X2893872Y-1792484D01*
X2893872Y-1792484D02*
X2836729Y-1792484D01*
X2836729Y-1792484D02*
X2817682Y-1782960D01*
X2817682Y-1782960D02*
X2808158Y-1773436D01*
X3103396Y-1592484D02*
X3065301Y-1592484D01*
X3065301Y-1592484D02*
X3046253Y-1602008D01*
X3046253Y-1602008D02*
X3036729Y-1611531D01*
X3036729Y-1611531D02*
X3017682Y-1640103D01*
X3017682Y-1640103D02*
X3008158Y-1678198D01*
X3008158Y-1678198D02*
X3008158Y-1754388D01*
X3008158Y-1754388D02*
X3017682Y-1773436D01*
X3017682Y-1773436D02*
X3027206Y-1782960D01*
X3027206Y-1782960D02*
X3046253Y-1792484D01*
X3046253Y-1792484D02*
X3084348Y-1792484D01*
X3084348Y-1792484D02*
X3103396Y-1782960D01*
X3103396Y-1782960D02*
X3112920Y-1773436D01*
X3112920Y-1773436D02*
X3122444Y-1754388D01*
X3122444Y-1754388D02*
X3122444Y-1706769D01*
X3122444Y-1706769D02*
X3112920Y-1687722D01*
X3112920Y-1687722D02*
X3103396Y-1678198D01*
X3103396Y-1678198D02*
X3084348Y-1668674D01*
X3084348Y-1668674D02*
X3046253Y-1668674D01*
X3046253Y-1668674D02*
X3027206Y-1678198D01*
X3027206Y-1678198D02*
X3017682Y-1687722D01*
X3017682Y-1687722D02*
X3008158Y-1706769D01*
X3198634Y-1592484D02*
X3198634Y-1630579D01*
X3274825Y-1592484D02*
X3274825Y-1630579D01*
X3570063Y-1868674D02*
X3560539Y-1859150D01*
X3560539Y-1859150D02*
X3541491Y-1830579D01*
X3541491Y-1830579D02*
X3531968Y-1811531D01*
X3531968Y-1811531D02*
X3522444Y-1782960D01*
X3522444Y-1782960D02*
X3512920Y-1735341D01*
X3512920Y-1735341D02*
X3512920Y-1697246D01*
X3512920Y-1697246D02*
X3522444Y-1649627D01*
X3522444Y-1649627D02*
X3531968Y-1621055D01*
X3531968Y-1621055D02*
X3541491Y-1602008D01*
X3541491Y-1602008D02*
X3560539Y-1573436D01*
X3560539Y-1573436D02*
X3570063Y-1563912D01*
X3684348Y-1592484D02*
X3703396Y-1592484D01*
X3703396Y-1592484D02*
X3722444Y-1602008D01*
X3722444Y-1602008D02*
X3731968Y-1611531D01*
X3731968Y-1611531D02*
X3741491Y-1630579D01*
X3741491Y-1630579D02*
X3751015Y-1668674D01*
X3751015Y-1668674D02*
X3751015Y-1716293D01*
X3751015Y-1716293D02*
X3741491Y-1754388D01*
X3741491Y-1754388D02*
X3731968Y-1773436D01*
X3731968Y-1773436D02*
X3722444Y-1782960D01*
X3722444Y-1782960D02*
X3703396Y-1792484D01*
X3703396Y-1792484D02*
X3684348Y-1792484D01*
X3684348Y-1792484D02*
X3665301Y-1782960D01*
X3665301Y-1782960D02*
X3655777Y-1773436D01*
X3655777Y-1773436D02*
X3646253Y-1754388D01*
X3646253Y-1754388D02*
X3636729Y-1716293D01*
X3636729Y-1716293D02*
X3636729Y-1668674D01*
X3636729Y-1668674D02*
X3646253Y-1630579D01*
X3646253Y-1630579D02*
X3655777Y-1611531D01*
X3655777Y-1611531D02*
X3665301Y-1602008D01*
X3665301Y-1602008D02*
X3684348Y-1592484D01*
X3989110Y-1792484D02*
X3989110Y-1592484D01*
X4074825Y-1792484D02*
X4074825Y-1687722D01*
X4074825Y-1687722D02*
X4065301Y-1668674D01*
X4065301Y-1668674D02*
X4046253Y-1659150D01*
X4046253Y-1659150D02*
X4017682Y-1659150D01*
X4017682Y-1659150D02*
X3998634Y-1668674D01*
X3998634Y-1668674D02*
X3989110Y-1678198D01*
X4198634Y-1792484D02*
X4179587Y-1782960D01*
X4179587Y-1782960D02*
X4170063Y-1773436D01*
X4170063Y-1773436D02*
X4160539Y-1754388D01*
X4160539Y-1754388D02*
X4160539Y-1697246D01*
X4160539Y-1697246D02*
X4170063Y-1678198D01*
X4170063Y-1678198D02*
X4179587Y-1668674D01*
X4179587Y-1668674D02*
X4198634Y-1659150D01*
X4198634Y-1659150D02*
X4227206Y-1659150D01*
X4227206Y-1659150D02*
X4246253Y-1668674D01*
X4246253Y-1668674D02*
X4255777Y-1678198D01*
X4255777Y-1678198D02*
X4265301Y-1697246D01*
X4265301Y-1697246D02*
X4265301Y-1754388D01*
X4265301Y-1754388D02*
X4255777Y-1773436D01*
X4255777Y-1773436D02*
X4246253Y-1782960D01*
X4246253Y-1782960D02*
X4227206Y-1792484D01*
X4227206Y-1792484D02*
X4198634Y-1792484D01*
X4379587Y-1792484D02*
X4360539Y-1782960D01*
X4360539Y-1782960D02*
X4351015Y-1763912D01*
X4351015Y-1763912D02*
X4351015Y-1592484D01*
X4531968Y-1782960D02*
X4512920Y-1792484D01*
X4512920Y-1792484D02*
X4474825Y-1792484D01*
X4474825Y-1792484D02*
X4455777Y-1782960D01*
X4455777Y-1782960D02*
X4446253Y-1763912D01*
X4446253Y-1763912D02*
X4446253Y-1687722D01*
X4446253Y-1687722D02*
X4455777Y-1668674D01*
X4455777Y-1668674D02*
X4474825Y-1659150D01*
X4474825Y-1659150D02*
X4512920Y-1659150D01*
X4512920Y-1659150D02*
X4531968Y-1668674D01*
X4531968Y-1668674D02*
X4541492Y-1687722D01*
X4541492Y-1687722D02*
X4541492Y-1706769D01*
X4541492Y-1706769D02*
X4446253Y-1725817D01*
X4617682Y-1782960D02*
X4636730Y-1792484D01*
X4636730Y-1792484D02*
X4674825Y-1792484D01*
X4674825Y-1792484D02*
X4693873Y-1782960D01*
X4693873Y-1782960D02*
X4703396Y-1763912D01*
X4703396Y-1763912D02*
X4703396Y-1754388D01*
X4703396Y-1754388D02*
X4693873Y-1735341D01*
X4693873Y-1735341D02*
X4674825Y-1725817D01*
X4674825Y-1725817D02*
X4646253Y-1725817D01*
X4646253Y-1725817D02*
X4627206Y-1716293D01*
X4627206Y-1716293D02*
X4617682Y-1697246D01*
X4617682Y-1697246D02*
X4617682Y-1687722D01*
X4617682Y-1687722D02*
X4627206Y-1668674D01*
X4627206Y-1668674D02*
X4646253Y-1659150D01*
X4646253Y-1659150D02*
X4674825Y-1659150D01*
X4674825Y-1659150D02*
X4693873Y-1668674D01*
X4941492Y-1716293D02*
X5093873Y-1716293D01*
X5017682Y-1792484D02*
X5017682Y-1640103D01*
X5427206Y-1659150D02*
X5427206Y-1792484D01*
X5379587Y-1582960D02*
X5331968Y-1725817D01*
X5331968Y-1725817D02*
X5455777Y-1725817D01*
X5674825Y-1782960D02*
X5693873Y-1792484D01*
X5693873Y-1792484D02*
X5731968Y-1792484D01*
X5731968Y-1792484D02*
X5751015Y-1782960D01*
X5751015Y-1782960D02*
X5760539Y-1763912D01*
X5760539Y-1763912D02*
X5760539Y-1754388D01*
X5760539Y-1754388D02*
X5751015Y-1735341D01*
X5751015Y-1735341D02*
X5731968Y-1725817D01*
X5731968Y-1725817D02*
X5703396Y-1725817D01*
X5703396Y-1725817D02*
X5684349Y-1716293D01*
X5684349Y-1716293D02*
X5674825Y-1697246D01*
X5674825Y-1697246D02*
X5674825Y-1687722D01*
X5674825Y-1687722D02*
X5684349Y-1668674D01*
X5684349Y-1668674D02*
X5703396Y-1659150D01*
X5703396Y-1659150D02*
X5731968Y-1659150D01*
X5731968Y-1659150D02*
X5751015Y-1668674D01*
X5874825Y-1792484D02*
X5855777Y-1782960D01*
X5855777Y-1782960D02*
X5846254Y-1763912D01*
X5846254Y-1763912D02*
X5846254Y-1592484D01*
X5979587Y-1792484D02*
X5960539Y-1782960D01*
X5960539Y-1782960D02*
X5951015Y-1773436D01*
X5951015Y-1773436D02*
X5941492Y-1754388D01*
X5941492Y-1754388D02*
X5941492Y-1697246D01*
X5941492Y-1697246D02*
X5951015Y-1678198D01*
X5951015Y-1678198D02*
X5960539Y-1668674D01*
X5960539Y-1668674D02*
X5979587Y-1659150D01*
X5979587Y-1659150D02*
X6008158Y-1659150D01*
X6008158Y-1659150D02*
X6027206Y-1668674D01*
X6027206Y-1668674D02*
X6036730Y-1678198D01*
X6036730Y-1678198D02*
X6046254Y-1697246D01*
X6046254Y-1697246D02*
X6046254Y-1754388D01*
X6046254Y-1754388D02*
X6036730Y-1773436D01*
X6036730Y-1773436D02*
X6027206Y-1782960D01*
X6027206Y-1782960D02*
X6008158Y-1792484D01*
X6008158Y-1792484D02*
X5979587Y-1792484D01*
X6103396Y-1659150D02*
X6179587Y-1659150D01*
X6131968Y-1592484D02*
X6131968Y-1763912D01*
X6131968Y-1763912D02*
X6141492Y-1782960D01*
X6141492Y-1782960D02*
X6160539Y-1792484D01*
X6160539Y-1792484D02*
X6179587Y-1792484D01*
X6236730Y-1782960D02*
X6255777Y-1792484D01*
X6255777Y-1792484D02*
X6293873Y-1792484D01*
X6293873Y-1792484D02*
X6312920Y-1782960D01*
X6312920Y-1782960D02*
X6322444Y-1763912D01*
X6322444Y-1763912D02*
X6322444Y-1754388D01*
X6322444Y-1754388D02*
X6312920Y-1735341D01*
X6312920Y-1735341D02*
X6293873Y-1725817D01*
X6293873Y-1725817D02*
X6265301Y-1725817D01*
X6265301Y-1725817D02*
X6246254Y-1716293D01*
X6246254Y-1716293D02*
X6236730Y-1697246D01*
X6236730Y-1697246D02*
X6236730Y-1687722D01*
X6236730Y-1687722D02*
X6246254Y-1668674D01*
X6246254Y-1668674D02*
X6265301Y-1659150D01*
X6265301Y-1659150D02*
X6293873Y-1659150D01*
X6293873Y-1659150D02*
X6312920Y-1668674D01*
X6389111Y-1868674D02*
X6398635Y-1859150D01*
X6398635Y-1859150D02*
X6417682Y-1830579D01*
X6417682Y-1830579D02*
X6427206Y-1811531D01*
X6427206Y-1811531D02*
X6436730Y-1782960D01*
X6436730Y-1782960D02*
X6446254Y-1735341D01*
X6446254Y-1735341D02*
X6446254Y-1697246D01*
X6446254Y-1697246D02*
X6436730Y-1649627D01*
X6436730Y-1649627D02*
X6427206Y-1621055D01*
X6427206Y-1621055D02*
X6417682Y-1602008D01*
X6417682Y-1602008D02*
X6398635Y-1573436D01*
X6398635Y-1573436D02*
X6389111Y-1563912D01*
D10*
X-85000Y-1925000D02*
X-5000Y-2005000D01*
X-5000Y-1925000D02*
X-85000Y-2005000D01*
X-5000Y-1965000D02*
G75*
G02*
X-85000Y-1965000I-40000J0D01*
G01*
X-85000Y-1965000D02*
G75*
G02*
X-5000Y-1965000I40000J0D01*
G01*
D11*
X293872Y-1856484D02*
X312920Y-1856484D01*
X312920Y-1856484D02*
X331967Y-1866008D01*
X331967Y-1866008D02*
X341491Y-1875531D01*
X341491Y-1875531D02*
X351015Y-1894579D01*
X351015Y-1894579D02*
X360539Y-1932674D01*
X360539Y-1932674D02*
X360539Y-1980293D01*
X360539Y-1980293D02*
X351015Y-2018388D01*
X351015Y-2018388D02*
X341491Y-2037436D01*
X341491Y-2037436D02*
X331967Y-2046960D01*
X331967Y-2046960D02*
X312920Y-2056484D01*
X312920Y-2056484D02*
X293872Y-2056484D01*
X293872Y-2056484D02*
X274824Y-2046960D01*
X274824Y-2046960D02*
X265301Y-2037436D01*
X265301Y-2037436D02*
X255777Y-2018388D01*
X255777Y-2018388D02*
X246253Y-1980293D01*
X246253Y-1980293D02*
X246253Y-1932674D01*
X246253Y-1932674D02*
X255777Y-1894579D01*
X255777Y-1894579D02*
X265301Y-1875531D01*
X265301Y-1875531D02*
X274824Y-1866008D01*
X274824Y-1866008D02*
X293872Y-1856484D01*
X446253Y-2037436D02*
X455777Y-2046960D01*
X455777Y-2046960D02*
X446253Y-2056484D01*
X446253Y-2056484D02*
X436729Y-2046960D01*
X436729Y-2046960D02*
X446253Y-2037436D01*
X446253Y-2037436D02*
X446253Y-2056484D01*
X570063Y-1942198D02*
X551015Y-1932674D01*
X551015Y-1932674D02*
X541491Y-1923150D01*
X541491Y-1923150D02*
X531967Y-1904103D01*
X531967Y-1904103D02*
X531967Y-1894579D01*
X531967Y-1894579D02*
X541491Y-1875531D01*
X541491Y-1875531D02*
X551015Y-1866008D01*
X551015Y-1866008D02*
X570063Y-1856484D01*
X570063Y-1856484D02*
X608158Y-1856484D01*
X608158Y-1856484D02*
X627205Y-1866008D01*
X627205Y-1866008D02*
X636729Y-1875531D01*
X636729Y-1875531D02*
X646253Y-1894579D01*
X646253Y-1894579D02*
X646253Y-1904103D01*
X646253Y-1904103D02*
X636729Y-1923150D01*
X636729Y-1923150D02*
X627205Y-1932674D01*
X627205Y-1932674D02*
X608158Y-1942198D01*
X608158Y-1942198D02*
X570063Y-1942198D01*
X570063Y-1942198D02*
X551015Y-1951722D01*
X551015Y-1951722D02*
X541491Y-1961246D01*
X541491Y-1961246D02*
X531967Y-1980293D01*
X531967Y-1980293D02*
X531967Y-2018388D01*
X531967Y-2018388D02*
X541491Y-2037436D01*
X541491Y-2037436D02*
X551015Y-2046960D01*
X551015Y-2046960D02*
X570063Y-2056484D01*
X570063Y-2056484D02*
X608158Y-2056484D01*
X608158Y-2056484D02*
X627205Y-2046960D01*
X627205Y-2046960D02*
X636729Y-2037436D01*
X636729Y-2037436D02*
X646253Y-2018388D01*
X646253Y-2018388D02*
X646253Y-1980293D01*
X646253Y-1980293D02*
X636729Y-1961246D01*
X636729Y-1961246D02*
X627205Y-1951722D01*
X627205Y-1951722D02*
X608158Y-1942198D01*
X770062Y-1856484D02*
X789110Y-1856484D01*
X789110Y-1856484D02*
X808158Y-1866008D01*
X808158Y-1866008D02*
X817682Y-1875531D01*
X817682Y-1875531D02*
X827205Y-1894579D01*
X827205Y-1894579D02*
X836729Y-1932674D01*
X836729Y-1932674D02*
X836729Y-1980293D01*
X836729Y-1980293D02*
X827205Y-2018388D01*
X827205Y-2018388D02*
X817682Y-2037436D01*
X817682Y-2037436D02*
X808158Y-2046960D01*
X808158Y-2046960D02*
X789110Y-2056484D01*
X789110Y-2056484D02*
X770062Y-2056484D01*
X770062Y-2056484D02*
X751015Y-2046960D01*
X751015Y-2046960D02*
X741491Y-2037436D01*
X741491Y-2037436D02*
X731967Y-2018388D01*
X731967Y-2018388D02*
X722443Y-1980293D01*
X722443Y-1980293D02*
X722443Y-1932674D01*
X722443Y-1932674D02*
X731967Y-1894579D01*
X731967Y-1894579D02*
X741491Y-1875531D01*
X741491Y-1875531D02*
X751015Y-1866008D01*
X751015Y-1866008D02*
X770062Y-1856484D01*
X960539Y-1856484D02*
X979586Y-1856484D01*
X979586Y-1856484D02*
X998634Y-1866008D01*
X998634Y-1866008D02*
X1008158Y-1875531D01*
X1008158Y-1875531D02*
X1017682Y-1894579D01*
X1017682Y-1894579D02*
X1027205Y-1932674D01*
X1027205Y-1932674D02*
X1027205Y-1980293D01*
X1027205Y-1980293D02*
X1017682Y-2018388D01*
X1017682Y-2018388D02*
X1008158Y-2037436D01*
X1008158Y-2037436D02*
X998634Y-2046960D01*
X998634Y-2046960D02*
X979586Y-2056484D01*
X979586Y-2056484D02*
X960539Y-2056484D01*
X960539Y-2056484D02*
X941491Y-2046960D01*
X941491Y-2046960D02*
X931967Y-2037436D01*
X931967Y-2037436D02*
X922443Y-2018388D01*
X922443Y-2018388D02*
X912920Y-1980293D01*
X912920Y-1980293D02*
X912920Y-1932674D01*
X912920Y-1932674D02*
X922443Y-1894579D01*
X922443Y-1894579D02*
X931967Y-1875531D01*
X931967Y-1875531D02*
X941491Y-1866008D01*
X941491Y-1866008D02*
X960539Y-1856484D01*
X1112920Y-2056484D02*
X1112920Y-1923150D01*
X1112920Y-1942198D02*
X1122444Y-1932674D01*
X1122444Y-1932674D02*
X1141491Y-1923150D01*
X1141491Y-1923150D02*
X1170063Y-1923150D01*
X1170063Y-1923150D02*
X1189110Y-1932674D01*
X1189110Y-1932674D02*
X1198634Y-1951722D01*
X1198634Y-1951722D02*
X1198634Y-2056484D01*
X1198634Y-1951722D02*
X1208158Y-1932674D01*
X1208158Y-1932674D02*
X1227205Y-1923150D01*
X1227205Y-1923150D02*
X1255777Y-1923150D01*
X1255777Y-1923150D02*
X1274825Y-1932674D01*
X1274825Y-1932674D02*
X1284348Y-1951722D01*
X1284348Y-1951722D02*
X1284348Y-2056484D01*
X1379586Y-2056484D02*
X1379586Y-1923150D01*
X1379586Y-1942198D02*
X1389110Y-1932674D01*
X1389110Y-1932674D02*
X1408158Y-1923150D01*
X1408158Y-1923150D02*
X1436729Y-1923150D01*
X1436729Y-1923150D02*
X1455777Y-1932674D01*
X1455777Y-1932674D02*
X1465301Y-1951722D01*
X1465301Y-1951722D02*
X1465301Y-2056484D01*
X1465301Y-1951722D02*
X1474824Y-1932674D01*
X1474824Y-1932674D02*
X1493872Y-1923150D01*
X1493872Y-1923150D02*
X1522443Y-1923150D01*
X1522443Y-1923150D02*
X1541491Y-1932674D01*
X1541491Y-1932674D02*
X1551015Y-1951722D01*
X1551015Y-1951722D02*
X1551015Y-2056484D01*
X1941491Y-1846960D02*
X1770063Y-2104103D01*
X2198634Y-1856484D02*
X2217682Y-1856484D01*
X2217682Y-1856484D02*
X2236729Y-1866008D01*
X2236729Y-1866008D02*
X2246253Y-1875531D01*
X2246253Y-1875531D02*
X2255777Y-1894579D01*
X2255777Y-1894579D02*
X2265301Y-1932674D01*
X2265301Y-1932674D02*
X2265301Y-1980293D01*
X2265301Y-1980293D02*
X2255777Y-2018388D01*
X2255777Y-2018388D02*
X2246253Y-2037436D01*
X2246253Y-2037436D02*
X2236729Y-2046960D01*
X2236729Y-2046960D02*
X2217682Y-2056484D01*
X2217682Y-2056484D02*
X2198634Y-2056484D01*
X2198634Y-2056484D02*
X2179587Y-2046960D01*
X2179587Y-2046960D02*
X2170063Y-2037436D01*
X2170063Y-2037436D02*
X2160539Y-2018388D01*
X2160539Y-2018388D02*
X2151015Y-1980293D01*
X2151015Y-1980293D02*
X2151015Y-1932674D01*
X2151015Y-1932674D02*
X2160539Y-1894579D01*
X2160539Y-1894579D02*
X2170063Y-1875531D01*
X2170063Y-1875531D02*
X2179587Y-1866008D01*
X2179587Y-1866008D02*
X2198634Y-1856484D01*
X2351015Y-2037436D02*
X2360539Y-2046960D01*
X2360539Y-2046960D02*
X2351015Y-2056484D01*
X2351015Y-2056484D02*
X2341491Y-2046960D01*
X2341491Y-2046960D02*
X2351015Y-2037436D01*
X2351015Y-2037436D02*
X2351015Y-2056484D01*
X2484348Y-1856484D02*
X2503396Y-1856484D01*
X2503396Y-1856484D02*
X2522444Y-1866008D01*
X2522444Y-1866008D02*
X2531968Y-1875531D01*
X2531968Y-1875531D02*
X2541491Y-1894579D01*
X2541491Y-1894579D02*
X2551015Y-1932674D01*
X2551015Y-1932674D02*
X2551015Y-1980293D01*
X2551015Y-1980293D02*
X2541491Y-2018388D01*
X2541491Y-2018388D02*
X2531968Y-2037436D01*
X2531968Y-2037436D02*
X2522444Y-2046960D01*
X2522444Y-2046960D02*
X2503396Y-2056484D01*
X2503396Y-2056484D02*
X2484348Y-2056484D01*
X2484348Y-2056484D02*
X2465301Y-2046960D01*
X2465301Y-2046960D02*
X2455777Y-2037436D01*
X2455777Y-2037436D02*
X2446253Y-2018388D01*
X2446253Y-2018388D02*
X2436729Y-1980293D01*
X2436729Y-1980293D02*
X2436729Y-1932674D01*
X2436729Y-1932674D02*
X2446253Y-1894579D01*
X2446253Y-1894579D02*
X2455777Y-1875531D01*
X2455777Y-1875531D02*
X2465301Y-1866008D01*
X2465301Y-1866008D02*
X2484348Y-1856484D01*
X2617682Y-1856484D02*
X2741491Y-1856484D01*
X2741491Y-1856484D02*
X2674825Y-1932674D01*
X2674825Y-1932674D02*
X2703396Y-1932674D01*
X2703396Y-1932674D02*
X2722444Y-1942198D01*
X2722444Y-1942198D02*
X2731968Y-1951722D01*
X2731968Y-1951722D02*
X2741491Y-1970769D01*
X2741491Y-1970769D02*
X2741491Y-2018388D01*
X2741491Y-2018388D02*
X2731968Y-2037436D01*
X2731968Y-2037436D02*
X2722444Y-2046960D01*
X2722444Y-2046960D02*
X2703396Y-2056484D01*
X2703396Y-2056484D02*
X2646253Y-2056484D01*
X2646253Y-2056484D02*
X2627206Y-2046960D01*
X2627206Y-2046960D02*
X2617682Y-2037436D01*
X2931967Y-2056484D02*
X2817682Y-2056484D01*
X2874825Y-2056484D02*
X2874825Y-1856484D01*
X2874825Y-1856484D02*
X2855777Y-1885055D01*
X2855777Y-1885055D02*
X2836729Y-1904103D01*
X2836729Y-1904103D02*
X2817682Y-1913627D01*
X3112920Y-1856484D02*
X3017682Y-1856484D01*
X3017682Y-1856484D02*
X3008158Y-1951722D01*
X3008158Y-1951722D02*
X3017682Y-1942198D01*
X3017682Y-1942198D02*
X3036729Y-1932674D01*
X3036729Y-1932674D02*
X3084348Y-1932674D01*
X3084348Y-1932674D02*
X3103396Y-1942198D01*
X3103396Y-1942198D02*
X3112920Y-1951722D01*
X3112920Y-1951722D02*
X3122444Y-1970769D01*
X3122444Y-1970769D02*
X3122444Y-2018388D01*
X3122444Y-2018388D02*
X3112920Y-2037436D01*
X3112920Y-2037436D02*
X3103396Y-2046960D01*
X3103396Y-2046960D02*
X3084348Y-2056484D01*
X3084348Y-2056484D02*
X3036729Y-2056484D01*
X3036729Y-2056484D02*
X3017682Y-2046960D01*
X3017682Y-2046960D02*
X3008158Y-2037436D01*
X3198634Y-1856484D02*
X3198634Y-1894579D01*
X3274825Y-1856484D02*
X3274825Y-1894579D01*
X3570063Y-2132674D02*
X3560539Y-2123150D01*
X3560539Y-2123150D02*
X3541491Y-2094579D01*
X3541491Y-2094579D02*
X3531968Y-2075531D01*
X3531968Y-2075531D02*
X3522444Y-2046960D01*
X3522444Y-2046960D02*
X3512920Y-1999341D01*
X3512920Y-1999341D02*
X3512920Y-1961246D01*
X3512920Y-1961246D02*
X3522444Y-1913627D01*
X3522444Y-1913627D02*
X3531968Y-1885055D01*
X3531968Y-1885055D02*
X3541491Y-1866008D01*
X3541491Y-1866008D02*
X3560539Y-1837436D01*
X3560539Y-1837436D02*
X3570063Y-1827912D01*
X3731968Y-1923150D02*
X3731968Y-2056484D01*
X3684348Y-1846960D02*
X3636729Y-1989817D01*
X3636729Y-1989817D02*
X3760539Y-1989817D01*
X3989110Y-2056484D02*
X3989110Y-1856484D01*
X4074825Y-2056484D02*
X4074825Y-1951722D01*
X4074825Y-1951722D02*
X4065301Y-1932674D01*
X4065301Y-1932674D02*
X4046253Y-1923150D01*
X4046253Y-1923150D02*
X4017682Y-1923150D01*
X4017682Y-1923150D02*
X3998634Y-1932674D01*
X3998634Y-1932674D02*
X3989110Y-1942198D01*
X4198634Y-2056484D02*
X4179587Y-2046960D01*
X4179587Y-2046960D02*
X4170063Y-2037436D01*
X4170063Y-2037436D02*
X4160539Y-2018388D01*
X4160539Y-2018388D02*
X4160539Y-1961246D01*
X4160539Y-1961246D02*
X4170063Y-1942198D01*
X4170063Y-1942198D02*
X4179587Y-1932674D01*
X4179587Y-1932674D02*
X4198634Y-1923150D01*
X4198634Y-1923150D02*
X4227206Y-1923150D01*
X4227206Y-1923150D02*
X4246253Y-1932674D01*
X4246253Y-1932674D02*
X4255777Y-1942198D01*
X4255777Y-1942198D02*
X4265301Y-1961246D01*
X4265301Y-1961246D02*
X4265301Y-2018388D01*
X4265301Y-2018388D02*
X4255777Y-2037436D01*
X4255777Y-2037436D02*
X4246253Y-2046960D01*
X4246253Y-2046960D02*
X4227206Y-2056484D01*
X4227206Y-2056484D02*
X4198634Y-2056484D01*
X4379587Y-2056484D02*
X4360539Y-2046960D01*
X4360539Y-2046960D02*
X4351015Y-2027912D01*
X4351015Y-2027912D02*
X4351015Y-1856484D01*
X4531968Y-2046960D02*
X4512920Y-2056484D01*
X4512920Y-2056484D02*
X4474825Y-2056484D01*
X4474825Y-2056484D02*
X4455777Y-2046960D01*
X4455777Y-2046960D02*
X4446253Y-2027912D01*
X4446253Y-2027912D02*
X4446253Y-1951722D01*
X4446253Y-1951722D02*
X4455777Y-1932674D01*
X4455777Y-1932674D02*
X4474825Y-1923150D01*
X4474825Y-1923150D02*
X4512920Y-1923150D01*
X4512920Y-1923150D02*
X4531968Y-1932674D01*
X4531968Y-1932674D02*
X4541492Y-1951722D01*
X4541492Y-1951722D02*
X4541492Y-1970769D01*
X4541492Y-1970769D02*
X4446253Y-1989817D01*
X4617682Y-2046960D02*
X4636730Y-2056484D01*
X4636730Y-2056484D02*
X4674825Y-2056484D01*
X4674825Y-2056484D02*
X4693873Y-2046960D01*
X4693873Y-2046960D02*
X4703396Y-2027912D01*
X4703396Y-2027912D02*
X4703396Y-2018388D01*
X4703396Y-2018388D02*
X4693873Y-1999341D01*
X4693873Y-1999341D02*
X4674825Y-1989817D01*
X4674825Y-1989817D02*
X4646253Y-1989817D01*
X4646253Y-1989817D02*
X4627206Y-1980293D01*
X4627206Y-1980293D02*
X4617682Y-1961246D01*
X4617682Y-1961246D02*
X4617682Y-1951722D01*
X4617682Y-1951722D02*
X4627206Y-1932674D01*
X4627206Y-1932674D02*
X4646253Y-1923150D01*
X4646253Y-1923150D02*
X4674825Y-1923150D01*
X4674825Y-1923150D02*
X4693873Y-1932674D01*
X4770063Y-2132674D02*
X4779587Y-2123150D01*
X4779587Y-2123150D02*
X4798634Y-2094579D01*
X4798634Y-2094579D02*
X4808158Y-2075531D01*
X4808158Y-2075531D02*
X4817682Y-2046960D01*
X4817682Y-2046960D02*
X4827206Y-1999341D01*
X4827206Y-1999341D02*
X4827206Y-1961246D01*
X4827206Y-1961246D02*
X4817682Y-1913627D01*
X4817682Y-1913627D02*
X4808158Y-1885055D01*
X4808158Y-1885055D02*
X4798634Y-1866008D01*
X4798634Y-1866008D02*
X4779587Y-1837436D01*
X4779587Y-1837436D02*
X4770063Y-1827912D01*
D10*
X-105000Y-2179000D02*
X-5000Y-2279000D01*
X-5000Y-2179000D02*
X-105000Y-2279000D01*
X-55000Y-2179000D02*
X-55000Y-2279000D01*
X-105000Y-2229000D02*
X-5000Y-2229000D01*
D11*
X360539Y-2320484D02*
X246253Y-2320484D01*
X303396Y-2320484D02*
X303396Y-2120484D01*
X303396Y-2120484D02*
X284348Y-2149055D01*
X284348Y-2149055D02*
X265301Y-2168103D01*
X265301Y-2168103D02*
X246253Y-2177627D01*
X446253Y-2301436D02*
X455777Y-2310960D01*
X455777Y-2310960D02*
X446253Y-2320484D01*
X446253Y-2320484D02*
X436729Y-2310960D01*
X436729Y-2310960D02*
X446253Y-2301436D01*
X446253Y-2301436D02*
X446253Y-2320484D01*
X579586Y-2120484D02*
X598634Y-2120484D01*
X598634Y-2120484D02*
X617682Y-2130008D01*
X617682Y-2130008D02*
X627205Y-2139531D01*
X627205Y-2139531D02*
X636729Y-2158579D01*
X636729Y-2158579D02*
X646253Y-2196674D01*
X646253Y-2196674D02*
X646253Y-2244293D01*
X646253Y-2244293D02*
X636729Y-2282389D01*
X636729Y-2282389D02*
X627205Y-2301436D01*
X627205Y-2301436D02*
X617682Y-2310960D01*
X617682Y-2310960D02*
X598634Y-2320484D01*
X598634Y-2320484D02*
X579586Y-2320484D01*
X579586Y-2320484D02*
X560539Y-2310960D01*
X560539Y-2310960D02*
X551015Y-2301436D01*
X551015Y-2301436D02*
X541491Y-2282389D01*
X541491Y-2282389D02*
X531967Y-2244293D01*
X531967Y-2244293D02*
X531967Y-2196674D01*
X531967Y-2196674D02*
X541491Y-2158579D01*
X541491Y-2158579D02*
X551015Y-2139531D01*
X551015Y-2139531D02*
X560539Y-2130008D01*
X560539Y-2130008D02*
X579586Y-2120484D01*
X770062Y-2120484D02*
X789110Y-2120484D01*
X789110Y-2120484D02*
X808158Y-2130008D01*
X808158Y-2130008D02*
X817682Y-2139531D01*
X817682Y-2139531D02*
X827205Y-2158579D01*
X827205Y-2158579D02*
X836729Y-2196674D01*
X836729Y-2196674D02*
X836729Y-2244293D01*
X836729Y-2244293D02*
X827205Y-2282389D01*
X827205Y-2282389D02*
X817682Y-2301436D01*
X817682Y-2301436D02*
X808158Y-2310960D01*
X808158Y-2310960D02*
X789110Y-2320484D01*
X789110Y-2320484D02*
X770062Y-2320484D01*
X770062Y-2320484D02*
X751015Y-2310960D01*
X751015Y-2310960D02*
X741491Y-2301436D01*
X741491Y-2301436D02*
X731967Y-2282389D01*
X731967Y-2282389D02*
X722443Y-2244293D01*
X722443Y-2244293D02*
X722443Y-2196674D01*
X722443Y-2196674D02*
X731967Y-2158579D01*
X731967Y-2158579D02*
X741491Y-2139531D01*
X741491Y-2139531D02*
X751015Y-2130008D01*
X751015Y-2130008D02*
X770062Y-2120484D01*
X960539Y-2120484D02*
X979586Y-2120484D01*
X979586Y-2120484D02*
X998634Y-2130008D01*
X998634Y-2130008D02*
X1008158Y-2139531D01*
X1008158Y-2139531D02*
X1017682Y-2158579D01*
X1017682Y-2158579D02*
X1027205Y-2196674D01*
X1027205Y-2196674D02*
X1027205Y-2244293D01*
X1027205Y-2244293D02*
X1017682Y-2282389D01*
X1017682Y-2282389D02*
X1008158Y-2301436D01*
X1008158Y-2301436D02*
X998634Y-2310960D01*
X998634Y-2310960D02*
X979586Y-2320484D01*
X979586Y-2320484D02*
X960539Y-2320484D01*
X960539Y-2320484D02*
X941491Y-2310960D01*
X941491Y-2310960D02*
X931967Y-2301436D01*
X931967Y-2301436D02*
X922443Y-2282389D01*
X922443Y-2282389D02*
X912920Y-2244293D01*
X912920Y-2244293D02*
X912920Y-2196674D01*
X912920Y-2196674D02*
X922443Y-2158579D01*
X922443Y-2158579D02*
X931967Y-2139531D01*
X931967Y-2139531D02*
X941491Y-2130008D01*
X941491Y-2130008D02*
X960539Y-2120484D01*
X1112920Y-2320484D02*
X1112920Y-2187150D01*
X1112920Y-2206198D02*
X1122444Y-2196674D01*
X1122444Y-2196674D02*
X1141491Y-2187150D01*
X1141491Y-2187150D02*
X1170063Y-2187150D01*
X1170063Y-2187150D02*
X1189110Y-2196674D01*
X1189110Y-2196674D02*
X1198634Y-2215722D01*
X1198634Y-2215722D02*
X1198634Y-2320484D01*
X1198634Y-2215722D02*
X1208158Y-2196674D01*
X1208158Y-2196674D02*
X1227205Y-2187150D01*
X1227205Y-2187150D02*
X1255777Y-2187150D01*
X1255777Y-2187150D02*
X1274825Y-2196674D01*
X1274825Y-2196674D02*
X1284348Y-2215722D01*
X1284348Y-2215722D02*
X1284348Y-2320484D01*
X1379586Y-2320484D02*
X1379586Y-2187150D01*
X1379586Y-2206198D02*
X1389110Y-2196674D01*
X1389110Y-2196674D02*
X1408158Y-2187150D01*
X1408158Y-2187150D02*
X1436729Y-2187150D01*
X1436729Y-2187150D02*
X1455777Y-2196674D01*
X1455777Y-2196674D02*
X1465301Y-2215722D01*
X1465301Y-2215722D02*
X1465301Y-2320484D01*
X1465301Y-2215722D02*
X1474824Y-2196674D01*
X1474824Y-2196674D02*
X1493872Y-2187150D01*
X1493872Y-2187150D02*
X1522443Y-2187150D01*
X1522443Y-2187150D02*
X1541491Y-2196674D01*
X1541491Y-2196674D02*
X1551015Y-2215722D01*
X1551015Y-2215722D02*
X1551015Y-2320484D01*
X1941491Y-2110960D02*
X1770063Y-2368103D01*
X2198634Y-2120484D02*
X2217682Y-2120484D01*
X2217682Y-2120484D02*
X2236729Y-2130008D01*
X2236729Y-2130008D02*
X2246253Y-2139531D01*
X2246253Y-2139531D02*
X2255777Y-2158579D01*
X2255777Y-2158579D02*
X2265301Y-2196674D01*
X2265301Y-2196674D02*
X2265301Y-2244293D01*
X2265301Y-2244293D02*
X2255777Y-2282389D01*
X2255777Y-2282389D02*
X2246253Y-2301436D01*
X2246253Y-2301436D02*
X2236729Y-2310960D01*
X2236729Y-2310960D02*
X2217682Y-2320484D01*
X2217682Y-2320484D02*
X2198634Y-2320484D01*
X2198634Y-2320484D02*
X2179587Y-2310960D01*
X2179587Y-2310960D02*
X2170063Y-2301436D01*
X2170063Y-2301436D02*
X2160539Y-2282389D01*
X2160539Y-2282389D02*
X2151015Y-2244293D01*
X2151015Y-2244293D02*
X2151015Y-2196674D01*
X2151015Y-2196674D02*
X2160539Y-2158579D01*
X2160539Y-2158579D02*
X2170063Y-2139531D01*
X2170063Y-2139531D02*
X2179587Y-2130008D01*
X2179587Y-2130008D02*
X2198634Y-2120484D01*
X2351015Y-2301436D02*
X2360539Y-2310960D01*
X2360539Y-2310960D02*
X2351015Y-2320484D01*
X2351015Y-2320484D02*
X2341491Y-2310960D01*
X2341491Y-2310960D02*
X2351015Y-2301436D01*
X2351015Y-2301436D02*
X2351015Y-2320484D01*
X2484348Y-2120484D02*
X2503396Y-2120484D01*
X2503396Y-2120484D02*
X2522444Y-2130008D01*
X2522444Y-2130008D02*
X2531968Y-2139531D01*
X2531968Y-2139531D02*
X2541491Y-2158579D01*
X2541491Y-2158579D02*
X2551015Y-2196674D01*
X2551015Y-2196674D02*
X2551015Y-2244293D01*
X2551015Y-2244293D02*
X2541491Y-2282389D01*
X2541491Y-2282389D02*
X2531968Y-2301436D01*
X2531968Y-2301436D02*
X2522444Y-2310960D01*
X2522444Y-2310960D02*
X2503396Y-2320484D01*
X2503396Y-2320484D02*
X2484348Y-2320484D01*
X2484348Y-2320484D02*
X2465301Y-2310960D01*
X2465301Y-2310960D02*
X2455777Y-2301436D01*
X2455777Y-2301436D02*
X2446253Y-2282389D01*
X2446253Y-2282389D02*
X2436729Y-2244293D01*
X2436729Y-2244293D02*
X2436729Y-2196674D01*
X2436729Y-2196674D02*
X2446253Y-2158579D01*
X2446253Y-2158579D02*
X2455777Y-2139531D01*
X2455777Y-2139531D02*
X2465301Y-2130008D01*
X2465301Y-2130008D02*
X2484348Y-2120484D01*
X2617682Y-2120484D02*
X2741491Y-2120484D01*
X2741491Y-2120484D02*
X2674825Y-2196674D01*
X2674825Y-2196674D02*
X2703396Y-2196674D01*
X2703396Y-2196674D02*
X2722444Y-2206198D01*
X2722444Y-2206198D02*
X2731968Y-2215722D01*
X2731968Y-2215722D02*
X2741491Y-2234770D01*
X2741491Y-2234770D02*
X2741491Y-2282389D01*
X2741491Y-2282389D02*
X2731968Y-2301436D01*
X2731968Y-2301436D02*
X2722444Y-2310960D01*
X2722444Y-2310960D02*
X2703396Y-2320484D01*
X2703396Y-2320484D02*
X2646253Y-2320484D01*
X2646253Y-2320484D02*
X2627206Y-2310960D01*
X2627206Y-2310960D02*
X2617682Y-2301436D01*
X2836729Y-2320484D02*
X2874825Y-2320484D01*
X2874825Y-2320484D02*
X2893872Y-2310960D01*
X2893872Y-2310960D02*
X2903396Y-2301436D01*
X2903396Y-2301436D02*
X2922444Y-2272865D01*
X2922444Y-2272865D02*
X2931967Y-2234770D01*
X2931967Y-2234770D02*
X2931967Y-2158579D01*
X2931967Y-2158579D02*
X2922444Y-2139531D01*
X2922444Y-2139531D02*
X2912920Y-2130008D01*
X2912920Y-2130008D02*
X2893872Y-2120484D01*
X2893872Y-2120484D02*
X2855777Y-2120484D01*
X2855777Y-2120484D02*
X2836729Y-2130008D01*
X2836729Y-2130008D02*
X2827206Y-2139531D01*
X2827206Y-2139531D02*
X2817682Y-2158579D01*
X2817682Y-2158579D02*
X2817682Y-2206198D01*
X2817682Y-2206198D02*
X2827206Y-2225246D01*
X2827206Y-2225246D02*
X2836729Y-2234770D01*
X2836729Y-2234770D02*
X2855777Y-2244293D01*
X2855777Y-2244293D02*
X2893872Y-2244293D01*
X2893872Y-2244293D02*
X2912920Y-2234770D01*
X2912920Y-2234770D02*
X2922444Y-2225246D01*
X2922444Y-2225246D02*
X2931967Y-2206198D01*
X3103396Y-2187150D02*
X3103396Y-2320484D01*
X3055777Y-2110960D02*
X3008158Y-2253817D01*
X3008158Y-2253817D02*
X3131967Y-2253817D01*
X3198634Y-2120484D02*
X3198634Y-2158579D01*
X3274825Y-2120484D02*
X3274825Y-2158579D01*
X3570063Y-2396674D02*
X3560539Y-2387150D01*
X3560539Y-2387150D02*
X3541491Y-2358579D01*
X3541491Y-2358579D02*
X3531968Y-2339531D01*
X3531968Y-2339531D02*
X3522444Y-2310960D01*
X3522444Y-2310960D02*
X3512920Y-2263341D01*
X3512920Y-2263341D02*
X3512920Y-2225246D01*
X3512920Y-2225246D02*
X3522444Y-2177627D01*
X3522444Y-2177627D02*
X3531968Y-2149055D01*
X3531968Y-2149055D02*
X3541491Y-2130008D01*
X3541491Y-2130008D02*
X3560539Y-2101436D01*
X3560539Y-2101436D02*
X3570063Y-2091912D01*
X3751015Y-2320484D02*
X3636729Y-2320484D01*
X3693872Y-2320484D02*
X3693872Y-2120484D01*
X3693872Y-2120484D02*
X3674825Y-2149055D01*
X3674825Y-2149055D02*
X3655777Y-2168103D01*
X3655777Y-2168103D02*
X3636729Y-2177627D01*
X3827206Y-2139531D02*
X3836729Y-2130008D01*
X3836729Y-2130008D02*
X3855777Y-2120484D01*
X3855777Y-2120484D02*
X3903396Y-2120484D01*
X3903396Y-2120484D02*
X3922444Y-2130008D01*
X3922444Y-2130008D02*
X3931968Y-2139531D01*
X3931968Y-2139531D02*
X3941491Y-2158579D01*
X3941491Y-2158579D02*
X3941491Y-2177627D01*
X3941491Y-2177627D02*
X3931968Y-2206198D01*
X3931968Y-2206198D02*
X3817682Y-2320484D01*
X3817682Y-2320484D02*
X3941491Y-2320484D01*
X4179587Y-2320484D02*
X4179587Y-2120484D01*
X4265301Y-2320484D02*
X4265301Y-2215722D01*
X4265301Y-2215722D02*
X4255777Y-2196674D01*
X4255777Y-2196674D02*
X4236730Y-2187150D01*
X4236730Y-2187150D02*
X4208158Y-2187150D01*
X4208158Y-2187150D02*
X4189110Y-2196674D01*
X4189110Y-2196674D02*
X4179587Y-2206198D01*
X4389111Y-2320484D02*
X4370063Y-2310960D01*
X4370063Y-2310960D02*
X4360539Y-2301436D01*
X4360539Y-2301436D02*
X4351015Y-2282389D01*
X4351015Y-2282389D02*
X4351015Y-2225246D01*
X4351015Y-2225246D02*
X4360539Y-2206198D01*
X4360539Y-2206198D02*
X4370063Y-2196674D01*
X4370063Y-2196674D02*
X4389111Y-2187150D01*
X4389111Y-2187150D02*
X4417682Y-2187150D01*
X4417682Y-2187150D02*
X4436730Y-2196674D01*
X4436730Y-2196674D02*
X4446253Y-2206198D01*
X4446253Y-2206198D02*
X4455777Y-2225246D01*
X4455777Y-2225246D02*
X4455777Y-2282389D01*
X4455777Y-2282389D02*
X4446253Y-2301436D01*
X4446253Y-2301436D02*
X4436730Y-2310960D01*
X4436730Y-2310960D02*
X4417682Y-2320484D01*
X4417682Y-2320484D02*
X4389111Y-2320484D01*
X4570063Y-2320484D02*
X4551015Y-2310960D01*
X4551015Y-2310960D02*
X4541492Y-2291912D01*
X4541492Y-2291912D02*
X4541492Y-2120484D01*
X4722444Y-2310960D02*
X4703396Y-2320484D01*
X4703396Y-2320484D02*
X4665301Y-2320484D01*
X4665301Y-2320484D02*
X4646253Y-2310960D01*
X4646253Y-2310960D02*
X4636730Y-2291912D01*
X4636730Y-2291912D02*
X4636730Y-2215722D01*
X4636730Y-2215722D02*
X4646253Y-2196674D01*
X4646253Y-2196674D02*
X4665301Y-2187150D01*
X4665301Y-2187150D02*
X4703396Y-2187150D01*
X4703396Y-2187150D02*
X4722444Y-2196674D01*
X4722444Y-2196674D02*
X4731968Y-2215722D01*
X4731968Y-2215722D02*
X4731968Y-2234770D01*
X4731968Y-2234770D02*
X4636730Y-2253817D01*
X4808158Y-2310960D02*
X4827206Y-2320484D01*
X4827206Y-2320484D02*
X4865301Y-2320484D01*
X4865301Y-2320484D02*
X4884349Y-2310960D01*
X4884349Y-2310960D02*
X4893873Y-2291912D01*
X4893873Y-2291912D02*
X4893873Y-2282389D01*
X4893873Y-2282389D02*
X4884349Y-2263341D01*
X4884349Y-2263341D02*
X4865301Y-2253817D01*
X4865301Y-2253817D02*
X4836730Y-2253817D01*
X4836730Y-2253817D02*
X4817682Y-2244293D01*
X4817682Y-2244293D02*
X4808158Y-2225246D01*
X4808158Y-2225246D02*
X4808158Y-2215722D01*
X4808158Y-2215722D02*
X4817682Y-2196674D01*
X4817682Y-2196674D02*
X4836730Y-2187150D01*
X4836730Y-2187150D02*
X4865301Y-2187150D01*
X4865301Y-2187150D02*
X4884349Y-2196674D01*
X4960539Y-2396674D02*
X4970063Y-2387150D01*
X4970063Y-2387150D02*
X4989111Y-2358579D01*
X4989111Y-2358579D02*
X4998634Y-2339531D01*
X4998634Y-2339531D02*
X5008158Y-2310960D01*
X5008158Y-2310960D02*
X5017682Y-2263341D01*
X5017682Y-2263341D02*
X5017682Y-2225246D01*
X5017682Y-2225246D02*
X5008158Y-2177627D01*
X5008158Y-2177627D02*
X4998634Y-2149055D01*
X4998634Y-2149055D02*
X4989111Y-2130008D01*
X4989111Y-2130008D02*
X4970063Y-2101436D01*
X4970063Y-2101436D02*
X4960539Y-2091912D01*
D12*
X-120000Y-2435500D02*
X-5000Y-2550500D01*
X-5000Y-2435500D02*
X-120000Y-2550500D01*
X-21841Y-2533659D02*
X-21841Y-2452341D01*
X-103159Y-2452341D01*
X-103159Y-2533659D01*
X-21841Y-2533659D01*
D11*
X360539Y-2584484D02*
X246253Y-2584484D01*
X303396Y-2584484D02*
X303396Y-2384484D01*
X303396Y-2384484D02*
X284348Y-2413055D01*
X284348Y-2413055D02*
X265301Y-2432103D01*
X265301Y-2432103D02*
X246253Y-2441627D01*
X446253Y-2565436D02*
X455777Y-2574960D01*
X455777Y-2574960D02*
X446253Y-2584484D01*
X446253Y-2584484D02*
X436729Y-2574960D01*
X436729Y-2574960D02*
X446253Y-2565436D01*
X446253Y-2565436D02*
X446253Y-2584484D01*
X646253Y-2584484D02*
X531967Y-2584484D01*
X589110Y-2584484D02*
X589110Y-2384484D01*
X589110Y-2384484D02*
X570063Y-2413055D01*
X570063Y-2413055D02*
X551015Y-2432103D01*
X551015Y-2432103D02*
X531967Y-2441627D01*
X827205Y-2384484D02*
X731967Y-2384484D01*
X731967Y-2384484D02*
X722443Y-2479722D01*
X722443Y-2479722D02*
X731967Y-2470198D01*
X731967Y-2470198D02*
X751015Y-2460674D01*
X751015Y-2460674D02*
X798634Y-2460674D01*
X798634Y-2460674D02*
X817682Y-2470198D01*
X817682Y-2470198D02*
X827205Y-2479722D01*
X827205Y-2479722D02*
X836729Y-2498770D01*
X836729Y-2498770D02*
X836729Y-2546389D01*
X836729Y-2546389D02*
X827205Y-2565436D01*
X827205Y-2565436D02*
X817682Y-2574960D01*
X817682Y-2574960D02*
X798634Y-2584484D01*
X798634Y-2584484D02*
X751015Y-2584484D01*
X751015Y-2584484D02*
X731967Y-2574960D01*
X731967Y-2574960D02*
X722443Y-2565436D01*
X960539Y-2384484D02*
X979586Y-2384484D01*
X979586Y-2384484D02*
X998634Y-2394008D01*
X998634Y-2394008D02*
X1008158Y-2403531D01*
X1008158Y-2403531D02*
X1017682Y-2422579D01*
X1017682Y-2422579D02*
X1027205Y-2460674D01*
X1027205Y-2460674D02*
X1027205Y-2508293D01*
X1027205Y-2508293D02*
X1017682Y-2546389D01*
X1017682Y-2546389D02*
X1008158Y-2565436D01*
X1008158Y-2565436D02*
X998634Y-2574960D01*
X998634Y-2574960D02*
X979586Y-2584484D01*
X979586Y-2584484D02*
X960539Y-2584484D01*
X960539Y-2584484D02*
X941491Y-2574960D01*
X941491Y-2574960D02*
X931967Y-2565436D01*
X931967Y-2565436D02*
X922443Y-2546389D01*
X922443Y-2546389D02*
X912920Y-2508293D01*
X912920Y-2508293D02*
X912920Y-2460674D01*
X912920Y-2460674D02*
X922443Y-2422579D01*
X922443Y-2422579D02*
X931967Y-2403531D01*
X931967Y-2403531D02*
X941491Y-2394008D01*
X941491Y-2394008D02*
X960539Y-2384484D01*
X1112920Y-2584484D02*
X1112920Y-2451150D01*
X1112920Y-2470198D02*
X1122444Y-2460674D01*
X1122444Y-2460674D02*
X1141491Y-2451150D01*
X1141491Y-2451150D02*
X1170063Y-2451150D01*
X1170063Y-2451150D02*
X1189110Y-2460674D01*
X1189110Y-2460674D02*
X1198634Y-2479722D01*
X1198634Y-2479722D02*
X1198634Y-2584484D01*
X1198634Y-2479722D02*
X1208158Y-2460674D01*
X1208158Y-2460674D02*
X1227205Y-2451150D01*
X1227205Y-2451150D02*
X1255777Y-2451150D01*
X1255777Y-2451150D02*
X1274825Y-2460674D01*
X1274825Y-2460674D02*
X1284348Y-2479722D01*
X1284348Y-2479722D02*
X1284348Y-2584484D01*
X1379586Y-2584484D02*
X1379586Y-2451150D01*
X1379586Y-2470198D02*
X1389110Y-2460674D01*
X1389110Y-2460674D02*
X1408158Y-2451150D01*
X1408158Y-2451150D02*
X1436729Y-2451150D01*
X1436729Y-2451150D02*
X1455777Y-2460674D01*
X1455777Y-2460674D02*
X1465301Y-2479722D01*
X1465301Y-2479722D02*
X1465301Y-2584484D01*
X1465301Y-2479722D02*
X1474824Y-2460674D01*
X1474824Y-2460674D02*
X1493872Y-2451150D01*
X1493872Y-2451150D02*
X1522443Y-2451150D01*
X1522443Y-2451150D02*
X1541491Y-2460674D01*
X1541491Y-2460674D02*
X1551015Y-2479722D01*
X1551015Y-2479722D02*
X1551015Y-2584484D01*
X1941491Y-2374960D02*
X1770063Y-2632103D01*
X2198634Y-2384484D02*
X2217682Y-2384484D01*
X2217682Y-2384484D02*
X2236729Y-2394008D01*
X2236729Y-2394008D02*
X2246253Y-2403531D01*
X2246253Y-2403531D02*
X2255777Y-2422579D01*
X2255777Y-2422579D02*
X2265301Y-2460674D01*
X2265301Y-2460674D02*
X2265301Y-2508293D01*
X2265301Y-2508293D02*
X2255777Y-2546389D01*
X2255777Y-2546389D02*
X2246253Y-2565436D01*
X2246253Y-2565436D02*
X2236729Y-2574960D01*
X2236729Y-2574960D02*
X2217682Y-2584484D01*
X2217682Y-2584484D02*
X2198634Y-2584484D01*
X2198634Y-2584484D02*
X2179587Y-2574960D01*
X2179587Y-2574960D02*
X2170063Y-2565436D01*
X2170063Y-2565436D02*
X2160539Y-2546389D01*
X2160539Y-2546389D02*
X2151015Y-2508293D01*
X2151015Y-2508293D02*
X2151015Y-2460674D01*
X2151015Y-2460674D02*
X2160539Y-2422579D01*
X2160539Y-2422579D02*
X2170063Y-2403531D01*
X2170063Y-2403531D02*
X2179587Y-2394008D01*
X2179587Y-2394008D02*
X2198634Y-2384484D01*
X2351015Y-2565436D02*
X2360539Y-2574960D01*
X2360539Y-2574960D02*
X2351015Y-2584484D01*
X2351015Y-2584484D02*
X2341491Y-2574960D01*
X2341491Y-2574960D02*
X2351015Y-2565436D01*
X2351015Y-2565436D02*
X2351015Y-2584484D01*
X2484348Y-2384484D02*
X2503396Y-2384484D01*
X2503396Y-2384484D02*
X2522444Y-2394008D01*
X2522444Y-2394008D02*
X2531968Y-2403531D01*
X2531968Y-2403531D02*
X2541491Y-2422579D01*
X2541491Y-2422579D02*
X2551015Y-2460674D01*
X2551015Y-2460674D02*
X2551015Y-2508293D01*
X2551015Y-2508293D02*
X2541491Y-2546389D01*
X2541491Y-2546389D02*
X2531968Y-2565436D01*
X2531968Y-2565436D02*
X2522444Y-2574960D01*
X2522444Y-2574960D02*
X2503396Y-2584484D01*
X2503396Y-2584484D02*
X2484348Y-2584484D01*
X2484348Y-2584484D02*
X2465301Y-2574960D01*
X2465301Y-2574960D02*
X2455777Y-2565436D01*
X2455777Y-2565436D02*
X2446253Y-2546389D01*
X2446253Y-2546389D02*
X2436729Y-2508293D01*
X2436729Y-2508293D02*
X2436729Y-2460674D01*
X2436729Y-2460674D02*
X2446253Y-2422579D01*
X2446253Y-2422579D02*
X2455777Y-2403531D01*
X2455777Y-2403531D02*
X2465301Y-2394008D01*
X2465301Y-2394008D02*
X2484348Y-2384484D01*
X2722444Y-2451150D02*
X2722444Y-2584484D01*
X2674825Y-2374960D02*
X2627206Y-2517817D01*
X2627206Y-2517817D02*
X2751015Y-2517817D01*
X2922444Y-2384484D02*
X2827206Y-2384484D01*
X2827206Y-2384484D02*
X2817682Y-2479722D01*
X2817682Y-2479722D02*
X2827206Y-2470198D01*
X2827206Y-2470198D02*
X2846253Y-2460674D01*
X2846253Y-2460674D02*
X2893872Y-2460674D01*
X2893872Y-2460674D02*
X2912920Y-2470198D01*
X2912920Y-2470198D02*
X2922444Y-2479722D01*
X2922444Y-2479722D02*
X2931967Y-2498770D01*
X2931967Y-2498770D02*
X2931967Y-2546389D01*
X2931967Y-2546389D02*
X2922444Y-2565436D01*
X2922444Y-2565436D02*
X2912920Y-2574960D01*
X2912920Y-2574960D02*
X2893872Y-2584484D01*
X2893872Y-2584484D02*
X2846253Y-2584484D01*
X2846253Y-2584484D02*
X2827206Y-2574960D01*
X2827206Y-2574960D02*
X2817682Y-2565436D01*
X2998634Y-2384484D02*
X3122444Y-2384484D01*
X3122444Y-2384484D02*
X3055777Y-2460674D01*
X3055777Y-2460674D02*
X3084348Y-2460674D01*
X3084348Y-2460674D02*
X3103396Y-2470198D01*
X3103396Y-2470198D02*
X3112920Y-2479722D01*
X3112920Y-2479722D02*
X3122444Y-2498770D01*
X3122444Y-2498770D02*
X3122444Y-2546389D01*
X3122444Y-2546389D02*
X3112920Y-2565436D01*
X3112920Y-2565436D02*
X3103396Y-2574960D01*
X3103396Y-2574960D02*
X3084348Y-2584484D01*
X3084348Y-2584484D02*
X3027206Y-2584484D01*
X3027206Y-2584484D02*
X3008158Y-2574960D01*
X3008158Y-2574960D02*
X2998634Y-2565436D01*
X3198634Y-2384484D02*
X3198634Y-2422579D01*
X3274825Y-2384484D02*
X3274825Y-2422579D01*
X3570063Y-2660674D02*
X3560539Y-2651150D01*
X3560539Y-2651150D02*
X3541491Y-2622579D01*
X3541491Y-2622579D02*
X3531968Y-2603531D01*
X3531968Y-2603531D02*
X3522444Y-2574960D01*
X3522444Y-2574960D02*
X3512920Y-2527341D01*
X3512920Y-2527341D02*
X3512920Y-2489246D01*
X3512920Y-2489246D02*
X3522444Y-2441627D01*
X3522444Y-2441627D02*
X3531968Y-2413055D01*
X3531968Y-2413055D02*
X3541491Y-2394008D01*
X3541491Y-2394008D02*
X3560539Y-2365436D01*
X3560539Y-2365436D02*
X3570063Y-2355912D01*
X3751015Y-2584484D02*
X3636729Y-2584484D01*
X3693872Y-2584484D02*
X3693872Y-2384484D01*
X3693872Y-2384484D02*
X3674825Y-2413055D01*
X3674825Y-2413055D02*
X3655777Y-2432103D01*
X3655777Y-2432103D02*
X3636729Y-2441627D01*
X3922444Y-2384484D02*
X3884348Y-2384484D01*
X3884348Y-2384484D02*
X3865301Y-2394008D01*
X3865301Y-2394008D02*
X3855777Y-2403531D01*
X3855777Y-2403531D02*
X3836729Y-2432103D01*
X3836729Y-2432103D02*
X3827206Y-2470198D01*
X3827206Y-2470198D02*
X3827206Y-2546389D01*
X3827206Y-2546389D02*
X3836729Y-2565436D01*
X3836729Y-2565436D02*
X3846253Y-2574960D01*
X3846253Y-2574960D02*
X3865301Y-2584484D01*
X3865301Y-2584484D02*
X3903396Y-2584484D01*
X3903396Y-2584484D02*
X3922444Y-2574960D01*
X3922444Y-2574960D02*
X3931968Y-2565436D01*
X3931968Y-2565436D02*
X3941491Y-2546389D01*
X3941491Y-2546389D02*
X3941491Y-2498770D01*
X3941491Y-2498770D02*
X3931968Y-2479722D01*
X3931968Y-2479722D02*
X3922444Y-2470198D01*
X3922444Y-2470198D02*
X3903396Y-2460674D01*
X3903396Y-2460674D02*
X3865301Y-2460674D01*
X3865301Y-2460674D02*
X3846253Y-2470198D01*
X3846253Y-2470198D02*
X3836729Y-2479722D01*
X3836729Y-2479722D02*
X3827206Y-2498770D01*
X4179587Y-2584484D02*
X4179587Y-2384484D01*
X4265301Y-2584484D02*
X4265301Y-2479722D01*
X4265301Y-2479722D02*
X4255777Y-2460674D01*
X4255777Y-2460674D02*
X4236730Y-2451150D01*
X4236730Y-2451150D02*
X4208158Y-2451150D01*
X4208158Y-2451150D02*
X4189110Y-2460674D01*
X4189110Y-2460674D02*
X4179587Y-2470198D01*
X4389111Y-2584484D02*
X4370063Y-2574960D01*
X4370063Y-2574960D02*
X4360539Y-2565436D01*
X4360539Y-2565436D02*
X4351015Y-2546389D01*
X4351015Y-2546389D02*
X4351015Y-2489246D01*
X4351015Y-2489246D02*
X4360539Y-2470198D01*
X4360539Y-2470198D02*
X4370063Y-2460674D01*
X4370063Y-2460674D02*
X4389111Y-2451150D01*
X4389111Y-2451150D02*
X4417682Y-2451150D01*
X4417682Y-2451150D02*
X4436730Y-2460674D01*
X4436730Y-2460674D02*
X4446253Y-2470198D01*
X4446253Y-2470198D02*
X4455777Y-2489246D01*
X4455777Y-2489246D02*
X4455777Y-2546389D01*
X4455777Y-2546389D02*
X4446253Y-2565436D01*
X4446253Y-2565436D02*
X4436730Y-2574960D01*
X4436730Y-2574960D02*
X4417682Y-2584484D01*
X4417682Y-2584484D02*
X4389111Y-2584484D01*
X4570063Y-2584484D02*
X4551015Y-2574960D01*
X4551015Y-2574960D02*
X4541492Y-2555912D01*
X4541492Y-2555912D02*
X4541492Y-2384484D01*
X4722444Y-2574960D02*
X4703396Y-2584484D01*
X4703396Y-2584484D02*
X4665301Y-2584484D01*
X4665301Y-2584484D02*
X4646253Y-2574960D01*
X4646253Y-2574960D02*
X4636730Y-2555912D01*
X4636730Y-2555912D02*
X4636730Y-2479722D01*
X4636730Y-2479722D02*
X4646253Y-2460674D01*
X4646253Y-2460674D02*
X4665301Y-2451150D01*
X4665301Y-2451150D02*
X4703396Y-2451150D01*
X4703396Y-2451150D02*
X4722444Y-2460674D01*
X4722444Y-2460674D02*
X4731968Y-2479722D01*
X4731968Y-2479722D02*
X4731968Y-2498770D01*
X4731968Y-2498770D02*
X4636730Y-2517817D01*
X4808158Y-2574960D02*
X4827206Y-2584484D01*
X4827206Y-2584484D02*
X4865301Y-2584484D01*
X4865301Y-2584484D02*
X4884349Y-2574960D01*
X4884349Y-2574960D02*
X4893873Y-2555912D01*
X4893873Y-2555912D02*
X4893873Y-2546389D01*
X4893873Y-2546389D02*
X4884349Y-2527341D01*
X4884349Y-2527341D02*
X4865301Y-2517817D01*
X4865301Y-2517817D02*
X4836730Y-2517817D01*
X4836730Y-2517817D02*
X4817682Y-2508293D01*
X4817682Y-2508293D02*
X4808158Y-2489246D01*
X4808158Y-2489246D02*
X4808158Y-2479722D01*
X4808158Y-2479722D02*
X4817682Y-2460674D01*
X4817682Y-2460674D02*
X4836730Y-2451150D01*
X4836730Y-2451150D02*
X4865301Y-2451150D01*
X4865301Y-2451150D02*
X4884349Y-2460674D01*
X4960539Y-2660674D02*
X4970063Y-2651150D01*
X4970063Y-2651150D02*
X4989111Y-2622579D01*
X4989111Y-2622579D02*
X4998634Y-2603531D01*
X4998634Y-2603531D02*
X5008158Y-2574960D01*
X5008158Y-2574960D02*
X5017682Y-2527341D01*
X5017682Y-2527341D02*
X5017682Y-2489246D01*
X5017682Y-2489246D02*
X5008158Y-2441627D01*
X5008158Y-2441627D02*
X4998634Y-2413055D01*
X4998634Y-2413055D02*
X4989111Y-2394008D01*
X4989111Y-2394008D02*
X4970063Y-2365436D01*
X4970063Y-2365436D02*
X4960539Y-2355912D01*
D13*
X-135000Y-2692000D02*
X-5000Y-2822000D01*
X-5000Y-2692000D02*
X-135000Y-2822000D01*
X-70000Y-2822000D02*
X-5000Y-2757000D01*
X-70000Y-2692000D01*
X-135000Y-2757000D01*
X-70000Y-2822000D01*
D11*
X360539Y-2848484D02*
X246253Y-2848484D01*
X303396Y-2848484D02*
X303396Y-2648484D01*
X303396Y-2648484D02*
X284348Y-2677055D01*
X284348Y-2677055D02*
X265301Y-2696103D01*
X265301Y-2696103D02*
X246253Y-2705627D01*
X446253Y-2829436D02*
X455777Y-2838960D01*
X455777Y-2838960D02*
X446253Y-2848484D01*
X446253Y-2848484D02*
X436729Y-2838960D01*
X436729Y-2838960D02*
X446253Y-2829436D01*
X446253Y-2829436D02*
X446253Y-2848484D01*
X522443Y-2648484D02*
X646253Y-2648484D01*
X646253Y-2648484D02*
X579586Y-2724674D01*
X579586Y-2724674D02*
X608158Y-2724674D01*
X608158Y-2724674D02*
X627205Y-2734198D01*
X627205Y-2734198D02*
X636729Y-2743722D01*
X636729Y-2743722D02*
X646253Y-2762770D01*
X646253Y-2762770D02*
X646253Y-2810388D01*
X646253Y-2810388D02*
X636729Y-2829436D01*
X636729Y-2829436D02*
X627205Y-2838960D01*
X627205Y-2838960D02*
X608158Y-2848484D01*
X608158Y-2848484D02*
X551015Y-2848484D01*
X551015Y-2848484D02*
X531967Y-2838960D01*
X531967Y-2838960D02*
X522443Y-2829436D01*
X770062Y-2648484D02*
X789110Y-2648484D01*
X789110Y-2648484D02*
X808158Y-2658008D01*
X808158Y-2658008D02*
X817682Y-2667531D01*
X817682Y-2667531D02*
X827205Y-2686579D01*
X827205Y-2686579D02*
X836729Y-2724674D01*
X836729Y-2724674D02*
X836729Y-2772293D01*
X836729Y-2772293D02*
X827205Y-2810388D01*
X827205Y-2810388D02*
X817682Y-2829436D01*
X817682Y-2829436D02*
X808158Y-2838960D01*
X808158Y-2838960D02*
X789110Y-2848484D01*
X789110Y-2848484D02*
X770062Y-2848484D01*
X770062Y-2848484D02*
X751015Y-2838960D01*
X751015Y-2838960D02*
X741491Y-2829436D01*
X741491Y-2829436D02*
X731967Y-2810388D01*
X731967Y-2810388D02*
X722443Y-2772293D01*
X722443Y-2772293D02*
X722443Y-2724674D01*
X722443Y-2724674D02*
X731967Y-2686579D01*
X731967Y-2686579D02*
X741491Y-2667531D01*
X741491Y-2667531D02*
X751015Y-2658008D01*
X751015Y-2658008D02*
X770062Y-2648484D01*
X960539Y-2648484D02*
X979586Y-2648484D01*
X979586Y-2648484D02*
X998634Y-2658008D01*
X998634Y-2658008D02*
X1008158Y-2667531D01*
X1008158Y-2667531D02*
X1017682Y-2686579D01*
X1017682Y-2686579D02*
X1027205Y-2724674D01*
X1027205Y-2724674D02*
X1027205Y-2772293D01*
X1027205Y-2772293D02*
X1017682Y-2810388D01*
X1017682Y-2810388D02*
X1008158Y-2829436D01*
X1008158Y-2829436D02*
X998634Y-2838960D01*
X998634Y-2838960D02*
X979586Y-2848484D01*
X979586Y-2848484D02*
X960539Y-2848484D01*
X960539Y-2848484D02*
X941491Y-2838960D01*
X941491Y-2838960D02*
X931967Y-2829436D01*
X931967Y-2829436D02*
X922443Y-2810388D01*
X922443Y-2810388D02*
X912920Y-2772293D01*
X912920Y-2772293D02*
X912920Y-2724674D01*
X912920Y-2724674D02*
X922443Y-2686579D01*
X922443Y-2686579D02*
X931967Y-2667531D01*
X931967Y-2667531D02*
X941491Y-2658008D01*
X941491Y-2658008D02*
X960539Y-2648484D01*
X1112920Y-2848484D02*
X1112920Y-2715150D01*
X1112920Y-2734198D02*
X1122444Y-2724674D01*
X1122444Y-2724674D02*
X1141491Y-2715150D01*
X1141491Y-2715150D02*
X1170063Y-2715150D01*
X1170063Y-2715150D02*
X1189110Y-2724674D01*
X1189110Y-2724674D02*
X1198634Y-2743722D01*
X1198634Y-2743722D02*
X1198634Y-2848484D01*
X1198634Y-2743722D02*
X1208158Y-2724674D01*
X1208158Y-2724674D02*
X1227205Y-2715150D01*
X1227205Y-2715150D02*
X1255777Y-2715150D01*
X1255777Y-2715150D02*
X1274825Y-2724674D01*
X1274825Y-2724674D02*
X1284348Y-2743722D01*
X1284348Y-2743722D02*
X1284348Y-2848484D01*
X1379586Y-2848484D02*
X1379586Y-2715150D01*
X1379586Y-2734198D02*
X1389110Y-2724674D01*
X1389110Y-2724674D02*
X1408158Y-2715150D01*
X1408158Y-2715150D02*
X1436729Y-2715150D01*
X1436729Y-2715150D02*
X1455777Y-2724674D01*
X1455777Y-2724674D02*
X1465301Y-2743722D01*
X1465301Y-2743722D02*
X1465301Y-2848484D01*
X1465301Y-2743722D02*
X1474824Y-2724674D01*
X1474824Y-2724674D02*
X1493872Y-2715150D01*
X1493872Y-2715150D02*
X1522443Y-2715150D01*
X1522443Y-2715150D02*
X1541491Y-2724674D01*
X1541491Y-2724674D02*
X1551015Y-2743722D01*
X1551015Y-2743722D02*
X1551015Y-2848484D01*
X1941491Y-2638960D02*
X1770063Y-2896103D01*
X2198634Y-2648484D02*
X2217682Y-2648484D01*
X2217682Y-2648484D02*
X2236729Y-2658008D01*
X2236729Y-2658008D02*
X2246253Y-2667531D01*
X2246253Y-2667531D02*
X2255777Y-2686579D01*
X2255777Y-2686579D02*
X2265301Y-2724674D01*
X2265301Y-2724674D02*
X2265301Y-2772293D01*
X2265301Y-2772293D02*
X2255777Y-2810388D01*
X2255777Y-2810388D02*
X2246253Y-2829436D01*
X2246253Y-2829436D02*
X2236729Y-2838960D01*
X2236729Y-2838960D02*
X2217682Y-2848484D01*
X2217682Y-2848484D02*
X2198634Y-2848484D01*
X2198634Y-2848484D02*
X2179587Y-2838960D01*
X2179587Y-2838960D02*
X2170063Y-2829436D01*
X2170063Y-2829436D02*
X2160539Y-2810388D01*
X2160539Y-2810388D02*
X2151015Y-2772293D01*
X2151015Y-2772293D02*
X2151015Y-2724674D01*
X2151015Y-2724674D02*
X2160539Y-2686579D01*
X2160539Y-2686579D02*
X2170063Y-2667531D01*
X2170063Y-2667531D02*
X2179587Y-2658008D01*
X2179587Y-2658008D02*
X2198634Y-2648484D01*
X2351015Y-2829436D02*
X2360539Y-2838960D01*
X2360539Y-2838960D02*
X2351015Y-2848484D01*
X2351015Y-2848484D02*
X2341491Y-2838960D01*
X2341491Y-2838960D02*
X2351015Y-2829436D01*
X2351015Y-2829436D02*
X2351015Y-2848484D01*
X2484348Y-2648484D02*
X2503396Y-2648484D01*
X2503396Y-2648484D02*
X2522444Y-2658008D01*
X2522444Y-2658008D02*
X2531968Y-2667531D01*
X2531968Y-2667531D02*
X2541491Y-2686579D01*
X2541491Y-2686579D02*
X2551015Y-2724674D01*
X2551015Y-2724674D02*
X2551015Y-2772293D01*
X2551015Y-2772293D02*
X2541491Y-2810388D01*
X2541491Y-2810388D02*
X2531968Y-2829436D01*
X2531968Y-2829436D02*
X2522444Y-2838960D01*
X2522444Y-2838960D02*
X2503396Y-2848484D01*
X2503396Y-2848484D02*
X2484348Y-2848484D01*
X2484348Y-2848484D02*
X2465301Y-2838960D01*
X2465301Y-2838960D02*
X2455777Y-2829436D01*
X2455777Y-2829436D02*
X2446253Y-2810388D01*
X2446253Y-2810388D02*
X2436729Y-2772293D01*
X2436729Y-2772293D02*
X2436729Y-2724674D01*
X2436729Y-2724674D02*
X2446253Y-2686579D01*
X2446253Y-2686579D02*
X2455777Y-2667531D01*
X2455777Y-2667531D02*
X2465301Y-2658008D01*
X2465301Y-2658008D02*
X2484348Y-2648484D01*
X2731968Y-2648484D02*
X2636729Y-2648484D01*
X2636729Y-2648484D02*
X2627206Y-2743722D01*
X2627206Y-2743722D02*
X2636729Y-2734198D01*
X2636729Y-2734198D02*
X2655777Y-2724674D01*
X2655777Y-2724674D02*
X2703396Y-2724674D01*
X2703396Y-2724674D02*
X2722444Y-2734198D01*
X2722444Y-2734198D02*
X2731968Y-2743722D01*
X2731968Y-2743722D02*
X2741491Y-2762770D01*
X2741491Y-2762770D02*
X2741491Y-2810388D01*
X2741491Y-2810388D02*
X2731968Y-2829436D01*
X2731968Y-2829436D02*
X2722444Y-2838960D01*
X2722444Y-2838960D02*
X2703396Y-2848484D01*
X2703396Y-2848484D02*
X2655777Y-2848484D01*
X2655777Y-2848484D02*
X2636729Y-2838960D01*
X2636729Y-2838960D02*
X2627206Y-2829436D01*
X2931967Y-2848484D02*
X2817682Y-2848484D01*
X2874825Y-2848484D02*
X2874825Y-2648484D01*
X2874825Y-2648484D02*
X2855777Y-2677055D01*
X2855777Y-2677055D02*
X2836729Y-2696103D01*
X2836729Y-2696103D02*
X2817682Y-2705627D01*
X3008158Y-2667531D02*
X3017682Y-2658008D01*
X3017682Y-2658008D02*
X3036729Y-2648484D01*
X3036729Y-2648484D02*
X3084348Y-2648484D01*
X3084348Y-2648484D02*
X3103396Y-2658008D01*
X3103396Y-2658008D02*
X3112920Y-2667531D01*
X3112920Y-2667531D02*
X3122444Y-2686579D01*
X3122444Y-2686579D02*
X3122444Y-2705627D01*
X3122444Y-2705627D02*
X3112920Y-2734198D01*
X3112920Y-2734198D02*
X2998634Y-2848484D01*
X2998634Y-2848484D02*
X3122444Y-2848484D01*
X3198634Y-2648484D02*
X3198634Y-2686579D01*
X3274825Y-2648484D02*
X3274825Y-2686579D01*
X3570063Y-2924674D02*
X3560539Y-2915150D01*
X3560539Y-2915150D02*
X3541491Y-2886579D01*
X3541491Y-2886579D02*
X3531968Y-2867531D01*
X3531968Y-2867531D02*
X3522444Y-2838960D01*
X3522444Y-2838960D02*
X3512920Y-2791341D01*
X3512920Y-2791341D02*
X3512920Y-2753246D01*
X3512920Y-2753246D02*
X3522444Y-2705627D01*
X3522444Y-2705627D02*
X3531968Y-2677055D01*
X3531968Y-2677055D02*
X3541491Y-2658008D01*
X3541491Y-2658008D02*
X3560539Y-2629436D01*
X3560539Y-2629436D02*
X3570063Y-2619912D01*
X3741491Y-2648484D02*
X3646253Y-2648484D01*
X3646253Y-2648484D02*
X3636729Y-2743722D01*
X3636729Y-2743722D02*
X3646253Y-2734198D01*
X3646253Y-2734198D02*
X3665301Y-2724674D01*
X3665301Y-2724674D02*
X3712920Y-2724674D01*
X3712920Y-2724674D02*
X3731968Y-2734198D01*
X3731968Y-2734198D02*
X3741491Y-2743722D01*
X3741491Y-2743722D02*
X3751015Y-2762770D01*
X3751015Y-2762770D02*
X3751015Y-2810388D01*
X3751015Y-2810388D02*
X3741491Y-2829436D01*
X3741491Y-2829436D02*
X3731968Y-2838960D01*
X3731968Y-2838960D02*
X3712920Y-2848484D01*
X3712920Y-2848484D02*
X3665301Y-2848484D01*
X3665301Y-2848484D02*
X3646253Y-2838960D01*
X3646253Y-2838960D02*
X3636729Y-2829436D01*
X3989110Y-2848484D02*
X3989110Y-2648484D01*
X4074825Y-2848484D02*
X4074825Y-2743722D01*
X4074825Y-2743722D02*
X4065301Y-2724674D01*
X4065301Y-2724674D02*
X4046253Y-2715150D01*
X4046253Y-2715150D02*
X4017682Y-2715150D01*
X4017682Y-2715150D02*
X3998634Y-2724674D01*
X3998634Y-2724674D02*
X3989110Y-2734198D01*
X4198634Y-2848484D02*
X4179587Y-2838960D01*
X4179587Y-2838960D02*
X4170063Y-2829436D01*
X4170063Y-2829436D02*
X4160539Y-2810388D01*
X4160539Y-2810388D02*
X4160539Y-2753246D01*
X4160539Y-2753246D02*
X4170063Y-2734198D01*
X4170063Y-2734198D02*
X4179587Y-2724674D01*
X4179587Y-2724674D02*
X4198634Y-2715150D01*
X4198634Y-2715150D02*
X4227206Y-2715150D01*
X4227206Y-2715150D02*
X4246253Y-2724674D01*
X4246253Y-2724674D02*
X4255777Y-2734198D01*
X4255777Y-2734198D02*
X4265301Y-2753246D01*
X4265301Y-2753246D02*
X4265301Y-2810388D01*
X4265301Y-2810388D02*
X4255777Y-2829436D01*
X4255777Y-2829436D02*
X4246253Y-2838960D01*
X4246253Y-2838960D02*
X4227206Y-2848484D01*
X4227206Y-2848484D02*
X4198634Y-2848484D01*
X4379587Y-2848484D02*
X4360539Y-2838960D01*
X4360539Y-2838960D02*
X4351015Y-2819912D01*
X4351015Y-2819912D02*
X4351015Y-2648484D01*
X4531968Y-2838960D02*
X4512920Y-2848484D01*
X4512920Y-2848484D02*
X4474825Y-2848484D01*
X4474825Y-2848484D02*
X4455777Y-2838960D01*
X4455777Y-2838960D02*
X4446253Y-2819912D01*
X4446253Y-2819912D02*
X4446253Y-2743722D01*
X4446253Y-2743722D02*
X4455777Y-2724674D01*
X4455777Y-2724674D02*
X4474825Y-2715150D01*
X4474825Y-2715150D02*
X4512920Y-2715150D01*
X4512920Y-2715150D02*
X4531968Y-2724674D01*
X4531968Y-2724674D02*
X4541492Y-2743722D01*
X4541492Y-2743722D02*
X4541492Y-2762770D01*
X4541492Y-2762770D02*
X4446253Y-2781817D01*
X4617682Y-2838960D02*
X4636730Y-2848484D01*
X4636730Y-2848484D02*
X4674825Y-2848484D01*
X4674825Y-2848484D02*
X4693873Y-2838960D01*
X4693873Y-2838960D02*
X4703396Y-2819912D01*
X4703396Y-2819912D02*
X4703396Y-2810388D01*
X4703396Y-2810388D02*
X4693873Y-2791341D01*
X4693873Y-2791341D02*
X4674825Y-2781817D01*
X4674825Y-2781817D02*
X4646253Y-2781817D01*
X4646253Y-2781817D02*
X4627206Y-2772293D01*
X4627206Y-2772293D02*
X4617682Y-2753246D01*
X4617682Y-2753246D02*
X4617682Y-2743722D01*
X4617682Y-2743722D02*
X4627206Y-2724674D01*
X4627206Y-2724674D02*
X4646253Y-2715150D01*
X4646253Y-2715150D02*
X4674825Y-2715150D01*
X4674825Y-2715150D02*
X4693873Y-2724674D01*
X4770063Y-2924674D02*
X4779587Y-2915150D01*
X4779587Y-2915150D02*
X4798634Y-2886579D01*
X4798634Y-2886579D02*
X4808158Y-2867531D01*
X4808158Y-2867531D02*
X4817682Y-2838960D01*
X4817682Y-2838960D02*
X4827206Y-2791341D01*
X4827206Y-2791341D02*
X4827206Y-2753246D01*
X4827206Y-2753246D02*
X4817682Y-2705627D01*
X4817682Y-2705627D02*
X4808158Y-2677055D01*
X4808158Y-2677055D02*
X4798634Y-2658008D01*
X4798634Y-2658008D02*
X4779587Y-2629436D01*
X4779587Y-2629436D02*
X4770063Y-2619912D01*
D14*
X-72500Y-2953500D02*
X-72500Y-3088500D01*
X-140000Y-3021000D02*
X-5000Y-3021000D01*
X-5000Y-3021000D02*
G75*
G02*
X-140000Y-3021000I-67500J0D01*
G01*
X-140000Y-3021000D02*
G75*
G02*
X-5000Y-3021000I67500J0D01*
G01*
D11*
X360539Y-3112484D02*
X246253Y-3112484D01*
X303396Y-3112484D02*
X303396Y-2912484D01*
X303396Y-2912484D02*
X284348Y-2941055D01*
X284348Y-2941055D02*
X265301Y-2960103D01*
X265301Y-2960103D02*
X246253Y-2969627D01*
X446253Y-3093436D02*
X455777Y-3102960D01*
X455777Y-3102960D02*
X446253Y-3112484D01*
X446253Y-3112484D02*
X436729Y-3102960D01*
X436729Y-3102960D02*
X446253Y-3093436D01*
X446253Y-3093436D02*
X446253Y-3112484D01*
X522443Y-2912484D02*
X646253Y-2912484D01*
X646253Y-2912484D02*
X579586Y-2988674D01*
X579586Y-2988674D02*
X608158Y-2988674D01*
X608158Y-2988674D02*
X627205Y-2998198D01*
X627205Y-2998198D02*
X636729Y-3007722D01*
X636729Y-3007722D02*
X646253Y-3026769D01*
X646253Y-3026769D02*
X646253Y-3074388D01*
X646253Y-3074388D02*
X636729Y-3093436D01*
X636729Y-3093436D02*
X627205Y-3102960D01*
X627205Y-3102960D02*
X608158Y-3112484D01*
X608158Y-3112484D02*
X551015Y-3112484D01*
X551015Y-3112484D02*
X531967Y-3102960D01*
X531967Y-3102960D02*
X522443Y-3093436D01*
X827205Y-2912484D02*
X731967Y-2912484D01*
X731967Y-2912484D02*
X722443Y-3007722D01*
X722443Y-3007722D02*
X731967Y-2998198D01*
X731967Y-2998198D02*
X751015Y-2988674D01*
X751015Y-2988674D02*
X798634Y-2988674D01*
X798634Y-2988674D02*
X817682Y-2998198D01*
X817682Y-2998198D02*
X827205Y-3007722D01*
X827205Y-3007722D02*
X836729Y-3026769D01*
X836729Y-3026769D02*
X836729Y-3074388D01*
X836729Y-3074388D02*
X827205Y-3093436D01*
X827205Y-3093436D02*
X817682Y-3102960D01*
X817682Y-3102960D02*
X798634Y-3112484D01*
X798634Y-3112484D02*
X751015Y-3112484D01*
X751015Y-3112484D02*
X731967Y-3102960D01*
X731967Y-3102960D02*
X722443Y-3093436D01*
X960539Y-2912484D02*
X979586Y-2912484D01*
X979586Y-2912484D02*
X998634Y-2922008D01*
X998634Y-2922008D02*
X1008158Y-2931531D01*
X1008158Y-2931531D02*
X1017682Y-2950579D01*
X1017682Y-2950579D02*
X1027205Y-2988674D01*
X1027205Y-2988674D02*
X1027205Y-3036293D01*
X1027205Y-3036293D02*
X1017682Y-3074388D01*
X1017682Y-3074388D02*
X1008158Y-3093436D01*
X1008158Y-3093436D02*
X998634Y-3102960D01*
X998634Y-3102960D02*
X979586Y-3112484D01*
X979586Y-3112484D02*
X960539Y-3112484D01*
X960539Y-3112484D02*
X941491Y-3102960D01*
X941491Y-3102960D02*
X931967Y-3093436D01*
X931967Y-3093436D02*
X922443Y-3074388D01*
X922443Y-3074388D02*
X912920Y-3036293D01*
X912920Y-3036293D02*
X912920Y-2988674D01*
X912920Y-2988674D02*
X922443Y-2950579D01*
X922443Y-2950579D02*
X931967Y-2931531D01*
X931967Y-2931531D02*
X941491Y-2922008D01*
X941491Y-2922008D02*
X960539Y-2912484D01*
X1112920Y-3112484D02*
X1112920Y-2979150D01*
X1112920Y-2998198D02*
X1122444Y-2988674D01*
X1122444Y-2988674D02*
X1141491Y-2979150D01*
X1141491Y-2979150D02*
X1170063Y-2979150D01*
X1170063Y-2979150D02*
X1189110Y-2988674D01*
X1189110Y-2988674D02*
X1198634Y-3007722D01*
X1198634Y-3007722D02*
X1198634Y-3112484D01*
X1198634Y-3007722D02*
X1208158Y-2988674D01*
X1208158Y-2988674D02*
X1227205Y-2979150D01*
X1227205Y-2979150D02*
X1255777Y-2979150D01*
X1255777Y-2979150D02*
X1274825Y-2988674D01*
X1274825Y-2988674D02*
X1284348Y-3007722D01*
X1284348Y-3007722D02*
X1284348Y-3112484D01*
X1379586Y-3112484D02*
X1379586Y-2979150D01*
X1379586Y-2998198D02*
X1389110Y-2988674D01*
X1389110Y-2988674D02*
X1408158Y-2979150D01*
X1408158Y-2979150D02*
X1436729Y-2979150D01*
X1436729Y-2979150D02*
X1455777Y-2988674D01*
X1455777Y-2988674D02*
X1465301Y-3007722D01*
X1465301Y-3007722D02*
X1465301Y-3112484D01*
X1465301Y-3007722D02*
X1474824Y-2988674D01*
X1474824Y-2988674D02*
X1493872Y-2979150D01*
X1493872Y-2979150D02*
X1522443Y-2979150D01*
X1522443Y-2979150D02*
X1541491Y-2988674D01*
X1541491Y-2988674D02*
X1551015Y-3007722D01*
X1551015Y-3007722D02*
X1551015Y-3112484D01*
X1941491Y-2902960D02*
X1770063Y-3160103D01*
X2198634Y-2912484D02*
X2217682Y-2912484D01*
X2217682Y-2912484D02*
X2236729Y-2922008D01*
X2236729Y-2922008D02*
X2246253Y-2931531D01*
X2246253Y-2931531D02*
X2255777Y-2950579D01*
X2255777Y-2950579D02*
X2265301Y-2988674D01*
X2265301Y-2988674D02*
X2265301Y-3036293D01*
X2265301Y-3036293D02*
X2255777Y-3074388D01*
X2255777Y-3074388D02*
X2246253Y-3093436D01*
X2246253Y-3093436D02*
X2236729Y-3102960D01*
X2236729Y-3102960D02*
X2217682Y-3112484D01*
X2217682Y-3112484D02*
X2198634Y-3112484D01*
X2198634Y-3112484D02*
X2179587Y-3102960D01*
X2179587Y-3102960D02*
X2170063Y-3093436D01*
X2170063Y-3093436D02*
X2160539Y-3074388D01*
X2160539Y-3074388D02*
X2151015Y-3036293D01*
X2151015Y-3036293D02*
X2151015Y-2988674D01*
X2151015Y-2988674D02*
X2160539Y-2950579D01*
X2160539Y-2950579D02*
X2170063Y-2931531D01*
X2170063Y-2931531D02*
X2179587Y-2922008D01*
X2179587Y-2922008D02*
X2198634Y-2912484D01*
X2351015Y-3093436D02*
X2360539Y-3102960D01*
X2360539Y-3102960D02*
X2351015Y-3112484D01*
X2351015Y-3112484D02*
X2341491Y-3102960D01*
X2341491Y-3102960D02*
X2351015Y-3093436D01*
X2351015Y-3093436D02*
X2351015Y-3112484D01*
X2484348Y-2912484D02*
X2503396Y-2912484D01*
X2503396Y-2912484D02*
X2522444Y-2922008D01*
X2522444Y-2922008D02*
X2531968Y-2931531D01*
X2531968Y-2931531D02*
X2541491Y-2950579D01*
X2541491Y-2950579D02*
X2551015Y-2988674D01*
X2551015Y-2988674D02*
X2551015Y-3036293D01*
X2551015Y-3036293D02*
X2541491Y-3074388D01*
X2541491Y-3074388D02*
X2531968Y-3093436D01*
X2531968Y-3093436D02*
X2522444Y-3102960D01*
X2522444Y-3102960D02*
X2503396Y-3112484D01*
X2503396Y-3112484D02*
X2484348Y-3112484D01*
X2484348Y-3112484D02*
X2465301Y-3102960D01*
X2465301Y-3102960D02*
X2455777Y-3093436D01*
X2455777Y-3093436D02*
X2446253Y-3074388D01*
X2446253Y-3074388D02*
X2436729Y-3036293D01*
X2436729Y-3036293D02*
X2436729Y-2988674D01*
X2436729Y-2988674D02*
X2446253Y-2950579D01*
X2446253Y-2950579D02*
X2455777Y-2931531D01*
X2455777Y-2931531D02*
X2465301Y-2922008D01*
X2465301Y-2922008D02*
X2484348Y-2912484D01*
X2731968Y-2912484D02*
X2636729Y-2912484D01*
X2636729Y-2912484D02*
X2627206Y-3007722D01*
X2627206Y-3007722D02*
X2636729Y-2998198D01*
X2636729Y-2998198D02*
X2655777Y-2988674D01*
X2655777Y-2988674D02*
X2703396Y-2988674D01*
X2703396Y-2988674D02*
X2722444Y-2998198D01*
X2722444Y-2998198D02*
X2731968Y-3007722D01*
X2731968Y-3007722D02*
X2741491Y-3026769D01*
X2741491Y-3026769D02*
X2741491Y-3074388D01*
X2741491Y-3074388D02*
X2731968Y-3093436D01*
X2731968Y-3093436D02*
X2722444Y-3102960D01*
X2722444Y-3102960D02*
X2703396Y-3112484D01*
X2703396Y-3112484D02*
X2655777Y-3112484D01*
X2655777Y-3112484D02*
X2636729Y-3102960D01*
X2636729Y-3102960D02*
X2627206Y-3093436D01*
X2808158Y-2912484D02*
X2931967Y-2912484D01*
X2931967Y-2912484D02*
X2865301Y-2988674D01*
X2865301Y-2988674D02*
X2893872Y-2988674D01*
X2893872Y-2988674D02*
X2912920Y-2998198D01*
X2912920Y-2998198D02*
X2922444Y-3007722D01*
X2922444Y-3007722D02*
X2931967Y-3026769D01*
X2931967Y-3026769D02*
X2931967Y-3074388D01*
X2931967Y-3074388D02*
X2922444Y-3093436D01*
X2922444Y-3093436D02*
X2912920Y-3102960D01*
X2912920Y-3102960D02*
X2893872Y-3112484D01*
X2893872Y-3112484D02*
X2836729Y-3112484D01*
X2836729Y-3112484D02*
X2817682Y-3102960D01*
X2817682Y-3102960D02*
X2808158Y-3093436D01*
X3122444Y-3112484D02*
X3008158Y-3112484D01*
X3065301Y-3112484D02*
X3065301Y-2912484D01*
X3065301Y-2912484D02*
X3046253Y-2941055D01*
X3046253Y-2941055D02*
X3027206Y-2960103D01*
X3027206Y-2960103D02*
X3008158Y-2969627D01*
X3198634Y-2912484D02*
X3198634Y-2950579D01*
X3274825Y-2912484D02*
X3274825Y-2950579D01*
X3570063Y-3188674D02*
X3560539Y-3179150D01*
X3560539Y-3179150D02*
X3541491Y-3150579D01*
X3541491Y-3150579D02*
X3531968Y-3131531D01*
X3531968Y-3131531D02*
X3522444Y-3102960D01*
X3522444Y-3102960D02*
X3512920Y-3055341D01*
X3512920Y-3055341D02*
X3512920Y-3017246D01*
X3512920Y-3017246D02*
X3522444Y-2969627D01*
X3522444Y-2969627D02*
X3531968Y-2941055D01*
X3531968Y-2941055D02*
X3541491Y-2922008D01*
X3541491Y-2922008D02*
X3560539Y-2893436D01*
X3560539Y-2893436D02*
X3570063Y-2883912D01*
X3636729Y-2931531D02*
X3646253Y-2922008D01*
X3646253Y-2922008D02*
X3665301Y-2912484D01*
X3665301Y-2912484D02*
X3712920Y-2912484D01*
X3712920Y-2912484D02*
X3731968Y-2922008D01*
X3731968Y-2922008D02*
X3741491Y-2931531D01*
X3741491Y-2931531D02*
X3751015Y-2950579D01*
X3751015Y-2950579D02*
X3751015Y-2969627D01*
X3751015Y-2969627D02*
X3741491Y-2998198D01*
X3741491Y-2998198D02*
X3627206Y-3112484D01*
X3627206Y-3112484D02*
X3751015Y-3112484D01*
X3989110Y-3112484D02*
X3989110Y-2912484D01*
X4074825Y-3112484D02*
X4074825Y-3007722D01*
X4074825Y-3007722D02*
X4065301Y-2988674D01*
X4065301Y-2988674D02*
X4046253Y-2979150D01*
X4046253Y-2979150D02*
X4017682Y-2979150D01*
X4017682Y-2979150D02*
X3998634Y-2988674D01*
X3998634Y-2988674D02*
X3989110Y-2998198D01*
X4198634Y-3112484D02*
X4179587Y-3102960D01*
X4179587Y-3102960D02*
X4170063Y-3093436D01*
X4170063Y-3093436D02*
X4160539Y-3074388D01*
X4160539Y-3074388D02*
X4160539Y-3017246D01*
X4160539Y-3017246D02*
X4170063Y-2998198D01*
X4170063Y-2998198D02*
X4179587Y-2988674D01*
X4179587Y-2988674D02*
X4198634Y-2979150D01*
X4198634Y-2979150D02*
X4227206Y-2979150D01*
X4227206Y-2979150D02*
X4246253Y-2988674D01*
X4246253Y-2988674D02*
X4255777Y-2998198D01*
X4255777Y-2998198D02*
X4265301Y-3017246D01*
X4265301Y-3017246D02*
X4265301Y-3074388D01*
X4265301Y-3074388D02*
X4255777Y-3093436D01*
X4255777Y-3093436D02*
X4246253Y-3102960D01*
X4246253Y-3102960D02*
X4227206Y-3112484D01*
X4227206Y-3112484D02*
X4198634Y-3112484D01*
X4379587Y-3112484D02*
X4360539Y-3102960D01*
X4360539Y-3102960D02*
X4351015Y-3083912D01*
X4351015Y-3083912D02*
X4351015Y-2912484D01*
X4531968Y-3102960D02*
X4512920Y-3112484D01*
X4512920Y-3112484D02*
X4474825Y-3112484D01*
X4474825Y-3112484D02*
X4455777Y-3102960D01*
X4455777Y-3102960D02*
X4446253Y-3083912D01*
X4446253Y-3083912D02*
X4446253Y-3007722D01*
X4446253Y-3007722D02*
X4455777Y-2988674D01*
X4455777Y-2988674D02*
X4474825Y-2979150D01*
X4474825Y-2979150D02*
X4512920Y-2979150D01*
X4512920Y-2979150D02*
X4531968Y-2988674D01*
X4531968Y-2988674D02*
X4541492Y-3007722D01*
X4541492Y-3007722D02*
X4541492Y-3026769D01*
X4541492Y-3026769D02*
X4446253Y-3045817D01*
X4617682Y-3102960D02*
X4636730Y-3112484D01*
X4636730Y-3112484D02*
X4674825Y-3112484D01*
X4674825Y-3112484D02*
X4693873Y-3102960D01*
X4693873Y-3102960D02*
X4703396Y-3083912D01*
X4703396Y-3083912D02*
X4703396Y-3074388D01*
X4703396Y-3074388D02*
X4693873Y-3055341D01*
X4693873Y-3055341D02*
X4674825Y-3045817D01*
X4674825Y-3045817D02*
X4646253Y-3045817D01*
X4646253Y-3045817D02*
X4627206Y-3036293D01*
X4627206Y-3036293D02*
X4617682Y-3017246D01*
X4617682Y-3017246D02*
X4617682Y-3007722D01*
X4617682Y-3007722D02*
X4627206Y-2988674D01*
X4627206Y-2988674D02*
X4646253Y-2979150D01*
X4646253Y-2979150D02*
X4674825Y-2979150D01*
X4674825Y-2979150D02*
X4693873Y-2988674D01*
X4770063Y-3188674D02*
X4779587Y-3179150D01*
X4779587Y-3179150D02*
X4798634Y-3150579D01*
X4798634Y-3150579D02*
X4808158Y-3131531D01*
X4808158Y-3131531D02*
X4817682Y-3102960D01*
X4817682Y-3102960D02*
X4827206Y-3055341D01*
X4827206Y-3055341D02*
X4827206Y-3017246D01*
X4827206Y-3017246D02*
X4817682Y-2969627D01*
X4817682Y-2969627D02*
X4808158Y-2941055D01*
X4808158Y-2941055D02*
X4798634Y-2922008D01*
X4798634Y-2922008D02*
X4779587Y-2893436D01*
X4779587Y-2893436D02*
X4770063Y-2883912D01*
D15*
X-26966Y-3338033D02*
X-26966Y-3231966D01*
X-133034Y-3231966D01*
X-133034Y-3338033D01*
X-26966Y-3338033D01*
X-5000Y-3285000D02*
G75*
G02*
X-155000Y-3285000I-75000J0D01*
G01*
X-155000Y-3285000D02*
G75*
G02*
X-5000Y-3285000I75000J0D01*
G01*
D11*
X360539Y-3376484D02*
X246253Y-3376484D01*
X303396Y-3376484D02*
X303396Y-3176484D01*
X303396Y-3176484D02*
X284348Y-3205055D01*
X284348Y-3205055D02*
X265301Y-3224103D01*
X265301Y-3224103D02*
X246253Y-3233627D01*
X446253Y-3357436D02*
X455777Y-3366960D01*
X455777Y-3366960D02*
X446253Y-3376484D01*
X446253Y-3376484D02*
X436729Y-3366960D01*
X436729Y-3366960D02*
X446253Y-3357436D01*
X446253Y-3357436D02*
X446253Y-3376484D01*
X636729Y-3176484D02*
X541491Y-3176484D01*
X541491Y-3176484D02*
X531967Y-3271722D01*
X531967Y-3271722D02*
X541491Y-3262198D01*
X541491Y-3262198D02*
X560539Y-3252674D01*
X560539Y-3252674D02*
X608158Y-3252674D01*
X608158Y-3252674D02*
X627205Y-3262198D01*
X627205Y-3262198D02*
X636729Y-3271722D01*
X636729Y-3271722D02*
X646253Y-3290769D01*
X646253Y-3290769D02*
X646253Y-3338388D01*
X646253Y-3338388D02*
X636729Y-3357436D01*
X636729Y-3357436D02*
X627205Y-3366960D01*
X627205Y-3366960D02*
X608158Y-3376484D01*
X608158Y-3376484D02*
X560539Y-3376484D01*
X560539Y-3376484D02*
X541491Y-3366960D01*
X541491Y-3366960D02*
X531967Y-3357436D01*
X770062Y-3176484D02*
X789110Y-3176484D01*
X789110Y-3176484D02*
X808158Y-3186008D01*
X808158Y-3186008D02*
X817682Y-3195531D01*
X817682Y-3195531D02*
X827205Y-3214579D01*
X827205Y-3214579D02*
X836729Y-3252674D01*
X836729Y-3252674D02*
X836729Y-3300293D01*
X836729Y-3300293D02*
X827205Y-3338388D01*
X827205Y-3338388D02*
X817682Y-3357436D01*
X817682Y-3357436D02*
X808158Y-3366960D01*
X808158Y-3366960D02*
X789110Y-3376484D01*
X789110Y-3376484D02*
X770062Y-3376484D01*
X770062Y-3376484D02*
X751015Y-3366960D01*
X751015Y-3366960D02*
X741491Y-3357436D01*
X741491Y-3357436D02*
X731967Y-3338388D01*
X731967Y-3338388D02*
X722443Y-3300293D01*
X722443Y-3300293D02*
X722443Y-3252674D01*
X722443Y-3252674D02*
X731967Y-3214579D01*
X731967Y-3214579D02*
X741491Y-3195531D01*
X741491Y-3195531D02*
X751015Y-3186008D01*
X751015Y-3186008D02*
X770062Y-3176484D01*
X960539Y-3176484D02*
X979586Y-3176484D01*
X979586Y-3176484D02*
X998634Y-3186008D01*
X998634Y-3186008D02*
X1008158Y-3195531D01*
X1008158Y-3195531D02*
X1017682Y-3214579D01*
X1017682Y-3214579D02*
X1027205Y-3252674D01*
X1027205Y-3252674D02*
X1027205Y-3300293D01*
X1027205Y-3300293D02*
X1017682Y-3338388D01*
X1017682Y-3338388D02*
X1008158Y-3357436D01*
X1008158Y-3357436D02*
X998634Y-3366960D01*
X998634Y-3366960D02*
X979586Y-3376484D01*
X979586Y-3376484D02*
X960539Y-3376484D01*
X960539Y-3376484D02*
X941491Y-3366960D01*
X941491Y-3366960D02*
X931967Y-3357436D01*
X931967Y-3357436D02*
X922443Y-3338388D01*
X922443Y-3338388D02*
X912920Y-3300293D01*
X912920Y-3300293D02*
X912920Y-3252674D01*
X912920Y-3252674D02*
X922443Y-3214579D01*
X922443Y-3214579D02*
X931967Y-3195531D01*
X931967Y-3195531D02*
X941491Y-3186008D01*
X941491Y-3186008D02*
X960539Y-3176484D01*
X1112920Y-3376484D02*
X1112920Y-3243150D01*
X1112920Y-3262198D02*
X1122444Y-3252674D01*
X1122444Y-3252674D02*
X1141491Y-3243150D01*
X1141491Y-3243150D02*
X1170063Y-3243150D01*
X1170063Y-3243150D02*
X1189110Y-3252674D01*
X1189110Y-3252674D02*
X1198634Y-3271722D01*
X1198634Y-3271722D02*
X1198634Y-3376484D01*
X1198634Y-3271722D02*
X1208158Y-3252674D01*
X1208158Y-3252674D02*
X1227205Y-3243150D01*
X1227205Y-3243150D02*
X1255777Y-3243150D01*
X1255777Y-3243150D02*
X1274825Y-3252674D01*
X1274825Y-3252674D02*
X1284348Y-3271722D01*
X1284348Y-3271722D02*
X1284348Y-3376484D01*
X1379586Y-3376484D02*
X1379586Y-3243150D01*
X1379586Y-3262198D02*
X1389110Y-3252674D01*
X1389110Y-3252674D02*
X1408158Y-3243150D01*
X1408158Y-3243150D02*
X1436729Y-3243150D01*
X1436729Y-3243150D02*
X1455777Y-3252674D01*
X1455777Y-3252674D02*
X1465301Y-3271722D01*
X1465301Y-3271722D02*
X1465301Y-3376484D01*
X1465301Y-3271722D02*
X1474824Y-3252674D01*
X1474824Y-3252674D02*
X1493872Y-3243150D01*
X1493872Y-3243150D02*
X1522443Y-3243150D01*
X1522443Y-3243150D02*
X1541491Y-3252674D01*
X1541491Y-3252674D02*
X1551015Y-3271722D01*
X1551015Y-3271722D02*
X1551015Y-3376484D01*
X1941491Y-3166960D02*
X1770063Y-3424103D01*
X2198634Y-3176484D02*
X2217682Y-3176484D01*
X2217682Y-3176484D02*
X2236729Y-3186008D01*
X2236729Y-3186008D02*
X2246253Y-3195531D01*
X2246253Y-3195531D02*
X2255777Y-3214579D01*
X2255777Y-3214579D02*
X2265301Y-3252674D01*
X2265301Y-3252674D02*
X2265301Y-3300293D01*
X2265301Y-3300293D02*
X2255777Y-3338388D01*
X2255777Y-3338388D02*
X2246253Y-3357436D01*
X2246253Y-3357436D02*
X2236729Y-3366960D01*
X2236729Y-3366960D02*
X2217682Y-3376484D01*
X2217682Y-3376484D02*
X2198634Y-3376484D01*
X2198634Y-3376484D02*
X2179587Y-3366960D01*
X2179587Y-3366960D02*
X2170063Y-3357436D01*
X2170063Y-3357436D02*
X2160539Y-3338388D01*
X2160539Y-3338388D02*
X2151015Y-3300293D01*
X2151015Y-3300293D02*
X2151015Y-3252674D01*
X2151015Y-3252674D02*
X2160539Y-3214579D01*
X2160539Y-3214579D02*
X2170063Y-3195531D01*
X2170063Y-3195531D02*
X2179587Y-3186008D01*
X2179587Y-3186008D02*
X2198634Y-3176484D01*
X2351015Y-3357436D02*
X2360539Y-3366960D01*
X2360539Y-3366960D02*
X2351015Y-3376484D01*
X2351015Y-3376484D02*
X2341491Y-3366960D01*
X2341491Y-3366960D02*
X2351015Y-3357436D01*
X2351015Y-3357436D02*
X2351015Y-3376484D01*
X2484348Y-3176484D02*
X2503396Y-3176484D01*
X2503396Y-3176484D02*
X2522444Y-3186008D01*
X2522444Y-3186008D02*
X2531968Y-3195531D01*
X2531968Y-3195531D02*
X2541491Y-3214579D01*
X2541491Y-3214579D02*
X2551015Y-3252674D01*
X2551015Y-3252674D02*
X2551015Y-3300293D01*
X2551015Y-3300293D02*
X2541491Y-3338388D01*
X2541491Y-3338388D02*
X2531968Y-3357436D01*
X2531968Y-3357436D02*
X2522444Y-3366960D01*
X2522444Y-3366960D02*
X2503396Y-3376484D01*
X2503396Y-3376484D02*
X2484348Y-3376484D01*
X2484348Y-3376484D02*
X2465301Y-3366960D01*
X2465301Y-3366960D02*
X2455777Y-3357436D01*
X2455777Y-3357436D02*
X2446253Y-3338388D01*
X2446253Y-3338388D02*
X2436729Y-3300293D01*
X2436729Y-3300293D02*
X2436729Y-3252674D01*
X2436729Y-3252674D02*
X2446253Y-3214579D01*
X2446253Y-3214579D02*
X2455777Y-3195531D01*
X2455777Y-3195531D02*
X2465301Y-3186008D01*
X2465301Y-3186008D02*
X2484348Y-3176484D01*
X2731968Y-3176484D02*
X2636729Y-3176484D01*
X2636729Y-3176484D02*
X2627206Y-3271722D01*
X2627206Y-3271722D02*
X2636729Y-3262198D01*
X2636729Y-3262198D02*
X2655777Y-3252674D01*
X2655777Y-3252674D02*
X2703396Y-3252674D01*
X2703396Y-3252674D02*
X2722444Y-3262198D01*
X2722444Y-3262198D02*
X2731968Y-3271722D01*
X2731968Y-3271722D02*
X2741491Y-3290769D01*
X2741491Y-3290769D02*
X2741491Y-3338388D01*
X2741491Y-3338388D02*
X2731968Y-3357436D01*
X2731968Y-3357436D02*
X2722444Y-3366960D01*
X2722444Y-3366960D02*
X2703396Y-3376484D01*
X2703396Y-3376484D02*
X2655777Y-3376484D01*
X2655777Y-3376484D02*
X2636729Y-3366960D01*
X2636729Y-3366960D02*
X2627206Y-3357436D01*
X2836729Y-3376484D02*
X2874825Y-3376484D01*
X2874825Y-3376484D02*
X2893872Y-3366960D01*
X2893872Y-3366960D02*
X2903396Y-3357436D01*
X2903396Y-3357436D02*
X2922444Y-3328865D01*
X2922444Y-3328865D02*
X2931967Y-3290769D01*
X2931967Y-3290769D02*
X2931967Y-3214579D01*
X2931967Y-3214579D02*
X2922444Y-3195531D01*
X2922444Y-3195531D02*
X2912920Y-3186008D01*
X2912920Y-3186008D02*
X2893872Y-3176484D01*
X2893872Y-3176484D02*
X2855777Y-3176484D01*
X2855777Y-3176484D02*
X2836729Y-3186008D01*
X2836729Y-3186008D02*
X2827206Y-3195531D01*
X2827206Y-3195531D02*
X2817682Y-3214579D01*
X2817682Y-3214579D02*
X2817682Y-3262198D01*
X2817682Y-3262198D02*
X2827206Y-3281246D01*
X2827206Y-3281246D02*
X2836729Y-3290769D01*
X2836729Y-3290769D02*
X2855777Y-3300293D01*
X2855777Y-3300293D02*
X2893872Y-3300293D01*
X2893872Y-3300293D02*
X2912920Y-3290769D01*
X2912920Y-3290769D02*
X2922444Y-3281246D01*
X2922444Y-3281246D02*
X2931967Y-3262198D01*
X3122444Y-3376484D02*
X3008158Y-3376484D01*
X3065301Y-3376484D02*
X3065301Y-3176484D01*
X3065301Y-3176484D02*
X3046253Y-3205055D01*
X3046253Y-3205055D02*
X3027206Y-3224103D01*
X3027206Y-3224103D02*
X3008158Y-3233627D01*
X3198634Y-3176484D02*
X3198634Y-3214579D01*
X3274825Y-3176484D02*
X3274825Y-3214579D01*
X3570063Y-3452674D02*
X3560539Y-3443150D01*
X3560539Y-3443150D02*
X3541491Y-3414579D01*
X3541491Y-3414579D02*
X3531968Y-3395531D01*
X3531968Y-3395531D02*
X3522444Y-3366960D01*
X3522444Y-3366960D02*
X3512920Y-3319341D01*
X3512920Y-3319341D02*
X3512920Y-3281246D01*
X3512920Y-3281246D02*
X3522444Y-3233627D01*
X3522444Y-3233627D02*
X3531968Y-3205055D01*
X3531968Y-3205055D02*
X3541491Y-3186008D01*
X3541491Y-3186008D02*
X3560539Y-3157436D01*
X3560539Y-3157436D02*
X3570063Y-3147912D01*
X3731968Y-3243150D02*
X3731968Y-3376484D01*
X3684348Y-3166960D02*
X3636729Y-3309817D01*
X3636729Y-3309817D02*
X3760539Y-3309817D01*
X3989110Y-3376484D02*
X3989110Y-3176484D01*
X4074825Y-3376484D02*
X4074825Y-3271722D01*
X4074825Y-3271722D02*
X4065301Y-3252674D01*
X4065301Y-3252674D02*
X4046253Y-3243150D01*
X4046253Y-3243150D02*
X4017682Y-3243150D01*
X4017682Y-3243150D02*
X3998634Y-3252674D01*
X3998634Y-3252674D02*
X3989110Y-3262198D01*
X4198634Y-3376484D02*
X4179587Y-3366960D01*
X4179587Y-3366960D02*
X4170063Y-3357436D01*
X4170063Y-3357436D02*
X4160539Y-3338388D01*
X4160539Y-3338388D02*
X4160539Y-3281246D01*
X4160539Y-3281246D02*
X4170063Y-3262198D01*
X4170063Y-3262198D02*
X4179587Y-3252674D01*
X4179587Y-3252674D02*
X4198634Y-3243150D01*
X4198634Y-3243150D02*
X4227206Y-3243150D01*
X4227206Y-3243150D02*
X4246253Y-3252674D01*
X4246253Y-3252674D02*
X4255777Y-3262198D01*
X4255777Y-3262198D02*
X4265301Y-3281246D01*
X4265301Y-3281246D02*
X4265301Y-3338388D01*
X4265301Y-3338388D02*
X4255777Y-3357436D01*
X4255777Y-3357436D02*
X4246253Y-3366960D01*
X4246253Y-3366960D02*
X4227206Y-3376484D01*
X4227206Y-3376484D02*
X4198634Y-3376484D01*
X4379587Y-3376484D02*
X4360539Y-3366960D01*
X4360539Y-3366960D02*
X4351015Y-3347912D01*
X4351015Y-3347912D02*
X4351015Y-3176484D01*
X4531968Y-3366960D02*
X4512920Y-3376484D01*
X4512920Y-3376484D02*
X4474825Y-3376484D01*
X4474825Y-3376484D02*
X4455777Y-3366960D01*
X4455777Y-3366960D02*
X4446253Y-3347912D01*
X4446253Y-3347912D02*
X4446253Y-3271722D01*
X4446253Y-3271722D02*
X4455777Y-3252674D01*
X4455777Y-3252674D02*
X4474825Y-3243150D01*
X4474825Y-3243150D02*
X4512920Y-3243150D01*
X4512920Y-3243150D02*
X4531968Y-3252674D01*
X4531968Y-3252674D02*
X4541492Y-3271722D01*
X4541492Y-3271722D02*
X4541492Y-3290769D01*
X4541492Y-3290769D02*
X4446253Y-3309817D01*
X4617682Y-3366960D02*
X4636730Y-3376484D01*
X4636730Y-3376484D02*
X4674825Y-3376484D01*
X4674825Y-3376484D02*
X4693873Y-3366960D01*
X4693873Y-3366960D02*
X4703396Y-3347912D01*
X4703396Y-3347912D02*
X4703396Y-3338388D01*
X4703396Y-3338388D02*
X4693873Y-3319341D01*
X4693873Y-3319341D02*
X4674825Y-3309817D01*
X4674825Y-3309817D02*
X4646253Y-3309817D01*
X4646253Y-3309817D02*
X4627206Y-3300293D01*
X4627206Y-3300293D02*
X4617682Y-3281246D01*
X4617682Y-3281246D02*
X4617682Y-3271722D01*
X4617682Y-3271722D02*
X4627206Y-3252674D01*
X4627206Y-3252674D02*
X4646253Y-3243150D01*
X4646253Y-3243150D02*
X4674825Y-3243150D01*
X4674825Y-3243150D02*
X4693873Y-3252674D01*
X4770063Y-3452674D02*
X4779587Y-3443150D01*
X4779587Y-3443150D02*
X4798634Y-3414579D01*
X4798634Y-3414579D02*
X4808158Y-3395531D01*
X4808158Y-3395531D02*
X4817682Y-3366960D01*
X4817682Y-3366960D02*
X4827206Y-3319341D01*
X4827206Y-3319341D02*
X4827206Y-3281246D01*
X4827206Y-3281246D02*
X4817682Y-3233627D01*
X4817682Y-3233627D02*
X4808158Y-3205055D01*
X4808158Y-3205055D02*
X4798634Y-3186008D01*
X4798634Y-3186008D02*
X4779587Y-3157436D01*
X4779587Y-3157436D02*
X4770063Y-3147912D01*
M02*
