G04 #@! TF.GenerationSoftware,KiCad,Pcbnew,9.0.6*
G04 #@! TF.CreationDate,2026-04-13T23:50:19+02:00*
G04 #@! TF.ProjectId,esp-ev-switch,6573702d-6576-42d7-9377-697463682e6b,1.1.0*
G04 #@! TF.SameCoordinates,PX6a88c10PY89c843f*
G04 #@! TF.FileFunction,Legend,Bot*
G04 #@! TF.FilePolarity,Positive*
%FSLAX46Y46*%
G04 Gerber Fmt 4.6, Leading zero omitted, Abs format (unit mm)*
G04 Created by KiCad (PCBNEW 9.0.6) date 2026-04-13 23:50:19*
%MOMM*%
%LPD*%
G01*
G04 APERTURE LIST*
G04 Aperture macros list*
%AMRoundRect*
0 Rectangle with rounded corners*
0 $1 Rounding radius*
0 $2 $3 $4 $5 $6 $7 $8 $9 X,Y pos of 4 corners*
0 Add a 4 corners polygon primitive as box body*
4,1,4,$2,$3,$4,$5,$6,$7,$8,$9,$2,$3,0*
0 Add four circle primitives for the rounded corners*
1,1,$1+$1,$2,$3*
1,1,$1+$1,$4,$5*
1,1,$1+$1,$6,$7*
1,1,$1+$1,$8,$9*
0 Add four rect primitives between the rounded corners*
20,1,$1+$1,$2,$3,$4,$5,0*
20,1,$1+$1,$4,$5,$6,$7,0*
20,1,$1+$1,$6,$7,$8,$9,0*
20,1,$1+$1,$8,$9,$2,$3,0*%
G04 Aperture macros list end*
%ADD10C,0.153000*%
%ADD11C,0.154000*%
%ADD12C,0.300000*%
%ADD13C,0.400000*%
%ADD14C,0.200000*%
%ADD15C,0.101600*%
%ADD16C,0.100000*%
%ADD17RoundRect,0.050000X-1.000000X1.000000X-1.000000X-1.000000X1.000000X-1.000000X1.000000X1.000000X0*%
%ADD18C,2.100000*%
%ADD19RoundRect,0.050000X-1.500000X1.500000X-1.500000X-1.500000X1.500000X-1.500000X1.500000X1.500000X0*%
%ADD20C,3.100000*%
%ADD21C,1.600000*%
%ADD22C,1.900000*%
%ADD23C,2.800000*%
%ADD24RoundRect,0.266667X-1.283333X0.533333X-1.283333X-0.533333X1.283333X-0.533333X1.283333X0.533333X0*%
%ADD25RoundRect,0.050000X-1.500000X0.750000X-1.500000X-0.750000X1.500000X-0.750000X1.500000X0.750000X0*%
%ADD26O,3.100000X1.600000*%
%ADD27C,0.750000*%
%ADD28O,1.100000X2.200000*%
%ADD29O,1.100000X1.900000*%
%ADD30RoundRect,0.050000X-1.150000X-1.150000X1.150000X-1.150000X1.150000X1.150000X-1.150000X1.150000X0*%
%ADD31C,2.400000*%
%ADD32RoundRect,0.050000X1.012500X-1.012500X1.012500X1.012500X-1.012500X1.012500X-1.012500X-1.012500X0*%
%ADD33C,2.125000*%
G04 APERTURE END LIST*
D10*
X75437999Y16814799D02*
X75437999Y24434799D01*
X73405999Y16814799D02*
X73405999Y24434799D01*
X77469999Y16814799D02*
X67309999Y16814799D01*
X67309999Y24434799D01*
X77469999Y24434799D01*
X77469999Y16814799D01*
X77469998Y20624799D02*
X67310000Y20624799D01*
X69341999Y16814799D02*
X69341999Y24434799D01*
X71373999Y16814799D02*
X71373999Y24434799D01*
D11*
X76974787Y17393944D02*
X76974787Y17965372D01*
X75974787Y17679658D02*
X76974787Y17679658D01*
X75974787Y18298706D02*
X76974787Y18298706D01*
X76974787Y18298706D02*
X76260502Y18632039D01*
X76260502Y18632039D02*
X76974787Y18965372D01*
X76974787Y18965372D02*
X75974787Y18965372D01*
X76022407Y19393944D02*
X75974787Y19536801D01*
X75974787Y19536801D02*
X75974787Y19774896D01*
X75974787Y19774896D02*
X76022407Y19870134D01*
X76022407Y19870134D02*
X76070026Y19917753D01*
X76070026Y19917753D02*
X76165264Y19965372D01*
X76165264Y19965372D02*
X76260502Y19965372D01*
X76260502Y19965372D02*
X76355740Y19917753D01*
X76355740Y19917753D02*
X76403359Y19870134D01*
X76403359Y19870134D02*
X76450978Y19774896D01*
X76450978Y19774896D02*
X76498597Y19584420D01*
X76498597Y19584420D02*
X76546216Y19489182D01*
X76546216Y19489182D02*
X76593835Y19441563D01*
X76593835Y19441563D02*
X76689073Y19393944D01*
X76689073Y19393944D02*
X76784311Y19393944D01*
X76784311Y19393944D02*
X76879549Y19441563D01*
X76879549Y19441563D02*
X76927168Y19489182D01*
X76927168Y19489182D02*
X76974787Y19584420D01*
X76974787Y19584420D02*
X76974787Y19822515D01*
X76974787Y19822515D02*
X76927168Y19965372D01*
X74942787Y17441563D02*
X74942787Y18012991D01*
X73942787Y17727277D02*
X74942787Y17727277D01*
X74038026Y18917753D02*
X73990407Y18870134D01*
X73990407Y18870134D02*
X73942787Y18727277D01*
X73942787Y18727277D02*
X73942787Y18632039D01*
X73942787Y18632039D02*
X73990407Y18489182D01*
X73990407Y18489182D02*
X74085645Y18393944D01*
X74085645Y18393944D02*
X74180883Y18346325D01*
X74180883Y18346325D02*
X74371359Y18298706D01*
X74371359Y18298706D02*
X74514216Y18298706D01*
X74514216Y18298706D02*
X74704692Y18346325D01*
X74704692Y18346325D02*
X74799930Y18393944D01*
X74799930Y18393944D02*
X74895168Y18489182D01*
X74895168Y18489182D02*
X74942787Y18632039D01*
X74942787Y18632039D02*
X74942787Y18727277D01*
X74942787Y18727277D02*
X74895168Y18870134D01*
X74895168Y18870134D02*
X74847549Y18917753D01*
X73942787Y19346325D02*
X74942787Y19346325D01*
X73942787Y19917753D02*
X74514216Y19489182D01*
X74942787Y19917753D02*
X74371359Y19346325D01*
X76974787Y21316629D02*
X76974787Y21935676D01*
X76974787Y21935676D02*
X76593835Y21602343D01*
X76593835Y21602343D02*
X76593835Y21745200D01*
X76593835Y21745200D02*
X76546216Y21840438D01*
X76546216Y21840438D02*
X76498597Y21888057D01*
X76498597Y21888057D02*
X76403359Y21935676D01*
X76403359Y21935676D02*
X76165264Y21935676D01*
X76165264Y21935676D02*
X76070026Y21888057D01*
X76070026Y21888057D02*
X76022407Y21840438D01*
X76022407Y21840438D02*
X75974787Y21745200D01*
X75974787Y21745200D02*
X75974787Y21459486D01*
X75974787Y21459486D02*
X76022407Y21364248D01*
X76022407Y21364248D02*
X76070026Y21316629D01*
X76974787Y22221391D02*
X75974787Y22554724D01*
X75974787Y22554724D02*
X76974787Y22888057D01*
X76974787Y23126153D02*
X76974787Y23745200D01*
X76974787Y23745200D02*
X76593835Y23411867D01*
X76593835Y23411867D02*
X76593835Y23554724D01*
X76593835Y23554724D02*
X76546216Y23649962D01*
X76546216Y23649962D02*
X76498597Y23697581D01*
X76498597Y23697581D02*
X76403359Y23745200D01*
X76403359Y23745200D02*
X76165264Y23745200D01*
X76165264Y23745200D02*
X76070026Y23697581D01*
X76070026Y23697581D02*
X76022407Y23649962D01*
X76022407Y23649962D02*
X75974787Y23554724D01*
X75974787Y23554724D02*
X75974787Y23269010D01*
X75974787Y23269010D02*
X76022407Y23173772D01*
X76022407Y23173772D02*
X76070026Y23126153D01*
X72859987Y17417753D02*
X72859987Y17989181D01*
X71859987Y17703467D02*
X72859987Y17703467D01*
X71859987Y18322515D02*
X72859987Y18322515D01*
X72859987Y18322515D02*
X72859987Y18560610D01*
X72859987Y18560610D02*
X72812368Y18703467D01*
X72812368Y18703467D02*
X72717130Y18798705D01*
X72717130Y18798705D02*
X72621892Y18846324D01*
X72621892Y18846324D02*
X72431416Y18893943D01*
X72431416Y18893943D02*
X72288559Y18893943D01*
X72288559Y18893943D02*
X72098083Y18846324D01*
X72098083Y18846324D02*
X72002845Y18798705D01*
X72002845Y18798705D02*
X71907607Y18703467D01*
X71907607Y18703467D02*
X71859987Y18560610D01*
X71859987Y18560610D02*
X71859987Y18322515D01*
X72859987Y19512991D02*
X72859987Y19703467D01*
X72859987Y19703467D02*
X72812368Y19798705D01*
X72812368Y19798705D02*
X72717130Y19893943D01*
X72717130Y19893943D02*
X72526654Y19941562D01*
X72526654Y19941562D02*
X72193321Y19941562D01*
X72193321Y19941562D02*
X72002845Y19893943D01*
X72002845Y19893943D02*
X71907607Y19798705D01*
X71907607Y19798705D02*
X71859987Y19703467D01*
X71859987Y19703467D02*
X71859987Y19512991D01*
X71859987Y19512991D02*
X71907607Y19417753D01*
X71907607Y19417753D02*
X72002845Y19322515D01*
X72002845Y19322515D02*
X72193321Y19274896D01*
X72193321Y19274896D02*
X72526654Y19274896D01*
X72526654Y19274896D02*
X72717130Y19322515D01*
X72717130Y19322515D02*
X72812368Y19417753D01*
X72812368Y19417753D02*
X72859987Y19512991D01*
X67846787Y18179657D02*
X68322978Y17846324D01*
X67846787Y17608229D02*
X68846787Y17608229D01*
X68846787Y17608229D02*
X68846787Y17989181D01*
X68846787Y17989181D02*
X68799168Y18084419D01*
X68799168Y18084419D02*
X68751549Y18132038D01*
X68751549Y18132038D02*
X68656311Y18179657D01*
X68656311Y18179657D02*
X68513454Y18179657D01*
X68513454Y18179657D02*
X68418216Y18132038D01*
X68418216Y18132038D02*
X68370597Y18084419D01*
X68370597Y18084419D02*
X68322978Y17989181D01*
X68322978Y17989181D02*
X68322978Y17608229D01*
X67894407Y18560610D02*
X67846787Y18703467D01*
X67846787Y18703467D02*
X67846787Y18941562D01*
X67846787Y18941562D02*
X67894407Y19036800D01*
X67894407Y19036800D02*
X67942026Y19084419D01*
X67942026Y19084419D02*
X68037264Y19132038D01*
X68037264Y19132038D02*
X68132502Y19132038D01*
X68132502Y19132038D02*
X68227740Y19084419D01*
X68227740Y19084419D02*
X68275359Y19036800D01*
X68275359Y19036800D02*
X68322978Y18941562D01*
X68322978Y18941562D02*
X68370597Y18751086D01*
X68370597Y18751086D02*
X68418216Y18655848D01*
X68418216Y18655848D02*
X68465835Y18608229D01*
X68465835Y18608229D02*
X68561073Y18560610D01*
X68561073Y18560610D02*
X68656311Y18560610D01*
X68656311Y18560610D02*
X68751549Y18608229D01*
X68751549Y18608229D02*
X68799168Y18655848D01*
X68799168Y18655848D02*
X68846787Y18751086D01*
X68846787Y18751086D02*
X68846787Y18989181D01*
X68846787Y18989181D02*
X68799168Y19132038D01*
X68846787Y19417753D02*
X68846787Y19989181D01*
X67846787Y19703467D02*
X68846787Y19703467D01*
X74895168Y21792819D02*
X74942787Y21697581D01*
X74942787Y21697581D02*
X74942787Y21554724D01*
X74942787Y21554724D02*
X74895168Y21411867D01*
X74895168Y21411867D02*
X74799930Y21316629D01*
X74799930Y21316629D02*
X74704692Y21269010D01*
X74704692Y21269010D02*
X74514216Y21221391D01*
X74514216Y21221391D02*
X74371359Y21221391D01*
X74371359Y21221391D02*
X74180883Y21269010D01*
X74180883Y21269010D02*
X74085645Y21316629D01*
X74085645Y21316629D02*
X73990407Y21411867D01*
X73990407Y21411867D02*
X73942787Y21554724D01*
X73942787Y21554724D02*
X73942787Y21649962D01*
X73942787Y21649962D02*
X73990407Y21792819D01*
X73990407Y21792819D02*
X74038026Y21840438D01*
X74038026Y21840438D02*
X74371359Y21840438D01*
X74371359Y21840438D02*
X74371359Y21649962D01*
X73942787Y22269010D02*
X74942787Y22269010D01*
X74942787Y22269010D02*
X73942787Y22840438D01*
X73942787Y22840438D02*
X74942787Y22840438D01*
X73942787Y23316629D02*
X74942787Y23316629D01*
X74942787Y23316629D02*
X74942787Y23554724D01*
X74942787Y23554724D02*
X74895168Y23697581D01*
X74895168Y23697581D02*
X74799930Y23792819D01*
X74799930Y23792819D02*
X74704692Y23840438D01*
X74704692Y23840438D02*
X74514216Y23888057D01*
X74514216Y23888057D02*
X74371359Y23888057D01*
X74371359Y23888057D02*
X74180883Y23840438D01*
X74180883Y23840438D02*
X74085645Y23792819D01*
X74085645Y23792819D02*
X73990407Y23697581D01*
X73990407Y23697581D02*
X73942787Y23554724D01*
X73942787Y23554724D02*
X73942787Y23316629D01*
X72863168Y21792819D02*
X72910787Y21697581D01*
X72910787Y21697581D02*
X72910787Y21554724D01*
X72910787Y21554724D02*
X72863168Y21411867D01*
X72863168Y21411867D02*
X72767930Y21316629D01*
X72767930Y21316629D02*
X72672692Y21269010D01*
X72672692Y21269010D02*
X72482216Y21221391D01*
X72482216Y21221391D02*
X72339359Y21221391D01*
X72339359Y21221391D02*
X72148883Y21269010D01*
X72148883Y21269010D02*
X72053645Y21316629D01*
X72053645Y21316629D02*
X71958407Y21411867D01*
X71958407Y21411867D02*
X71910787Y21554724D01*
X71910787Y21554724D02*
X71910787Y21649962D01*
X71910787Y21649962D02*
X71958407Y21792819D01*
X71958407Y21792819D02*
X72006026Y21840438D01*
X72006026Y21840438D02*
X72339359Y21840438D01*
X72339359Y21840438D02*
X72339359Y21649962D01*
X71910787Y22269010D02*
X72910787Y22269010D01*
X72910787Y22269010D02*
X71910787Y22840438D01*
X71910787Y22840438D02*
X72910787Y22840438D01*
X71910787Y23316629D02*
X72910787Y23316629D01*
X72910787Y23316629D02*
X72910787Y23554724D01*
X72910787Y23554724D02*
X72863168Y23697581D01*
X72863168Y23697581D02*
X72767930Y23792819D01*
X72767930Y23792819D02*
X72672692Y23840438D01*
X72672692Y23840438D02*
X72482216Y23888057D01*
X72482216Y23888057D02*
X72339359Y23888057D01*
X72339359Y23888057D02*
X72148883Y23840438D01*
X72148883Y23840438D02*
X72053645Y23792819D01*
X72053645Y23792819D02*
X71958407Y23697581D01*
X71958407Y23697581D02*
X71910787Y23554724D01*
X71910787Y23554724D02*
X71910787Y23316629D01*
X70827987Y17703468D02*
X70827987Y18274896D01*
X69827987Y17989182D02*
X70827987Y17989182D01*
X69827987Y18608230D02*
X70827987Y18608230D01*
X70827987Y18608230D02*
X70827987Y18846325D01*
X70827987Y18846325D02*
X70780368Y18989182D01*
X70780368Y18989182D02*
X70685130Y19084420D01*
X70685130Y19084420D02*
X70589892Y19132039D01*
X70589892Y19132039D02*
X70399416Y19179658D01*
X70399416Y19179658D02*
X70256559Y19179658D01*
X70256559Y19179658D02*
X70066083Y19132039D01*
X70066083Y19132039D02*
X69970845Y19084420D01*
X69970845Y19084420D02*
X69875607Y18989182D01*
X69875607Y18989182D02*
X69827987Y18846325D01*
X69827987Y18846325D02*
X69827987Y18608230D01*
X69827987Y19608230D02*
X70827987Y19608230D01*
X70031187Y22292819D02*
X70697854Y22816628D01*
X70697854Y22292819D02*
X70031187Y22816628D01*
D12*
X54485229Y40838930D02*
X54485229Y42338930D01*
X54485229Y41624644D02*
X53628086Y41624644D01*
X53628086Y40838930D02*
X53628086Y42338930D01*
X52913800Y40838930D02*
X52913800Y42338930D01*
X51413799Y42267501D02*
X51556657Y42338930D01*
X51556657Y42338930D02*
X51770942Y42338930D01*
X51770942Y42338930D02*
X51985228Y42267501D01*
X51985228Y42267501D02*
X52128085Y42124644D01*
X52128085Y42124644D02*
X52199514Y41981787D01*
X52199514Y41981787D02*
X52270942Y41696073D01*
X52270942Y41696073D02*
X52270942Y41481787D01*
X52270942Y41481787D02*
X52199514Y41196073D01*
X52199514Y41196073D02*
X52128085Y41053216D01*
X52128085Y41053216D02*
X51985228Y40910358D01*
X51985228Y40910358D02*
X51770942Y40838930D01*
X51770942Y40838930D02*
X51628085Y40838930D01*
X51628085Y40838930D02*
X51413799Y40910358D01*
X51413799Y40910358D02*
X51342371Y40981787D01*
X51342371Y40981787D02*
X51342371Y41481787D01*
X51342371Y41481787D02*
X51628085Y41481787D01*
X50699514Y40838930D02*
X50699514Y42338930D01*
X50699514Y41624644D02*
X49842371Y41624644D01*
X49842371Y40838930D02*
X49842371Y42338930D01*
X48199513Y42338930D02*
X47699513Y40838930D01*
X47699513Y40838930D02*
X47199513Y42338930D01*
X46413799Y42338930D02*
X46128085Y42338930D01*
X46128085Y42338930D02*
X45985228Y42267501D01*
X45985228Y42267501D02*
X45842371Y42124644D01*
X45842371Y42124644D02*
X45770942Y41838930D01*
X45770942Y41838930D02*
X45770942Y41338930D01*
X45770942Y41338930D02*
X45842371Y41053216D01*
X45842371Y41053216D02*
X45985228Y40910358D01*
X45985228Y40910358D02*
X46128085Y40838930D01*
X46128085Y40838930D02*
X46413799Y40838930D01*
X46413799Y40838930D02*
X46556657Y40910358D01*
X46556657Y40910358D02*
X46699514Y41053216D01*
X46699514Y41053216D02*
X46770942Y41338930D01*
X46770942Y41338930D02*
X46770942Y41838930D01*
X46770942Y41838930D02*
X46699514Y42124644D01*
X46699514Y42124644D02*
X46556657Y42267501D01*
X46556657Y42267501D02*
X46413799Y42338930D01*
X44413799Y40838930D02*
X45128085Y40838930D01*
X45128085Y40838930D02*
X45128085Y42338930D01*
X44128084Y42338930D02*
X43270942Y42338930D01*
X43699513Y40838930D02*
X43699513Y42338930D01*
X42842370Y41267501D02*
X42128085Y41267501D01*
X42985227Y40838930D02*
X42485227Y42338930D01*
X42485227Y42338930D02*
X41985227Y40838930D01*
X40699513Y42267501D02*
X40842371Y42338930D01*
X40842371Y42338930D02*
X41056656Y42338930D01*
X41056656Y42338930D02*
X41270942Y42267501D01*
X41270942Y42267501D02*
X41413799Y42124644D01*
X41413799Y42124644D02*
X41485228Y41981787D01*
X41485228Y41981787D02*
X41556656Y41696073D01*
X41556656Y41696073D02*
X41556656Y41481787D01*
X41556656Y41481787D02*
X41485228Y41196073D01*
X41485228Y41196073D02*
X41413799Y41053216D01*
X41413799Y41053216D02*
X41270942Y40910358D01*
X41270942Y40910358D02*
X41056656Y40838930D01*
X41056656Y40838930D02*
X40913799Y40838930D01*
X40913799Y40838930D02*
X40699513Y40910358D01*
X40699513Y40910358D02*
X40628085Y40981787D01*
X40628085Y40981787D02*
X40628085Y41481787D01*
X40628085Y41481787D02*
X40913799Y41481787D01*
X39985228Y41624644D02*
X39485228Y41624644D01*
X39270942Y40838930D02*
X39985228Y40838930D01*
X39985228Y40838930D02*
X39985228Y42338930D01*
X39985228Y42338930D02*
X39270942Y42338930D01*
X49413798Y39781157D02*
X49342370Y39852585D01*
X49342370Y39852585D02*
X49199513Y39924014D01*
X49199513Y39924014D02*
X48842370Y39924014D01*
X48842370Y39924014D02*
X48699513Y39852585D01*
X48699513Y39852585D02*
X48628084Y39781157D01*
X48628084Y39781157D02*
X48556655Y39638300D01*
X48556655Y39638300D02*
X48556655Y39495442D01*
X48556655Y39495442D02*
X48628084Y39281157D01*
X48628084Y39281157D02*
X49485227Y38424014D01*
X49485227Y38424014D02*
X48556655Y38424014D01*
X48056656Y39924014D02*
X47128084Y39924014D01*
X47128084Y39924014D02*
X47628084Y39352585D01*
X47628084Y39352585D02*
X47413799Y39352585D01*
X47413799Y39352585D02*
X47270942Y39281157D01*
X47270942Y39281157D02*
X47199513Y39209728D01*
X47199513Y39209728D02*
X47128084Y39066871D01*
X47128084Y39066871D02*
X47128084Y38709728D01*
X47128084Y38709728D02*
X47199513Y38566871D01*
X47199513Y38566871D02*
X47270942Y38495442D01*
X47270942Y38495442D02*
X47413799Y38424014D01*
X47413799Y38424014D02*
X47842370Y38424014D01*
X47842370Y38424014D02*
X47985227Y38495442D01*
X47985227Y38495442D02*
X48056656Y38566871D01*
X46199513Y39924014D02*
X46056656Y39924014D01*
X46056656Y39924014D02*
X45913799Y39852585D01*
X45913799Y39852585D02*
X45842371Y39781157D01*
X45842371Y39781157D02*
X45770942Y39638300D01*
X45770942Y39638300D02*
X45699513Y39352585D01*
X45699513Y39352585D02*
X45699513Y38995442D01*
X45699513Y38995442D02*
X45770942Y38709728D01*
X45770942Y38709728D02*
X45842371Y38566871D01*
X45842371Y38566871D02*
X45913799Y38495442D01*
X45913799Y38495442D02*
X46056656Y38424014D01*
X46056656Y38424014D02*
X46199513Y38424014D01*
X46199513Y38424014D02*
X46342371Y38495442D01*
X46342371Y38495442D02*
X46413799Y38566871D01*
X46413799Y38566871D02*
X46485228Y38709728D01*
X46485228Y38709728D02*
X46556656Y38995442D01*
X46556656Y38995442D02*
X46556656Y39352585D01*
X46556656Y39352585D02*
X46485228Y39638300D01*
X46485228Y39638300D02*
X46413799Y39781157D01*
X46413799Y39781157D02*
X46342371Y39852585D01*
X46342371Y39852585D02*
X46199513Y39924014D01*
X45270942Y39924014D02*
X44770942Y38424014D01*
X44770942Y38424014D02*
X44270942Y39924014D01*
D11*
X68799168Y21792819D02*
X68846787Y21697581D01*
X68846787Y21697581D02*
X68846787Y21554724D01*
X68846787Y21554724D02*
X68799168Y21411867D01*
X68799168Y21411867D02*
X68703930Y21316629D01*
X68703930Y21316629D02*
X68608692Y21269010D01*
X68608692Y21269010D02*
X68418216Y21221391D01*
X68418216Y21221391D02*
X68275359Y21221391D01*
X68275359Y21221391D02*
X68084883Y21269010D01*
X68084883Y21269010D02*
X67989645Y21316629D01*
X67989645Y21316629D02*
X67894407Y21411867D01*
X67894407Y21411867D02*
X67846787Y21554724D01*
X67846787Y21554724D02*
X67846787Y21649962D01*
X67846787Y21649962D02*
X67894407Y21792819D01*
X67894407Y21792819D02*
X67942026Y21840438D01*
X67942026Y21840438D02*
X68275359Y21840438D01*
X68275359Y21840438D02*
X68275359Y21649962D01*
X67846787Y22269010D02*
X68846787Y22269010D01*
X68846787Y22269010D02*
X67846787Y22840438D01*
X67846787Y22840438D02*
X68846787Y22840438D01*
X67846787Y23316629D02*
X68846787Y23316629D01*
X68846787Y23316629D02*
X68846787Y23554724D01*
X68846787Y23554724D02*
X68799168Y23697581D01*
X68799168Y23697581D02*
X68703930Y23792819D01*
X68703930Y23792819D02*
X68608692Y23840438D01*
X68608692Y23840438D02*
X68418216Y23888057D01*
X68418216Y23888057D02*
X68275359Y23888057D01*
X68275359Y23888057D02*
X68084883Y23840438D01*
X68084883Y23840438D02*
X67989645Y23792819D01*
X67989645Y23792819D02*
X67894407Y23697581D01*
X67894407Y23697581D02*
X67846787Y23554724D01*
X67846787Y23554724D02*
X67846787Y23316629D01*
D13*
G04 #@! TO.C,REF\u002A\u002A*
X32788600Y37709799D02*
X38788600Y37709799D01*
D14*
X33321761Y37745167D02*
X33055439Y38154431D01*
D13*
X35788600Y42909800D02*
X32788600Y37709799D01*
D14*
X35913600Y42449799D02*
X35663600Y42449799D01*
X35923600Y40014799D02*
X35673600Y39844799D01*
D15*
X36048600Y38949799D02*
X35578600Y38849800D01*
D14*
X36068600Y40279799D02*
X35868600Y40099799D01*
X38245439Y37745167D02*
X38511761Y38154431D01*
D13*
X38788600Y37709799D02*
X35788600Y42909800D01*
D16*
X36533100Y39602465D02*
X35718183Y40036382D01*
X35919267Y38776965D01*
X36088600Y39009799D01*
X35929850Y38247799D01*
X35495933Y38893382D01*
X35739350Y38745216D01*
X35263099Y40480882D01*
X36109767Y40025799D01*
X35485350Y41475715D01*
X36003934Y41475715D01*
X36533100Y39602465D01*
G36*
X36533100Y39602465D02*
G01*
X35718183Y40036382D01*
X35919267Y38776965D01*
X36088600Y39009799D01*
X35929850Y38247799D01*
X35495933Y38893382D01*
X35739350Y38745216D01*
X35263099Y40480882D01*
X36109767Y40025799D01*
X35485350Y41475715D01*
X36003934Y41475715D01*
X36533100Y39602465D01*
G37*
D13*
X55039000Y37709799D02*
X61039000Y37709799D01*
D14*
X55572161Y37745167D02*
X55305839Y38154431D01*
D13*
X58039000Y42909800D02*
X55039000Y37709799D01*
D14*
X58164000Y42449799D02*
X57914000Y42449799D01*
X58174000Y40014799D02*
X57924000Y39844799D01*
D15*
X58299000Y38949799D02*
X57829000Y38849800D01*
D14*
X58319000Y40279799D02*
X58119000Y40099799D01*
X60495839Y37745167D02*
X60762161Y38154431D01*
D13*
X61039000Y37709799D02*
X58039000Y42909800D01*
D16*
X58783500Y39602465D02*
X57968583Y40036382D01*
X58169667Y38776965D01*
X58339000Y39009799D01*
X58180250Y38247799D01*
X57746333Y38893382D01*
X57989750Y38745216D01*
X57513499Y40480882D01*
X58360167Y40025799D01*
X57735750Y41475715D01*
X58254334Y41475715D01*
X58783500Y39602465D01*
G36*
X58783500Y39602465D02*
G01*
X57968583Y40036382D01*
X58169667Y38776965D01*
X58339000Y39009799D01*
X58180250Y38247799D01*
X57746333Y38893382D01*
X57989750Y38745216D01*
X57513499Y40480882D01*
X58360167Y40025799D01*
X57735750Y41475715D01*
X58254334Y41475715D01*
X58783500Y39602465D01*
G37*
G04 #@! TD*
%LPC*%
D17*
G04 #@! TO.C,K203*
X82092800Y33324799D03*
D18*
X79552800Y33324799D03*
X71932800Y33324799D03*
X71932800Y28244799D03*
X79552800Y28244799D03*
X82092800Y28244799D03*
G04 #@! TD*
D19*
G04 #@! TO.C,PS101*
X53263800Y52349399D03*
D20*
X42513800Y52349399D03*
X42513800Y13849399D03*
X50513800Y13849399D03*
G04 #@! TD*
D21*
G04 #@! TO.C,J102*
X4064000Y6095999D03*
X11064000Y6095999D03*
G04 #@! TD*
D22*
G04 #@! TO.C,RV201*
X66484800Y46220999D03*
X68884800Y53720999D03*
G04 #@! TD*
D23*
G04 #@! TO.C,MH102*
X97332800Y39801799D03*
G04 #@! TD*
D17*
G04 #@! TO.C,K202*
X82092800Y42468799D03*
D18*
X79552800Y42468799D03*
X71932800Y42468799D03*
X71932800Y37388799D03*
X79552800Y37388799D03*
X82092800Y37388799D03*
G04 #@! TD*
D23*
G04 #@! TO.C,MH101*
X2590800Y55829199D03*
G04 #@! TD*
D22*
G04 #@! TO.C,RV101*
X35972600Y26000399D03*
X33572600Y18500399D03*
G04 #@! TD*
D24*
G04 #@! TO.C,J101*
X14626600Y51968399D03*
D25*
X9626600Y51968399D03*
D26*
X14626600Y46968399D03*
X9626600Y46968399D03*
X14626600Y41968399D03*
X9626600Y41968399D03*
X14626600Y36968399D03*
X9626600Y36968399D03*
X14626600Y31968399D03*
X9626600Y31968399D03*
X14626600Y26968399D03*
X9626600Y26968399D03*
X14626600Y21968399D03*
X9626600Y21968399D03*
X14626600Y16968399D03*
X9626600Y16968399D03*
G04 #@! TD*
D27*
G04 #@! TO.C,J103*
X70166001Y6451600D03*
X75946001Y6451600D03*
D28*
X68736001Y6971600D03*
D29*
X68736001Y2771600D03*
D28*
X77376001Y6971600D03*
D29*
X77376001Y2771600D03*
G04 #@! TD*
D18*
G04 #@! TO.C,TR201*
X29508000Y26082399D03*
X22308000Y26082399D03*
X29508000Y9782399D03*
X22308000Y9782399D03*
G04 #@! TD*
D23*
G04 #@! TO.C,MH103*
X67741800Y27889199D03*
G04 #@! TD*
D30*
G04 #@! TO.C,K201*
X90358200Y54274299D03*
D31*
X80198200Y54274299D03*
X72578200Y54274299D03*
X75118200Y46654299D03*
X90358200Y46654299D03*
G04 #@! TD*
D32*
G04 #@! TO.C,F101*
X32664400Y30835599D03*
D33*
X32664400Y54965599D03*
G04 #@! TD*
D23*
G04 #@! TO.C,MH104*
X17475200Y8915399D03*
G04 #@! TD*
%LPD*%
M02*
