G04 #@! TF.GenerationSoftware,KiCad,Pcbnew,9.0.3*
G04 #@! TF.CreationDate,2025-11-12T23:01:28+01:00*
G04 #@! TF.ProjectId,esp-ev-switch,6573702d-6576-42d7-9377-697463682e6b,1.0.0*
G04 #@! TF.SameCoordinates,PX6a88c10PY89c843f*
G04 #@! TF.FileFunction,Legend,Top*
G04 #@! TF.FilePolarity,Positive*
%FSLAX46Y46*%
G04 Gerber Fmt 4.6, Leading zero omitted, Abs format (unit mm)*
G04 Created by KiCad (PCBNEW 9.0.3) date 2025-11-12 23:01:28*
%MOMM*%
%LPD*%
G01*
G04 APERTURE LIST*
G04 Aperture macros list*
%AMRoundRect*
0 Rectangle with rounded corners*
0 $1 Rounding radius*
0 $2 $3 $4 $5 $6 $7 $8 $9 X,Y pos of 4 corners*
0 Add a 4 corners polygon primitive as box body*
4,1,4,$2,$3,$4,$5,$6,$7,$8,$9,$2,$3,0*
0 Add four circle primitives for the rounded corners*
1,1,$1+$1,$2,$3*
1,1,$1+$1,$4,$5*
1,1,$1+$1,$6,$7*
1,1,$1+$1,$8,$9*
0 Add four rect primitives between the rounded corners*
20,1,$1+$1,$2,$3,$4,$5,0*
20,1,$1+$1,$4,$5,$6,$7,0*
20,1,$1+$1,$6,$7,$8,$9,0*
20,1,$1+$1,$8,$9,$2,$3,0*%
%AMFreePoly0*
4,1,39,0.585355,0.785355,0.600000,0.750000,0.600000,-0.750000,0.585355,-0.785355,0.550000,-0.800000,0.000000,-0.800000,-0.010328,-0.795722,-0.065263,-0.795722,-0.078204,-0.794018,-0.204283,-0.760236,-0.216342,-0.755241,-0.329381,-0.689978,-0.339736,-0.682032,-0.432032,-0.589736,-0.439978,-0.579381,-0.505241,-0.466342,-0.510236,-0.454283,-0.544018,-0.328204,-0.545722,-0.315263,-0.545722,-0.260327,
-0.550000,-0.250000,-0.550000,0.250000,-0.545722,0.260327,-0.545722,0.315263,-0.544018,0.328204,-0.510236,0.454283,-0.505241,0.466342,-0.439978,0.579381,-0.432032,0.589736,-0.339736,0.682032,-0.329381,0.689978,-0.216342,0.755241,-0.204283,0.760236,-0.078204,0.794018,-0.065263,0.795722,-0.010328,0.795722,0.000000,0.800000,0.550000,0.800000,0.585355,0.785355,0.585355,0.785355,
$1*%
%AMFreePoly1*
4,1,39,0.010328,0.795722,0.065263,0.795722,0.078204,0.794018,0.204283,0.760236,0.216342,0.755241,0.329381,0.689978,0.339736,0.682032,0.432032,0.589736,0.439978,0.579381,0.505241,0.466342,0.510236,0.454283,0.544018,0.328204,0.545722,0.315263,0.545722,0.260327,0.550000,0.250000,0.550000,-0.250000,0.545722,-0.260327,0.545722,-0.315263,0.544018,-0.328204,0.510236,-0.454283,
0.505241,-0.466342,0.439978,-0.579381,0.432032,-0.589736,0.339736,-0.682032,0.329381,-0.689978,0.216342,-0.755241,0.204283,-0.760236,0.078204,-0.794018,0.065263,-0.795722,0.010328,-0.795722,0.000000,-0.800000,-0.550000,-0.800000,-0.585355,-0.785355,-0.600000,-0.750000,-0.600000,0.750000,-0.585355,0.785355,-0.550000,0.800000,0.000000,0.800000,0.010328,0.795722,0.010328,0.795722,
$1*%
G04 Aperture macros list end*
%ADD10C,0.153000*%
%ADD11C,0.300000*%
%ADD12C,0.154000*%
%ADD13C,0.200000*%
%ADD14C,0.120000*%
%ADD15C,0.150000*%
%ADD16C,0.400000*%
%ADD17C,0.101600*%
%ADD18C,0.100000*%
%ADD19C,0.160000*%
%ADD20RoundRect,0.050000X-1.000000X1.000000X-1.000000X-1.000000X1.000000X-1.000000X1.000000X1.000000X0*%
%ADD21C,2.100000*%
%ADD22RoundRect,0.267985X0.477015X-0.489515X0.477015X0.489515X-0.477015X0.489515X-0.477015X-0.489515X0*%
%ADD23RoundRect,0.160000X-0.210000X0.160000X-0.210000X-0.160000X0.210000X-0.160000X0.210000X0.160000X0*%
%ADD24RoundRect,0.050000X-1.500000X1.500000X-1.500000X-1.500000X1.500000X-1.500000X1.500000X1.500000X0*%
%ADD25C,3.100000*%
%ADD26RoundRect,0.250000X-0.400000X0.250000X-0.400000X-0.250000X0.400000X-0.250000X0.400000X0.250000X0*%
%ADD27RoundRect,0.118750X0.118750X-0.181250X0.118750X0.181250X-0.118750X0.181250X-0.118750X-0.181250X0*%
%ADD28RoundRect,0.100000X0.100000X-0.275000X0.100000X0.275000X-0.100000X0.275000X-0.100000X-0.275000X0*%
%ADD29RoundRect,0.050000X0.375000X-0.500000X0.375000X0.500000X-0.375000X0.500000X-0.375000X-0.500000X0*%
%ADD30RoundRect,0.160000X-0.160000X-0.210000X0.160000X-0.210000X0.160000X0.210000X-0.160000X0.210000X0*%
%ADD31RoundRect,0.165000X-0.165000X-0.195000X0.165000X-0.195000X0.165000X0.195000X-0.165000X0.195000X0*%
%ADD32RoundRect,0.165000X-0.195000X0.165000X-0.195000X-0.165000X0.195000X-0.165000X0.195000X0.165000X0*%
%ADD33RoundRect,0.274390X-0.475610X0.288110X-0.475610X-0.288110X0.475610X-0.288110X0.475610X0.288110X0*%
%ADD34C,1.600000*%
%ADD35RoundRect,0.050000X-0.600000X-1.250000X0.600000X-1.250000X0.600000X1.250000X-0.600000X1.250000X0*%
%ADD36RoundRect,0.268750X-0.268750X-0.481250X0.268750X-0.481250X0.268750X0.481250X-0.268750X0.481250X0*%
%ADD37RoundRect,0.165000X0.165000X0.195000X-0.165000X0.195000X-0.165000X-0.195000X0.165000X-0.195000X0*%
%ADD38C,1.900000*%
%ADD39C,2.800000*%
%ADD40RoundRect,0.160000X0.210000X-0.160000X0.210000X0.160000X-0.210000X0.160000X-0.210000X-0.160000X0*%
%ADD41RoundRect,0.243750X-0.281250X0.243750X-0.281250X-0.243750X0.281250X-0.243750X0.281250X0.243750X0*%
%ADD42RoundRect,0.272727X-0.327273X-0.327273X0.327273X-0.327273X0.327273X0.327273X-0.327273X0.327273X0*%
%ADD43RoundRect,0.250000X-0.250000X-0.275000X0.250000X-0.275000X0.250000X0.275000X-0.250000X0.275000X0*%
%ADD44RoundRect,0.250000X0.275000X-0.250000X0.275000X0.250000X-0.275000X0.250000X-0.275000X-0.250000X0*%
%ADD45RoundRect,0.268750X-0.481250X0.268750X-0.481250X-0.268750X0.481250X-0.268750X0.481250X0.268750X0*%
%ADD46RoundRect,0.267985X-0.489515X-0.477015X0.489515X-0.477015X0.489515X0.477015X-0.489515X0.477015X0*%
%ADD47RoundRect,0.100000X-0.100000X-0.200000X0.100000X-0.200000X0.100000X0.200000X-0.100000X0.200000X0*%
%ADD48RoundRect,0.274390X0.475610X-0.288110X0.475610X0.288110X-0.475610X0.288110X-0.475610X-0.288110X0*%
%ADD49RoundRect,0.272727X0.327273X0.327273X-0.327273X0.327273X-0.327273X-0.327273X0.327273X-0.327273X0*%
%ADD50RoundRect,0.050000X-0.370000X1.200000X-0.370000X-1.200000X0.370000X-1.200000X0.370000X1.200000X0*%
%ADD51RoundRect,0.160000X0.160000X0.210000X-0.160000X0.210000X-0.160000X-0.210000X0.160000X-0.210000X0*%
%ADD52RoundRect,0.175000X0.175000X-0.612500X0.175000X0.612500X-0.175000X0.612500X-0.175000X-0.612500X0*%
%ADD53RoundRect,0.400000X-0.650000X-0.400000X0.650000X-0.400000X0.650000X0.400000X-0.650000X0.400000X0*%
%ADD54RoundRect,0.525000X-0.525000X-1.425000X0.525000X-1.425000X0.525000X1.425000X-0.525000X1.425000X0*%
%ADD55RoundRect,0.250000X-0.275000X0.250000X-0.275000X-0.250000X0.275000X-0.250000X0.275000X0.250000X0*%
%ADD56RoundRect,0.275000X-0.500000X0.275000X-0.500000X-0.275000X0.500000X-0.275000X0.500000X0.275000X0*%
%ADD57RoundRect,0.266667X-1.283333X0.533333X-1.283333X-0.533333X1.283333X-0.533333X1.283333X0.533333X0*%
%ADD58RoundRect,0.050000X-1.500000X0.750000X-1.500000X-0.750000X1.500000X-0.750000X1.500000X0.750000X0*%
%ADD59O,3.100000X1.600000*%
%ADD60RoundRect,0.225000X-0.300000X0.225000X-0.300000X-0.225000X0.300000X-0.225000X0.300000X0.225000X0*%
%ADD61RoundRect,0.050000X-0.255000X0.550000X-0.255000X-0.550000X0.255000X-0.550000X0.255000X0.550000X0*%
%ADD62C,0.750000*%
%ADD63RoundRect,0.050000X-0.300000X-0.620000X0.300000X-0.620000X0.300000X0.620000X-0.300000X0.620000X0*%
%ADD64RoundRect,0.050000X-0.150000X-0.620000X0.150000X-0.620000X0.150000X0.620000X-0.150000X0.620000X0*%
%ADD65O,1.100000X2.200000*%
%ADD66O,1.100000X1.900000*%
%ADD67RoundRect,0.274390X0.288110X0.475610X-0.288110X0.475610X-0.288110X-0.475610X0.288110X-0.475610X0*%
%ADD68RoundRect,0.250000X0.250000X0.275000X-0.250000X0.275000X-0.250000X-0.275000X0.250000X-0.275000X0*%
%ADD69RoundRect,0.050000X-0.750000X-0.450000X0.750000X-0.450000X0.750000X0.450000X-0.750000X0.450000X0*%
%ADD70C,0.700000*%
%ADD71RoundRect,0.050000X-1.450000X-1.450000X1.450000X-1.450000X1.450000X1.450000X-1.450000X1.450000X0*%
%ADD72RoundRect,0.100000X0.100000X0.200000X-0.100000X0.200000X-0.100000X-0.200000X0.100000X-0.200000X0*%
%ADD73RoundRect,0.175000X-0.175000X0.612500X-0.175000X-0.612500X0.175000X-0.612500X0.175000X0.612500X0*%
%ADD74RoundRect,0.050000X-1.150000X-1.150000X1.150000X-1.150000X1.150000X1.150000X-1.150000X1.150000X0*%
%ADD75C,2.400000*%
%ADD76RoundRect,0.225000X0.300000X-0.225000X0.300000X0.225000X-0.300000X0.225000X-0.300000X-0.225000X0*%
%ADD77RoundRect,0.050000X1.012500X-1.012500X1.012500X1.012500X-1.012500X1.012500X-1.012500X-1.012500X0*%
%ADD78C,2.125000*%
%ADD79FreePoly0,270.000000*%
%ADD80RoundRect,0.050000X-0.750000X0.500000X-0.750000X-0.500000X0.750000X-0.500000X0.750000X0.500000X0*%
%ADD81FreePoly1,270.000000*%
G04 APERTURE END LIST*
D10*
X5511800Y23977599D02*
X381000Y23977599D01*
X5511800Y18948399D02*
X3276600Y18948399D01*
X3276600Y43967399D02*
X3276600Y13969999D01*
X5511800Y38963599D02*
X3276600Y38963599D01*
X5511800Y13969999D02*
X381000Y13969999D01*
X5511800Y43992799D02*
X381000Y43992799D01*
X5537200Y13055599D02*
X5537200Y10794999D01*
X5511800Y48971199D02*
X381000Y48971199D01*
X5511800Y28955999D02*
X3276600Y28955999D01*
X5511800Y33985199D02*
X381000Y33985199D01*
X5537200Y53949599D02*
X406400Y53949599D01*
D11*
X1013928Y29292514D02*
X942500Y29363942D01*
X942500Y29363942D02*
X871071Y29578228D01*
X871071Y29578228D02*
X871071Y29721085D01*
X871071Y29721085D02*
X942500Y29935371D01*
X942500Y29935371D02*
X1085357Y30078228D01*
X1085357Y30078228D02*
X1228214Y30149657D01*
X1228214Y30149657D02*
X1513928Y30221085D01*
X1513928Y30221085D02*
X1728214Y30221085D01*
X1728214Y30221085D02*
X2013928Y30149657D01*
X2013928Y30149657D02*
X2156785Y30078228D01*
X2156785Y30078228D02*
X2299642Y29935371D01*
X2299642Y29935371D02*
X2371071Y29721085D01*
X2371071Y29721085D02*
X2371071Y29578228D01*
X2371071Y29578228D02*
X2299642Y29363942D01*
X2299642Y29363942D02*
X2228214Y29292514D01*
X871071Y28649657D02*
X2371071Y28649657D01*
X2371071Y28649657D02*
X2371071Y28078228D01*
X2371071Y28078228D02*
X2299642Y27935371D01*
X2299642Y27935371D02*
X2228214Y27863942D01*
X2228214Y27863942D02*
X2085357Y27792514D01*
X2085357Y27792514D02*
X1871071Y27792514D01*
X1871071Y27792514D02*
X1728214Y27863942D01*
X1728214Y27863942D02*
X1656785Y27935371D01*
X1656785Y27935371D02*
X1585357Y28078228D01*
X1585357Y28078228D02*
X1585357Y28649657D01*
D12*
X3888788Y21589999D02*
X4888788Y21589999D01*
D13*
X94293194Y40321713D02*
X94293194Y39921713D01*
X93664623Y39750285D02*
X93664623Y40321713D01*
X93664623Y40321713D02*
X94864623Y40321713D01*
X94864623Y40321713D02*
X94864623Y39750285D01*
X93721766Y39293142D02*
X93664623Y39121713D01*
X93664623Y39121713D02*
X93664623Y38835999D01*
X93664623Y38835999D02*
X93721766Y38721713D01*
X93721766Y38721713D02*
X93778908Y38664571D01*
X93778908Y38664571D02*
X93893194Y38607428D01*
X93893194Y38607428D02*
X94007480Y38607428D01*
X94007480Y38607428D02*
X94121766Y38664571D01*
X94121766Y38664571D02*
X94178908Y38721713D01*
X94178908Y38721713D02*
X94236051Y38835999D01*
X94236051Y38835999D02*
X94293194Y39064571D01*
X94293194Y39064571D02*
X94350337Y39178856D01*
X94350337Y39178856D02*
X94407480Y39235999D01*
X94407480Y39235999D02*
X94521766Y39293142D01*
X94521766Y39293142D02*
X94636051Y39293142D01*
X94636051Y39293142D02*
X94750337Y39235999D01*
X94750337Y39235999D02*
X94807480Y39178856D01*
X94807480Y39178856D02*
X94864623Y39064571D01*
X94864623Y39064571D02*
X94864623Y38778856D01*
X94864623Y38778856D02*
X94807480Y38607428D01*
X93664623Y38093142D02*
X94864623Y38093142D01*
X94864623Y38093142D02*
X94864623Y37635999D01*
X94864623Y37635999D02*
X94807480Y37521714D01*
X94807480Y37521714D02*
X94750337Y37464571D01*
X94750337Y37464571D02*
X94636051Y37407428D01*
X94636051Y37407428D02*
X94464623Y37407428D01*
X94464623Y37407428D02*
X94350337Y37464571D01*
X94350337Y37464571D02*
X94293194Y37521714D01*
X94293194Y37521714D02*
X94236051Y37635999D01*
X94236051Y37635999D02*
X94236051Y38093142D01*
X94293194Y35978856D02*
X94293194Y35578856D01*
X93664623Y35407428D02*
X93664623Y35978856D01*
X93664623Y35978856D02*
X94864623Y35978856D01*
X94864623Y35978856D02*
X94864623Y35407428D01*
X94864623Y35064571D02*
X93664623Y34664571D01*
X93664623Y34664571D02*
X94864623Y34264571D01*
X93721766Y33007428D02*
X93664623Y32835999D01*
X93664623Y32835999D02*
X93664623Y32550285D01*
X93664623Y32550285D02*
X93721766Y32435999D01*
X93721766Y32435999D02*
X93778908Y32378857D01*
X93778908Y32378857D02*
X93893194Y32321714D01*
X93893194Y32321714D02*
X94007480Y32321714D01*
X94007480Y32321714D02*
X94121766Y32378857D01*
X94121766Y32378857D02*
X94178908Y32435999D01*
X94178908Y32435999D02*
X94236051Y32550285D01*
X94236051Y32550285D02*
X94293194Y32778857D01*
X94293194Y32778857D02*
X94350337Y32893142D01*
X94350337Y32893142D02*
X94407480Y32950285D01*
X94407480Y32950285D02*
X94521766Y33007428D01*
X94521766Y33007428D02*
X94636051Y33007428D01*
X94636051Y33007428D02*
X94750337Y32950285D01*
X94750337Y32950285D02*
X94807480Y32893142D01*
X94807480Y32893142D02*
X94864623Y32778857D01*
X94864623Y32778857D02*
X94864623Y32493142D01*
X94864623Y32493142D02*
X94807480Y32321714D01*
X94464623Y31921714D02*
X93664623Y31693142D01*
X93664623Y31693142D02*
X94236051Y31464571D01*
X94236051Y31464571D02*
X93664623Y31236000D01*
X93664623Y31236000D02*
X94464623Y31007428D01*
X93664623Y30550285D02*
X94464623Y30550285D01*
X94864623Y30550285D02*
X94807480Y30607428D01*
X94807480Y30607428D02*
X94750337Y30550285D01*
X94750337Y30550285D02*
X94807480Y30493142D01*
X94807480Y30493142D02*
X94864623Y30550285D01*
X94864623Y30550285D02*
X94750337Y30550285D01*
X94464623Y30150285D02*
X94464623Y29693142D01*
X94864623Y29978856D02*
X93836051Y29978856D01*
X93836051Y29978856D02*
X93721766Y29921713D01*
X93721766Y29921713D02*
X93664623Y29807428D01*
X93664623Y29807428D02*
X93664623Y29693142D01*
X93721766Y28778856D02*
X93664623Y28893142D01*
X93664623Y28893142D02*
X93664623Y29121714D01*
X93664623Y29121714D02*
X93721766Y29235999D01*
X93721766Y29235999D02*
X93778908Y29293142D01*
X93778908Y29293142D02*
X93893194Y29350285D01*
X93893194Y29350285D02*
X94236051Y29350285D01*
X94236051Y29350285D02*
X94350337Y29293142D01*
X94350337Y29293142D02*
X94407480Y29235999D01*
X94407480Y29235999D02*
X94464623Y29121714D01*
X94464623Y29121714D02*
X94464623Y28893142D01*
X94464623Y28893142D02*
X94407480Y28778856D01*
X93664623Y28264571D02*
X94864623Y28264571D01*
X93664623Y27750285D02*
X94293194Y27750285D01*
X94293194Y27750285D02*
X94407480Y27807428D01*
X94407480Y27807428D02*
X94464623Y27921714D01*
X94464623Y27921714D02*
X94464623Y28093143D01*
X94464623Y28093143D02*
X94407480Y28207428D01*
X94407480Y28207428D02*
X94350337Y28264571D01*
X91732690Y39293142D02*
X92304118Y39693142D01*
X91732690Y39978856D02*
X92932690Y39978856D01*
X92932690Y39978856D02*
X92932690Y39521713D01*
X92932690Y39521713D02*
X92875547Y39407428D01*
X92875547Y39407428D02*
X92818404Y39350285D01*
X92818404Y39350285D02*
X92704118Y39293142D01*
X92704118Y39293142D02*
X92532690Y39293142D01*
X92532690Y39293142D02*
X92418404Y39350285D01*
X92418404Y39350285D02*
X92361261Y39407428D01*
X92361261Y39407428D02*
X92304118Y39521713D01*
X92304118Y39521713D02*
X92304118Y39978856D01*
X91789833Y38321713D02*
X91732690Y38435999D01*
X91732690Y38435999D02*
X91732690Y38664570D01*
X91732690Y38664570D02*
X91789833Y38778856D01*
X91789833Y38778856D02*
X91904118Y38835999D01*
X91904118Y38835999D02*
X92361261Y38835999D01*
X92361261Y38835999D02*
X92475547Y38778856D01*
X92475547Y38778856D02*
X92532690Y38664570D01*
X92532690Y38664570D02*
X92532690Y38435999D01*
X92532690Y38435999D02*
X92475547Y38321713D01*
X92475547Y38321713D02*
X92361261Y38264570D01*
X92361261Y38264570D02*
X92246975Y38264570D01*
X92246975Y38264570D02*
X92132690Y38835999D01*
X91732690Y37578857D02*
X91789833Y37693142D01*
X91789833Y37693142D02*
X91904118Y37750285D01*
X91904118Y37750285D02*
X92932690Y37750285D01*
X91789833Y36664571D02*
X91732690Y36778857D01*
X91732690Y36778857D02*
X91732690Y37007428D01*
X91732690Y37007428D02*
X91789833Y37121714D01*
X91789833Y37121714D02*
X91904118Y37178857D01*
X91904118Y37178857D02*
X92361261Y37178857D01*
X92361261Y37178857D02*
X92475547Y37121714D01*
X92475547Y37121714D02*
X92532690Y37007428D01*
X92532690Y37007428D02*
X92532690Y36778857D01*
X92532690Y36778857D02*
X92475547Y36664571D01*
X92475547Y36664571D02*
X92361261Y36607428D01*
X92361261Y36607428D02*
X92246975Y36607428D01*
X92246975Y36607428D02*
X92132690Y37178857D01*
X91732690Y35578857D02*
X92361261Y35578857D01*
X92361261Y35578857D02*
X92475547Y35636000D01*
X92475547Y35636000D02*
X92532690Y35750286D01*
X92532690Y35750286D02*
X92532690Y35978857D01*
X92532690Y35978857D02*
X92475547Y36093143D01*
X91789833Y35578857D02*
X91732690Y35693143D01*
X91732690Y35693143D02*
X91732690Y35978857D01*
X91732690Y35978857D02*
X91789833Y36093143D01*
X91789833Y36093143D02*
X91904118Y36150286D01*
X91904118Y36150286D02*
X92018404Y36150286D01*
X92018404Y36150286D02*
X92132690Y36093143D01*
X92132690Y36093143D02*
X92189833Y35978857D01*
X92189833Y35978857D02*
X92189833Y35693143D01*
X92189833Y35693143D02*
X92246975Y35578857D01*
X91789833Y35064572D02*
X91732690Y34950286D01*
X91732690Y34950286D02*
X91732690Y34721715D01*
X91732690Y34721715D02*
X91789833Y34607429D01*
X91789833Y34607429D02*
X91904118Y34550286D01*
X91904118Y34550286D02*
X91961261Y34550286D01*
X91961261Y34550286D02*
X92075547Y34607429D01*
X92075547Y34607429D02*
X92132690Y34721715D01*
X92132690Y34721715D02*
X92132690Y34893143D01*
X92132690Y34893143D02*
X92189833Y35007429D01*
X92189833Y35007429D02*
X92304118Y35064572D01*
X92304118Y35064572D02*
X92361261Y35064572D01*
X92361261Y35064572D02*
X92475547Y35007429D01*
X92475547Y35007429D02*
X92532690Y34893143D01*
X92532690Y34893143D02*
X92532690Y34721715D01*
X92532690Y34721715D02*
X92475547Y34607429D01*
X91789833Y33578857D02*
X91732690Y33693143D01*
X91732690Y33693143D02*
X91732690Y33921714D01*
X91732690Y33921714D02*
X91789833Y34036000D01*
X91789833Y34036000D02*
X91904118Y34093143D01*
X91904118Y34093143D02*
X92361261Y34093143D01*
X92361261Y34093143D02*
X92475547Y34036000D01*
X92475547Y34036000D02*
X92532690Y33921714D01*
X92532690Y33921714D02*
X92532690Y33693143D01*
X92532690Y33693143D02*
X92475547Y33578857D01*
X92475547Y33578857D02*
X92361261Y33521714D01*
X92361261Y33521714D02*
X92246975Y33521714D01*
X92246975Y33521714D02*
X92132690Y34093143D01*
X91732690Y31464572D02*
X91732690Y32150286D01*
X91732690Y31807429D02*
X92932690Y31807429D01*
X92932690Y31807429D02*
X92761261Y31921715D01*
X92761261Y31921715D02*
X92646975Y32036000D01*
X92646975Y32036000D02*
X92589833Y32150286D01*
X91846975Y30950286D02*
X91789833Y30893143D01*
X91789833Y30893143D02*
X91732690Y30950286D01*
X91732690Y30950286D02*
X91789833Y31007429D01*
X91789833Y31007429D02*
X91846975Y30950286D01*
X91846975Y30950286D02*
X91732690Y30950286D01*
X92932690Y30150286D02*
X92932690Y30036000D01*
X92932690Y30036000D02*
X92875547Y29921714D01*
X92875547Y29921714D02*
X92818404Y29864571D01*
X92818404Y29864571D02*
X92704118Y29807429D01*
X92704118Y29807429D02*
X92475547Y29750286D01*
X92475547Y29750286D02*
X92189833Y29750286D01*
X92189833Y29750286D02*
X91961261Y29807429D01*
X91961261Y29807429D02*
X91846975Y29864571D01*
X91846975Y29864571D02*
X91789833Y29921714D01*
X91789833Y29921714D02*
X91732690Y30036000D01*
X91732690Y30036000D02*
X91732690Y30150286D01*
X91732690Y30150286D02*
X91789833Y30264571D01*
X91789833Y30264571D02*
X91846975Y30321714D01*
X91846975Y30321714D02*
X91961261Y30378857D01*
X91961261Y30378857D02*
X92189833Y30436000D01*
X92189833Y30436000D02*
X92475547Y30436000D01*
X92475547Y30436000D02*
X92704118Y30378857D01*
X92704118Y30378857D02*
X92818404Y30321714D01*
X92818404Y30321714D02*
X92875547Y30264571D01*
X92875547Y30264571D02*
X92932690Y30150286D01*
X91846975Y29236000D02*
X91789833Y29178857D01*
X91789833Y29178857D02*
X91732690Y29236000D01*
X91732690Y29236000D02*
X91789833Y29293143D01*
X91789833Y29293143D02*
X91846975Y29236000D01*
X91846975Y29236000D02*
X91732690Y29236000D01*
X92932690Y28436000D02*
X92932690Y28321714D01*
X92932690Y28321714D02*
X92875547Y28207428D01*
X92875547Y28207428D02*
X92818404Y28150285D01*
X92818404Y28150285D02*
X92704118Y28093143D01*
X92704118Y28093143D02*
X92475547Y28036000D01*
X92475547Y28036000D02*
X92189833Y28036000D01*
X92189833Y28036000D02*
X91961261Y28093143D01*
X91961261Y28093143D02*
X91846975Y28150285D01*
X91846975Y28150285D02*
X91789833Y28207428D01*
X91789833Y28207428D02*
X91732690Y28321714D01*
X91732690Y28321714D02*
X91732690Y28436000D01*
X91732690Y28436000D02*
X91789833Y28550285D01*
X91789833Y28550285D02*
X91846975Y28607428D01*
X91846975Y28607428D02*
X91961261Y28664571D01*
X91961261Y28664571D02*
X92189833Y28721714D01*
X92189833Y28721714D02*
X92475547Y28721714D01*
X92475547Y28721714D02*
X92704118Y28664571D01*
X92704118Y28664571D02*
X92818404Y28607428D01*
X92818404Y28607428D02*
X92875547Y28550285D01*
X92875547Y28550285D02*
X92932690Y28436000D01*
D12*
X79797922Y1016991D02*
X79797922Y2016991D01*
X79797922Y2016991D02*
X80178874Y2016991D01*
X80178874Y2016991D02*
X80274112Y1969372D01*
X80274112Y1969372D02*
X80321731Y1921753D01*
X80321731Y1921753D02*
X80369350Y1826515D01*
X80369350Y1826515D02*
X80369350Y1683658D01*
X80369350Y1683658D02*
X80321731Y1588420D01*
X80321731Y1588420D02*
X80274112Y1540801D01*
X80274112Y1540801D02*
X80178874Y1493182D01*
X80178874Y1493182D02*
X79797922Y1493182D01*
X80702684Y2016991D02*
X80940779Y1016991D01*
X80940779Y1016991D02*
X81131255Y1731277D01*
X81131255Y1731277D02*
X81321731Y1016991D01*
X81321731Y1016991D02*
X81559827Y2016991D01*
X82512207Y1016991D02*
X82178874Y1493182D01*
X81940779Y1016991D02*
X81940779Y2016991D01*
X81940779Y2016991D02*
X82321731Y2016991D01*
X82321731Y2016991D02*
X82416969Y1969372D01*
X82416969Y1969372D02*
X82464588Y1921753D01*
X82464588Y1921753D02*
X82512207Y1826515D01*
X82512207Y1826515D02*
X82512207Y1683658D01*
X82512207Y1683658D02*
X82464588Y1588420D01*
X82464588Y1588420D02*
X82416969Y1540801D01*
X82416969Y1540801D02*
X82321731Y1493182D01*
X82321731Y1493182D02*
X81940779Y1493182D01*
D11*
X2080728Y11537142D02*
X2009300Y11608570D01*
X2009300Y11608570D02*
X1937871Y11822856D01*
X1937871Y11822856D02*
X1937871Y11965713D01*
X1937871Y11965713D02*
X2009300Y12179999D01*
X2009300Y12179999D02*
X2152157Y12322856D01*
X2152157Y12322856D02*
X2295014Y12394285D01*
X2295014Y12394285D02*
X2580728Y12465713D01*
X2580728Y12465713D02*
X2795014Y12465713D01*
X2795014Y12465713D02*
X3080728Y12394285D01*
X3080728Y12394285D02*
X3223585Y12322856D01*
X3223585Y12322856D02*
X3366442Y12179999D01*
X3366442Y12179999D02*
X3437871Y11965713D01*
X3437871Y11965713D02*
X3437871Y11822856D01*
X3437871Y11822856D02*
X3366442Y11608570D01*
X3366442Y11608570D02*
X3295014Y11537142D01*
X3437871Y11108570D02*
X3437871Y10251427D01*
X1937871Y10679999D02*
X3437871Y10679999D01*
D12*
X40294418Y5876303D02*
X40770608Y5876303D01*
X40199180Y5590588D02*
X40532513Y6590588D01*
X40532513Y6590588D02*
X40865846Y5590588D01*
X41770608Y5685827D02*
X41722989Y5638207D01*
X41722989Y5638207D02*
X41580132Y5590588D01*
X41580132Y5590588D02*
X41484894Y5590588D01*
X41484894Y5590588D02*
X41342037Y5638207D01*
X41342037Y5638207D02*
X41246799Y5733446D01*
X41246799Y5733446D02*
X41199180Y5828684D01*
X41199180Y5828684D02*
X41151561Y6019160D01*
X41151561Y6019160D02*
X41151561Y6162017D01*
X41151561Y6162017D02*
X41199180Y6352493D01*
X41199180Y6352493D02*
X41246799Y6447731D01*
X41246799Y6447731D02*
X41342037Y6542969D01*
X41342037Y6542969D02*
X41484894Y6590588D01*
X41484894Y6590588D02*
X41580132Y6590588D01*
X41580132Y6590588D02*
X41722989Y6542969D01*
X41722989Y6542969D02*
X41770608Y6495350D01*
X3837988Y41452799D02*
X4837988Y41452799D01*
D11*
X1937871Y46961371D02*
X3437871Y46961371D01*
X3437871Y46961371D02*
X1937871Y46104228D01*
X1937871Y46104228D02*
X3437871Y46104228D01*
D12*
X79712226Y8938610D02*
X79855083Y8890991D01*
X79855083Y8890991D02*
X80093178Y8890991D01*
X80093178Y8890991D02*
X80188416Y8938610D01*
X80188416Y8938610D02*
X80236035Y8986230D01*
X80236035Y8986230D02*
X80283654Y9081468D01*
X80283654Y9081468D02*
X80283654Y9176706D01*
X80283654Y9176706D02*
X80236035Y9271944D01*
X80236035Y9271944D02*
X80188416Y9319563D01*
X80188416Y9319563D02*
X80093178Y9367182D01*
X80093178Y9367182D02*
X79902702Y9414801D01*
X79902702Y9414801D02*
X79807464Y9462420D01*
X79807464Y9462420D02*
X79759845Y9510039D01*
X79759845Y9510039D02*
X79712226Y9605277D01*
X79712226Y9605277D02*
X79712226Y9700515D01*
X79712226Y9700515D02*
X79759845Y9795753D01*
X79759845Y9795753D02*
X79807464Y9843372D01*
X79807464Y9843372D02*
X79902702Y9890991D01*
X79902702Y9890991D02*
X80140797Y9890991D01*
X80140797Y9890991D02*
X80283654Y9843372D01*
X80569369Y9890991D02*
X81140797Y9890991D01*
X80855083Y8890991D02*
X80855083Y9890991D01*
X81426512Y9176706D02*
X81902702Y9176706D01*
X81331274Y8890991D02*
X81664607Y9890991D01*
X81664607Y9890991D02*
X81997940Y8890991D01*
X82188417Y9890991D02*
X82759845Y9890991D01*
X82474131Y8890991D02*
X82474131Y9890991D01*
X4888788Y26562037D02*
X4888788Y26371561D01*
X4888788Y26371561D02*
X4841169Y26276323D01*
X4841169Y26276323D02*
X4745931Y26181085D01*
X4745931Y26181085D02*
X4555455Y26133466D01*
X4555455Y26133466D02*
X4222122Y26133466D01*
X4222122Y26133466D02*
X4031646Y26181085D01*
X4031646Y26181085D02*
X3936408Y26276323D01*
X3936408Y26276323D02*
X3888788Y26371561D01*
X3888788Y26371561D02*
X3888788Y26562037D01*
X3888788Y26562037D02*
X3936408Y26657275D01*
X3936408Y26657275D02*
X4031646Y26752513D01*
X4031646Y26752513D02*
X4222122Y26800132D01*
X4222122Y26800132D02*
X4555455Y26800132D01*
X4555455Y26800132D02*
X4745931Y26752513D01*
X4745931Y26752513D02*
X4841169Y26657275D01*
X4841169Y26657275D02*
X4888788Y26562037D01*
X95223105Y1548598D02*
X95556438Y1548598D01*
X95699295Y1024788D02*
X95223105Y1024788D01*
X95223105Y1024788D02*
X95223105Y2024788D01*
X95223105Y2024788D02*
X95699295Y2024788D01*
X96127867Y1024788D02*
X96127867Y2024788D01*
X96127867Y2024788D02*
X96699295Y1024788D01*
X96699295Y1024788D02*
X96699295Y2024788D01*
X85841658Y1548598D02*
X85984515Y1500979D01*
X85984515Y1500979D02*
X86032134Y1453360D01*
X86032134Y1453360D02*
X86079753Y1358122D01*
X86079753Y1358122D02*
X86079753Y1215265D01*
X86079753Y1215265D02*
X86032134Y1120027D01*
X86032134Y1120027D02*
X85984515Y1072407D01*
X85984515Y1072407D02*
X85889277Y1024788D01*
X85889277Y1024788D02*
X85508325Y1024788D01*
X85508325Y1024788D02*
X85508325Y2024788D01*
X85508325Y2024788D02*
X85841658Y2024788D01*
X85841658Y2024788D02*
X85936896Y1977169D01*
X85936896Y1977169D02*
X85984515Y1929550D01*
X85984515Y1929550D02*
X86032134Y1834312D01*
X86032134Y1834312D02*
X86032134Y1739074D01*
X86032134Y1739074D02*
X85984515Y1643836D01*
X85984515Y1643836D02*
X85936896Y1596217D01*
X85936896Y1596217D02*
X85841658Y1548598D01*
X85841658Y1548598D02*
X85508325Y1548598D01*
X86698801Y2024788D02*
X86889277Y2024788D01*
X86889277Y2024788D02*
X86984515Y1977169D01*
X86984515Y1977169D02*
X87079753Y1881931D01*
X87079753Y1881931D02*
X87127372Y1691455D01*
X87127372Y1691455D02*
X87127372Y1358122D01*
X87127372Y1358122D02*
X87079753Y1167646D01*
X87079753Y1167646D02*
X86984515Y1072407D01*
X86984515Y1072407D02*
X86889277Y1024788D01*
X86889277Y1024788D02*
X86698801Y1024788D01*
X86698801Y1024788D02*
X86603563Y1072407D01*
X86603563Y1072407D02*
X86508325Y1167646D01*
X86508325Y1167646D02*
X86460706Y1358122D01*
X86460706Y1358122D02*
X86460706Y1691455D01*
X86460706Y1691455D02*
X86508325Y1881931D01*
X86508325Y1881931D02*
X86603563Y1977169D01*
X86603563Y1977169D02*
X86698801Y2024788D01*
X87746420Y2024788D02*
X87936896Y2024788D01*
X87936896Y2024788D02*
X88032134Y1977169D01*
X88032134Y1977169D02*
X88127372Y1881931D01*
X88127372Y1881931D02*
X88174991Y1691455D01*
X88174991Y1691455D02*
X88174991Y1358122D01*
X88174991Y1358122D02*
X88127372Y1167646D01*
X88127372Y1167646D02*
X88032134Y1072407D01*
X88032134Y1072407D02*
X87936896Y1024788D01*
X87936896Y1024788D02*
X87746420Y1024788D01*
X87746420Y1024788D02*
X87651182Y1072407D01*
X87651182Y1072407D02*
X87555944Y1167646D01*
X87555944Y1167646D02*
X87508325Y1358122D01*
X87508325Y1358122D02*
X87508325Y1691455D01*
X87508325Y1691455D02*
X87555944Y1881931D01*
X87555944Y1881931D02*
X87651182Y1977169D01*
X87651182Y1977169D02*
X87746420Y2024788D01*
X88460706Y2024788D02*
X89032134Y2024788D01*
X88746420Y1024788D02*
X88746420Y2024788D01*
X4837988Y36468037D02*
X4837988Y36277561D01*
X4837988Y36277561D02*
X4790369Y36182323D01*
X4790369Y36182323D02*
X4695131Y36087085D01*
X4695131Y36087085D02*
X4504655Y36039466D01*
X4504655Y36039466D02*
X4171322Y36039466D01*
X4171322Y36039466D02*
X3980846Y36087085D01*
X3980846Y36087085D02*
X3885608Y36182323D01*
X3885608Y36182323D02*
X3837988Y36277561D01*
X3837988Y36277561D02*
X3837988Y36468037D01*
X3837988Y36468037D02*
X3885608Y36563275D01*
X3885608Y36563275D02*
X3980846Y36658513D01*
X3980846Y36658513D02*
X4171322Y36706132D01*
X4171322Y36706132D02*
X4504655Y36706132D01*
X4504655Y36706132D02*
X4695131Y36658513D01*
X4695131Y36658513D02*
X4790369Y36563275D01*
X4790369Y36563275D02*
X4837988Y36468037D01*
D11*
X23109729Y28272429D02*
X24609729Y28272429D01*
X23895443Y28272429D02*
X23895443Y27415286D01*
X23109729Y27415286D02*
X24609729Y27415286D01*
X23109729Y26701000D02*
X24609729Y26701000D01*
X24538300Y25200999D02*
X24609729Y25343856D01*
X24609729Y25343856D02*
X24609729Y25558142D01*
X24609729Y25558142D02*
X24538300Y25772428D01*
X24538300Y25772428D02*
X24395443Y25915285D01*
X24395443Y25915285D02*
X24252586Y25986714D01*
X24252586Y25986714D02*
X23966872Y26058142D01*
X23966872Y26058142D02*
X23752586Y26058142D01*
X23752586Y26058142D02*
X23466872Y25986714D01*
X23466872Y25986714D02*
X23324015Y25915285D01*
X23324015Y25915285D02*
X23181158Y25772428D01*
X23181158Y25772428D02*
X23109729Y25558142D01*
X23109729Y25558142D02*
X23109729Y25415285D01*
X23109729Y25415285D02*
X23181158Y25200999D01*
X23181158Y25200999D02*
X23252586Y25129571D01*
X23252586Y25129571D02*
X23752586Y25129571D01*
X23752586Y25129571D02*
X23752586Y25415285D01*
X23109729Y24486714D02*
X24609729Y24486714D01*
X23895443Y24486714D02*
X23895443Y23629571D01*
X23109729Y23629571D02*
X24609729Y23629571D01*
X24609729Y21986713D02*
X23109729Y21486713D01*
X23109729Y21486713D02*
X24609729Y20986713D01*
X24609729Y20200999D02*
X24609729Y19915285D01*
X24609729Y19915285D02*
X24538300Y19772428D01*
X24538300Y19772428D02*
X24395443Y19629571D01*
X24395443Y19629571D02*
X24109729Y19558142D01*
X24109729Y19558142D02*
X23609729Y19558142D01*
X23609729Y19558142D02*
X23324015Y19629571D01*
X23324015Y19629571D02*
X23181158Y19772428D01*
X23181158Y19772428D02*
X23109729Y19915285D01*
X23109729Y19915285D02*
X23109729Y20200999D01*
X23109729Y20200999D02*
X23181158Y20343856D01*
X23181158Y20343856D02*
X23324015Y20486714D01*
X23324015Y20486714D02*
X23609729Y20558142D01*
X23609729Y20558142D02*
X24109729Y20558142D01*
X24109729Y20558142D02*
X24395443Y20486714D01*
X24395443Y20486714D02*
X24538300Y20343856D01*
X24538300Y20343856D02*
X24609729Y20200999D01*
X23109729Y18200999D02*
X23109729Y18915285D01*
X23109729Y18915285D02*
X24609729Y18915285D01*
X24609729Y17915284D02*
X24609729Y17058141D01*
X23109729Y17486713D02*
X24609729Y17486713D01*
X23538300Y16629570D02*
X23538300Y15915284D01*
X23109729Y16772427D02*
X24609729Y16272427D01*
X24609729Y16272427D02*
X23109729Y15772427D01*
X24538300Y14486713D02*
X24609729Y14629570D01*
X24609729Y14629570D02*
X24609729Y14843856D01*
X24609729Y14843856D02*
X24538300Y15058142D01*
X24538300Y15058142D02*
X24395443Y15200999D01*
X24395443Y15200999D02*
X24252586Y15272428D01*
X24252586Y15272428D02*
X23966872Y15343856D01*
X23966872Y15343856D02*
X23752586Y15343856D01*
X23752586Y15343856D02*
X23466872Y15272428D01*
X23466872Y15272428D02*
X23324015Y15200999D01*
X23324015Y15200999D02*
X23181158Y15058142D01*
X23181158Y15058142D02*
X23109729Y14843856D01*
X23109729Y14843856D02*
X23109729Y14700999D01*
X23109729Y14700999D02*
X23181158Y14486713D01*
X23181158Y14486713D02*
X23252586Y14415285D01*
X23252586Y14415285D02*
X23752586Y14415285D01*
X23752586Y14415285D02*
X23752586Y14700999D01*
X23895443Y13772428D02*
X23895443Y13272428D01*
X23109729Y13058142D02*
X23109729Y13772428D01*
X23109729Y13772428D02*
X24609729Y13772428D01*
X24609729Y13772428D02*
X24609729Y13058142D01*
X22051956Y23200998D02*
X22123384Y23129570D01*
X22123384Y23129570D02*
X22194813Y22986712D01*
X22194813Y22986712D02*
X22194813Y22629570D01*
X22194813Y22629570D02*
X22123384Y22486712D01*
X22123384Y22486712D02*
X22051956Y22415284D01*
X22051956Y22415284D02*
X21909099Y22343855D01*
X21909099Y22343855D02*
X21766242Y22343855D01*
X21766242Y22343855D02*
X21551956Y22415284D01*
X21551956Y22415284D02*
X20694813Y23272427D01*
X20694813Y23272427D02*
X20694813Y22343855D01*
X22194813Y21843856D02*
X22194813Y20915284D01*
X22194813Y20915284D02*
X21623384Y21415284D01*
X21623384Y21415284D02*
X21623384Y21200999D01*
X21623384Y21200999D02*
X21551956Y21058141D01*
X21551956Y21058141D02*
X21480527Y20986713D01*
X21480527Y20986713D02*
X21337670Y20915284D01*
X21337670Y20915284D02*
X20980527Y20915284D01*
X20980527Y20915284D02*
X20837670Y20986713D01*
X20837670Y20986713D02*
X20766242Y21058141D01*
X20766242Y21058141D02*
X20694813Y21200999D01*
X20694813Y21200999D02*
X20694813Y21629570D01*
X20694813Y21629570D02*
X20766242Y21772427D01*
X20766242Y21772427D02*
X20837670Y21843856D01*
X22194813Y19986713D02*
X22194813Y19843856D01*
X22194813Y19843856D02*
X22123384Y19700999D01*
X22123384Y19700999D02*
X22051956Y19629570D01*
X22051956Y19629570D02*
X21909099Y19558142D01*
X21909099Y19558142D02*
X21623384Y19486713D01*
X21623384Y19486713D02*
X21266242Y19486713D01*
X21266242Y19486713D02*
X20980527Y19558142D01*
X20980527Y19558142D02*
X20837670Y19629570D01*
X20837670Y19629570D02*
X20766242Y19700999D01*
X20766242Y19700999D02*
X20694813Y19843856D01*
X20694813Y19843856D02*
X20694813Y19986713D01*
X20694813Y19986713D02*
X20766242Y20129570D01*
X20766242Y20129570D02*
X20837670Y20200999D01*
X20837670Y20200999D02*
X20980527Y20272428D01*
X20980527Y20272428D02*
X21266242Y20343856D01*
X21266242Y20343856D02*
X21623384Y20343856D01*
X21623384Y20343856D02*
X21909099Y20272428D01*
X21909099Y20272428D02*
X22051956Y20200999D01*
X22051956Y20200999D02*
X22123384Y20129570D01*
X22123384Y20129570D02*
X22194813Y19986713D01*
X22194813Y19058142D02*
X20694813Y18558142D01*
X20694813Y18558142D02*
X22194813Y18058142D01*
D12*
X96313027Y44528810D02*
X96265408Y44576429D01*
X96265408Y44576429D02*
X96217788Y44719286D01*
X96217788Y44719286D02*
X96217788Y44814524D01*
X96217788Y44814524D02*
X96265408Y44957381D01*
X96265408Y44957381D02*
X96360646Y45052619D01*
X96360646Y45052619D02*
X96455884Y45100238D01*
X96455884Y45100238D02*
X96646360Y45147857D01*
X96646360Y45147857D02*
X96789217Y45147857D01*
X96789217Y45147857D02*
X96979693Y45100238D01*
X96979693Y45100238D02*
X97074931Y45052619D01*
X97074931Y45052619D02*
X97170169Y44957381D01*
X97170169Y44957381D02*
X97217788Y44814524D01*
X97217788Y44814524D02*
X97217788Y44719286D01*
X97217788Y44719286D02*
X97170169Y44576429D01*
X97170169Y44576429D02*
X97122550Y44528810D01*
X96217788Y44100238D02*
X97217788Y44100238D01*
X96741598Y44100238D02*
X96741598Y43528810D01*
X96217788Y43528810D02*
X97217788Y43528810D01*
X97170169Y42528810D02*
X97217788Y42624048D01*
X97217788Y42624048D02*
X97217788Y42766905D01*
X97217788Y42766905D02*
X97170169Y42909762D01*
X97170169Y42909762D02*
X97074931Y43005000D01*
X97074931Y43005000D02*
X96979693Y43052619D01*
X96979693Y43052619D02*
X96789217Y43100238D01*
X96789217Y43100238D02*
X96646360Y43100238D01*
X96646360Y43100238D02*
X96455884Y43052619D01*
X96455884Y43052619D02*
X96360646Y43005000D01*
X96360646Y43005000D02*
X96265408Y42909762D01*
X96265408Y42909762D02*
X96217788Y42766905D01*
X96217788Y42766905D02*
X96217788Y42671667D01*
X96217788Y42671667D02*
X96265408Y42528810D01*
X96265408Y42528810D02*
X96313027Y42481191D01*
X96313027Y42481191D02*
X96646360Y42481191D01*
X96646360Y42481191D02*
X96646360Y42671667D01*
D11*
X871071Y20142057D02*
X2371071Y20142057D01*
X2371071Y20142057D02*
X2371071Y19570628D01*
X2371071Y19570628D02*
X2299642Y19427771D01*
X2299642Y19427771D02*
X2228214Y19356342D01*
X2228214Y19356342D02*
X2085357Y19284914D01*
X2085357Y19284914D02*
X1871071Y19284914D01*
X1871071Y19284914D02*
X1728214Y19356342D01*
X1728214Y19356342D02*
X1656785Y19427771D01*
X1656785Y19427771D02*
X1585357Y19570628D01*
X1585357Y19570628D02*
X1585357Y20142057D01*
X871071Y18642057D02*
X2371071Y18642057D01*
X2371071Y18642057D02*
X2371071Y18070628D01*
X2371071Y18070628D02*
X2299642Y17927771D01*
X2299642Y17927771D02*
X2228214Y17856342D01*
X2228214Y17856342D02*
X2085357Y17784914D01*
X2085357Y17784914D02*
X1871071Y17784914D01*
X1871071Y17784914D02*
X1728214Y17856342D01*
X1728214Y17856342D02*
X1656785Y17927771D01*
X1656785Y17927771D02*
X1585357Y18070628D01*
X1585357Y18070628D02*
X1585357Y18642057D01*
X1937871Y50945314D02*
X1937871Y51659600D01*
X1937871Y51659600D02*
X3437871Y51659600D01*
D12*
X4888788Y16605237D02*
X4888788Y16414761D01*
X4888788Y16414761D02*
X4841169Y16319523D01*
X4841169Y16319523D02*
X4745931Y16224285D01*
X4745931Y16224285D02*
X4555455Y16176666D01*
X4555455Y16176666D02*
X4222122Y16176666D01*
X4222122Y16176666D02*
X4031646Y16224285D01*
X4031646Y16224285D02*
X3936408Y16319523D01*
X3936408Y16319523D02*
X3888788Y16414761D01*
X3888788Y16414761D02*
X3888788Y16605237D01*
X3888788Y16605237D02*
X3936408Y16700475D01*
X3936408Y16700475D02*
X4031646Y16795713D01*
X4031646Y16795713D02*
X4222122Y16843332D01*
X4222122Y16843332D02*
X4555455Y16843332D01*
X4555455Y16843332D02*
X4745931Y16795713D01*
X4745931Y16795713D02*
X4841169Y16700475D01*
X4841169Y16700475D02*
X4888788Y16605237D01*
D11*
X871071Y41070742D02*
X1585357Y41570742D01*
X871071Y41927885D02*
X2371071Y41927885D01*
X2371071Y41927885D02*
X2371071Y41356456D01*
X2371071Y41356456D02*
X2299642Y41213599D01*
X2299642Y41213599D02*
X2228214Y41142170D01*
X2228214Y41142170D02*
X2085357Y41070742D01*
X2085357Y41070742D02*
X1871071Y41070742D01*
X1871071Y41070742D02*
X1728214Y41142170D01*
X1728214Y41142170D02*
X1656785Y41213599D01*
X1656785Y41213599D02*
X1585357Y41356456D01*
X1585357Y41356456D02*
X1585357Y41927885D01*
X1656785Y40427885D02*
X1656785Y39927885D01*
X871071Y39713599D02*
X871071Y40427885D01*
X871071Y40427885D02*
X2371071Y40427885D01*
X2371071Y40427885D02*
X2371071Y39713599D01*
X871071Y38356456D02*
X871071Y39070742D01*
X871071Y39070742D02*
X2371071Y39070742D01*
X1299642Y37927884D02*
X1299642Y37213598D01*
X871071Y38070741D02*
X2371071Y37570741D01*
X2371071Y37570741D02*
X871071Y37070741D01*
X1585357Y36285027D02*
X871071Y36285027D01*
X2371071Y36785027D02*
X1585357Y36285027D01*
X1585357Y36285027D02*
X2371071Y35785027D01*
D12*
X39199180Y3898188D02*
X39199180Y3088665D01*
X39199180Y3088665D02*
X39246799Y2993427D01*
X39246799Y2993427D02*
X39294418Y2945807D01*
X39294418Y2945807D02*
X39389656Y2898188D01*
X39389656Y2898188D02*
X39580132Y2898188D01*
X39580132Y2898188D02*
X39675370Y2945807D01*
X39675370Y2945807D02*
X39722989Y2993427D01*
X39722989Y2993427D02*
X39770608Y3088665D01*
X39770608Y3088665D02*
X39770608Y3898188D01*
X40199180Y2945807D02*
X40342037Y2898188D01*
X40342037Y2898188D02*
X40580132Y2898188D01*
X40580132Y2898188D02*
X40675370Y2945807D01*
X40675370Y2945807D02*
X40722989Y2993427D01*
X40722989Y2993427D02*
X40770608Y3088665D01*
X40770608Y3088665D02*
X40770608Y3183903D01*
X40770608Y3183903D02*
X40722989Y3279141D01*
X40722989Y3279141D02*
X40675370Y3326760D01*
X40675370Y3326760D02*
X40580132Y3374379D01*
X40580132Y3374379D02*
X40389656Y3421998D01*
X40389656Y3421998D02*
X40294418Y3469617D01*
X40294418Y3469617D02*
X40246799Y3517236D01*
X40246799Y3517236D02*
X40199180Y3612474D01*
X40199180Y3612474D02*
X40199180Y3707712D01*
X40199180Y3707712D02*
X40246799Y3802950D01*
X40246799Y3802950D02*
X40294418Y3850569D01*
X40294418Y3850569D02*
X40389656Y3898188D01*
X40389656Y3898188D02*
X40627751Y3898188D01*
X40627751Y3898188D02*
X40770608Y3850569D01*
X41532513Y3421998D02*
X41675370Y3374379D01*
X41675370Y3374379D02*
X41722989Y3326760D01*
X41722989Y3326760D02*
X41770608Y3231522D01*
X41770608Y3231522D02*
X41770608Y3088665D01*
X41770608Y3088665D02*
X41722989Y2993427D01*
X41722989Y2993427D02*
X41675370Y2945807D01*
X41675370Y2945807D02*
X41580132Y2898188D01*
X41580132Y2898188D02*
X41199180Y2898188D01*
X41199180Y2898188D02*
X41199180Y3898188D01*
X41199180Y3898188D02*
X41532513Y3898188D01*
X41532513Y3898188D02*
X41627751Y3850569D01*
X41627751Y3850569D02*
X41675370Y3802950D01*
X41675370Y3802950D02*
X41722989Y3707712D01*
X41722989Y3707712D02*
X41722989Y3612474D01*
X41722989Y3612474D02*
X41675370Y3517236D01*
X41675370Y3517236D02*
X41627751Y3469617D01*
X41627751Y3469617D02*
X41532513Y3421998D01*
X41532513Y3421998D02*
X41199180Y3421998D01*
X3888788Y31546799D02*
X4888788Y31546799D01*
X47894524Y18833388D02*
X47894524Y18119103D01*
X47894524Y18119103D02*
X47846905Y17976246D01*
X47846905Y17976246D02*
X47751667Y17881007D01*
X47751667Y17881007D02*
X47608810Y17833388D01*
X47608810Y17833388D02*
X47513572Y17833388D01*
X48846905Y17833388D02*
X48370715Y17833388D01*
X48370715Y17833388D02*
X48370715Y18833388D01*
X49751667Y17928627D02*
X49704048Y17881007D01*
X49704048Y17881007D02*
X49561191Y17833388D01*
X49561191Y17833388D02*
X49465953Y17833388D01*
X49465953Y17833388D02*
X49323096Y17881007D01*
X49323096Y17881007D02*
X49227858Y17976246D01*
X49227858Y17976246D02*
X49180239Y18071484D01*
X49180239Y18071484D02*
X49132620Y18261960D01*
X49132620Y18261960D02*
X49132620Y18404817D01*
X49132620Y18404817D02*
X49180239Y18595293D01*
X49180239Y18595293D02*
X49227858Y18690531D01*
X49227858Y18690531D02*
X49323096Y18785769D01*
X49323096Y18785769D02*
X49465953Y18833388D01*
X49465953Y18833388D02*
X49561191Y18833388D01*
X49561191Y18833388D02*
X49704048Y18785769D01*
X49704048Y18785769D02*
X49751667Y18738150D01*
X50465953Y18833388D02*
X50465953Y18119103D01*
X50465953Y18119103D02*
X50418334Y17976246D01*
X50418334Y17976246D02*
X50323096Y17881007D01*
X50323096Y17881007D02*
X50180239Y17833388D01*
X50180239Y17833388D02*
X50085001Y17833388D01*
X51418334Y17833388D02*
X50942144Y17833388D01*
X50942144Y17833388D02*
X50942144Y18833388D01*
X52323096Y17928627D02*
X52275477Y17881007D01*
X52275477Y17881007D02*
X52132620Y17833388D01*
X52132620Y17833388D02*
X52037382Y17833388D01*
X52037382Y17833388D02*
X51894525Y17881007D01*
X51894525Y17881007D02*
X51799287Y17976246D01*
X51799287Y17976246D02*
X51751668Y18071484D01*
X51751668Y18071484D02*
X51704049Y18261960D01*
X51704049Y18261960D02*
X51704049Y18404817D01*
X51704049Y18404817D02*
X51751668Y18595293D01*
X51751668Y18595293D02*
X51799287Y18690531D01*
X51799287Y18690531D02*
X51894525Y18785769D01*
X51894525Y18785769D02*
X52037382Y18833388D01*
X52037382Y18833388D02*
X52132620Y18833388D01*
X52132620Y18833388D02*
X52275477Y18785769D01*
X52275477Y18785769D02*
X52323096Y18738150D01*
X53037382Y18833388D02*
X53037382Y18119103D01*
X53037382Y18119103D02*
X52989763Y17976246D01*
X52989763Y17976246D02*
X52894525Y17881007D01*
X52894525Y17881007D02*
X52751668Y17833388D01*
X52751668Y17833388D02*
X52656430Y17833388D01*
X53989763Y17833388D02*
X53513573Y17833388D01*
X53513573Y17833388D02*
X53513573Y18833388D01*
X54894525Y17928627D02*
X54846906Y17881007D01*
X54846906Y17881007D02*
X54704049Y17833388D01*
X54704049Y17833388D02*
X54608811Y17833388D01*
X54608811Y17833388D02*
X54465954Y17881007D01*
X54465954Y17881007D02*
X54370716Y17976246D01*
X54370716Y17976246D02*
X54323097Y18071484D01*
X54323097Y18071484D02*
X54275478Y18261960D01*
X54275478Y18261960D02*
X54275478Y18404817D01*
X54275478Y18404817D02*
X54323097Y18595293D01*
X54323097Y18595293D02*
X54370716Y18690531D01*
X54370716Y18690531D02*
X54465954Y18785769D01*
X54465954Y18785769D02*
X54608811Y18833388D01*
X54608811Y18833388D02*
X54704049Y18833388D01*
X54704049Y18833388D02*
X54846906Y18785769D01*
X54846906Y18785769D02*
X54894525Y18738150D01*
X55608811Y18833388D02*
X55608811Y18119103D01*
X55608811Y18119103D02*
X55561192Y17976246D01*
X55561192Y17976246D02*
X55465954Y17881007D01*
X55465954Y17881007D02*
X55323097Y17833388D01*
X55323097Y17833388D02*
X55227859Y17833388D01*
X56561192Y17833388D02*
X56085002Y17833388D01*
X56085002Y17833388D02*
X56085002Y18833388D01*
X57465954Y17928627D02*
X57418335Y17881007D01*
X57418335Y17881007D02*
X57275478Y17833388D01*
X57275478Y17833388D02*
X57180240Y17833388D01*
X57180240Y17833388D02*
X57037383Y17881007D01*
X57037383Y17881007D02*
X56942145Y17976246D01*
X56942145Y17976246D02*
X56894526Y18071484D01*
X56894526Y18071484D02*
X56846907Y18261960D01*
X56846907Y18261960D02*
X56846907Y18404817D01*
X56846907Y18404817D02*
X56894526Y18595293D01*
X56894526Y18595293D02*
X56942145Y18690531D01*
X56942145Y18690531D02*
X57037383Y18785769D01*
X57037383Y18785769D02*
X57180240Y18833388D01*
X57180240Y18833388D02*
X57275478Y18833388D01*
X57275478Y18833388D02*
X57418335Y18785769D01*
X57418335Y18785769D02*
X57465954Y18738150D01*
D14*
G04 #@! TO.C,K203*
X70692800Y34724799D02*
X83392800Y34724799D01*
X70692800Y26924799D02*
X70692800Y34724799D01*
X77266800Y31902799D02*
X77266800Y29997799D01*
X77774800Y32562799D02*
X77774800Y31902799D01*
X77774800Y29362799D02*
X77774800Y29997799D01*
X78282800Y31902799D02*
X77266800Y31902799D01*
X78282800Y30378799D02*
X77266800Y31013799D01*
X78282800Y29997799D02*
X77266800Y29997799D01*
X78282800Y29997799D02*
X78282800Y31902799D01*
X78409800Y32562799D02*
X77774800Y32562799D01*
X78409800Y29362799D02*
X77774800Y29362799D01*
X81492800Y34924799D02*
X83592800Y34924799D01*
X83392800Y34724799D02*
X83392800Y26924799D01*
X83392800Y26924799D02*
X70692800Y26924799D01*
X83592800Y34924799D02*
X83592800Y32724799D01*
G04 #@! TO.C,C208*
X85862200Y34340599D02*
X85862200Y30420599D01*
X85862200Y30420599D02*
X87772200Y30420599D01*
X87772200Y30420599D02*
X87772200Y34340599D01*
G04 #@! TO.C,R107*
X82017598Y5569242D02*
X82017598Y5261960D01*
X82777598Y5569242D02*
X82777598Y5261960D01*
G04 #@! TO.C,PS101*
X38963800Y56049399D02*
X38963800Y10149399D01*
X54263800Y56349399D02*
X52263800Y56349399D01*
X64563800Y56049399D02*
X38963800Y56049399D01*
X64563800Y56049399D02*
X64563800Y10149399D01*
X64563800Y10149399D02*
X38963800Y10149399D01*
G04 #@! TO.C,D204*
X88103200Y33997198D02*
X88103200Y29987198D01*
X90103200Y33997198D02*
X88103200Y33997198D01*
X90103200Y33997198D02*
X90103200Y29987198D01*
G04 #@! TO.C,U102*
X72060400Y12079999D02*
X72060400Y11029999D01*
X74040400Y12079999D02*
X74040400Y10779999D01*
X72060400Y10379999D02*
X71780400Y10659999D01*
X72060400Y10659999D01*
X72060400Y10379999D01*
G36*
X72060400Y10379999D02*
G01*
X71780400Y10659999D01*
X72060400Y10659999D01*
X72060400Y10379999D01*
G37*
G04 #@! TO.C,SW102*
X84473600Y4826799D02*
X84473600Y7426799D01*
X84923600Y7876799D02*
X84473600Y7426799D01*
X84923600Y4376799D02*
X84473600Y4826799D01*
X86223600Y8876799D02*
X88223600Y8876799D01*
X86223600Y3376799D02*
X88223600Y3376799D01*
X89523600Y7876799D02*
X89973600Y7426799D01*
X89523600Y4376799D02*
X89973600Y4826799D01*
X89973600Y4826799D02*
X89973600Y7426799D01*
G04 #@! TO.C,R104*
X70559958Y11708397D02*
X70867240Y11708397D01*
X70559958Y10948397D02*
X70867240Y10948397D01*
G04 #@! TO.C,SW101*
X93155800Y4829599D02*
X93155800Y7429599D01*
X93605800Y7879599D02*
X93155800Y7429599D01*
X93605800Y4379599D02*
X93155800Y4829599D01*
X94905800Y8879599D02*
X96905800Y8879599D01*
X94905800Y3379599D02*
X96905800Y3379599D01*
X98205800Y7879599D02*
X98655800Y7429599D01*
X98205800Y4379599D02*
X98655800Y4829599D01*
X98655800Y4829599D02*
X98655800Y7429599D01*
G04 #@! TO.C,C108*
X78073364Y23880399D02*
X78289036Y23880399D01*
X78073364Y23160399D02*
X78289036Y23160399D01*
G04 #@! TO.C,C102*
X83561601Y8774636D02*
X83561601Y8558964D01*
X84281601Y8774636D02*
X84281601Y8558964D01*
G04 #@! TO.C,R216*
X89004959Y29046399D02*
X89312241Y29046399D01*
X89004959Y28286399D02*
X89312241Y28286399D01*
G04 #@! TO.C,R212*
X25706400Y16914863D02*
X25706400Y16460735D01*
X27176400Y16914863D02*
X27176400Y16460735D01*
G04 #@! TO.C,J102*
X464000Y8595999D02*
X464000Y3595999D01*
X2464000Y9195999D02*
X2464000Y8595999D01*
X2464000Y9195999D02*
X4839000Y9195999D01*
X2464000Y8595999D02*
X464000Y8595999D01*
X2464000Y3595999D02*
X464000Y3595999D01*
X2464000Y3595999D02*
X2464000Y2995999D01*
X6489000Y9195999D02*
X7839000Y9195999D01*
X9489000Y9195999D02*
X11889000Y9195999D01*
X11889000Y9195999D02*
X11889000Y10595999D01*
X12989000Y2995999D02*
X2464000Y2995999D01*
X13439000Y9195999D02*
X13439000Y10595999D01*
X13439000Y9195999D02*
X14564000Y9195999D01*
X14564000Y2995999D02*
X14564000Y9195999D01*
G04 #@! TO.C,D101*
X79696600Y4343599D02*
X79696600Y2423599D01*
X79696600Y2423599D02*
X82381600Y2423599D01*
X82381600Y4343599D02*
X79696600Y4343599D01*
G04 #@! TO.C,C109*
X78263636Y21848399D02*
X78047964Y21848399D01*
X78263636Y21128399D02*
X78047964Y21128399D01*
D15*
G04 #@! TO.C,RV201*
X64984800Y55970999D02*
X70384800Y55970999D01*
X64984800Y43970999D02*
X64984800Y55970999D01*
X64984800Y43970999D02*
X70384800Y43970999D01*
X70384800Y43970999D02*
X70384800Y55970999D01*
D16*
G04 #@! TO.C,REF\u002A\u002A*
X26584600Y28679399D02*
X31784601Y25679399D01*
X26584600Y22679399D02*
X26584600Y28679399D01*
D13*
X26619968Y28136238D02*
X27029232Y28402560D01*
X26619968Y23212560D02*
X27029232Y22946238D01*
D17*
X27824600Y25939399D02*
X27724601Y25469399D01*
D13*
X28889600Y25814399D02*
X28719600Y25564399D01*
X29154600Y25959399D02*
X28974600Y25759399D01*
X31324600Y25804399D02*
X31324600Y25554399D01*
D16*
X31784601Y25679399D02*
X26584600Y22679399D01*
D18*
X30350516Y25894733D02*
X30350516Y25376149D01*
X28900600Y26000566D01*
X29355683Y25153898D01*
X27620017Y25630149D01*
X27768183Y25386732D01*
X27122600Y25820649D01*
X27884600Y25979399D01*
X27651766Y25810066D01*
X28911183Y25608982D01*
X28477266Y26423899D01*
X30350516Y25894733D01*
G36*
X30350516Y25894733D02*
G01*
X30350516Y25376149D01*
X28900600Y26000566D01*
X29355683Y25153898D01*
X27620017Y25630149D01*
X27768183Y25386732D01*
X27122600Y25820649D01*
X27884600Y25979399D01*
X27651766Y25810066D01*
X28911183Y25608982D01*
X28477266Y26423899D01*
X30350516Y25894733D01*
G37*
D14*
G04 #@! TO.C,R101*
X80770758Y5287602D02*
X81078040Y5287602D01*
X80770758Y4527602D02*
X81078040Y4527602D01*
G04 #@! TO.C,R109*
X73201200Y14690558D02*
X73201200Y14997840D01*
X73961200Y14690558D02*
X73961200Y14997840D01*
G04 #@! TO.C,K202*
X70692800Y43868799D02*
X83392800Y43868799D01*
X70692800Y36068799D02*
X70692800Y43868799D01*
X77266800Y41046799D02*
X77266800Y39141799D01*
X77774800Y41706799D02*
X77774800Y41046799D01*
X77774800Y38506799D02*
X77774800Y39141799D01*
X78282800Y41046799D02*
X77266800Y41046799D01*
X78282800Y39522799D02*
X77266800Y40157799D01*
X78282800Y39141799D02*
X77266800Y39141799D01*
X78282800Y39141799D02*
X78282800Y41046799D01*
X78409800Y41706799D02*
X77774800Y41706799D01*
X78409800Y38506799D02*
X77774800Y38506799D01*
X81492800Y44068799D02*
X83592800Y44068799D01*
X83392800Y43868799D02*
X83392800Y36068799D01*
X83392800Y36068799D02*
X70692800Y36068799D01*
X83592800Y44068799D02*
X83592800Y41868799D01*
G04 #@! TO.C,L101*
X49274000Y3921978D02*
X49274000Y3596420D01*
X50294000Y3921978D02*
X50294000Y3596420D01*
G04 #@! TO.C,D103*
X48996400Y8619999D02*
X48996400Y6619999D01*
X48996400Y8619999D02*
X52856400Y8619999D01*
X48996400Y6619999D02*
X52856400Y6619999D01*
G04 #@! TO.C,C202*
X94239920Y46717099D02*
X94521080Y46717099D01*
X94239920Y45697099D02*
X94521080Y45697099D01*
G04 #@! TO.C,C209*
X84427601Y33412819D02*
X84427601Y33693979D01*
X85447601Y33412819D02*
X85447601Y33693979D01*
G04 #@! TO.C,R215*
X89004959Y28030399D02*
X89312241Y28030399D01*
X89004959Y27270399D02*
X89312241Y27270399D01*
G04 #@! TO.C,R206*
X35053600Y26414463D02*
X35053600Y25960335D01*
X36523600Y26414463D02*
X36523600Y25960335D01*
G04 #@! TO.C,D106*
X93934400Y45398398D02*
X93934400Y42713399D01*
X95854400Y45398398D02*
X93934400Y45398398D01*
X95854400Y42713399D02*
X95854400Y45398398D01*
G04 #@! TO.C,D202*
X88204799Y43152399D02*
X88204799Y39142399D01*
X90204799Y43152399D02*
X88204799Y43152399D01*
X90204799Y43152399D02*
X90204799Y39142399D01*
G04 #@! TO.C,C201*
X92873300Y49041699D02*
X92873300Y47131699D01*
X92873300Y47131699D02*
X96793300Y47131699D01*
X96793300Y49041699D02*
X92873300Y49041699D01*
G04 #@! TO.C,C104*
X52931600Y3618619D02*
X52931600Y3899779D01*
X53951600Y3618619D02*
X53951600Y3899779D01*
G04 #@! TO.C,C111*
X73907764Y13781799D02*
X74123436Y13781799D01*
X73907764Y13061799D02*
X74123436Y13061799D01*
G04 #@! TO.C,C204*
X85963799Y43510000D02*
X85963799Y39590000D01*
X85963799Y39590000D02*
X87873799Y39590000D01*
X87873799Y39590000D02*
X87873799Y43510000D01*
G04 #@! TO.C,D104*
D19*
X70247600Y10363199D02*
G75*
G02*
X70087600Y10363199I-80000J0D01*
G01*
X70087600Y10363199D02*
G75*
G02*
X70247600Y10363199I80000J0D01*
G01*
D14*
G04 #@! TO.C,D102*
X79696600Y8407599D02*
X79696600Y6487599D01*
X79696600Y6487599D02*
X82381600Y6487599D01*
X82381600Y8407599D02*
X79696600Y8407599D01*
G04 #@! TO.C,R201*
X20855000Y2922535D02*
X20855000Y3376663D01*
X22325000Y2922535D02*
X22325000Y3376663D01*
G04 #@! TO.C,C105*
X63256200Y8508799D02*
X63256200Y4588799D01*
X63256200Y4588799D02*
X65166200Y4588799D01*
X65166200Y4588799D02*
X65166200Y8508799D01*
G04 #@! TO.C,D203*
X35153800Y12302999D02*
X31293800Y12302999D01*
X35153800Y10302999D02*
X31293800Y10302999D01*
X35153800Y10302999D02*
X35153800Y12302999D01*
G04 #@! TO.C,J104*
X68901800Y22623399D02*
X68901800Y18993399D01*
X68966800Y22623399D02*
X68901800Y22623399D01*
X68966800Y18993399D02*
X68901800Y18993399D01*
X75406800Y23898399D02*
X75406800Y22623399D01*
X75471800Y22623399D02*
X75406800Y22623399D01*
X75471800Y22623399D02*
X75471800Y18993399D01*
X75471800Y18993399D02*
X75406800Y18993399D01*
G04 #@! TO.C,R106*
X97334041Y26389599D02*
X97026759Y26389599D01*
X97334041Y25629599D02*
X97026759Y25629599D01*
G04 #@! TO.C,R214*
X28297200Y15086063D02*
X28297200Y14631935D01*
X29767200Y15086063D02*
X29767200Y14631935D01*
G04 #@! TO.C,Q202*
X84967600Y37361099D02*
X84967600Y38011099D01*
X84967600Y37361099D02*
X84967600Y36711099D01*
X88087600Y37361099D02*
X88087600Y38011099D01*
X88087600Y37361099D02*
X88087600Y36711099D01*
X85017600Y36198599D02*
X84687600Y35958599D01*
X84687600Y36438599D01*
X85017600Y36198599D01*
G36*
X85017600Y36198599D02*
G01*
X84687600Y35958599D01*
X84687600Y36438599D01*
X85017600Y36198599D01*
G37*
G04 #@! TO.C,Q203*
X84850800Y28170898D02*
X84850800Y28820898D01*
X84850800Y28170898D02*
X84850800Y27520898D01*
X87970800Y28170898D02*
X87970800Y28820898D01*
X87970800Y28170898D02*
X87970800Y27520898D01*
X84900800Y27008398D02*
X84570800Y26768398D01*
X84570800Y27248398D01*
X84900800Y27008398D01*
G36*
X84900800Y27008398D02*
G01*
X84570800Y26768398D01*
X84570800Y27248398D01*
X84900800Y27008398D01*
G37*
D15*
G04 #@! TO.C,RV101*
X20668000Y41813999D02*
X20668000Y29813998D01*
X26068000Y41813999D02*
X20668000Y41813999D01*
X26068000Y41813999D02*
X26068000Y29813999D01*
X26068000Y29813999D02*
X20668000Y29813998D01*
D14*
G04 #@! TO.C,U101*
X56824400Y8453199D02*
X60584400Y8453199D01*
X56824400Y1633199D02*
X60584400Y1633199D01*
X60584400Y8453199D02*
X60584400Y7193199D01*
X60584400Y1633199D02*
X60584400Y2893199D01*
X55544400Y8353199D02*
X55304400Y8683199D01*
X55784400Y8683199D01*
X55544400Y8353199D01*
G36*
X55544400Y8353199D02*
G01*
X55304400Y8683199D01*
X55784400Y8683199D01*
X55544400Y8353199D01*
G37*
G04 #@! TO.C,R213*
X33377200Y15086063D02*
X33377200Y14631935D01*
X34847200Y15086063D02*
X34847200Y14631935D01*
G04 #@! TO.C,R105*
X75540840Y11708399D02*
X75233558Y11708399D01*
X75540840Y10948399D02*
X75233558Y10948399D01*
G04 #@! TO.C,R205*
X96394000Y54434439D02*
X96394000Y54741721D01*
X97154000Y54434439D02*
X97154000Y54741721D01*
G04 #@! TO.C,R210*
X89101958Y38175200D02*
X89409240Y38175200D01*
X89101958Y37415200D02*
X89409240Y37415200D01*
G04 #@! TO.C,C206*
X33932400Y5931779D02*
X33932400Y5650619D01*
X34952400Y5931779D02*
X34952400Y5650619D01*
G04 #@! TO.C,C207*
X30837200Y15094851D02*
X30837200Y14572347D01*
X32307200Y15094851D02*
X32307200Y14572347D01*
G04 #@! TO.C,D201*
X92881699Y51374697D02*
X92881699Y49374697D01*
X92881699Y51374697D02*
X96741699Y51374697D01*
X92881699Y49374697D02*
X96741699Y49374697D01*
G04 #@! TO.C,R108*
X72236000Y14690558D02*
X72236000Y14997840D01*
X72996000Y14690558D02*
X72996000Y14997840D01*
G04 #@! TO.C,J101*
X5506600Y55588399D02*
X19746600Y55588399D01*
X5506600Y52268399D02*
X5506600Y55588399D01*
X5506600Y13048399D02*
X5506600Y51668399D01*
X5626600Y53968399D02*
X19626600Y53968399D01*
X5626600Y48968399D02*
X5626600Y53968399D01*
X5626600Y48968399D02*
X19626600Y48968399D01*
X5626600Y43968399D02*
X5626600Y48968399D01*
X5626600Y43968399D02*
X19626600Y43968399D01*
X5626600Y38968399D02*
X5626600Y43968399D01*
X5626600Y38968399D02*
X19626600Y38968399D01*
X5626600Y33968399D02*
X5626600Y38968399D01*
X5626600Y33968399D02*
X19626600Y33968399D01*
X5626600Y28968399D02*
X5626600Y33968399D01*
X5626600Y28968399D02*
X19626600Y28968399D01*
X5626600Y23968399D02*
X5626600Y28968399D01*
X5626600Y23968399D02*
X19626600Y23968399D01*
X5626600Y18968399D02*
X5626600Y23968399D01*
X5626600Y18968399D02*
X19626600Y18968399D01*
X5626600Y13968399D02*
X5626600Y18968399D01*
X6626600Y55588399D02*
X6626600Y13048399D01*
X6926600Y53468399D02*
X10226600Y53468399D01*
X6926600Y49468399D02*
X6926600Y53468399D01*
X6926600Y48468399D02*
X10226600Y48468399D01*
X6926600Y44468399D02*
X6926600Y48468399D01*
X6926600Y43468399D02*
X10226600Y43468399D01*
X6926600Y39468399D02*
X6926600Y43468399D01*
X6926600Y38468399D02*
X10226600Y38468399D01*
X6926600Y34468399D02*
X6926600Y38468399D01*
X6926600Y33468399D02*
X10226600Y33468399D01*
X6926600Y29468399D02*
X6926600Y33468399D01*
X6926600Y28468399D02*
X10226600Y28468399D01*
X6926600Y24468399D02*
X6926600Y28468399D01*
X6926600Y23468399D02*
X10226600Y23468399D01*
X6926600Y19468399D02*
X6926600Y23468399D01*
X6926600Y18468399D02*
X10226600Y18468399D01*
X6926600Y14468399D02*
X6926600Y18468399D01*
X10226600Y53468399D02*
X10226600Y53198399D01*
X10226600Y50738399D02*
X10226600Y49468399D01*
X10226600Y49468399D02*
X6926600Y49468399D01*
X10226600Y48468399D02*
X10226600Y48198399D01*
X10226600Y45738399D02*
X10226600Y44468399D01*
X10226600Y44468399D02*
X6926600Y44468399D01*
X10226600Y43468399D02*
X10226600Y43198399D01*
X10226600Y40738399D02*
X10226600Y39468399D01*
X10226600Y39468399D02*
X6926600Y39468399D01*
X10226600Y38468399D02*
X10226600Y38198399D01*
X10226600Y35738399D02*
X10226600Y34468399D01*
X10226600Y34468399D02*
X6926600Y34468399D01*
X10226600Y33468399D02*
X10226600Y33198399D01*
X10226600Y30738399D02*
X10226600Y29468399D01*
X10226600Y29468399D02*
X6926600Y29468399D01*
X10226600Y28468399D02*
X10226600Y28198399D01*
X10226600Y25738399D02*
X10226600Y24468399D01*
X10226600Y24468399D02*
X6926600Y24468399D01*
X10226600Y23468399D02*
X10226600Y23198399D01*
X10226600Y20738399D02*
X10226600Y19468399D01*
X10226600Y19468399D02*
X6926600Y19468399D01*
X10226600Y18468399D02*
X10226600Y18198399D01*
X10226600Y15738399D02*
X10226600Y14468399D01*
X10226600Y14468399D02*
X6926600Y14468399D01*
X10926600Y53468399D02*
X11926600Y53468399D01*
X10926600Y53198399D02*
X10926600Y53468399D01*
X10926600Y49468399D02*
X10926600Y50738399D01*
X10926600Y48468399D02*
X11926600Y48468399D01*
X10926600Y48198399D02*
X10926600Y48468399D01*
X10926600Y44468399D02*
X10926600Y45738399D01*
X10926600Y43468399D02*
X11926600Y43468399D01*
X10926600Y43198399D02*
X10926600Y43468399D01*
X10926600Y39468399D02*
X10926600Y40738399D01*
X10926600Y38468399D02*
X11926600Y38468399D01*
X10926600Y38198399D02*
X10926600Y38468399D01*
X10926600Y34468399D02*
X10926600Y35738399D01*
X10926600Y33468399D02*
X11926600Y33468399D01*
X10926600Y33198399D02*
X10926600Y33468399D01*
X10926600Y29468399D02*
X10926600Y30738399D01*
X10926600Y28468399D02*
X11926600Y28468399D01*
X10926600Y28198399D02*
X10926600Y28468399D01*
X10926600Y24468399D02*
X10926600Y25738399D01*
X10926600Y23468399D02*
X11926600Y23468399D01*
X10926600Y23198399D02*
X10926600Y23468399D01*
X10926600Y19468399D02*
X10926600Y20738399D01*
X10926600Y18468399D02*
X11926600Y18468399D01*
X10926600Y18198399D02*
X10926600Y18468399D01*
X10926600Y14468399D02*
X10926600Y15738399D01*
X11926600Y53468399D02*
X11926600Y49468399D01*
X11926600Y49468399D02*
X10926600Y49468399D01*
X11926600Y48468399D02*
X11926600Y44468399D01*
X11926600Y44468399D02*
X10926600Y44468399D01*
X11926600Y43468399D02*
X11926600Y39468399D01*
X11926600Y39468399D02*
X10926600Y39468399D01*
X11926600Y38468399D02*
X11926600Y34468399D01*
X11926600Y34468399D02*
X10926600Y34468399D01*
X11926600Y33468399D02*
X11926600Y29468399D01*
X11926600Y29468399D02*
X10926600Y29468399D01*
X11926600Y28468399D02*
X11926600Y24468399D01*
X11926600Y24468399D02*
X10926600Y24468399D01*
X11926600Y23468399D02*
X11926600Y19468399D01*
X11926600Y19468399D02*
X10926600Y19468399D01*
X11926600Y18468399D02*
X11926600Y14468399D01*
X11926600Y14468399D02*
X10926600Y14468399D01*
X12326600Y55588399D02*
X12326600Y13048399D01*
X15126600Y55588399D02*
X15126600Y53198399D01*
X15126600Y50738399D02*
X15126600Y48198399D01*
X15126600Y45738399D02*
X15126600Y43198399D01*
X15126600Y40738399D02*
X15126600Y38198399D01*
X15126600Y35738399D02*
X15126600Y33198399D01*
X15126600Y30738399D02*
X15126600Y28198399D01*
X15126600Y25738399D02*
X15126600Y23198399D01*
X15126600Y20738399D02*
X15126600Y18198399D01*
X15126600Y15738399D02*
X15126600Y13048399D01*
X16776600Y51968399D02*
X19276600Y51968399D01*
X16776600Y50968399D02*
X16776600Y51968399D01*
X16776600Y46968399D02*
X19276600Y46968399D01*
X16776600Y45968399D02*
X16776600Y46968399D01*
X16776600Y41968399D02*
X19276600Y41968399D01*
X16776600Y40968399D02*
X16776600Y41968399D01*
X16776600Y36968399D02*
X19276600Y36968399D01*
X16776600Y35968399D02*
X16776600Y36968399D01*
X16776600Y31968399D02*
X19276600Y31968399D01*
X16776600Y30968399D02*
X16776600Y31968399D01*
X16776600Y26968399D02*
X19276600Y26968399D01*
X16776600Y25968399D02*
X16776600Y26968399D01*
X16776600Y21968399D02*
X19276600Y21968399D01*
X16776600Y20968399D02*
X16776600Y21968399D01*
X16776600Y16968399D02*
X19276600Y16968399D01*
X16776600Y15968399D02*
X16776600Y16968399D01*
X19276600Y51968399D02*
X19276600Y50968399D01*
X19276600Y50968399D02*
X16776600Y50968399D01*
X19276600Y46968399D02*
X19276600Y45968399D01*
X19276600Y45968399D02*
X16776600Y45968399D01*
X19276600Y41968399D02*
X19276600Y40968399D01*
X19276600Y40968399D02*
X16776600Y40968399D01*
X19276600Y36968399D02*
X19276600Y35968399D01*
X19276600Y35968399D02*
X16776600Y35968399D01*
X19276600Y31968399D02*
X19276600Y30968399D01*
X19276600Y30968399D02*
X16776600Y30968399D01*
X19276600Y26968399D02*
X19276600Y25968399D01*
X19276600Y25968399D02*
X16776600Y25968399D01*
X19276600Y21968399D02*
X19276600Y20968399D01*
X19276600Y20968399D02*
X16776600Y20968399D01*
X19276600Y16968399D02*
X19276600Y15968399D01*
X19276600Y15968399D02*
X16776600Y15968399D01*
X19626600Y53968399D02*
X19626600Y48968399D01*
X19626600Y48968399D02*
X5626600Y48968399D01*
X19626600Y48968399D02*
X19626600Y43968399D01*
X19626600Y43968399D02*
X5626600Y43968399D01*
X19626600Y43968399D02*
X19626600Y38968399D01*
X19626600Y38968399D02*
X5626600Y38968399D01*
X19626600Y38968399D02*
X19626600Y33968399D01*
X19626600Y33968399D02*
X5626600Y33968399D01*
X19626600Y33968399D02*
X19626600Y28968399D01*
X19626600Y28968399D02*
X5626600Y28968399D01*
X19626600Y28968399D02*
X19626600Y23968399D01*
X19626600Y23968399D02*
X5626600Y23968399D01*
X19626600Y23968399D02*
X19626600Y18968399D01*
X19626600Y18968399D02*
X5626600Y18968399D01*
X19626600Y18968399D02*
X19626600Y13968399D01*
X19626600Y13968399D02*
X5626600Y13968399D01*
X19746600Y55588399D02*
X19746600Y13048399D01*
X19746600Y13048399D02*
X5506600Y13048399D01*
X5506600Y51968399D02*
X4896600Y51528399D01*
X4896600Y52408399D01*
X5506600Y51968399D01*
G36*
X5506600Y51968399D02*
G01*
X4896600Y51528399D01*
X4896600Y52408399D01*
X5506600Y51968399D01*
G37*
G04 #@! TO.C,R209*
X89101958Y37144000D02*
X89409240Y37144000D01*
X89101958Y36384000D02*
X89409240Y36384000D01*
G04 #@! TO.C,R202*
X25893500Y5114057D02*
X25893500Y4639541D01*
X26938500Y5114057D02*
X26938500Y4639541D01*
D15*
G04 #@! TO.C,U201*
X28376600Y6733599D02*
X28376600Y2593599D01*
X33516600Y6733599D02*
X33516600Y2593599D01*
D14*
X33803519Y6823599D02*
X33473519Y7063599D01*
X33803519Y7303599D01*
X33803519Y6823599D01*
G36*
X33803519Y6823599D02*
G01*
X33473519Y7063599D01*
X33803519Y7303599D01*
X33803519Y6823599D01*
G37*
G04 #@! TO.C,C103*
X50657800Y5714799D02*
X50657800Y1794799D01*
X50657800Y1794799D02*
X52567800Y1794799D01*
X52567800Y1794799D02*
X52567800Y5714799D01*
G04 #@! TO.C,C205*
X84529199Y42582220D02*
X84529199Y42863380D01*
X85549199Y42582220D02*
X85549199Y42863380D01*
G04 #@! TO.C,J103*
X68476001Y5696600D02*
X68476001Y3776600D01*
X68476001Y61600D02*
X68476001Y1766600D01*
X77636001Y3776600D02*
X77636001Y5696600D01*
X77636001Y1766600D02*
X77636001Y61600D01*
X77636001Y61600D02*
X68476001Y61600D01*
G04 #@! TO.C,R211*
X32307264Y21689999D02*
X31853136Y21689999D01*
X32307264Y20219999D02*
X31853136Y20219999D01*
G04 #@! TO.C,R203*
X96394001Y52811322D02*
X96394001Y52504040D01*
X97154001Y52811322D02*
X97154001Y52504040D01*
G04 #@! TO.C,R103*
X78330042Y22858999D02*
X78022760Y22858999D01*
X78330042Y22098999D02*
X78022760Y22098999D01*
G04 #@! TO.C,R102*
X80770758Y6303600D02*
X81078040Y6303600D01*
X80770758Y5543600D02*
X81078040Y5543600D01*
G04 #@! TO.C,R207*
X35053600Y21944063D02*
X35053600Y21489935D01*
X36523600Y21944063D02*
X36523600Y21489935D01*
G04 #@! TO.C,C107*
X77864580Y25274999D02*
X77583420Y25274999D01*
X77864580Y24254999D02*
X77583420Y24254999D01*
G04 #@! TO.C,R110*
X93015800Y44321758D02*
X93015800Y44629040D01*
X93775800Y44321758D02*
X93775800Y44629040D01*
G04 #@! TO.C,U103*
X79879200Y25081199D02*
X79879200Y24281199D01*
X79879200Y25081199D02*
X98099200Y25081199D01*
X79879200Y10861199D02*
X79879200Y10561199D01*
X79879200Y10561199D02*
X98099200Y10561199D01*
X98099200Y25081199D02*
X98099200Y24281199D01*
X98099200Y10861199D02*
X98099200Y10561199D01*
X79589200Y24271199D02*
X79089200Y24271199D01*
X79589200Y24771199D01*
X79589200Y24271199D01*
G36*
X79589200Y24271199D02*
G01*
X79089200Y24271199D01*
X79589200Y24771199D01*
X79589200Y24271199D01*
G37*
G04 #@! TO.C,D105*
D19*
X76018801Y10363200D02*
G75*
G02*
X75858801Y10363200I-80000J0D01*
G01*
X75858801Y10363200D02*
G75*
G02*
X76018801Y10363200I80000J0D01*
G01*
D14*
G04 #@! TO.C,C203*
X22825999Y4736219D02*
X22825999Y5017379D01*
X23845999Y4736219D02*
X23845999Y5017379D01*
G04 #@! TO.C,Q201*
X92944498Y53598198D02*
X92944498Y54248198D01*
X92944498Y53598198D02*
X92944498Y52948198D01*
X96064498Y53598198D02*
X96064498Y54248198D01*
X96064498Y53598198D02*
X96064498Y52948198D01*
X96344498Y54520698D02*
X96014498Y54760698D01*
X96344498Y55000698D01*
X96344498Y54520698D01*
G36*
X96344498Y54520698D02*
G01*
X96014498Y54760698D01*
X96344498Y55000698D01*
X96344498Y54520698D01*
G37*
G04 #@! TO.C,C101*
X92248400Y8751835D02*
X92248400Y8536163D01*
X92968400Y8751835D02*
X92968400Y8536163D01*
G04 #@! TO.C,K201*
X70898200Y55964299D02*
X70898200Y44964299D01*
X72578200Y53004299D02*
X72578200Y50464299D01*
X75118200Y47924299D02*
X75118200Y49194299D01*
X77023200Y50464299D02*
X73213200Y47924299D01*
X80198200Y53004299D02*
X80198200Y50464299D01*
X80198200Y50464299D02*
X77023200Y50464299D01*
X87308200Y51984299D02*
X87818200Y51984299D01*
X87308200Y49444299D02*
X87308200Y51984299D01*
X87818200Y54274299D02*
X87818200Y51984299D01*
X87818200Y51984299D02*
X88328200Y51984299D01*
X87818200Y49444299D02*
X87308200Y49444299D01*
X87818200Y49444299D02*
X87818200Y46654299D01*
X87818200Y46654299D02*
X89088200Y46654299D01*
X88328200Y51984299D02*
X88328200Y49444299D01*
X88328200Y51224299D02*
X87308200Y50214299D01*
X88328200Y49444299D02*
X87818200Y49444299D01*
X89088200Y54274299D02*
X87818200Y54274299D01*
X92038200Y55964299D02*
X70898200Y55964299D01*
X92038200Y55964299D02*
X92038200Y44964299D01*
X92038200Y44964299D02*
X70898200Y44964299D01*
X77150200Y50464299D02*
G75*
G02*
X76896200Y50464299I-127000J0D01*
G01*
X76896200Y50464299D02*
G75*
G02*
X77150200Y50464299I127000J0D01*
G01*
G04 #@! TO.C,C110*
X72266636Y13781799D02*
X72050964Y13781799D01*
X72266636Y13061799D02*
X72050964Y13061799D01*
G04 #@! TO.C,R204*
X24337499Y4639540D02*
X24337499Y5114056D01*
X25382499Y4639540D02*
X25382499Y5114056D01*
D13*
G04 #@! TO.C,F101*
X27564400Y56000599D02*
X31864400Y56000599D01*
X27564400Y29800599D02*
X27564400Y56000599D01*
X31364400Y29800599D02*
X27564400Y29800599D01*
D18*
X32664400Y29335599D02*
X32664400Y29335599D01*
X32664400Y29235599D02*
X32664400Y29235599D01*
D13*
X33464400Y56000599D02*
X37764400Y56000599D01*
X37764400Y56000599D02*
X37764400Y29800599D01*
X37764400Y29800599D02*
X33964400Y29800599D01*
D18*
X32664400Y29335599D02*
G75*
G02*
X32664400Y29235599I0J-50000D01*
G01*
X32664400Y29235599D02*
G75*
G02*
X32664400Y29335599I0J50000D01*
G01*
D14*
G04 #@! TO.C,R208*
X27582864Y21689999D02*
X27128736Y21689999D01*
X27582864Y20219999D02*
X27128736Y20219999D01*
G04 #@! TO.C,JP101*
X42289600Y6224399D02*
X42289600Y5624399D01*
X42589600Y5924399D02*
X42289600Y6224399D01*
X42589600Y5924399D02*
X42289600Y5624399D01*
X42789600Y3324399D02*
X42789600Y6124399D01*
X43489600Y6774399D02*
X44089600Y6774399D01*
X44089600Y2674399D02*
X43489600Y2674399D01*
X44789600Y6124399D02*
X44789600Y3324399D01*
X42789600Y6074399D02*
G75*
G02*
X43489600Y6774399I699999J1D01*
G01*
X43489600Y2674399D02*
G75*
G02*
X42789600Y3374399I0J700000D01*
G01*
X44089600Y6774399D02*
G75*
G02*
X44789600Y6074399I1J-699999D01*
G01*
X44789600Y3374399D02*
G75*
G02*
X44089600Y2674399I-700000J0D01*
G01*
G04 #@! TO.C,C106*
X63701200Y2972379D02*
X63701200Y2691219D01*
X64721200Y2972379D02*
X64721200Y2691219D01*
G04 #@! TD*
%LPC*%
G04 #@! TO.C,JP101*
G36*
X44539600Y5474399D02*
G01*
X43039600Y5474399D01*
X43039600Y3974399D01*
X44539600Y3974399D01*
X44539600Y5474399D01*
G37*
G04 #@! TD*
D20*
G04 #@! TO.C,K203*
X82092800Y33324799D03*
D21*
X79552800Y33324799D03*
X71932800Y33324799D03*
X71932800Y28244799D03*
X79552800Y28244799D03*
X82092800Y28244799D03*
G04 #@! TD*
D22*
G04 #@! TO.C,C208*
X86817200Y31388099D03*
X86817200Y34093099D03*
G04 #@! TD*
D23*
G04 #@! TO.C,R107*
X82397598Y5925601D03*
X82397598Y4905601D03*
G04 #@! TD*
D24*
G04 #@! TO.C,PS101*
X53263800Y52349399D03*
D25*
X42513800Y52349399D03*
X42513800Y13849399D03*
X50513800Y13849399D03*
G04 #@! TD*
D26*
G04 #@! TO.C,D204*
X89103200Y33287198D03*
X89103200Y29987198D03*
G04 #@! TD*
D27*
G04 #@! TO.C,U102*
X72512900Y10579999D03*
D28*
X73050400Y10504999D03*
D27*
X73587900Y10579999D03*
X73587900Y12279999D03*
D28*
X73050400Y12354999D03*
D27*
X72512900Y12279999D03*
G04 #@! TD*
D29*
G04 #@! TO.C,SW102*
X85348600Y3126799D03*
X85348600Y9126799D03*
X89098600Y3126799D03*
X89098600Y9126799D03*
G04 #@! TD*
D30*
G04 #@! TO.C,R104*
X70203599Y11328397D03*
X71223599Y11328397D03*
G04 #@! TD*
D29*
G04 #@! TO.C,SW101*
X94030800Y3129599D03*
X94030800Y9129599D03*
X97780800Y3129599D03*
X97780800Y9129599D03*
G04 #@! TD*
D31*
G04 #@! TO.C,C108*
X77701200Y23520399D03*
X78661200Y23520399D03*
G04 #@! TD*
D32*
G04 #@! TO.C,C102*
X83921601Y9146800D03*
X83921601Y8186800D03*
G04 #@! TD*
D30*
G04 #@! TO.C,R216*
X88648600Y28666399D03*
X89668600Y28666399D03*
G04 #@! TD*
D33*
G04 #@! TO.C,R212*
X26441400Y17600299D03*
X26441400Y15775299D03*
G04 #@! TD*
D34*
G04 #@! TO.C,J102*
X4064000Y6095999D03*
X11064000Y6095999D03*
D35*
X8664000Y9345999D03*
X5664000Y9345999D03*
X13764000Y2845999D03*
X12664000Y9345999D03*
G04 #@! TD*
D36*
G04 #@! TO.C,D101*
X80444100Y3383599D03*
X82319100Y3383599D03*
G04 #@! TD*
D37*
G04 #@! TO.C,C109*
X78635800Y21488399D03*
X77675800Y21488399D03*
G04 #@! TD*
D38*
G04 #@! TO.C,RV201*
X66484800Y46220999D03*
X68884800Y53720999D03*
G04 #@! TD*
D39*
G04 #@! TO.C,MH102*
X97332800Y39801799D03*
G04 #@! TD*
D30*
G04 #@! TO.C,R101*
X80414399Y4907602D03*
X81434399Y4907602D03*
G04 #@! TD*
D40*
G04 #@! TO.C,R109*
X73581200Y14334199D03*
X73581200Y15354199D03*
G04 #@! TD*
D20*
G04 #@! TO.C,K202*
X82092800Y42468799D03*
D21*
X79552800Y42468799D03*
X71932800Y42468799D03*
X71932800Y37388799D03*
X79552800Y37388799D03*
X82092800Y37388799D03*
G04 #@! TD*
D41*
G04 #@! TO.C,L101*
X49784000Y4546699D03*
X49784000Y2971699D03*
G04 #@! TD*
D42*
G04 #@! TO.C,D103*
X49806400Y7619999D03*
X52606400Y7619999D03*
G04 #@! TD*
D39*
G04 #@! TO.C,MH101*
X2590800Y55829199D03*
G04 #@! TD*
D43*
G04 #@! TO.C,C202*
X93605500Y46207099D03*
X95155500Y46207099D03*
G04 #@! TD*
D44*
G04 #@! TO.C,C209*
X84937601Y32778399D03*
X84937601Y34328399D03*
G04 #@! TD*
D30*
G04 #@! TO.C,R215*
X88648600Y27650399D03*
X89668600Y27650399D03*
G04 #@! TD*
D33*
G04 #@! TO.C,R206*
X35788600Y27099899D03*
X35788600Y25274899D03*
G04 #@! TD*
D45*
G04 #@! TO.C,D106*
X94894400Y44650900D03*
X94894400Y42775898D03*
G04 #@! TD*
D26*
G04 #@! TO.C,D202*
X89204799Y42442399D03*
X89204799Y39142399D03*
G04 #@! TD*
D46*
G04 #@! TO.C,C201*
X93840800Y48086699D03*
X96545800Y48086699D03*
G04 #@! TD*
D44*
G04 #@! TO.C,C104*
X53441600Y2984199D03*
X53441600Y4534199D03*
G04 #@! TD*
D31*
G04 #@! TO.C,C111*
X73535600Y13421799D03*
X74495600Y13421799D03*
G04 #@! TD*
D22*
G04 #@! TO.C,C204*
X86918799Y40557500D03*
X86918799Y43262500D03*
G04 #@! TD*
D47*
G04 #@! TO.C,D104*
X70617600Y10363199D03*
X71317600Y10363199D03*
G04 #@! TD*
D36*
G04 #@! TO.C,D102*
X80444100Y7447599D03*
X82319100Y7447599D03*
G04 #@! TD*
D48*
G04 #@! TO.C,R201*
X21590000Y2237099D03*
X21590000Y4062099D03*
G04 #@! TD*
D22*
G04 #@! TO.C,C105*
X64211200Y5556299D03*
X64211200Y8261299D03*
G04 #@! TD*
D49*
G04 #@! TO.C,D203*
X34343800Y11302999D03*
X31543800Y11302999D03*
G04 #@! TD*
D50*
G04 #@! TO.C,J104*
X74726800Y22758399D03*
X74726800Y18858399D03*
X73456800Y22758399D03*
X73456800Y18858399D03*
X72186800Y22758399D03*
X72186800Y18858399D03*
X70916800Y22758399D03*
X70916800Y18858399D03*
X69646800Y22758399D03*
X69646800Y18858399D03*
G04 #@! TD*
D51*
G04 #@! TO.C,R106*
X97690400Y26009599D03*
X96670400Y26009599D03*
G04 #@! TD*
D33*
G04 #@! TO.C,R214*
X29032200Y15771499D03*
X29032200Y13946499D03*
G04 #@! TD*
D52*
G04 #@! TO.C,Q202*
X85577600Y36423599D03*
X87477600Y36423599D03*
X86527600Y38298599D03*
G04 #@! TD*
G04 #@! TO.C,Q203*
X85460800Y27233398D03*
X87360800Y27233398D03*
X86410800Y29108398D03*
G04 #@! TD*
D38*
G04 #@! TO.C,RV101*
X24568000Y39563999D03*
X22168000Y32063999D03*
G04 #@! TD*
D53*
G04 #@! TO.C,U101*
X55524400Y7343199D03*
X55524400Y5043199D03*
D54*
X61824400Y5043199D03*
D53*
X55524400Y2743199D03*
G04 #@! TD*
D33*
G04 #@! TO.C,R213*
X34112200Y15771499D03*
X34112200Y13946499D03*
G04 #@! TD*
D51*
G04 #@! TO.C,R105*
X75897199Y11328399D03*
X74877199Y11328399D03*
G04 #@! TD*
D40*
G04 #@! TO.C,R205*
X96774000Y54078080D03*
X96774000Y55098080D03*
G04 #@! TD*
D30*
G04 #@! TO.C,R210*
X88745599Y37795200D03*
X89765599Y37795200D03*
G04 #@! TD*
D55*
G04 #@! TO.C,C206*
X34442400Y6566199D03*
X34442400Y5016199D03*
G04 #@! TD*
D56*
G04 #@! TO.C,C207*
X31572200Y15783599D03*
X31572200Y13883599D03*
G04 #@! TD*
D42*
G04 #@! TO.C,D201*
X93691699Y50374697D03*
X96491699Y50374697D03*
G04 #@! TD*
D40*
G04 #@! TO.C,R108*
X72616000Y14334199D03*
X72616000Y15354199D03*
G04 #@! TD*
D57*
G04 #@! TO.C,J101*
X14626600Y51968399D03*
D58*
X9626600Y51968399D03*
D59*
X14626600Y46968399D03*
X9626600Y46968399D03*
X14626600Y41968399D03*
X9626600Y41968399D03*
X14626600Y36968399D03*
X9626600Y36968399D03*
X14626600Y31968399D03*
X9626600Y31968399D03*
X14626600Y26968399D03*
X9626600Y26968399D03*
X14626600Y21968399D03*
X9626600Y21968399D03*
X14626600Y16968399D03*
X9626600Y16968399D03*
G04 #@! TD*
D30*
G04 #@! TO.C,R209*
X88745599Y36764000D03*
X89765599Y36764000D03*
G04 #@! TD*
D60*
G04 #@! TO.C,R202*
X26416000Y5701799D03*
X26416000Y4051799D03*
G04 #@! TD*
D61*
G04 #@! TO.C,U201*
X32946600Y7213599D03*
X31946600Y7213599D03*
X30946600Y7213599D03*
X29946600Y7213599D03*
X28946600Y7213599D03*
X28946600Y2113599D03*
X29946600Y2113599D03*
X30946600Y2113599D03*
X31946600Y2113599D03*
X32946600Y2113599D03*
G04 #@! TD*
D22*
G04 #@! TO.C,C103*
X51612800Y2762299D03*
X51612800Y5467299D03*
G04 #@! TD*
D44*
G04 #@! TO.C,C205*
X85039199Y41947800D03*
X85039199Y43497800D03*
G04 #@! TD*
D62*
G04 #@! TO.C,J103*
X70166001Y6451600D03*
X75946001Y6451600D03*
D63*
X69856001Y7571600D03*
X70656001Y7571600D03*
D64*
X71806001Y7571600D03*
X72806001Y7571600D03*
X73306001Y7571600D03*
X74306001Y7571600D03*
D63*
X75456001Y7571600D03*
X76256001Y7571600D03*
X76256001Y7571600D03*
X75456001Y7571600D03*
D64*
X74806001Y7571600D03*
X73806001Y7571600D03*
X72306001Y7571600D03*
X71306001Y7571600D03*
D63*
X70656001Y7571600D03*
X69856001Y7571600D03*
D65*
X68736001Y6971600D03*
D66*
X68736001Y2771600D03*
D65*
X77376001Y6971600D03*
D66*
X77376001Y2771600D03*
G04 #@! TD*
D67*
G04 #@! TO.C,R211*
X32992700Y20954999D03*
X31167700Y20954999D03*
G04 #@! TD*
D23*
G04 #@! TO.C,R203*
X96774001Y53167681D03*
X96774001Y52147681D03*
G04 #@! TD*
D51*
G04 #@! TO.C,R103*
X78686401Y22478999D03*
X77666401Y22478999D03*
G04 #@! TD*
D30*
G04 #@! TO.C,R102*
X80414399Y5923600D03*
X81434399Y5923600D03*
G04 #@! TD*
D33*
G04 #@! TO.C,R207*
X35788600Y22629499D03*
X35788600Y20804499D03*
G04 #@! TD*
D68*
G04 #@! TO.C,C107*
X78499000Y24764999D03*
X76949000Y24764999D03*
G04 #@! TD*
D40*
G04 #@! TO.C,R110*
X93395800Y43965400D03*
X93395800Y44985398D03*
G04 #@! TD*
D69*
G04 #@! TO.C,U103*
X80239200Y23571199D03*
X80239200Y22071199D03*
X80239200Y20571199D03*
X80239200Y19071199D03*
X80239200Y17571199D03*
X80239200Y16071199D03*
X80239200Y14571199D03*
X80239200Y13071199D03*
X80239200Y11571199D03*
X97739200Y11571199D03*
X97739200Y13071199D03*
X97739200Y14571199D03*
X97739200Y16071199D03*
X97739200Y17571199D03*
X97739200Y19071199D03*
X97739200Y20571199D03*
X97739200Y22071199D03*
X97739200Y23571199D03*
D70*
X88849200Y17921199D03*
X88849200Y16821199D03*
X89399200Y18471199D03*
X89399200Y17371199D03*
X89399200Y16271199D03*
X89949200Y17921199D03*
D71*
X89949200Y17371199D03*
D70*
X89949200Y16821199D03*
X90499200Y18471199D03*
X90499200Y17371199D03*
X90499200Y16271199D03*
X91049200Y17921199D03*
X91049200Y16821199D03*
G04 #@! TD*
D72*
G04 #@! TO.C,D105*
X75488801Y10363200D03*
X74788801Y10363200D03*
G04 #@! TD*
D44*
G04 #@! TO.C,C203*
X23335999Y4101799D03*
X23335999Y5651799D03*
G04 #@! TD*
D73*
G04 #@! TO.C,Q201*
X95454498Y54535698D03*
X93554498Y54535698D03*
X94504498Y52660698D03*
G04 #@! TD*
D32*
G04 #@! TO.C,C101*
X92608400Y9123999D03*
X92608400Y8163999D03*
G04 #@! TD*
D39*
G04 #@! TO.C,MH103*
X67741800Y27889199D03*
G04 #@! TD*
D74*
G04 #@! TO.C,K201*
X90358200Y54274299D03*
D75*
X80198200Y54274299D03*
X72578200Y54274299D03*
X75118200Y46654299D03*
X90358200Y46654299D03*
G04 #@! TD*
D37*
G04 #@! TO.C,C110*
X72638800Y13421799D03*
X71678800Y13421799D03*
G04 #@! TD*
D76*
G04 #@! TO.C,R204*
X24859999Y4051798D03*
X24859999Y5701798D03*
G04 #@! TD*
D77*
G04 #@! TO.C,F101*
X32664400Y30835599D03*
D78*
X32664400Y54965599D03*
G04 #@! TD*
D67*
G04 #@! TO.C,R208*
X28268300Y20954999D03*
X26443300Y20954999D03*
G04 #@! TD*
D79*
G04 #@! TO.C,JP101*
X43789600Y6024399D03*
D80*
X43789600Y4724399D03*
D81*
X43789600Y3424399D03*
G04 #@! TD*
D55*
G04 #@! TO.C,C106*
X64211200Y3606799D03*
X64211200Y2056799D03*
G04 #@! TD*
D39*
G04 #@! TO.C,MH104*
X17475200Y8915399D03*
G04 #@! TD*
%LPD*%
M02*
